<svg width="700" height="724" viewBox="0 0 700 724" fill="none" xmlns="http://www.w3.org/2000/svg">
<path d="M169.425 255.724C171.622 252.574 176.527 248.619 179.749 248.545C182.165 248.545 185.899 250.743 187.363 251.622C188.901 252.501 190.878 254.552 192.269 256.237C193.879 258.142 196.003 259.9 196.662 261.365C198.199 264.661 197.98 269.057 198.492 273.232C198.639 274.917 199.371 276.455 199.517 278.067C200.03 284.074 198.419 290.3 198.199 296.234C197.833 299.457 197.98 304.731 195.051 308.98C194.904 309.127 194.831 309.273 194.685 309.42C194.685 309.566 194.465 309.786 194.465 309.933C194.465 309.933 194.441 309.933 194.392 309.933C193.806 310.665 193.147 311.471 192.269 311.984C190.219 313.229 185.899 314.255 183.556 313.742C182.092 313.449 180.993 312.57 179.163 311.471C177.625 310.519 175.795 310.226 174.55 309.42C173.232 308.614 172.354 306.27 170.743 304.219C169.132 302.314 167.814 301.215 166.862 299.091C161.298 287.004 162.689 265.321 169.425 255.651M233.197 212.138C232.904 208.842 231.147 204.446 229.316 201.589C227.706 199.026 222.654 193.898 219.579 193.385C210.426 191.773 209.768 200.637 206.985 205.692C204.862 209.647 200.908 211.625 198.492 214.995C194.465 220.855 192.122 229.792 193.879 239.682C194.246 241.953 195.563 244.37 196.222 246.861C196.881 249.498 197.101 252.428 198.272 254.626C200.396 258.655 205.448 261.365 210.353 261.585C211.818 261.658 213.282 261.145 214.746 260.925C214.82 260.852 214.966 260.779 215.039 260.779C217.089 260.559 221.555 258.069 222.654 256.457C222.654 256.31 222.727 256.237 222.873 256.091C224.191 253.893 226.168 252.062 227.047 249.205C227.852 246.714 227.999 243.564 229.097 240.194C230.122 237.045 230.341 233.895 230.927 230.745C231.44 227.668 232.904 225.251 233.051 222.54C233.051 220.929 232.684 219.097 232.758 217.339C232.758 215.581 233.417 213.75 233.27 212.211M154.123 192.433C146.581 193.751 145.556 201.736 143.36 208.622C142.335 211.992 140.285 215.068 139.845 217.925C138.967 222.027 138.381 226.642 138.747 230.012C139.479 237.118 143.653 240.561 146.947 244.736C149.73 248.179 152.073 250.816 157.784 249.351C160.2 248.765 166.057 243.418 167.009 241.147C167.887 238.876 167.668 235.067 168.327 231.55C168.766 228.987 170.084 226.569 170.596 223.859C172.354 215.508 170.596 207.01 168.327 202.029C165.837 196.828 161.152 191.407 154.123 192.506M216.064 113.318C217.455 114.344 218.627 115.662 220.164 115.882C225.802 116.541 231.147 108.923 233.563 105.04C234.588 103.209 236.052 101.671 236.858 100.132C238.542 96.9824 238.469 95.2243 239.494 91.6348C240.299 88.6314 241.837 85.8477 242.056 82.6245C242.569 75.0061 242.276 69.6585 236.199 70.0248C232.099 70.3178 231.586 72.5887 228.218 74.6398C227.047 75.4456 225.436 75.6654 224.118 76.3979C223.093 77.0572 222.214 78.2293 221.043 78.9618C219.871 79.6944 218.407 80.2072 217.455 81.0862C216.577 81.8187 215.698 83.5036 214.38 84.6756C213.136 85.8477 211.671 86.7268 210.793 87.7523C207.937 91.122 205.741 98.887 207.132 103.942C208.45 108.264 212.843 110.754 216.137 113.172M196.662 182.031C197.833 183.789 198.565 185.547 199.737 186.426C204.057 189.796 210.134 188.55 213.648 184.668C214.746 183.349 215.332 181.152 216.723 179.54C218.48 177.416 221.263 176.097 222.654 173.899C223.166 173.02 223.679 171.262 224.411 169.284C225.07 167.599 226.168 166.061 226.461 164.889C227.413 160.787 227.12 153.754 226.974 149.213C226.681 141.96 226.315 133.683 218.407 135.368C218.261 135.368 218.114 135.294 217.895 135.368C212.257 137.272 208.669 141.374 204.569 145.33C202.299 147.601 199.005 150.531 197.906 152.289C197.247 153.388 196.881 155.073 196.076 156.392C193.806 160.567 191.39 167.233 192.269 173.68C192.781 177.416 194.831 179.393 196.662 182.104M259.116 37.6464C260.068 37.2801 261.166 37.2069 261.898 36.8406C264.461 35.5953 266.218 31.9326 268.414 29.1489C269.513 27.6838 271.27 26.585 272.222 24.9734C272.954 23.8014 273.32 22.1898 274.052 20.8712C274.857 19.3328 275.956 18.3073 276.395 17.062C277.127 14.2783 276.395 11.5679 274.345 9.66329C273.32 8.63773 272.002 8.27145 270.684 8.05169C269.513 7.97843 268.341 8.05169 267.096 8.05169C263.436 8.3447 259.848 9.51677 256.846 11.7144C254.064 13.7655 253.917 16.2561 252.233 18.9666C250.183 22.1165 247.914 23.8746 246.742 27.6838C245.717 30.8338 245.278 34.4965 243.081 37.1336C244.472 38.7452 246.376 39.844 248.206 40.2103C252.526 41.2359 256.187 38.8185 259.262 37.6464M26.4324 269.276C27.311 270.742 27.5306 272.866 28.995 273.159C31.9236 273.672 35.3649 266.2 34.9256 260.559C34.4862 255.431 31.8504 250.011 31.0451 246.128C30.0932 241.806 29.6539 239.901 26.1395 240.781C25.0413 241.074 23.7234 242.099 23.0644 243.051C20.1357 248.033 19.3304 258.215 22.0394 264.442C22.7716 266.053 25.1145 267.225 26.4324 269.35M145.996 86.1407C148.265 88.4849 151.56 88.7046 154.416 87.3128C156.612 86.214 157.564 83.7233 159.541 81.3792C162.835 77.57 167.595 74.8596 168.839 71.5631C170.963 66.0691 169.425 56.0332 164.153 55.0809C164.08 55.0809 162.616 56.546 162.469 56.6193C161.884 57.1321 161.298 57.4983 160.566 57.7913C159.175 58.5239 157.784 59.1832 156.539 60.0622C155.367 60.868 154.342 62.1133 153.244 63.0656C152.073 64.0912 150.755 64.9702 149.583 66.0691C147.167 68.5597 145.117 71.9294 144.165 75.2991C143.653 77.2037 144.019 79.2548 144.165 81.2327C144.312 83.064 144.678 84.6756 145.922 86.0675M22.7715 375.788C22.4055 368.316 15.6695 363.701 13.2534 358.28C10.3247 357.401 10.2514 354.471 7.32277 354.471C5.12626 354.471 4.028 357.182 3.22261 358.134C2.41723 359.086 0.952908 360.331 0.44039 362.016C-1.75612 368.756 5.12627 372.199 2.27081 378.499C4.32089 380.696 6.22452 383.48 9.95858 384.579C13.473 385.677 19.0375 385.458 20.9411 383.333C22.5519 381.575 22.8448 378.206 22.7715 375.935M42.833 481.86C41.4418 480.102 41.0758 478.491 39.6847 476.952C38.44 475.56 36.2435 474.462 34.6327 472.85C32.9487 471.165 31.9237 469.114 30.4593 467.649C29.2146 466.477 25.5538 463.986 23.7966 464.353C21.6733 464.792 15.7427 470.799 15.8159 473.07C15.8891 475.194 18.7446 476.513 19.1839 479.223C19.4036 480.395 18.9643 481.86 19.1839 482.813C19.6232 484.131 21.1608 484.644 22.6251 485.889C25.627 488.673 30.1665 493.288 32.8755 495.193C39.3186 499.588 48.251 495.705 46.201 486.402C45.8349 484.717 44.1509 483.325 42.9062 481.787M66.8481 166.208C69.0446 167.746 74.3162 170.31 77.3913 170.163C80.979 169.797 83.4684 165.768 85.0791 162.911C85.7381 161.739 86.8363 160.421 87.2024 159.322C87.9346 156.758 86.9828 153.828 87.2024 150.824C87.2024 149.725 87.5685 148.627 87.7149 147.455C88.0078 142.84 86.9828 138.005 84.4202 134.049C83.3951 132.437 82.2237 131.778 81.0522 131.705C79.0753 131.558 76.9521 133.17 75.1216 135.148C69.5572 141.081 65.3838 148.773 65.8231 157.124C65.8963 158.443 65.8963 165.622 66.9213 166.208M108.801 288.103C109.241 290.081 110.339 291.912 110.632 293.524C110.851 294.842 110.851 297.479 111.144 298.944C111.51 300.263 112.609 301.728 113.487 303.559C114.293 305.318 114.586 307.369 115.245 308.98C115.977 310.885 120.516 316.525 121.468 316.965C124.689 318.43 129.961 317.111 132.304 315.939C135.16 314.328 138.161 310.445 138.967 307.662C139.406 306.343 139.772 303.999 139.553 301.801C139.04 297.333 137.869 291.766 136.477 287.15C135.745 284.953 134.208 280.997 133.109 278.946C132.231 277.334 129.595 275.503 128.936 274.258C127.545 271.474 127.032 268.397 124.397 266.273C122.566 264.954 118.759 263.343 116.123 264.002C114.732 264.295 113.487 265.394 112.023 266.273C107.776 269.13 107.557 271.987 108.216 278.36C108.509 281.583 108.289 285.392 108.948 288.103M145.41 170.603C147.753 168.918 150.535 166.94 152.073 164.962C153.098 163.79 154.562 161.886 155.441 160.274C155.953 159.468 155.953 158.076 156.466 157.051C157.198 155.513 158.516 154.487 159.028 153.168C161.957 144.964 163.934 132.071 157.417 126.431C151.487 126.577 145.703 128.042 142.481 131.265C140.211 133.756 139.699 137.785 138.088 141.594C137.502 143.059 136.331 144.231 135.745 145.477C132.158 154.121 132.89 165.182 136.258 172.727C139.333 173.973 142.701 172.508 145.19 170.749M112.389 351.248C109.68 350.149 104.701 348.464 102.358 348.904C97.7457 349.856 98.3314 353.079 98.551 357.401C98.7707 363.335 99.1368 369.268 100.308 374.909C101.333 379.817 103.457 386.117 105.433 389.78C107.703 393.955 114.659 397.398 121.102 395.201C122.42 394.761 123.372 393.589 124.763 392.637C126.154 391.538 127.984 391.025 128.79 390.366C130.181 389.267 133.402 384.652 133.695 383.187C134.208 380.696 133.695 377.619 132.963 374.177C131.572 368.536 126.081 361.284 122.42 357.694C120.37 355.716 116.27 352.933 112.389 351.248ZM80.5397 222.687C78.4164 228.108 78.7093 236.898 80.8326 241.66C83.0291 246.934 89.9114 254.772 97.526 249.351C100.967 246.934 101.114 237.777 102.139 231.917C102.651 228.987 104.555 226.203 104.701 223.126C105.067 219.39 104.335 213.603 102.651 211.552C101.04 209.574 94.9634 208.182 92.1812 208.768C88.1542 209.574 82.663 217.119 80.6129 222.687M566.114 182.25C567.432 183.276 568.604 184.814 570.141 185.62C571.825 186.426 574.241 186.572 576.584 187.671C578.561 188.55 580.172 190.821 581.783 190.748C584.272 190.748 585.59 186.865 589.47 188.697C591.521 187.232 593.937 185.18 594.888 183.349C597.671 178.002 592.399 175.145 588.519 172.215C585.443 170.017 582.515 168.186 579.806 166.281C577.975 165.036 576.291 162.691 574.607 161.959C573.582 161.519 570.8 161.739 567.945 160.933C564.503 160.054 562.819 158.443 559.744 158.882C551.471 160.054 555.644 170.31 558.134 174.559C560.696 178.881 561.868 179.32 566.188 182.25M59.3068 338.135C60.6247 340.113 61.3569 342.531 62.6748 343.043C65.0909 344.069 70.8751 342.897 72.7055 342.091C76.2199 340.187 80.4665 331.25 79.8075 325.536C79.5147 322.386 76.3663 319.163 74.6823 315.28C74.0966 313.962 74.0234 312.203 73.3644 311.105C70.5822 305.611 62.4551 302.241 56.9638 303.706C50.5207 305.318 52.7173 313.742 53.1566 319.456C53.3762 324.364 53.5226 329.345 55.4263 333.301C56.3781 335.132 57.9156 336.231 59.3068 338.209M540.415 242.246C541.587 243.784 542.392 245.615 543.49 246.568C545.101 247.959 547.444 249.132 549.933 250.523C552.13 251.695 554.4 253.6 556.376 254.333C561.502 256.384 567.505 255.724 572.85 257.189C574.461 255.505 577.975 255.212 580.099 255.944C580.684 251.842 584.199 248.619 582.661 243.271C582.295 241.733 580.172 240.121 579 238.436C577.829 236.532 576.95 234.334 575.486 232.283C574.168 230.452 572.484 228.767 571.093 226.935C566.92 220.929 563.991 215.947 557.548 214.262C547.956 211.772 540.342 216.24 535.876 222.247C534.558 224.005 531.776 228.767 531.776 231.55C531.995 236.312 537.706 238.803 540.562 242.319M513.105 160.128C511.128 159.322 509.005 158.809 506.882 158.223C503.733 157.271 496.046 155.952 492.971 156.099C486.161 156.538 477.229 160.201 475.252 164.596C473.568 168.552 474.886 176.17 477.083 179.54C477.668 180.419 478.986 181.298 479.865 182.324C483.379 186.133 485.21 186.572 492.238 186.939C495.753 187.232 499.56 188.184 502.269 188.257C504.026 188.33 505.564 187.891 506.882 188.037C508.785 188.184 510.835 189.283 513.032 189.063C515.155 188.917 517.059 187.085 519.475 186.499C521.964 185.986 525.186 186.353 527.895 185.474C529.872 184.961 531.922 182.763 533.02 181.078C533.679 180.053 533.972 178.661 534.045 177.416C534.192 175.071 532.801 173.24 531.409 171.482C529.067 168.405 525.552 165.841 522.257 164.01C519.402 162.398 516.107 161.3 513.105 160.201M585.224 107.897C587.274 108.557 588.153 110.095 589.91 110.241C594.303 110.608 598.476 107.238 598.623 104.088C598.769 102.403 597.89 100.865 596.792 99.18C594.815 95.9568 592.985 93.6859 590.422 91.708C585.151 92.4406 580.172 86.3605 575.486 88.6314C569.336 91.7081 563.478 98.0812 569.043 105.114C572.484 107.897 580.172 106.212 585.224 107.971M644.164 196.242C645.481 198.806 647.678 198.879 650.314 200.344C651.632 201.003 652.657 201.809 653.901 202.175C654.926 202.468 656.171 202.322 656.976 202.688C658.148 203.128 658.66 204.08 659.539 204.007C661.223 203.787 662.541 201.589 662.907 199.612C664.078 193.238 660.564 185.107 655.951 183.129C654.78 182.69 653.828 183.129 652.364 182.617C650.46 182.031 648.923 180.639 646.726 180.346C642.846 179.906 640.137 181.078 637.94 185.18C637.354 191.627 638.745 195.876 644.164 196.315M648.19 347.219C645.481 341.212 642.699 335.425 636.11 334.912C635.817 335.059 635.524 335.352 635.377 335.645C634.865 340.773 629.667 340.992 626.884 343.849C625.2 345.754 623.37 349.05 624.102 352.567C624.981 356.449 630.838 359.526 633.62 362.09C637.501 365.826 640.356 370.514 643.578 373.664C649.874 374.47 653.096 369.708 653.096 364.873C653.096 361.723 651.998 359.892 651.266 357.182C650.68 354.764 650.68 352.054 649.948 350.222C649.581 349.27 648.63 348.245 648.117 347.146M494.947 95.9568C492.824 96.1766 490.994 96.5428 489.822 97.2021C486.454 99.2532 482.793 105.407 484.697 111.34C485.356 113.684 489.969 118.08 493.629 118.812C496.119 119.252 498.974 118.959 501.61 119.618C504.173 120.131 506.735 121.23 508.859 121.156C513.911 120.937 521.159 117.64 522.697 113.904C523.575 111.926 523.575 107.677 522.184 105.919C521.379 104.894 519.988 105.04 517.791 103.942C514.057 101.964 509.664 97.8614 505.71 96.5428C503.001 95.5173 497.217 95.737 494.874 96.0301M271.05 117.567C269.805 118.959 267.975 119.838 266.657 121.23C265.705 122.255 264.9 124.013 263.582 125.552C262.264 127.163 260.507 128.335 259.994 129.434C258.018 133.243 258.164 137.785 259.994 140.788C261.605 143.499 267.755 147.821 270.464 148.993C280.861 153.681 287.963 144.305 293.381 139.25C296.676 136.173 298.067 134.342 300.557 130.972C303.558 126.87 303.778 125.552 305.389 120.131C305.975 118.446 306.853 115.589 306.78 113.758C306.194 107.824 300.117 104.894 294.406 104.967C290.086 105.04 289.061 105.7 286.206 107.091C283.058 108.557 280.934 109.509 278.225 110.901C276.615 111.706 274.857 112.512 274.125 113.245C273.027 114.197 272.368 116.175 271.05 117.567ZM302.68 80.6467C305.535 82.5513 311.246 85.3349 315.493 84.7489C317.909 84.3094 322.082 80.5734 323.913 78.8153C325.011 77.863 326.256 76.984 327.061 76.2514C328.086 75.1526 328.525 73.3945 329.55 72.4422C331.015 71.1236 332.626 70.8306 333.431 69.9515C334.822 68.2667 335.554 65.2633 336.799 62.1866C337.385 60.575 338.556 59.6227 338.849 58.3041C340.094 53.3961 337.897 50.3194 334.822 50.6124C329.624 51.1252 326.402 53.7623 322.375 55.5205C320.398 56.3262 318.275 57.132 316.298 58.0111C309.05 61.5273 305.535 63.7982 301.142 69.1457C299.458 71.1969 297.701 72.955 298.067 75.2991C298.287 77.277 301.289 79.6944 302.68 80.7199M274.638 160.347C268.341 161.226 268.195 163.131 263.802 166.061C262.703 166.867 261.239 167.38 260.214 168.112C258.53 169.358 257.212 171.189 255.382 172.434C253.332 173.753 251.135 174.852 249.744 176.097C248.28 177.342 247.328 179.174 245.937 180.712C242.935 183.935 242.276 185.767 240.958 190.235C240.153 193.019 239.128 195.509 238.908 198.44C238.615 202.322 238.615 208.402 238.908 212.065C239.347 217.412 244.253 222.101 249.964 222.906C254.576 223.566 256.626 221.515 259.775 220.123C261.019 219.537 262.777 219.244 263.582 218.804C264.753 218.145 266.218 216.314 268.195 214.995C269.732 213.969 271.563 212.504 272.807 211.186C273.832 210.087 274.418 208.329 275.663 207.01C276.761 205.765 278.299 204.886 279.25 203.641C281.227 201.077 281.593 198.44 283.058 195.509C283.936 193.825 285.401 192.652 285.913 191.114C288.183 185.254 290.453 175.145 287.451 168.772C285.767 165.255 279.836 159.761 274.638 160.494M483.599 46.8764C485.502 46.8032 487.552 47.1695 489.456 46.8764C491.287 46.5102 492.751 45.2649 494.362 45.0451C496.119 44.8253 497.51 45.5579 498.974 45.2648C503.66 44.459 506.369 38.5255 503.587 33.6907C498.828 33.9104 493.776 30.6873 488.211 30.8338C480.67 31.0535 476.57 34.5697 472.543 37.7197C469.834 39.9173 467.784 43.1405 470.2 45.9974C473.422 47.8288 478.474 47.0229 483.599 46.7299M335.481 132.364C338.849 137.932 350.417 137.272 357.373 134.635C358.618 134.122 359.716 133.097 360.961 132.364C362.132 131.632 363.743 131.339 365.061 130.606C366.086 130.02 366.818 128.848 367.916 128.042C368.941 127.31 370.259 126.724 371.211 126.064C372.602 124.966 373.627 123.5 375.091 122.402C377.361 120.79 379.265 119.545 381.242 117.787C382.486 116.761 383.951 115.955 384.61 115.296C389.222 109.948 389.222 98.8137 380.217 99.8393C377.581 100.206 374.725 101.231 371.723 101.89C368.721 102.623 365.427 102.843 362.498 103.429C356.055 104.894 350.344 107.677 346.024 110.901C342.949 113.172 341.412 114.637 339.069 117.567C336.213 121.083 332.552 127.529 335.481 132.437M361.693 25.4862C364.695 26.5118 368.136 25.1932 371.431 24.9734C373.407 24.9002 375.384 25.3397 376.849 24.9734C378.386 24.7537 379.484 23.2153 381.022 22.4095C384.463 20.5782 387.319 19.2596 391.272 18.8201C394.421 15.5969 399.546 6.80635 394.86 1.82506C392.81 -0.372573 386.879 -0.152803 382.779 0.286723C376.556 0.946011 367.257 4.09594 362.498 8.78422C360.082 11.1284 356.86 15.7434 357.373 19.6258C357.666 22.0432 359.716 24.8269 361.766 25.4862M396.178 78.742C396.764 83.2838 403.207 88.5581 407.453 88.7779C409.869 88.9244 414.482 86.8733 417.484 85.7012C420.705 84.3826 424.44 82.9176 426.49 81.599C427.881 80.7199 431.029 77.9362 431.908 76.9107C433.738 74.7131 437.765 68.7795 436.52 63.5784C435.276 58.3774 427.295 55.7402 421.877 56.3995H421.364C418.216 59.2564 412.725 58.5239 408.478 60.282C406.794 60.9413 404.964 62.4796 403.06 63.3587C401.523 64.0912 399.692 64.311 398.667 65.19C396.178 67.5341 395.446 74.0538 396.105 78.8153M588.299 601.704C586.029 601.484 583.393 601.484 581.417 602.876C578.781 604.854 575.193 614.451 574.022 618.846C572.997 622.582 576.145 624.56 575.852 627.123C577.39 628.442 579.367 629.614 581.783 628.955C583.613 628.296 588.445 623.461 590.715 619.945C593.497 615.696 594.742 610.055 592.619 605.367C591.667 603.243 590.642 601.924 588.372 601.778M88.0078 436.076C88.9596 432.487 86.0309 428.385 84.9327 426.114C84.3469 424.722 84.1273 423.403 83.6148 422.451C81.4183 418.129 77.6842 414.686 74.3895 411.17C70.8018 407.214 68.5321 406.262 64.2855 403.405C61.6497 401.647 59.5264 399.596 56.3781 400.548C51.1065 402.233 53.3762 418.495 55.1334 422.671C55.7924 424.502 57.4031 425.601 57.9157 427.066C58.5014 428.604 59.0139 432.047 59.6729 432.926C60.3318 433.732 62.089 434.831 63.5534 436.003C64.798 437.102 66.3356 438.421 67.5803 439.08C73.8769 442.596 86.031 443.255 87.8614 436.003M549.714 419.081C549.055 421.499 547.81 424.063 546.931 426.48C546.053 428.897 545.247 431.974 544.076 433.659C542.538 436.003 535.217 440.911 531.043 441.204C527.749 441.351 524.82 439.007 521.232 440.179C518.743 445.453 523.356 449.555 523.575 455.855C523.795 459.811 523.795 466.477 522.55 470.286C521.745 472.923 518.45 476.366 517.205 478.491C515.668 481.201 513.544 485.523 512.007 488.6C510.323 492.043 507.76 496.291 504.392 496.804C501.757 497.17 498.389 495.412 495.826 493.947C493.263 492.555 490.188 490.944 488.87 489.039C487.699 487.208 487.406 484.351 486.381 480.835C484.843 475.853 484.477 473.509 484.038 467.429C483.672 461.496 483.379 449.995 474.813 455.049C471.738 456.881 471.372 461.276 470.2 465.598C468.37 472.337 463.244 477.392 462.219 482.666C477.156 483.106 488.724 486.402 487.479 500.101C487.04 504.13 485.576 509.77 484.038 514.019C481.109 522.736 471.738 529.183 463.977 534.091C459.73 536.728 456.801 542.588 450.139 540.244C447.869 539.438 446.624 537.241 444.794 535.336C443.037 533.578 440.987 531.746 440.694 529.183C440.401 527.571 441.206 525.593 441.426 523.762C442.085 519.147 442.597 515.85 444.281 512.188C445.087 510.649 446.624 509.477 447.356 507.866C448.235 506.107 448.235 504.13 448.967 502.445C451.457 496.658 457.168 492.995 457.973 485.23C452.701 482.886 446.844 484.864 442.524 486.036C439.522 486.842 435.861 488.893 433.518 490.724C431.834 491.896 431.249 494.094 429.638 495.559C427.295 497.756 424.073 499.881 421.438 502.518C417.484 506.62 414.702 510.136 408.259 510.796C405.184 511.016 400.79 511.455 398.008 511.016C395.519 510.649 393.469 508.745 390.833 508.745C386.22 508.671 382.779 512.407 379.558 514.458C375.091 517.242 369.38 519.44 367.257 524.494C368.063 526.545 370.479 526.326 371.797 527.278C375.97 530.135 378.533 537.9 376.409 546.031C376.116 547.35 374.872 548.815 374.286 550.207C373.407 552.844 373.261 555.481 372.236 556.873C370.991 558.851 367.623 561.195 364.841 563.319C361.839 565.59 358.178 566.176 354.883 567.128C353.053 567.641 351.442 568.886 349.685 569.472C347.708 570.058 345.731 570.205 343.754 570.718C341.119 571.377 338.41 572.403 335.774 573.062C332.992 573.721 329.843 575.552 327.354 575.333C324.572 575.113 320.179 571.817 319.08 570.205C316.005 565.517 317.982 557.092 315.273 551.965C308.537 550.719 306.414 555.554 301.582 558.118C294.626 561.781 281.227 560.975 273.1 559.437C269.293 558.631 261.825 554.235 259.994 550.646C259.262 549.108 258.603 546.397 258.969 544.2C259.262 542.149 261.019 540.537 262.044 538.559C264.168 534.384 265.12 530.281 267.975 526.985C268.707 526.106 270.245 525.52 271.563 524.421C274.198 522.15 278.445 517.901 281.52 516.656C284.595 515.484 289.794 514.751 294.187 515.118C296.164 515.264 298.214 516.07 300.337 516.436C302.826 516.803 305.169 516.729 307 517.169C313.662 518.78 318.421 522.443 320.179 529.256C320.984 532.845 319.52 540.683 322.448 541.636C326.988 543.028 330.283 537.387 332.845 536.068C340.24 531.82 351.003 531.38 355.176 524.494C353.785 522.443 351.662 522.297 349.978 521.418C348.294 520.465 347.269 519.147 345.658 518.341C338.117 514.605 331.088 519.147 323.766 518.341C322.375 518.194 321.204 517.315 319.373 516.729C317.763 516.29 315.859 516.29 314.468 515.704C313.003 515.118 311.466 513.726 309.855 513.14C308.391 512.554 307 512.481 306.048 511.895C302.973 510.063 302.094 503.91 299.019 502.371C296.53 501.126 293.601 502.078 290.599 501.859C286.06 501.566 280.568 500.54 275.443 499.808C268.707 499.002 262.411 496.877 259.775 492.116C257.944 488.966 258.164 484.864 256.626 481.787C255.748 480.102 253.698 477.685 251.941 476.952C250.183 476.146 246.596 476.293 244.253 475.634C242.422 475.121 240.153 473.656 237.883 473.07C235.32 472.337 232.099 471.092 230.708 471.238C226.388 471.824 225.656 481.86 226.9 483.325C229.17 486.182 235.686 484.79 240.006 486.402C241.69 486.988 243.667 488.746 245.644 489.991C247.474 491.164 249.598 491.896 251.574 492.995C252.819 493.801 253.844 495.486 255.382 496.658C257.871 498.636 259.775 499.148 260.946 501.785C262.191 504.642 264.314 512.188 263.069 516.51C262.63 518.268 260.653 519.733 259.262 521.418C257.798 523.029 256.919 525.007 255.162 525.74C253.917 526.326 247.035 527.424 244.619 527.498C236.858 528.084 228.95 526.619 223.825 524.201C219.725 522.223 215.039 519.513 213.062 514.971C211.744 512.041 210.646 507.353 209.987 503.69C209.328 500.687 208.962 494.753 206.619 492.848C204.935 491.53 201.714 491.823 199.444 491.237C197.174 490.797 194.538 489.625 192.122 488.38C187.51 486.182 183.629 485.45 180.554 482.007C179.383 480.688 179.163 479.15 178.504 477.905C177.625 476.366 176.161 474.974 175.136 473.583C174.111 472.117 173.598 470.506 172.573 468.675C170.157 464.353 163.787 461.569 165.105 453.584C166.13 446.991 173.306 445.966 177.186 440.691C175.941 438.274 171.695 437.395 168.986 435.49C167.887 434.758 166.936 432.707 165.398 430.875C164.153 429.41 162.323 428.385 161.225 427.066C160.273 425.821 159.394 423.77 158.15 422.158C156.978 420.473 155.367 418.935 154.782 417.763C153.61 415.565 153.024 413.148 151.487 410.877C150.023 408.679 148.485 406.335 147.899 404.211C147.46 402.672 147.606 400.914 147.094 399.303C145.922 395.201 143.506 392.563 144.824 388.022C145.263 386.557 148.412 381.648 149.656 380.55C152.732 377.986 157.344 377.4 160.493 374.616C158.296 368.756 155.441 364.653 152.585 358.94C149.876 353.665 148.119 350.003 147.387 341.432C147.094 337.403 146.142 332.934 146.362 329.052C146.581 325.536 148.046 321.287 148.997 318.723C150.974 313.522 155.075 309.859 161.078 312.57C169.498 316.525 175.502 323.411 179.822 331.323C180.993 333.447 182.531 335.791 183.19 337.476C184.508 340.919 184.288 348.318 187.583 348.538C189.633 348.684 190.731 346.34 191.903 344.435C193.147 342.531 194.831 341.139 195.271 339.527C196.369 335.645 194.905 331.616 195.271 327.44C195.637 323.778 196.515 320.554 197.394 317.185C197.906 314.987 200.762 305.318 204.569 301.435C206.033 299.897 207.644 298.065 209.255 296.82C211.598 294.989 214.6 293.963 216.211 291.179C218.041 287.883 219.432 282.316 220.018 277.554C220.238 275.869 219.871 273.965 220.238 272.133C220.384 271.401 220.677 270.449 221.043 269.569V269.423C221.482 268.104 225.29 264.515 227.999 262.391C228.365 262.244 228.657 261.951 228.95 261.731V261.658C231.586 259.314 232.392 254.699 235.027 252.062C236.345 250.67 238.395 250.45 240.226 249.498C242.203 248.399 245.205 245.908 246.303 244.077C247.108 242.978 247.401 240.707 248.133 239.242C249.085 237.338 250.915 236.532 252.526 234.627C253.551 233.309 254.21 231.624 255.382 230.525C257.798 228.181 261.459 227.302 263.802 225.177C264.827 224.298 265.046 222.76 266.145 221.808C270.245 218.072 278.225 219.317 284.376 217.412C288.11 216.314 290.599 212.797 293.894 209.94C296.456 207.743 301.435 204.08 301.874 201.15C302.387 197.341 298.653 194.484 297.774 191.407C296.822 187.891 296.164 181.738 297.555 177.049C298.506 173.606 301.948 169.944 303.485 166.501C304.51 164.01 305.169 161.08 306.853 159.029C313.443 150.092 327.5 144.598 339.215 146.136C342.656 146.576 345.585 148.92 347.196 151.777C350.417 157.271 350.857 162.984 351.808 171.335C354.957 170.163 358.032 168.039 360.887 165.915C363.816 163.57 366.891 162.472 370.332 160.714C372.675 159.615 374.798 156.978 377.581 156.392C380.436 155.806 383.218 155.659 386.074 155.073C388.563 154.56 390.833 153.535 393.542 152.802C398.081 151.484 403.28 152.363 407.38 149.725C406.867 143.206 403.866 138.298 406.575 132.73C408.625 128.482 417.704 123.574 423.048 121.889C430.077 119.691 436.886 120.277 445.672 120.35C449.626 120.35 456.509 119.911 459.291 121.083C461.78 122.109 464.416 126.504 465.221 129.068C466.905 134.708 464.782 137.858 462.146 141.155C460.682 142.986 459.437 144.964 457.753 145.843C456.289 146.576 453.8 146.649 451.53 147.308C450.065 147.821 448.601 149.286 447.21 149.652C443.696 150.531 438.863 149.652 434.397 150.165C426.49 150.971 420.193 152.216 413.384 152.509C413.677 155.219 416.239 158.003 416.752 162.032C417.337 166.72 417.337 173.387 415.946 177.123C415.434 178.734 413.823 180.272 412.432 182.104C411.041 183.715 410.089 185.767 408.478 186.719C406.209 188.111 402.987 188.55 400.278 189.503C397.203 190.675 394.787 192.286 391.785 193.092C388.417 194.118 385.049 194.264 381.534 194.923C378.752 195.509 376.629 197.121 373.847 196.462C372.163 196.095 370.991 194.557 369.014 193.385C367.477 192.579 365.793 192.506 365.134 192.14C363.889 191.334 362.791 189.283 361.034 187.451C357.226 183.642 353.566 180.932 352.467 174.412C348.294 176.024 348.001 180.858 345.365 184.155C344.267 185.4 342.144 186.939 340.46 188.257C338.776 189.649 337.238 191.261 335.774 192.359C334.09 193.678 326.622 196.974 327.574 200.344C328.013 201.956 334.676 203.421 337.824 203.128C340.094 202.981 342.949 202.249 345.805 201.589C348.587 201.003 351.589 199.758 354.444 199.026C357.446 198.293 360.668 197.048 363.743 197.267C365.793 197.414 368.282 198.952 370.405 199.831C372.748 200.784 375.384 201.443 377.068 202.395C379.265 203.641 381.242 206.571 384.243 207.23C386.733 207.816 389.808 206.717 392.444 206.717C399.692 206.864 407.673 209.867 415.8 210.819C417.777 211.039 419.607 212.871 421.73 214.189C425.904 216.753 429.565 219.17 433.518 221.881C434.617 223.712 434.763 225.177 436.154 226.276C438.717 228.474 443.256 228.181 445.892 229.866C447.356 230.818 447.869 233.528 449.187 234.993C451.53 237.484 454.385 238.363 457.68 237.557C459.437 235.067 457.68 231.404 457.168 228.327C456.582 224.958 456.435 221.515 454.312 219.83C448.162 217.998 442.085 217.486 435.861 217.486C434.69 217.486 431.468 214.995 429.638 213.896C424.952 211.039 419.973 208.329 417.557 203.348C415.8 199.978 414.628 192.726 416.312 188.477C417.338 185.84 422.829 181.738 425.538 181.078C427.954 180.492 431.395 180.126 434.763 179.247C442.231 177.269 455.483 175.438 463.537 178.954C465.88 179.979 468.004 181.884 470.786 183.569C472.982 184.961 476.277 186.865 477.156 188.99C479.352 194.264 474.74 200.417 476.057 205.179C476.863 207.743 479.206 207.67 482.793 208.842C486.161 209.867 489.969 211.625 493.849 213.164C495.606 213.896 497.364 214.629 499.267 215.508C501.171 216.387 503.148 216.826 504.612 217.559C507.834 219.171 515.595 224.591 517.718 228.401C518.523 229.719 519.255 231.77 519.988 233.528C521.013 235.726 522.331 238.583 522.331 240.707C522.257 243.857 520.647 247.373 519.475 249.718C518.304 252.355 514.13 254.406 514.13 258.215C514.057 261.585 519.109 264.368 522.038 265.907C525.186 267.518 528.627 268.324 530.824 270.009C532.654 271.474 533.752 274.038 535.656 276.382C537.047 278.067 539.244 278.946 540.342 280.338C541.221 281.437 541.367 282.902 542.172 283.927C543.563 285.685 546.346 286.345 547.59 288.249C548.542 294.329 552.13 296.967 552.423 302.168C552.569 305.537 551.398 309.054 550.08 310.958C549.201 312.35 546.492 314.328 544.442 315.353C542.026 316.452 538.585 317.258 538.219 319.163C537.779 321.653 541.66 326.122 542.831 327.367C544.955 329.565 547.664 330.957 548.982 332.788C550.446 334.839 551.398 337.842 552.789 341.285C553.96 344.069 555.791 348.245 556.157 350.296C556.45 352.64 556.157 355.79 556.376 358.866C556.816 364.434 559.525 369.708 555.132 373.004C550.812 376.154 538.145 376.447 532.434 373.517C531.409 372.931 530.165 371.027 528.847 369.635C527.383 368.096 525.991 367.584 525.04 366.265C524.015 365.166 524.015 363.774 522.477 362.163C521.525 361.064 518.816 359.599 517.132 358.354C515.521 357.182 513.105 355.204 510.909 355.497C507.175 356.156 509.078 360.918 509.298 364.727C509.664 368.17 509.518 372.272 509.078 374.47C508.126 379.158 503.294 385.165 504.685 391.684C508.712 391.684 508.273 387.875 510.396 386.117C510.982 385.531 512.739 385.018 514.203 384.066C515.668 382.967 516.4 381.868 517.791 381.209C521.452 379.671 529.067 378.645 532.434 379.671C534.704 380.33 537.486 383.26 539.17 385.531C540.122 386.85 540.562 388.681 541.66 389.926C542.978 391.318 545.76 392.417 547.151 394.028C551.691 399.962 552.057 410.657 549.64 419.228M217.089 440.618C215.698 437.688 212.696 436.443 210.426 434.465C208.23 432.487 205.741 429.337 204.789 426.993C204.423 426.187 204.276 424.575 203.983 424.136C203.398 422.744 202.007 421.719 201.274 420.327C198.346 415.492 196.369 407.947 197.101 401.061C197.467 397.691 198.492 396.08 198.126 393.076C197.76 389.487 195.197 387.362 194.026 383.773C192.854 380.257 192.928 373.224 188.827 373.078C186.411 372.931 175.795 380.11 175.722 381.722C175.722 383.333 178.65 385.384 180.188 387.362C181.725 389.56 183.629 391.758 184.581 393.296C184.947 394.028 185.46 395.64 185.826 396.373C188.315 400.768 191.976 403.551 191.976 410.511C191.976 414.1 192.562 417.177 191.756 421.059C190.219 427.945 184.727 431.168 184.068 438.274C186.338 439.812 188.901 438.787 191.317 439.007C193.733 439.226 195.271 440.252 197.54 440.838C199.371 441.277 201.421 441.131 203.105 441.57C204.862 442.083 206.912 443.841 209.035 445.16C210.5 446.186 213.062 448.823 215.698 448.237C218.041 447.724 218.846 443.988 217.236 440.545M399.985 356.376C399.912 353.812 398.814 350.222 398.155 347.072C397.642 344.142 396.983 340.626 395.885 338.355C395.006 336.524 393.249 335.059 392.297 333.447C390.613 330.59 388.929 327.074 386.66 323.924C384.61 321.214 381.901 317.404 379.484 316.013C375.018 313.375 367.77 313.082 361.766 311.178C355.469 308.98 351.442 305.025 343.242 305.684C339.947 305.977 337.311 305.537 335.042 306.197C333.651 306.563 331.82 308.248 330.136 309.273C327.061 311.178 324.425 312.643 321.936 314.401C318.934 316.525 317.616 316.965 315.273 319.822C314.175 320.994 312.784 322.239 311.905 323.485C311.027 324.583 310.734 326.341 309.855 327.587C308.903 328.905 306.487 330.224 305.462 331.689C305.096 332.202 304.583 333.594 303.998 334.766C302.826 336.89 302.167 338.575 301.142 340.919C300.63 342.238 299.751 343.263 299.605 343.996C298.433 348.318 299.239 353.446 299.312 358.134C299.458 362.456 298.36 367.217 298.799 371.246C299.312 376.521 303.558 386.337 306.048 389.78C308.318 393.076 312.711 395.787 316.005 397.984C317.177 398.79 318.202 399.669 319.3 400.328C322.009 402.013 325.157 403.112 327.72 404.65C330.136 406.115 332.04 408.972 334.456 410.071C336.506 411.097 339.508 411.316 342.144 412.196C348.148 414.1 351.003 414.393 357.593 412.928C360.228 412.342 363.23 412.196 365.354 411.683C369.966 410.437 370.772 408.24 374.213 405.969C376.19 404.65 378.972 403.991 380.217 402.306C381.095 401.281 381.168 399.229 382.047 397.691C382.779 396.299 384.17 394.102 385.122 392.783C386.44 390.952 388.637 389.633 390.247 387.655C391.931 385.751 393.981 384.212 395.153 382.234C396.983 379.085 396.617 374.982 397.422 369.928C398.155 365.533 400.205 360.625 399.985 356.229M495.533 268.544C496.631 266.713 499.414 265.174 499.194 262.684C498.828 258.874 491.506 259.241 486.82 257.556C481.036 255.285 476.936 249.864 471.372 253.161C469.907 262.024 478.4 261.731 481.622 266.786C483.892 270.302 484.551 277.627 489.383 277.408C493.41 277.188 493.996 271.474 495.46 268.617M495.24 308.248C495.68 310.445 498.608 313.962 499.926 317.258C500.512 318.796 500.585 320.335 501.171 321.36C502.123 322.972 505.857 326.488 507.614 326.488C510.03 326.488 511.568 323.851 512.739 322.899C514.57 321.507 516.18 319.529 517.571 318.796C519.548 317.624 524.454 318.064 524.747 315.207C525.113 311.544 519.695 310.812 516.546 308.76C513.837 306.929 511.348 303.779 508.566 302.021C506.296 300.629 502.416 298.871 499.78 299.75C497.144 300.556 494.435 303.706 495.094 308.248M511.275 419.081C510.323 416.811 509.444 414.247 508.785 411.683C508.053 409.119 506.662 406.701 506.223 404.211C505.491 400.841 506.223 397.105 504.392 393.882C504.392 393.735 504.392 393.662 504.173 393.662C504.173 393.955 503.66 393.882 503.66 394.175C501.537 397.545 497.29 400.695 496.412 405.529C496.119 407.434 496.705 409.485 496.705 411.463C496.705 416.884 494.142 422.598 495.314 428.165C497.217 430.509 500.146 429.484 502.782 429.923C507.248 430.729 510.323 435.271 514.57 434.025C516.107 428.824 513.032 423.843 511.202 419.155M575.999 481.567C577.024 476.366 578.561 469.993 578.268 463.547C578.195 460.177 578.268 456.734 577.829 453.804C577.536 451.973 576.218 450.068 575.486 447.87C574.681 445.526 574.607 443.255 573.656 441.717C571.386 437.981 565.529 436.223 561.794 436.516C542.978 438.274 548.03 469.554 553.375 482.886C554.18 485.01 554.619 487.281 555.425 488.819C556.157 490.138 557.621 491.457 558.793 493.434C559.964 495.412 560.989 497.463 562.6 497.83C567.505 498.855 567.505 495.779 569.629 492.848C570.947 491.017 572.923 489.918 573.729 488.526C574.534 487.061 575.486 484.424 575.999 481.494M506.003 659.502C505.491 659.355 504.978 659.355 504.319 659.355C503.514 659.502 502.635 660.088 501.903 660.601C500.219 661.7 498.242 662.359 496.558 663.238C493.19 664.849 489.822 666.681 486.82 668.805C484.917 669.977 482.72 671.809 481.402 673.201C479.499 675.252 476.497 681.258 476.057 683.969C475.545 686.679 477.009 688.73 477.449 691.294C477.741 693.272 477.595 696.715 480.158 697.301C481.036 697.448 482.208 697.301 483.086 697.301C484.477 697.301 485.942 697.155 487.26 696.569C489.09 695.763 490.628 693.638 492.678 691.954C494.215 690.635 496.046 689.902 496.997 688.877C498.681 687.265 499.78 684.848 501.464 682.943C502.049 682.284 503.148 681.918 503.807 681.185C504.832 680.013 505.271 678.255 506.15 676.497C506.955 674.739 508.493 673.347 508.932 672.175C510.177 669.025 510.177 665.509 508.639 662.505C508.126 661.406 507.321 660.015 506.076 659.575M526.211 588.885C524.82 587.053 524.454 585.442 522.623 585.076C519.402 584.416 513.032 586.174 511.275 587.053C509.518 588.079 506.442 590.789 505.71 592.474C502.635 598.261 503.733 607.638 501.024 613.278C500.365 614.89 498.828 615.183 498.242 616.941C500.365 620.164 504.392 621.776 507.467 622.069C513.837 622.655 516.62 617.6 519.768 614.304C522.989 610.934 524.161 609.103 526.211 605.294C527.749 602.364 530.384 597.968 529.286 592.914C528.92 591.302 527.456 590.423 526.211 588.812M472.763 556.433C469.907 554.748 462.366 554.309 458.632 555.115C456.362 555.554 455.484 556.799 453.507 558.411C449.553 561.561 445.965 563.905 443.988 568.667C443.403 570.132 443.549 571.89 442.963 573.282C442.378 574.747 440.913 575.772 440.401 577.384C438.57 583.244 439.083 589.471 438.79 596.137C441.133 598.115 445.746 599.287 448.601 599.8C452.262 600.312 456.216 598.628 458.632 596.65C459.51 595.917 460.169 594.013 461.414 592.767C462.878 591.375 464.928 590.936 466.027 589.398C466.832 588.372 467.345 586.76 468.37 585.295C470.786 581.779 473.861 576.651 475.032 572.696C476.57 567.788 476.204 558.264 472.763 556.213M584.785 512.188C583.76 514.385 581.709 515.997 580.684 517.828C580.025 519.073 579.952 520.758 579.147 522.15C578.341 523.688 576.584 524.934 575.999 526.545C574.681 529.915 574.534 536.288 574.241 541.196C574.095 543.76 574.681 546.178 574.974 548.668C575.12 550.719 575.34 553.21 576.584 555.041C578.708 557.898 581.783 556.14 583.979 554.382C590.642 548.961 596.426 544.273 595.328 531.453C594.449 522.004 591.447 514.898 584.711 512.188M653.901 505.228C650.68 505.228 645.774 508.085 644.383 509.55C640.869 513.653 642.333 523.835 643.871 528.816C645.115 532.772 647.678 540.83 653.169 539.365C655.146 538.852 655.512 537.24 656.976 535.995C658.148 535.043 659.539 534.603 660.344 533.724C661.809 531.82 662.395 528.304 662.687 524.934C663.127 517.828 659.832 511.455 656.684 508.012C655.805 506.986 655.146 505.448 653.901 505.155M684.213 311.251C685.751 312.643 687.435 314.914 688.679 315.134C691.315 315.646 695.562 314.401 697.392 312.789C700.174 310.299 699.076 305.684 697.905 301.435C696.733 297.04 696.074 293.743 694.903 290.593C694.39 289.348 694.244 287.81 693.805 287.004C692.926 285.392 690.876 284.367 689.485 283.195C687.069 281.07 686.117 279.898 683.774 280.338C682.017 280.704 680.918 281.949 679.161 283.414C675.647 286.418 672.352 288.176 672.132 293.963C672.059 301.508 676.672 303.266 680.479 306.856C681.797 308.174 682.895 309.859 684.213 311.251ZM699.882 416.444C699.442 411.463 694.903 403.258 692.78 400.768C688.533 395.86 676.306 393.149 678.356 404.284C677.404 406.262 676.086 408.02 675.793 410.218C675.207 414.393 676.818 416.444 678.063 419.448C679.527 422.891 679.674 426.407 682.676 427.213C682.968 427.213 684.945 431.388 685.604 431.901C689.192 435.783 695.342 432.267 697.832 428.751C699.516 426.48 700.321 419.96 699.882 416.444ZM440.913 623.168C435.788 623.681 432.859 627.27 428.759 629.541C427.588 630.273 426.27 630.566 425.465 631.006C423.415 632.471 422.17 635.621 419.754 637.745C418.729 638.698 417.118 639.064 416.166 640.09C415.214 640.969 414.262 642.727 413.091 644.192C411.919 645.584 410.235 647.561 409.943 648.294C408.771 651.444 409.284 656.425 408.698 659.355C412.798 661.187 416.093 664.337 422.097 663.165C424.879 662.652 428.247 659.209 431.102 656.718C435.788 652.689 441.206 648.221 444.94 644.119C446.771 642.214 449.626 638.624 450.139 636.134C450.798 632.398 449.04 629.614 447.576 627.197C446.039 624.633 444.062 622.801 440.913 623.094M619.489 271.035C620.807 272.353 623.443 273.379 625.127 274.844C626.152 275.796 626.518 277.115 627.397 277.408C630.033 278.433 633.034 277.188 634.645 276.382C639.404 274.038 643.651 269.276 640.503 262.464C638.233 257.482 632.449 254.406 630.545 249.864C627.69 248.545 624.175 247.74 620.734 246.055C619.343 245.322 618.172 243.857 616.707 243.198C615.17 242.612 613.412 242.319 611.728 241.733C609.898 240.927 607.848 239.901 606.384 240.121C600.38 240.78 603.894 248.472 605.066 252.208C606.237 255.358 607.116 257.629 608.434 259.68C610.191 262.317 614.218 264.954 617.073 267.885C618.098 268.91 618.611 270.156 619.416 270.961M597.012 300.776C594.449 300.19 593.571 297.553 591.667 296.161C590.129 295.062 588.079 294.769 586.249 293.597C581.49 290.447 579.806 283.707 572.631 284.587C570.507 284.806 561.868 290.52 560.843 292.059C557.035 297.113 559.451 304.438 561.868 308.541C564.357 312.643 565.895 317.038 568.53 320.554C571.166 323.997 575.706 327.367 578.488 330.883C579.733 332.275 580.245 334.399 581.636 335.205C583.467 336.231 586.542 336.084 589.324 335.938C597.012 335.572 602.796 332.568 604.553 327.514C607.042 319.602 603.162 313.522 600.892 308.467C599.574 305.537 598.696 302.607 597.012 300.776ZM631.497 428.311C627.177 428.458 627.324 425.235 624.102 425.235C618.171 425.235 615.096 438.128 617.073 445.819C618.538 451.313 621.759 457.467 623.809 462.008C625.859 466.33 626.738 469.92 631.79 467.722C636.11 465.744 635.89 458.858 635.89 451.826C635.89 441.79 637.501 431.974 631.497 428.385M599.94 376.447C598.549 371.173 596.792 368.975 594.815 365.606C593.937 364.141 593.644 362.676 592.985 362.016C591.228 360.185 583.174 358.207 580.684 358.5C578.415 358.72 575.925 359.086 574.022 359.965C569.922 361.87 565.821 368.829 565.309 373.884C564.943 376.96 566.554 380.989 567.139 384.652C567.725 388.827 567.652 392.27 568.896 395.494C569.629 397.398 571.239 399.742 572.484 401.647C575.925 407.068 577.39 409.485 582.002 413.441C584.492 415.565 587.347 417.397 589.47 417.616C596.06 418.129 602.137 412.855 603.089 407.8C604.407 400.914 602.43 393.516 601.258 386.19C600.746 382.747 600.746 379.085 600.014 376.447M532.361 503.177C525.991 501.199 522.331 504.935 519.036 507.573C513.325 512.114 511.275 514.312 509.005 522.004C507.907 525.52 506.369 529.256 505.71 532.772C504.392 539.804 505.857 547.496 505.93 554.382C507.98 556.067 509.591 558.704 513.691 557.752C516.62 557.092 517.791 552.551 520.061 549.547C521.305 547.862 523.282 546.397 524.161 544.859C524.82 543.687 525.113 541.929 525.991 540.537C526.943 538.999 528.408 537.827 529.359 536.215C530.311 534.53 531.19 532.772 531.922 530.794C533.533 527.058 535.656 523.469 536.827 519.733C538.878 513.067 537.779 504.935 532.434 503.251M177.479 593.573C181.14 592.401 184.727 587.127 183.702 581.999C182.824 577.823 179.529 578.043 175.282 576.798C169.279 575.186 160.493 571.084 152.878 572.183C148.778 572.769 141.017 574.014 139.553 576.505C138.088 579.069 139.26 582.658 137.136 585.002C141.895 588.299 148.631 590.13 155.953 591.229C162.616 592.108 170.377 595.771 177.479 593.573ZM152.512 657.597C152.219 658.623 150.828 658.11 151.267 658.843C151.853 660.527 155.66 663.311 157.71 663.751C161.371 664.483 168.766 665.289 172.647 665.289C176.234 665.289 180.408 664.263 182.092 662.432C185.972 658.037 183.483 649.906 180.774 645.51C168.327 643.313 150.608 643.972 152.512 657.597ZM194.685 513.067C191.317 509.038 189.779 507.792 184.874 505.595C183.117 504.789 181.799 503.617 180.261 503.251C178.211 502.811 175.502 503.251 172.793 503.031C167.375 502.591 160.712 501.712 155.88 502.225C154.049 502.445 151.34 502.371 149.217 503.031C145.556 504.13 140.944 507.939 140.944 511.528C140.944 514.678 143.946 516.363 145.63 517.682C150.315 521.418 154.928 524.568 158.003 528.45C159.687 530.648 160.785 533.358 162.616 534.384C163.568 534.896 165.105 534.896 166.423 535.482C168.034 536.068 169.352 537.46 170.816 537.973C174.697 539.218 181.799 539.585 186.192 538.486C188.169 537.973 190.585 536.435 192.342 535.482C194.538 534.237 196.808 532.919 197.76 531.307C199.59 528.303 199.517 521.491 198.346 517.975C197.906 516.803 196.222 514.825 194.758 513.067M252.526 583.024C254.869 581.999 256.773 579.801 258.969 577.823C260.58 576.358 263.289 574.527 263.582 572.183C264.461 566.103 260.214 566.176 255.162 564.418C253.405 563.905 251.867 562.44 249.744 561.634C246.156 560.389 241.104 559.583 237.151 558.264C234.954 557.532 233.197 556.36 231.513 556.213C230.195 556.067 228.584 556.726 226.827 556.726C224.045 556.726 221.482 555.627 219.359 555.994C217.162 556.36 215.991 557.532 213.721 558.264C212.037 558.851 210.06 558.777 208.816 559.217C205.814 560.535 203.178 564.418 202.885 566.762C202.153 572.183 205.521 573.575 208.01 576.505C209.841 578.629 210.5 580.534 212.11 581.413C215.991 583.464 224.484 584.636 231.733 585.002C239.347 585.369 247.547 585.076 252.526 583.024ZM91.1561 575.333C89.9115 574.014 89.5454 572.915 88.5203 572.256C85.2988 570.205 72.7787 567.714 72.1197 573.282C71.7536 576.505 75.5609 578.556 73.3644 583.024C76.2199 585.295 79.6611 587.639 83.6148 589.471C86.3238 590.643 95.5491 593.5 98.3314 591.009C101.699 587.859 96.4278 579.948 93.6455 577.091C93.0598 576.505 91.8883 576.139 91.1561 575.333ZM141.237 470.872C145.556 470.433 153.903 468.601 155.367 465.012C156.685 461.715 154.635 456.148 152.512 453.145C149.437 448.456 144.604 444.427 140.431 441.351C134.427 436.809 131.133 434.025 123.445 431.315C119.857 430.07 114.659 428.897 111.437 429.484C106.385 430.363 106.898 434.831 107.337 440.105C107.557 443.329 107.41 447.138 108.069 449.042C108.875 451.46 112.096 453.071 113.487 456.295C114.439 458.712 114.732 462.228 116.489 463.986C118.32 465.744 122.639 466.843 125.788 467.869C131.352 469.554 135.159 471.605 141.163 470.945M114.219 505.668C111.364 503.324 106.312 500.101 102.139 497.903C98.185 495.925 90.2775 493.654 87.4953 494.094C87.3489 494.094 87.1292 494.021 86.9828 494.094C82.2969 494.533 80.7593 502.298 82.5897 507.646C83.9077 511.455 90.3508 516.143 93.133 519.22C94.3777 520.612 95.0366 522.516 95.6956 522.883C96.7938 523.615 100.528 524.201 102.871 524.934C105.507 525.74 108.435 526.692 110.559 526.692C116.05 526.912 120.809 523.615 121.614 519.513C122.639 513.946 117.734 508.525 114.146 505.595M287.524 689.976C286.572 689.976 285.474 690.195 284.449 690.122C281.74 689.902 279.324 689.023 276.615 689.683C274.638 690.195 272.588 690.635 270.464 691.148C267.755 691.807 265.12 692.393 262.484 693.638C259.482 694.957 256.187 697.301 255.675 700.817C255.235 703.674 256.333 707.85 259.335 709.095C261.019 709.828 263.436 709.095 265.12 708.656C267.17 708.216 269.22 707.557 271.343 707.19C274.198 706.678 277.274 706.311 279.031 705.579C281.52 704.553 283.424 702.209 285.62 700.744C286.792 700.012 288.769 699.132 289.281 698.4C290.599 696.569 290.233 693.712 289.647 691.661C289.281 690.342 288.403 689.976 287.377 689.976M356.641 639.87H356.421C351.516 640.895 346.756 640.163 342.803 641.115C339.288 642.141 334.676 644.558 331.747 646.316C329.697 647.561 327.5 649.686 325.304 651.224C324.279 651.883 323.327 652.836 322.229 653.715C321.423 654.447 320.179 655.033 319.373 655.619C319.227 655.766 319.007 655.839 318.934 656.059C316.957 658.183 313.443 664.263 317.543 666.168C321.716 668.073 329.404 666.534 333.87 665.802C338.629 665.069 345.731 661.846 349.539 660.381C353.639 658.843 358.544 657.011 359.789 654.96C362.425 650.638 361.4 640.456 356.714 639.796M396.324 694.591C394.128 695.47 389.808 695.25 386.513 696.349C385.122 696.862 383.877 698.107 382.413 698.766C379.338 700.011 375.824 700.744 373.407 702.136C366.452 705.652 362.791 715.541 368.575 722.647C380.217 726.017 387.978 718.252 392.956 711.293C395.519 707.776 402.182 697.96 396.324 694.591ZM404.817 576.065C398.594 573.501 388.344 573.135 383.731 577.384C381.974 578.922 381.901 581.12 380.143 583.537C378.386 586.101 374.798 588.445 372.529 591.302C371.65 592.401 371.284 593.939 370.405 594.892C369.673 595.697 368.429 596.284 367.55 597.163C365.28 599.36 361.034 603.096 360.082 605.367C358.837 608.59 360.741 613.059 360.594 615.916C363.23 616.941 366.086 619.066 369.307 619.285C374.066 619.578 378.313 617.161 381.901 615.916C384.17 615.183 386.44 614.67 388.124 613.865C389.735 612.985 390.979 611.301 392.737 610.202C396.105 608.077 397.642 606.466 400.644 603.755C402.694 601.924 405.184 599.873 406.062 598.408C407.16 596.43 409.21 590.643 409.43 588.665C410.089 582.731 406.282 580.314 404.744 576.065M321.204 609.03C323.547 607.125 327.72 601.265 327.94 597.749C328.159 594.599 327.354 589.837 326.182 586.614C325.67 585.515 323.547 583.537 322.522 582.292C319.593 578.629 316.005 575.846 309.928 576.871C307.585 577.311 305.828 578.409 303.778 578.922C299.092 580.241 295.285 580.68 291.917 583.098C287.817 585.881 284.595 589.837 281.813 594.159C280.642 595.99 279.104 597.382 278.445 599.287C277.566 602.144 277.64 606.759 278.811 609.542C280.568 613.791 288.622 615.403 293.967 615.989C299.092 616.502 307.073 616.209 311.466 614.963C314.102 614.231 315.127 612.766 317.104 611.374C318.568 610.348 320.325 609.836 321.204 609.103M386.513 565.37C393.249 569.985 403.28 565.297 408.332 562.293C410.675 560.902 412.945 560.023 414.555 558.924C417.264 557.019 420.413 552.038 422.316 550.133C424.293 548.155 426.636 546.764 428.174 544.493C430.736 540.83 432.933 534.164 432.567 528.523C432.054 520.832 429.565 512.481 420.998 513.653C416.312 514.239 411.919 515.484 408.625 517.169C407.087 517.975 405.769 519.879 403.719 521.564C402.182 522.956 399.839 524.348 398.374 525.666C394.714 529.036 391.492 533.798 388.636 537.753C386.001 541.343 385.561 542.735 383.511 546.764C381.827 549.914 380.29 552.917 381.461 557.312C382.12 559.73 384.829 564.125 386.586 565.297M261.898 623.9C250.769 625.439 235.027 620.531 229.097 626.757C227.34 628.515 226.095 631.665 224.704 633.643C223.606 635.255 222.507 638.844 224.411 640.383C225.729 641.481 229.756 641.408 231.44 641.408C241.397 641.701 255.967 640.163 261.532 637.306C266.364 634.815 267.316 627.563 261.971 623.974" fill="#EEEEEE"/>
</svg>
