<svg width="57" height="57" viewBox="0 0 57 57" fill="none" xmlns="http://www.w3.org/2000/svg">
<path d="M5.16406 28.5C5.16406 19.701 5.16406 15.3004 7.89873 12.568C10.6311 9.83337 15.0317 9.83337 23.8307 9.83337H33.1641C41.9631 9.83337 46.3637 9.83337 49.0961 12.568C51.8307 15.3004 51.8307 19.701 51.8307 28.5V33.1667C51.8307 41.9657 51.8307 46.3664 49.0961 49.0987C46.3637 51.8334 41.9631 51.8334 33.1641 51.8334H23.8307C15.0317 51.8334 10.6311 51.8334 7.89873 49.0987C5.16406 46.3664 5.16406 41.9657 5.16406 33.1667V28.5Z" stroke="#222E27" stroke-width="3"/>
<path d="M42.4948 37.8334H37.8281M37.8281 37.8334H33.1615M37.8281 37.8334V33.1667M37.8281 37.8334V42.5M16.8281 9.83337V6.33337M40.1615 9.83337V6.33337M6.32812 21.5H50.6615" stroke="#222E27" stroke-width="3" stroke-linecap="round"/>
</svg>
