<svg width="56" height="56" viewBox="0 0 56 56" fill="none" xmlns="http://www.w3.org/2000/svg">
<path d="M25.375 28.875H26.2496C26.2136 32.3508 23.7956 34.4417 21 35.7198C18.2044 34.4417 15.7864 32.3508 15.7504 28.875H16.625H18.375V32.375V34.125H20.125H21.875H23.625V32.375V28.875H25.375ZM26.25 23.625H25.375V21.875V20.125H26.25V23.625ZM15.75 23.625V20.125H16.625V21.875V23.625H15.75Z" stroke="#476BAD" stroke-width="3.5"/>
<path d="M28 1.75C13.503 1.75 1.75 13.503 1.75 28C1.75 42.497 13.503 54.25 28 54.25C42.497 54.25 54.25 42.497 54.25 28C54.25 13.503 42.497 1.75 28 1.75ZM25.3006 37.625C23.9479 38.6592 22.4403 39.445 20.9991 40.0312C19.5589 39.445 18.0513 38.6592 16.6985 37.625H5.47225C5.25701 37.1197 5.05885 36.6072 4.87812 36.0885H15.0036C13.3761 34.3166 12.25 32.0058 12.25 28.9949V19.25H5.12225C8.652 10.0503 17.5726 3.5 28 3.5C38.4274 3.5 47.348 10.0503 50.8786 19.25H29.75V28.9949C29.75 32.0058 28.6239 34.3166 26.9964 36.0885H51.1219C50.9411 36.6072 50.743 37.1197 50.5277 37.625H25.3006Z" fill="#476BAD"/>
</svg>
