<svg width="290" height="113" viewBox="0 0 290 113" fill="none" xmlns="http://www.w3.org/2000/svg">
<path d="M54.2292 23.8047C48.2899 23.8047 42.4839 25.5659 37.5455 28.8657C32.607 32.1654 28.758 36.8554 26.4851 42.3427C24.2122 47.83 23.6175 53.868 24.7763 59.6933C25.935 65.5185 28.795 70.8693 32.9948 75.0691C37.1946 79.2689 42.5454 82.129 48.3707 83.2877C54.1959 84.4464 60.2339 83.8517 65.7212 81.5788C71.2085 79.3059 75.8985 75.4569 79.1983 70.5185C82.498 65.5801 84.2592 59.7741 84.2592 53.8347C84.2592 45.8702 81.0954 38.232 75.4636 32.6003C69.8319 26.9686 62.1937 23.8047 54.2292 23.8047V23.8047ZM49.9612 66.2757H41.6672V57.9817H49.9612V66.2757ZM66.5492 57.9817H58.2992V49.6877H49.9612V41.3937H66.5492V49.6877V57.9817Z" fill="#FF735A"/>
<path d="M7.58887 70.1695C8.63116 73.1392 9.95729 76.0014 11.5489 78.7165L12.5609 78.1115C11.0497 75.4977 9.79009 72.7464 8.79887 69.8945L7.58887 70.1695Z" fill="white"/>
<path d="M54.2294 5.59939C56.0929 5.5996 57.9549 5.7061 59.8064 5.91839L60.0044 4.81839C58.089 4.56817 56.1608 4.42861 54.2294 4.40039C52.3918 4.40464 50.5559 4.50745 48.7294 4.70839L48.9714 5.80839C50.7191 5.64569 52.4742 5.57593 54.2294 5.59939V5.59939Z" fill="white"/>
<path d="M94.9297 79.7063L95.9087 80.3662C97.4771 77.9262 98.8209 75.349 99.9237 72.6662L98.8237 72.2812C97.7464 74.8659 96.4434 77.3505 94.9297 79.7063V79.7063Z" fill="white"/>
<path d="M70.675 13.4425C71.282 13.3617 71.8559 13.1185 72.336 12.7385C72.767 12.3805 73.0937 11.9132 73.282 11.3855C73.519 10.8129 73.5539 10.1766 73.381 9.58151C73.2383 9.09131 72.969 8.6474 72.6 8.29451C72.1219 7.85616 71.6107 7.45531 71.071 7.09551C70.532 6.72151 70.125 6.40251 69.839 6.16051C69.5653 5.92796 69.3504 5.63396 69.212 5.30251C69.0766 4.94834 69.0766 4.55667 69.212 4.20251C69.2857 3.95245 69.4165 3.72293 69.594 3.53204C69.7715 3.34115 69.991 3.19411 70.235 3.10251C70.7571 2.91158 71.3299 2.91158 71.852 3.10251C72.4127 3.26665 72.8964 3.62551 73.216 4.11451C73.3466 4.3178 73.4352 4.5451 73.4768 4.7831C73.5183 5.0211 73.512 5.265 73.458 5.50051L75.02 6.05051C75.1317 5.64296 75.1551 5.21627 75.0887 4.79895C75.0223 4.38163 74.8677 3.98328 74.635 3.63051C74.1063 2.85051 73.3319 2.26971 72.435 1.98051C71.7846 1.74265 71.0903 1.64882 70.4 1.70551C69.8021 1.74711 69.229 1.96107 68.75 2.32151C68.2796 2.6862 67.9307 3.18472 67.749 3.75151C67.5108 4.30305 67.4606 4.9176 67.606 5.50051C67.7545 5.98695 68.032 6.42409 68.409 6.76551C68.8883 7.1958 69.3994 7.58926 69.938 7.94251C70.466 8.30551 70.884 8.61351 71.181 8.86651C71.4669 9.11049 71.6895 9.41994 71.83 9.76851C71.9644 10.1229 71.9644 10.5142 71.83 10.8685C71.7447 11.1247 71.6009 11.3575 71.41 11.5484C71.219 11.7394 70.9862 11.8832 70.73 11.9685C70.1562 12.1877 69.5218 12.1877 68.948 11.9685C68.3438 11.8014 67.8276 11.4073 67.507 10.8685C67.262 10.4019 67.1992 9.86081 67.331 9.35051L65.857 8.80051C65.6766 9.36954 65.6766 9.98047 65.857 10.5495C66.017 11.1389 66.3323 11.6746 66.77 12.1005C67.2824 12.5909 67.8937 12.9659 68.563 13.2005C69.2367 13.4526 69.9618 13.5357 70.675 13.4425V13.4425Z" fill="white"/>
<path d="M85.1836 11.957C84.873 11.3883 84.4272 10.9047 83.8856 10.549C83.3831 10.2117 82.8121 9.99003 82.2136 9.9C81.662 9.81713 81.0983 9.8895 80.5856 10.109L83.0826 6.391L81.8286 5.5L74.9756 15.697L76.2296 16.533L79.0346 12.364C79.4335 11.6947 80.0761 11.2058 80.8276 11C81.1733 10.9254 81.5311 10.926 81.8765 11.0019C82.222 11.0779 82.547 11.2273 82.8296 11.44C83.1174 11.6211 83.364 11.8605 83.5534 12.1428C83.7429 12.4251 83.871 12.7441 83.9296 13.079C84.0136 13.83 83.8004 14.5841 83.3356 15.18L80.4646 19.448L81.6966 20.284L84.6886 15.884C85.125 15.2809 85.4013 14.5769 85.4916 13.838C85.5904 13.1942 85.4826 12.5357 85.1836 11.957V11.957Z" fill="white"/>
<path d="M88.6595 26.9283C89.4125 27.204 90.2264 27.2686 91.0135 27.1153C91.8639 26.9395 92.6507 26.5365 93.2905 25.9493C93.9531 25.3976 94.4579 24.6803 94.7535 23.8703C95.0231 23.1306 95.0765 22.3293 94.9075 21.5603C94.7205 20.7671 94.3434 20.0312 93.8088 19.4161C93.2742 18.8009 92.598 18.325 91.8385 18.0293C91.0923 17.7564 90.2852 17.6955 89.5065 17.8533C88.6671 18.0417 87.8905 18.4433 87.2515 19.0193C86.6014 19.5801 86.1021 20.2949 85.7995 21.0983C85.5226 21.836 85.4615 22.6372 85.6235 23.4083C85.7999 24.1994 86.179 24.931 86.7235 25.5313C87.242 26.1513 87.9076 26.6316 88.6595 26.9283V26.9283ZM87.1195 21.7253C87.3593 21.1323 87.7363 20.6045 88.2195 20.1853C88.6952 19.7449 89.2739 19.431 89.9025 19.2723C90.4245 19.1508 90.9703 19.1813 91.4755 19.3603C91.9737 19.5477 92.4164 19.858 92.7625 20.2623C93.1194 20.656 93.3727 21.1323 93.4995 21.6483C93.6158 22.1796 93.5777 22.733 93.3895 23.2433C93.1595 23.8448 92.7811 24.3784 92.2895 24.7943C91.8128 25.2327 91.2282 25.5364 90.5955 25.6743C90.0571 25.7937 89.4957 25.7555 88.9785 25.5643C88.4816 25.3745 88.0395 25.0646 87.6915 24.6623C87.3405 24.2735 87.0978 23.7994 86.9875 23.2873C86.8737 22.7652 86.9197 22.2209 87.1195 21.7253V21.7253Z" fill="white"/>
<path d="M88.1099 34.5282L93.4999 31.8992C93.1466 32.4296 92.9416 33.0449 92.9059 33.6812C92.8545 34.3945 92.995 35.1086 93.3129 35.7492C93.6405 36.4533 94.1588 37.0515 94.8089 37.4762C95.4647 37.9035 96.2265 38.1396 97.0089 38.1582C97.8638 38.1756 98.7099 37.983 99.4729 37.5972C100.247 37.2509 100.921 36.7134 101.431 36.0352C101.891 35.4245 102.17 34.6962 102.234 33.9342C102.291 33.1768 102.147 32.4179 101.816 31.7342C101.519 31.0737 101.048 30.5069 100.452 30.0952C99.9361 29.7288 99.3329 29.5049 98.7029 29.4462L100.21 28.7312L99.5609 27.3672L87.4609 33.1532L88.1099 34.5282ZM94.1049 33.3732C94.1589 32.8392 94.3566 32.3298 94.6769 31.8992C95.0508 31.3985 95.5375 30.9931 96.0975 30.7159C96.6576 30.4388 97.2751 30.2977 97.8999 30.3042C98.4544 30.3224 98.9924 30.4979 99.4509 30.8102C99.896 31.1156 100.253 31.5329 100.485 32.0202C100.72 32.5096 100.826 33.0512 100.793 33.5932C100.756 34.1426 100.561 34.6698 100.232 35.1112C99.8472 35.5886 99.3528 35.9659 98.7909 36.2112C98.2299 36.4975 97.6056 36.6375 96.9759 36.6182C96.4221 36.6057 95.8836 36.4338 95.4249 36.1232C94.9769 35.8117 94.6199 35.3865 94.3909 34.8912C94.1624 34.4196 94.0636 33.8956 94.1049 33.3732V33.3732Z" fill="white"/>
<path d="M98.4614 42.2503C98.1194 42.2948 97.7904 42.4097 97.4951 42.5876C97.1998 42.7656 96.9445 43.0028 96.7454 43.2843C96.4497 43.9026 96.3986 44.6099 96.6024 45.2643L96.8994 46.5843L98.1424 46.2983L97.9004 45.1983C97.7773 44.8684 97.7773 44.5052 97.9004 44.1753C98.1128 43.9107 98.4212 43.7407 98.7584 43.7023L103.983 42.5033L104.511 44.8133L105.721 44.5383L105.193 42.2283L107.393 41.7113L107.063 40.2483L104.863 40.7543L104.599 39.6543L103.4 39.9073L103.664 41.0073L98.4614 42.2503Z" fill="white"/>
<path d="M101.365 50.2486L101.486 57.5196H102.399C103.17 57.5161 103.927 57.3154 104.599 56.9366C105.245 56.5746 105.775 56.0368 106.128 55.3856C106.509 54.6916 106.706 53.9114 106.7 53.1196C106.7 52.2985 106.488 51.4913 106.084 50.7766C105.69 50.1083 105.114 49.5664 104.423 49.2146C103.644 48.8577 102.794 48.6813 101.937 48.6984C101.08 48.7155 100.237 48.9258 99.4729 49.3136C98.7871 49.6913 98.2226 50.2558 97.8449 50.9416C97.466 51.659 97.2802 52.4627 97.3059 53.2736C97.2883 54.2469 97.5939 55.1986 98.1749 55.9796C98.7232 56.6917 99.5002 57.1929 100.375 57.3986V55.7706C99.8262 55.6443 99.3394 55.3288 98.9999 54.8796C98.6768 54.3988 98.508 53.8309 98.5159 53.2516C98.4982 52.8691 98.5572 52.487 98.6894 52.1276C98.8217 51.7683 99.0244 51.439 99.2858 51.1592C99.5471 50.8794 99.8618 50.6547 100.211 50.4983C100.561 50.3419 100.938 50.257 101.321 50.2486H101.365ZM104.665 51.1286C105.159 51.6556 105.431 52.3531 105.424 53.0756C105.441 53.5763 105.339 54.0738 105.127 54.5276C104.932 54.9759 104.611 55.3579 104.203 55.6276C103.753 55.8934 103.24 56.034 102.718 56.0346L102.63 50.2926C103.38 50.3056 104.096 50.6047 104.632 51.1286H104.665Z" fill="white"/>
<path d="M105.819 62.5783L106.05 61.4783L104.818 61.2363L104.598 62.3913L99.3404 61.3573C99.0069 61.2618 98.6576 61.235 98.3134 61.2785C97.9693 61.322 97.6376 61.4349 97.3384 61.6103C96.8225 62.0587 96.4897 62.6813 96.4034 63.3593L96.1504 64.6903L97.4044 64.9433L97.6134 63.8433C97.6436 63.4938 97.8094 63.1701 98.0754 62.9413C98.2213 62.8594 98.3826 62.8083 98.5491 62.7912C98.7156 62.7742 98.8839 62.7916 99.0434 62.8423L104.301 63.8763L103.85 66.2083L105.071 66.4503L105.522 64.1183L107.722 64.5583L108.008 63.0733L105.819 62.5783Z" fill="white"/>
<path d="M86.207 82.9515L89.628 86.3724L88.055 88.0005C87.6402 88.3493 87.2983 88.7767 87.0491 89.2581C86.7999 89.7394 86.6483 90.2653 86.603 90.8055C86.6117 91.7109 86.979 92.5759 87.6244 93.2109C88.2698 93.846 89.1406 94.1993 90.046 94.1934C91.1177 94.0846 92.1082 93.5737 92.818 92.7635L95.458 90.1125L87.285 81.9395L86.207 82.9515ZM93.5 90.2555L91.927 91.8285C90.827 92.9285 89.727 93.0605 88.627 92.0485C88.4203 91.8525 88.2575 91.6148 88.1494 91.3513C88.0413 91.0877 87.9904 90.8042 88 90.5195C88.0853 89.8591 88.415 89.2547 88.924 88.8255L90.497 87.2525L93.5 90.2555Z" fill="white"/>
<path d="M78.21 89.7813L80.927 93.9063C81.939 95.4463 81.7373 96.6783 80.322 97.6023L79.992 97.8223L80.85 99.1313C81.3832 98.7993 81.8195 98.3326 82.115 97.7783C82.3693 97.272 82.4688 96.7019 82.401 96.1393L83.215 97.3713L84.469 96.5463L79.475 88.9453L78.21 89.7813Z" fill="white"/>
<path d="M74.1729 94.6886C73.5826 94.1735 72.8576 93.8377 72.0829 93.7206C71.2822 93.6141 70.4675 93.7164 69.7179 94.0176C68.8155 94.3486 68.0439 94.962 67.5179 95.7666C67.0496 96.5184 66.8445 97.4045 66.9349 98.2856L68.4529 97.7026C68.4281 97.1789 68.5749 96.6614 68.8709 96.2286C69.2051 95.7582 69.6783 95.4043 70.2239 95.2166C70.5723 95.0708 70.9462 94.9957 71.3239 94.9957C71.7016 94.9957 72.0755 95.0708 72.4239 95.2166C73.1252 95.5221 73.6783 96.091 73.9639 96.8006L67.1879 99.4296C67.2667 99.7244 67.3622 100.015 67.4739 100.299C67.7403 101.031 68.1911 101.683 68.7829 102.191C69.3475 102.672 70.0386 102.982 70.7739 103.082C71.5684 103.188 72.3771 103.082 73.1169 102.774C73.8841 102.493 74.5661 102.019 75.0969 101.399C75.5909 100.799 75.9004 100.069 75.9879 99.2976C76.067 98.4473 75.9387 97.5904 75.6139 96.8006C75.3228 95.9846 74.8265 95.2573 74.1729 94.6886V94.6886ZM74.2719 100.189C73.9481 100.834 73.389 101.33 72.7099 101.575C72.2452 101.758 71.745 101.833 71.2469 101.795C70.7703 101.758 70.315 101.582 69.9379 101.289C69.5271 100.967 69.2146 100.536 69.0359 100.046L74.3929 97.9666C74.6368 98.6919 74.5935 99.4832 74.2719 100.178V100.189Z" fill="white"/>
<path d="M61.6772 96.7999L61.8642 101.805C61.944 102.59 61.7239 103.376 61.2482 104.005C61.0175 104.267 60.733 104.476 60.4141 104.619C60.0952 104.761 59.7494 104.833 59.4002 104.83C59.0629 104.859 58.7233 104.814 58.4045 104.701C58.0857 104.587 57.795 104.406 57.5522 104.17C57.0498 103.609 56.782 102.877 56.8042 102.124L56.6062 96.9759L55.1102 97.0419L55.3082 102.047C55.388 102.832 55.1679 103.618 54.6922 104.247C54.4635 104.512 54.1796 104.724 53.8605 104.869C53.5413 105.013 53.1945 105.086 52.8442 105.083C52.5085 105.111 52.1707 105.067 51.8537 104.953C51.5367 104.839 51.2479 104.658 51.0072 104.423C50.4991 103.86 50.2273 103.124 50.2482 102.366L50.0502 97.2289H48.5652L48.7632 102.586C48.7667 103.331 48.9638 104.063 49.3352 104.709C49.6474 105.258 50.1193 105.699 50.6882 105.974C51.2859 106.253 51.9432 106.382 52.6022 106.348C53.2905 106.326 53.9597 106.116 54.5382 105.743C55.097 105.376 55.5186 104.835 55.7372 104.203C56.0245 104.821 56.5027 105.33 57.1012 105.655C57.7312 105.983 58.438 106.135 59.1472 106.095C59.7255 106.08 60.2916 105.925 60.7972 105.644C61.2774 105.388 61.6801 105.008 61.9632 104.544V105.853H63.4812L63.1292 96.7559L61.6772 96.7999Z" fill="white"/>
<path d="M42.2842 106.271C42.0203 106.219 41.7466 106.273 41.5222 106.421C41.2978 106.57 41.1408 106.8 41.0852 107.063C41.0522 107.193 41.0459 107.328 41.0667 107.461C41.0875 107.593 41.1349 107.72 41.2062 107.833C41.2758 107.947 41.3675 108.046 41.4759 108.124C41.5843 108.202 41.7073 108.257 41.8374 108.287C41.9676 108.317 42.1024 108.32 42.2339 108.297C42.3654 108.274 42.491 108.225 42.6032 108.152C42.7205 108.082 42.822 107.987 42.9015 107.876C42.981 107.764 43.0367 107.637 43.0652 107.503C43.1157 107.224 43.0566 106.937 42.9002 106.7C42.7582 106.483 42.5374 106.329 42.2842 106.271V106.271Z" fill="white"/>
<path d="M43.9088 95.8041L41.8965 104.676L43.3662 105.009L45.3785 96.1375L43.9088 95.8041Z" fill="white"/>
<path d="M38.7316 94.5997C38.3106 94.0855 37.7707 93.6815 37.1586 93.4227C36.6256 93.1755 36.0403 93.0623 35.4536 93.0927C34.903 93.1142 34.3695 93.2895 33.9136 93.5987L34.4526 92.3667L33.0776 91.7617L29.3926 100.1L30.8006 100.65L32.8246 96.0847C33.0915 95.3417 33.6355 94.7308 34.3426 94.3797C34.6708 94.2503 35.0225 94.1913 35.3749 94.2064C35.7274 94.2216 36.0727 94.3106 36.3886 94.4677C36.7112 94.5897 37.0038 94.7795 37.2467 95.0243C37.4896 95.2691 37.6771 95.5632 37.7966 95.8867C37.9088 96.2491 37.9481 96.63 37.9122 97.0076C37.8764 97.3852 37.766 97.752 37.5876 98.0867L35.4756 102.74L36.8396 103.345L39.0396 98.4717C39.3717 97.7885 39.516 97.0292 39.4576 96.2717C39.3859 95.655 39.1333 95.0732 38.7316 94.5997V94.5997Z" fill="white"/>
<path d="M28.9851 89.3647L25.5751 93.0387C25.0692 93.6432 24.3547 94.0358 23.5731 94.1387C23.2261 94.1571 22.8791 94.102 22.5549 93.9769C22.2308 93.8518 21.9367 93.6595 21.6921 93.4127C21.4451 93.1927 21.2471 92.9234 21.1106 92.6222C20.9742 92.3209 20.9025 91.9944 20.9001 91.6637C20.942 90.9094 21.2729 90.2003 21.8241 89.6837L25.3001 85.9217L24.2001 84.8987L20.7791 88.5617C20.2797 89.1741 19.5618 89.5685 18.7771 89.6617C18.4296 89.6852 18.0811 89.6324 17.7562 89.507C17.4312 89.3816 17.1377 89.1866 16.8961 88.9357C16.6386 88.7195 16.4307 88.4504 16.2865 88.1467C16.1422 87.843 16.065 87.5118 16.0601 87.1757C16.1037 86.4186 16.4341 85.7067 16.9841 85.1847L20.4931 81.4007L19.3931 80.3887L15.7301 84.3047C15.2099 84.8326 14.8316 85.4834 14.6301 86.1967C14.4475 86.8029 14.4475 87.4495 14.6301 88.0557C14.8591 88.6765 15.2368 89.2317 15.7301 89.6727C16.2293 90.1471 16.8497 90.4744 17.5231 90.6187C18.1759 90.7644 18.8589 90.6829 19.4591 90.3877C19.2318 91.0388 19.2279 91.7471 19.4481 92.4007C19.6483 93.0763 20.0285 93.6847 20.5481 94.1607C20.9622 94.5625 21.4682 94.857 22.0221 95.0187C22.5547 95.1669 23.1176 95.1669 23.6501 95.0187L22.7591 95.9757L23.8591 97.0097L30.0631 90.4097L28.9851 89.3647Z" fill="white"/>
<path d="M15.7627 60.2587L9.80067 60.8087C10.3122 60.4475 10.7246 59.9633 10.9997 59.4007C11.2905 58.7449 11.4043 58.0242 11.3297 57.3107C11.2654 56.5404 10.9915 55.8024 10.5377 55.1767C10.075 54.5507 9.44623 54.0668 8.72267 53.7797C7.92973 53.4674 7.07331 53.3505 6.22567 53.4387C5.37694 53.5022 4.55702 53.7743 3.83867 54.2307C3.19324 54.6493 2.67733 55.2396 2.34893 55.9352C2.02053 56.6309 1.89265 57.4044 1.97967 58.1687C2.02859 58.8909 2.27184 59.5864 2.68367 60.1817C3.04798 60.6974 3.53588 61.1135 4.10267 61.3917L2.41967 61.4907L2.55167 62.9867L15.9057 61.7657L15.7627 60.2587ZM8.67867 60.5007C8.15246 60.8359 7.55173 61.0361 6.92967 61.0837C6.31197 61.1576 5.68571 61.0666 5.11467 60.8197C4.60245 60.6094 4.16011 60.2586 3.83867 59.8077C3.52499 59.3639 3.33861 58.8428 3.29967 58.3007C3.24262 57.7596 3.32991 57.2131 3.55267 56.7167C3.78978 56.2094 4.17276 55.7843 4.65267 55.4957C5.17665 55.1559 5.7786 54.9552 6.40167 54.9127C7.02916 54.8391 7.66505 54.9262 8.24967 55.1657C8.76174 55.3709 9.20448 55.7182 9.52567 56.1667C9.83642 56.612 10.0225 57.1323 10.0647 57.6737C10.1217 58.2123 10.0305 58.7563 9.80067 59.2467C9.55382 59.7631 9.16453 60.1982 8.67867 60.5007V60.5007Z" fill="white"/>
<path d="M4.04782 48.9173C4.72045 49.4415 5.51538 49.7859 6.35782 49.9183C7.19384 50.0882 8.05879 50.0505 8.87682 49.8083C9.6199 49.5949 10.2873 49.1754 10.8018 48.5983C11.3116 48.0189 11.6539 47.3116 11.7918 46.5523C11.936 45.8446 11.8865 45.1112 11.6488 44.4293C11.4355 43.819 11.0542 43.2814 10.5488 42.8783L12.2098 43.1863L12.4958 41.6793L3.55282 40.0293L3.29982 41.5253L4.94982 41.8003C4.35263 42.021 3.82753 42.4015 3.43182 42.9003C2.96659 43.457 2.6623 44.1302 2.55182 44.8473C2.40459 45.6046 2.46541 46.3877 2.72782 47.1133C2.9939 47.8244 3.45058 48.4485 4.04782 48.9173V48.9173ZM3.89382 44.7703C3.99281 44.2358 4.22768 43.7358 4.57582 43.3183C4.93579 42.9044 5.40449 42.5995 5.92882 42.4383C6.52362 42.2527 7.156 42.2224 7.76582 42.3503C8.38528 42.4548 8.97025 42.7077 9.47082 43.0873C9.90707 43.4266 10.2357 43.8851 10.4168 44.4073C10.6001 44.9184 10.6419 45.4694 10.5378 46.0023C10.4583 46.5312 10.2379 47.0289 9.89982 47.4433C9.53985 47.8572 9.07115 48.1621 8.54682 48.3233C7.91567 48.5185 7.24441 48.545 6.59982 48.4003C5.98649 48.3044 5.40747 48.0546 4.91682 47.6743C4.48662 47.3337 4.15918 46.8806 3.97082 46.3653C3.8069 45.8494 3.78036 45.2996 3.89382 44.7703V44.7703Z" fill="white"/>
<path d="M14.3991 37.0689L9.90012 35.1109C8.21712 34.3849 7.70012 33.2519 8.37112 31.6899L8.53612 31.3269L7.09512 30.7109C6.83436 31.2821 6.72815 31.9118 6.78712 32.5369C6.83155 33.1075 7.04613 33.6516 7.40312 34.0989L6.05012 33.4719L5.50012 34.8579L13.8051 38.4989L14.3991 37.0689Z" fill="white"/>
<path d="M8.80002 27.7313L9.90002 28.4023L10.538 27.4123L15.048 30.3163C15.3199 30.5303 15.6337 30.685 15.969 30.7702C16.3044 30.8555 16.6539 30.8695 16.995 30.8113C17.6437 30.5924 18.1859 30.1367 18.513 29.5353L19.239 28.4353L18.139 27.7533L17.6 28.6003C17.4395 28.9132 17.1693 29.156 16.841 29.2823C16.5019 29.3173 16.1625 29.2187 15.895 29.0073L11.396 26.1033L12.628 24.2003L11.528 23.5293L10.296 25.4653L8.37102 24.2003L7.54602 25.4763L9.47102 26.7193L8.80002 27.7313Z" fill="white"/>
<path d="M21.8902 25.0806L18.3372 21.5166C17.7372 21.0016 17.3654 20.2699 17.3032 19.4816C17.299 19.1301 17.3693 18.7816 17.5096 18.4593C17.6499 18.1369 17.857 17.848 18.1172 17.6116C18.3479 17.3568 18.6298 17.1535 18.9445 17.0152C19.2591 16.8768 19.5995 16.8064 19.9432 16.8086C20.6957 16.8749 21.3933 17.2297 21.8902 17.7986L25.5312 21.4396L26.6312 20.3396L22.8362 16.5446C22.489 16.1467 22.0638 15.8243 21.5871 15.5972C21.1103 15.3702 20.592 15.2434 20.0642 15.2246C19.5589 15.2464 19.0633 15.3708 18.6076 15.5901C18.1518 15.8095 17.7455 16.1193 17.4132 16.5006C17.0029 16.9049 16.6905 17.3979 16.5002 17.9416C16.3145 18.4603 16.2802 19.0211 16.4012 19.5586L15.4662 18.7006L14.3662 19.8006L20.7902 26.2356L21.8902 25.0806Z" fill="white"/>
<path d="M26.3999 14.7409C26.8164 15.4955 27.4183 16.1315 28.1489 16.5889C28.807 17.0045 29.5706 17.2221 30.3489 17.2159C31.1558 17.1971 31.944 16.9697 32.6369 16.5559C33.493 16.0908 34.1759 15.3616 34.5839 14.4769C34.9362 13.6649 35.0021 12.7573 34.7709 11.9029L33.3629 12.7169C33.4671 13.2297 33.4015 13.7626 33.1759 14.2349C32.9267 14.7305 32.5312 15.1375 32.0429 15.4009C31.4064 15.7961 30.6418 15.9301 29.9089 15.7749C29.5247 15.6842 29.1624 15.5179 28.8432 15.2856C28.524 15.0532 28.2543 14.7596 28.0499 14.4219L34.3419 10.7699C34.1989 10.4729 34.0669 10.2089 33.9239 9.95587C33.5406 9.27674 32.9919 8.70541 32.3289 8.29487C31.6951 7.91324 30.9677 7.71521 30.2279 7.72287C29.4268 7.74376 28.6452 7.97518 27.9619 8.39387C27.2472 8.79085 26.6482 9.36709 26.2239 10.0659C25.8294 10.7297 25.6382 11.4945 25.6739 12.2659C25.7039 13.1388 25.9536 13.9901 26.3999 14.7409V14.7409ZM27.2029 11.1879C27.438 10.4863 27.9399 9.90539 28.5999 9.57087C29.0324 9.3144 29.5177 9.16014 30.0189 9.11987C30.4962 9.08505 30.9735 9.18815 31.3939 9.41687C31.8569 9.67249 32.2383 10.0538 32.4939 10.5169L27.4999 13.3989C27.127 12.7248 27.0285 11.9328 27.2249 11.1879H27.2029Z" fill="white"/>
<path d="M38.9612 4.08128C38.5804 4.49712 38.3349 5.01881 38.2572 5.57728L37.7952 4.18028L36.3652 4.64228L39.1702 13.2883L40.6002 12.8263L39.0712 8.11828C38.4992 6.36928 39.0272 5.23628 40.6992 4.71928L41.0732 4.59828L40.6002 3.11328C39.9738 3.27551 39.4057 3.611 38.9612 4.08128V4.08128Z" fill="white"/>
<path d="M245.448 38.2207C245.395 35.8534 245.135 33.4954 244.671 31.1738H212.809V44.4864H230.681C230.369 46.5707 229.637 48.5691 228.531 50.3592C227.425 52.1492 225.968 53.6935 224.248 54.8973V63.5545H235.339C241.756 57.5599 245.448 48.6954 245.448 38.2207Z" fill="#4284F4"/>
<path d="M212.696 71.8609C221.01 72.0997 229.1 69.1276 235.306 63.5545L224.215 54.8974C221.574 56.5974 218.583 57.6687 215.469 58.0295C212.355 58.3903 209.201 58.0312 206.245 56.9795C203.29 55.9278 200.612 54.2112 198.416 51.9606C196.22 49.7099 194.563 46.9846 193.572 43.9922H182.212V52.9045C185.047 58.5975 189.399 63.3852 194.783 66.7327C200.166 70.0802 206.368 71.8558 212.696 71.8609Z" fill="#59DC8E"/>
<path d="M193.605 43.9922C192.189 39.7399 192.189 35.1392 193.605 30.8869V21.9746H182.213C179.827 26.7763 178.585 32.0711 178.585 37.4395C178.585 42.808 179.827 48.1027 182.213 52.9045L193.605 43.9922Z" fill="#FBBC04"/>
<path d="M212.696 16.6975C217.551 16.6242 222.24 18.4737 225.752 21.8471L235.527 11.9783C229.361 6.12083 221.175 2.90249 212.696 3.00225C206.367 3.01072 200.164 4.78938 194.781 8.13964C189.398 11.4899 185.046 16.2799 182.212 21.9747L193.604 30.8869C194.904 26.8202 197.436 23.265 200.846 20.7202C204.256 18.1754 208.372 16.7687 212.617 16.6975H212.696Z" fill="#EA4335"/>
<path d="M139.103 106.92C137.861 106.172 136.834 105.112 136.124 103.843C135.387 102.521 135 101.03 135 99.5142C135 97.9983 135.387 96.5078 136.124 95.1857C136.862 93.903 137.922 92.8386 139.199 92.0997C140.476 91.3607 141.924 90.9734 143.396 90.9766C144.553 90.9715 145.699 91.1936 146.771 91.6303C147.762 92.0085 148.648 92.621 149.354 93.416L147.975 94.819C147.45 94.1711 146.776 93.6621 146.011 93.3362C145.081 92.9517 144.079 92.7808 143.075 92.836C142.072 92.8911 141.094 93.171 140.212 93.6551C139.178 94.1951 138.311 95.0116 137.708 96.0147C137.105 97.0766 136.798 98.2832 136.821 99.5063C136.8 100.734 137.106 101.945 137.708 103.014C138.283 103.996 139.11 104.805 140.101 105.357C141.069 105.903 142.16 106.188 143.27 106.186C144.204 106.213 145.133 106.039 145.995 105.676C146.705 105.352 147.345 104.891 147.88 104.321C148.295 103.853 148.623 103.312 148.847 102.727C149.092 102.088 149.242 101.417 149.29 100.734H143.365V98.9801H151.16C151.233 99.3745 151.27 99.7747 151.271 100.176C151.273 101.168 151.112 102.154 150.796 103.093C150.47 104.042 149.928 104.899 149.211 105.597C148.452 106.411 147.526 107.051 146.498 107.472C145.469 107.893 144.363 108.085 143.254 108.036C141.796 108.039 140.364 107.654 139.103 106.92V106.92Z" fill="white"/>
<path d="M156.043 107.222C155.145 106.681 154.411 105.904 153.919 104.974C153.43 104.009 153.175 102.94 153.175 101.857C153.175 100.773 153.43 99.7051 153.919 98.74C154.425 97.8013 155.174 97.0175 156.086 96.4712C156.998 95.925 158.039 95.6367 159.1 95.6367C160.162 95.6367 161.203 95.925 162.115 96.4712C163.027 97.0175 163.775 97.8013 164.281 98.74C164.781 99.702 165.042 100.771 165.042 101.857C165.042 102.942 164.781 104.012 164.281 104.974C163.79 105.904 163.056 106.681 162.158 107.222C161.226 107.754 160.172 108.034 159.1 108.034C158.028 108.034 156.975 107.754 156.043 107.222V107.222ZM161.081 105.739C161.716 105.363 162.228 104.809 162.554 104.145C162.932 103.405 163.13 102.585 163.13 101.753C163.13 100.921 162.932 100.102 162.554 99.3618C162.216 98.7364 161.717 98.214 161.11 97.8494C160.502 97.4847 159.808 97.2912 159.1 97.2891C158.398 97.2833 157.708 97.4707 157.104 97.8312C156.469 98.2071 155.957 98.7612 155.631 99.4255C155.253 100.165 155.055 100.985 155.055 101.817C155.055 102.649 155.253 103.469 155.631 104.209C155.957 104.873 156.469 105.427 157.104 105.803C157.708 106.163 158.398 106.351 159.1 106.345C159.806 106.329 160.492 106.113 161.081 105.723V105.739Z" fill="white"/>
<path d="M169.525 107.222C168.627 106.681 167.893 105.904 167.401 104.974C166.902 104.012 166.641 102.942 166.641 101.857C166.641 100.771 166.902 99.702 167.401 98.74C167.907 97.8013 168.656 97.0175 169.568 96.4712C170.48 95.925 171.521 95.6367 172.582 95.6367C173.644 95.6367 174.685 95.925 175.597 96.4712C176.509 97.0175 177.257 97.8013 177.763 98.74C178.263 99.702 178.524 100.771 178.524 101.857C178.524 102.942 178.263 104.012 177.763 104.974C177.272 105.904 176.538 106.681 175.64 107.222C174.708 107.754 173.654 108.034 172.582 108.034C171.51 108.034 170.457 107.754 169.525 107.222ZM174.563 105.739C175.198 105.363 175.71 104.809 176.036 104.145C176.414 103.405 176.612 102.585 176.612 101.753C176.612 100.921 176.414 100.102 176.036 99.3618C175.679 98.7607 175.169 98.2656 174.56 97.9268C173.95 97.588 173.263 97.4175 172.567 97.4326C171.864 97.4268 171.174 97.6142 170.57 97.9747C169.935 98.3506 169.423 98.9047 169.097 99.569C168.719 100.309 168.521 101.129 168.521 101.961C168.521 102.792 168.719 103.612 169.097 104.352C169.423 105.016 169.935 105.57 170.57 105.946C171.174 106.307 171.864 106.494 172.567 106.488C173.292 106.433 173.985 106.167 174.563 105.723V105.739Z" fill="white"/>
<path d="M182.455 112.006C181.63 111.45 181.007 110.638 180.681 109.695L182.423 108.945C182.677 109.593 183.119 110.149 183.691 110.54C184.314 110.973 185.057 111.196 185.814 111.177C186.32 111.209 186.827 111.137 187.304 110.964C187.781 110.791 188.217 110.522 188.587 110.173C188.934 109.786 189.2 109.332 189.369 108.839C189.538 108.346 189.606 107.823 189.569 107.303V105.996C189.171 106.606 188.626 107.105 187.985 107.447C187.191 107.849 186.308 108.039 185.421 108C184.533 107.961 183.67 107.694 182.915 107.223C182.073 106.684 181.394 105.923 180.95 105.023C180.448 104.038 180.198 102.942 180.221 101.835C180.203 100.728 180.454 99.6336 180.95 98.6459C181.394 97.7463 182.073 96.9855 182.915 96.4458C183.67 95.9756 184.533 95.7081 185.421 95.6691C186.308 95.63 187.191 95.8206 187.985 96.2226C188.631 96.5646 189.177 97.0702 189.569 97.6893V97.6893V96.095H191.407V107.255C191.455 108.039 191.339 108.825 191.066 109.561C190.793 110.297 190.369 110.967 189.823 111.528C188.714 112.533 187.257 113.06 185.767 112.995C184.587 113.024 183.428 112.678 182.455 112.006ZM187.715 105.725C188.298 105.324 188.763 104.773 189.062 104.13C189.401 103.379 189.576 102.564 189.576 101.739C189.576 100.914 189.401 100.099 189.062 99.3474C188.775 98.6966 188.307 98.143 187.715 97.7531C187.143 97.4021 186.484 97.2199 185.814 97.227C185.141 97.2175 184.481 97.4059 183.913 97.7691C183.315 98.1617 182.838 98.7137 182.534 99.3634C182.194 100.114 182.017 100.93 182.017 101.755C182.017 102.58 182.194 103.396 182.534 104.146C182.831 104.801 183.31 105.355 183.913 105.741C184.488 106.085 185.145 106.266 185.814 106.266C186.483 106.266 187.14 106.085 187.715 105.741V105.725Z" fill="white"/>
<path d="M194.24 91.375H196.173V107.701H194.24V91.375Z" fill="white"/>
<path d="M201.198 107.318C200.326 106.791 199.618 106.029 199.154 105.118C198.646 104.134 198.39 103.038 198.409 101.93C198.388 100.826 198.627 99.7336 199.106 98.7409C199.555 97.8356 200.239 97.0697 201.087 96.5248C201.965 95.9577 202.99 95.6638 204.034 95.6798C205.068 95.6516 206.089 95.9168 206.981 96.445C207.808 96.9452 208.474 97.6762 208.898 98.5496C209.355 99.509 209.583 100.563 209.563 101.627C209.591 101.822 209.591 102.021 209.563 102.216H200.342C200.36 103.008 200.578 103.782 200.976 104.464C201.324 105.04 201.823 105.509 202.417 105.82C202.978 106.122 203.604 106.28 204.24 106.282C204.954 106.286 205.655 106.086 206.261 105.705C206.867 105.324 207.353 104.778 207.662 104.13L209.246 104.927C208.771 105.837 208.073 106.611 207.218 107.175C206.293 107.703 205.248 107.981 204.184 107.981C203.12 107.981 202.075 107.703 201.15 107.175L201.198 107.318ZM207.535 100.702C207.494 100.196 207.354 99.7025 207.123 99.2511C206.866 98.7413 206.471 98.3155 205.982 98.0234C205.389 97.668 204.708 97.4909 204.018 97.5132C203.168 97.4966 202.345 97.8107 201.72 98.3901C201.071 99.0064 200.638 99.8173 200.485 100.702H207.535Z" fill="white"/>
<path d="M216.516 91.3751H221.966C222.844 91.3689 223.71 91.5826 224.486 91.9969C225.237 92.4003 225.87 92.9938 226.324 93.7188C226.78 94.47 227.022 95.3334 227.022 96.2139C227.022 97.0944 226.78 97.9578 226.324 98.709C225.87 99.434 225.237 100.027 224.486 100.431C223.71 100.845 222.844 101.059 221.966 101.053H218.417V107.701H216.516V91.3751ZM222.014 99.2033C222.572 99.2119 223.121 99.0627 223.598 98.7728C224.044 98.496 224.414 98.1126 224.676 97.6568C224.924 97.217 225.055 96.7198 225.055 96.2139C225.055 95.708 224.924 95.2108 224.676 94.771C224.414 94.3152 224.044 93.9318 223.598 93.655C223.121 93.3651 222.572 93.2159 222.014 93.2246H218.417V99.2033H222.014Z" fill="white"/>
<path d="M230.903 107.542C230.26 107.242 229.719 106.759 229.347 106.152C228.975 105.546 228.789 104.842 228.811 104.13C228.787 103.572 228.901 103.017 229.141 102.513C229.382 102.01 229.742 101.574 230.19 101.244C231.214 100.524 232.443 100.16 233.691 100.208C234.342 100.207 234.991 100.282 235.624 100.431C236.099 100.546 236.557 100.723 236.987 100.957V100.256C237.003 99.8616 236.929 99.469 236.773 99.1073C236.617 98.7456 236.381 98.4242 236.084 98.1672C235.446 97.6304 234.633 97.3519 233.802 97.386C233.181 97.381 232.568 97.523 232.012 97.8005C231.477 98.0632 231.027 98.4721 230.712 98.9803L229.271 97.8802C229.738 97.1877 230.385 96.6365 231.14 96.2859C231.959 95.8836 232.86 95.6815 233.77 95.696C235.119 95.6193 236.445 96.0642 237.478 96.9396C237.932 97.3717 238.287 97.8975 238.519 98.481C238.752 99.0645 238.856 99.6917 238.825 100.32V107.685H236.987V106.091C236.589 106.698 236.044 107.191 235.402 107.526C234.725 107.925 233.953 108.129 233.168 108.116C232.378 108.109 231.602 107.912 230.903 107.542V107.542ZM235.149 105.82C235.704 105.497 236.168 105.036 236.496 104.481C236.825 103.921 236.995 103.281 236.987 102.631C236.573 102.373 236.125 102.174 235.656 102.041C235.11 101.885 234.544 101.81 233.976 101.818C233.128 101.752 232.283 101.983 231.584 102.472C231.329 102.675 231.125 102.935 230.988 103.231C230.85 103.527 230.783 103.851 230.792 104.178C230.779 104.481 230.836 104.783 230.96 105.06C231.084 105.337 231.27 105.581 231.505 105.772C232.032 106.174 232.681 106.382 233.343 106.362C233.983 106.353 234.608 106.166 235.149 105.82V105.82Z" fill="white"/>
<path d="M241.186 96.1576H243.024V98.0708C243.294 97.3947 243.786 96.832 244.418 96.4765C245.315 95.9596 246.366 95.7842 247.381 95.9822V97.9592C247.037 97.8865 246.686 97.8544 246.335 97.8635C245.89 97.8498 245.446 97.9307 245.034 98.101C244.622 98.2713 244.25 98.5272 243.943 98.852C243.318 99.5494 242.988 100.465 243.024 101.403V107.78H241.186V96.1576ZM252.91 107.732C252.531 107.603 252.185 107.39 251.896 107.111C251.6 106.822 251.368 106.475 251.215 106.09C251.058 105.634 250.983 105.154 250.993 104.671V97.7519H248.981V95.9982H250.993V92.7617H252.91V96.046H255.731V97.7519H252.91V104.225C252.874 104.735 253.002 105.244 253.275 105.676C253.433 105.848 253.627 105.984 253.844 106.072C254.06 106.16 254.293 106.199 254.526 106.186C254.976 106.183 255.416 106.05 255.794 105.803V107.685C255.573 107.795 255.339 107.875 255.097 107.924C254.802 107.953 254.505 107.953 254.209 107.924C253.772 107.965 253.331 107.921 252.91 107.796V107.732Z" fill="white"/>
<path d="M257.931 96.0463H259.706V97.7522H259.801C260.18 97.1222 260.73 96.6135 261.385 96.2854C262.058 95.8895 262.824 95.6804 263.603 95.6796C264.187 95.6438 264.771 95.7333 265.317 95.9422C265.864 96.1511 266.36 96.4746 266.772 96.8912C267.543 97.8225 267.934 99.0134 267.865 100.223V107.669H265.948V100.51C265.99 100.087 265.942 99.6591 265.808 99.2553C265.675 98.8515 265.458 98.4805 265.172 98.1667C264.594 97.6509 263.836 97.3871 263.065 97.4333C262.469 97.4263 261.886 97.6106 261.401 97.9594C260.907 98.3135 260.514 98.7917 260.26 99.3465C259.99 99.9026 259.849 100.513 259.848 101.132V107.669H257.931V96.0463Z" fill="white"/>
<path d="M272.811 107.318C271.939 106.791 271.231 106.029 270.767 105.118C270.26 104.134 270.004 103.038 270.022 101.93C270.002 100.826 270.241 99.7336 270.719 98.7409C271.155 97.8279 271.829 97.051 272.668 96.4929C273.532 95.9489 274.533 95.6667 275.552 95.6798C276.586 95.6516 277.607 95.9168 278.499 96.445C279.327 96.9452 279.993 97.6762 280.416 98.5496C280.873 99.509 281.101 100.563 281.082 101.627C281.109 101.822 281.109 102.021 281.082 102.216H271.955C271.966 103.009 272.185 103.784 272.589 104.464C272.937 105.04 273.436 105.509 274.031 105.82C274.591 106.122 275.217 106.28 275.853 106.282C276.56 106.291 277.256 106.099 277.859 105.726C278.462 105.354 278.948 104.817 279.259 104.178L280.844 104.975C280.368 105.889 279.663 106.664 278.8 107.223C277.847 107.804 276.744 108.087 275.631 108.036C274.645 108.047 273.673 107.8 272.811 107.318V107.318ZM279.149 100.702C279.108 100.196 278.968 99.7025 278.737 99.2511C278.472 98.7466 278.078 98.3226 277.596 98.0234C276.989 97.6249 276.277 97.4194 275.552 97.4335C274.702 97.4169 273.879 97.731 273.255 98.3104C272.606 98.9266 272.172 99.7376 272.019 100.622L279.149 100.702Z" fill="white"/>
<path d="M283.361 96.0466H285.199V97.9119H285.294C285.544 97.248 286.006 96.6869 286.609 96.3176C287.207 95.907 287.913 95.685 288.637 95.6799C289.104 95.6627 289.57 95.7498 289.999 95.935V98.0076C289.506 97.7663 288.964 97.6409 288.415 97.6409C287.85 97.6302 287.296 97.7974 286.831 98.1192C286.357 98.4512 285.971 98.8945 285.706 99.4106C285.434 99.9547 285.293 100.555 285.294 101.164V107.669H283.361V96.0466Z" fill="white"/>
</svg>
