<svg width="125" height="60" viewBox="0 0 125 60" fill="none" xmlns="http://www.w3.org/2000/svg">
<g clip-path="url(#clip0_7643_16190)">
<path d="M7.22342 26.2236H4.64748C4.48405 26.2236 4.35156 26.3567 4.35156 26.5208V29.108C4.35156 29.2721 4.48405 29.4052 4.64748 29.4052H7.22342C7.38685 29.4052 7.51934 29.2721 7.51934 29.108V26.5208C7.51934 26.3567 7.38685 26.2236 7.22342 26.2236Z" fill="#59DC8E"/>
<path d="M24.6307 17.4824H22.0547C21.8913 17.4824 21.7588 17.6155 21.7588 17.7796V20.3668C21.7588 20.5309 21.8913 20.664 22.0547 20.664H24.6307C24.7941 20.664 24.9266 20.5309 24.9266 20.3668V17.7796C24.9266 17.6155 24.7941 17.4824 24.6307 17.4824Z" fill="#59DC8E"/>
<path d="M28.9827 13.1118H26.4068C26.2433 13.1118 26.1108 13.2449 26.1108 13.409V15.9962C26.1108 16.1603 26.2433 16.2934 26.4068 16.2934H28.9827C29.1461 16.2934 29.2786 16.1603 29.2786 15.9962V13.409C29.2786 13.2449 29.1461 13.1118 28.9827 13.1118Z" fill="#59DC8E"/>
<path d="M33.3343 13.1118H30.7583C30.5949 13.1118 30.4624 13.2449 30.4624 13.409V15.9962C30.4624 16.1603 30.5949 16.2934 30.7583 16.2934H33.3343C33.4977 16.2934 33.6302 16.1603 33.6302 15.9962V13.409C33.6302 13.2449 33.4977 13.1118 33.3343 13.1118Z" fill="#59DC8E"/>
<path d="M42.0379 8.7417H39.4619C39.2985 8.7417 39.166 8.87476 39.166 9.0389V11.6261C39.166 11.7902 39.2985 11.9233 39.4619 11.9233H42.0379C42.2013 11.9233 42.3338 11.7902 42.3338 11.6261V9.0389C42.3338 8.87476 42.2013 8.7417 42.0379 8.7417Z" fill="#59DC8E"/>
<path d="M46.3894 4.37061H43.8135C43.6501 4.37061 43.5176 4.50367 43.5176 4.66781V7.25496C43.5176 7.4191 43.6501 7.55216 43.8135 7.55216H46.3894C46.5529 7.55216 46.6854 7.4191 46.6854 7.25496V4.66781C46.6854 4.50367 46.5529 4.37061 46.3894 4.37061Z" fill="#59DC8E"/>
<path d="M46.3894 8.7417H43.8135C43.6501 8.7417 43.5176 8.87476 43.5176 9.0389V11.6261C43.5176 11.7902 43.6501 11.9233 43.8135 11.9233H46.3894C46.5529 11.9233 46.6854 11.7902 46.6854 11.6261V9.0389C46.6854 8.87476 46.5529 8.7417 46.3894 8.7417Z" fill="#59DC8E"/>
<path d="M50.7415 4.37061H48.1655C48.0021 4.37061 47.8696 4.50367 47.8696 4.66781V7.25496C47.8696 7.4191 48.0021 7.55216 48.1655 7.55216H50.7415C50.9049 7.55216 51.0374 7.4191 51.0374 7.25496V4.66781C51.0374 4.50367 50.9049 4.37061 50.7415 4.37061Z" fill="#59DC8E"/>
<path d="M50.7415 8.7417H48.1655C48.0021 8.7417 47.8696 8.87476 47.8696 9.0389V11.6261C47.8696 11.7902 48.0021 11.9233 48.1655 11.9233H50.7415C50.9049 11.9233 51.0374 11.7902 51.0374 11.6261V9.0389C51.0374 8.87476 50.9049 8.7417 50.7415 8.7417Z" fill="#59DC8E"/>
<path d="M55.0931 4.37061H52.5171C52.3537 4.37061 52.2212 4.50367 52.2212 4.66781V7.25496C52.2212 7.4191 52.3537 7.55216 52.5171 7.55216H55.0931C55.2565 7.55216 55.389 7.4191 55.389 7.25496V4.66781C55.389 4.50367 55.2565 4.37061 55.0931 4.37061Z" fill="#59DC8E"/>
<path d="M59.4441 4.37061H56.8682C56.7048 4.37061 56.5723 4.50367 56.5723 4.66781V7.25496C56.5723 7.4191 56.7048 7.55216 56.8682 7.55216H59.4441C59.6076 7.55216 59.74 7.4191 59.74 7.25496V4.66781C59.74 4.50367 59.6076 4.37061 59.4441 4.37061Z" fill="#59DC8E"/>
<path d="M59.4441 8.7417H56.8682C56.7048 8.7417 56.5723 8.87476 56.5723 9.0389V11.6261C56.5723 11.7902 56.7048 11.9233 56.8682 11.9233H59.4441C59.6076 11.9233 59.74 11.7902 59.74 11.6261V9.0389C59.74 8.87476 59.6076 8.7417 59.4441 8.7417Z" fill="#59DC8E"/>
<path d="M59.4441 13.1118H56.8682C56.7048 13.1118 56.5723 13.2449 56.5723 13.409V15.9962C56.5723 16.1603 56.7048 16.2934 56.8682 16.2934H59.4441C59.6076 16.2934 59.74 16.1603 59.74 15.9962V13.409C59.74 13.2449 59.6076 13.1118 59.4441 13.1118Z" fill="#59DC8E"/>
<path d="M63.7967 8.7417H61.2207C61.0573 8.7417 60.9248 8.87476 60.9248 9.0389V11.6261C60.9248 11.7902 61.0573 11.9233 61.2207 11.9233H63.7967C63.9601 11.9233 64.0926 11.7902 64.0926 11.6261V9.0389C64.0926 8.87476 63.9601 8.7417 63.7967 8.7417Z" fill="#59DC8E"/>
<path d="M63.7967 13.1118H61.2207C61.0573 13.1118 60.9248 13.2449 60.9248 13.409V15.9962C60.9248 16.1603 61.0573 16.2934 61.2207 16.2934H63.7967C63.9601 16.2934 64.0926 16.1603 64.0926 15.9962V13.409C64.0926 13.2449 63.9601 13.1118 63.7967 13.1118Z" fill="#59DC8E"/>
<path d="M2.87186 30.5942H0.295916C0.132486 30.5942 0 30.7273 0 30.8914V33.4786C0 33.6427 0.132486 33.7758 0.295916 33.7758H2.87186C3.03529 33.7758 3.16778 33.6427 3.16778 33.4786V30.8914C3.16778 30.7273 3.03529 30.5942 2.87186 30.5942Z" fill="#59DC8E"/>
<path d="M7.22342 30.5942H4.64748C4.48405 30.5942 4.35156 30.7273 4.35156 30.8914V33.4786C4.35156 33.6427 4.48405 33.7758 4.64748 33.7758H7.22342C7.38685 33.7758 7.51934 33.6427 7.51934 33.4786V30.8914C7.51934 30.7273 7.38685 30.5942 7.22342 30.5942Z" fill="#59DC8E"/>
<path d="M7.22342 34.9653H4.64748C4.48405 34.9653 4.35156 35.0984 4.35156 35.2625V37.8497C4.35156 38.0138 4.48405 38.1469 4.64748 38.1469H7.22342C7.38685 38.1469 7.51934 38.0138 7.51934 37.8497V35.2625C7.51934 35.0984 7.38685 34.9653 7.22342 34.9653Z" fill="#59DC8E"/>
<path d="M7.22342 39.3354H4.64748C4.48405 39.3354 4.35156 39.4685 4.35156 39.6327V42.2198C4.35156 42.3839 4.48405 42.517 4.64748 42.517H7.22342C7.38685 42.517 7.51934 42.3839 7.51934 42.2198V39.6327C7.51934 39.4685 7.38685 39.3354 7.22342 39.3354Z" fill="#59DC8E"/>
<path d="M11.5755 26.2236H8.99953C8.8361 26.2236 8.70361 26.3567 8.70361 26.5208V29.108C8.70361 29.2721 8.8361 29.4052 8.99953 29.4052H11.5755C11.7389 29.4052 11.8714 29.2721 11.8714 29.108V26.5208C11.8714 26.3567 11.7389 26.2236 11.5755 26.2236Z" fill="#59DC8E"/>
<path d="M11.5755 30.5942H8.99953C8.8361 30.5942 8.70361 30.7273 8.70361 30.8914V33.4786C8.70361 33.6427 8.8361 33.7758 8.99953 33.7758H11.5755C11.7389 33.7758 11.8714 33.6427 11.8714 33.4786V30.8914C11.8714 30.7273 11.7389 30.5942 11.5755 30.5942Z" fill="#59DC8E"/>
<path d="M11.5755 34.9653H8.99953C8.8361 34.9653 8.70361 35.0984 8.70361 35.2625V37.8497C8.70361 38.0138 8.8361 38.1469 8.99953 38.1469H11.5755C11.7389 38.1469 11.8714 38.0138 11.8714 37.8497V35.2625C11.8714 35.0984 11.7389 34.9653 11.5755 34.9653Z" fill="#59DC8E"/>
<path d="M11.5755 39.3354H8.99953C8.8361 39.3354 8.70361 39.4685 8.70361 39.6327V42.2198C8.70361 42.3839 8.8361 42.517 8.99953 42.517H11.5755C11.7389 42.517 11.8714 42.3839 11.8714 42.2198V39.6327C11.8714 39.4685 11.7389 39.3354 11.5755 39.3354Z" fill="#59DC8E"/>
<path d="M15.927 26.2236H13.3511C13.1877 26.2236 13.0552 26.3567 13.0552 26.5208V29.108C13.0552 29.2721 13.1877 29.4052 13.3511 29.4052H15.927C16.0905 29.4052 16.223 29.2721 16.223 29.108V26.5208C16.223 26.3567 16.0905 26.2236 15.927 26.2236Z" fill="#59DC8E"/>
<path d="M15.927 30.5942H13.3511C13.1877 30.5942 13.0552 30.7273 13.0552 30.8914V33.4786C13.0552 33.6427 13.1877 33.7758 13.3511 33.7758H15.927C16.0905 33.7758 16.223 33.6427 16.223 33.4786V30.8914C16.223 30.7273 16.0905 30.5942 15.927 30.5942Z" fill="#59DC8E"/>
<path d="M15.927 34.9653H13.3511C13.1877 34.9653 13.0552 35.0984 13.0552 35.2625V37.8497C13.0552 38.0138 13.1877 38.1469 13.3511 38.1469H15.927C16.0905 38.1469 16.223 38.0138 16.223 37.8497V35.2625C16.223 35.0984 16.0905 34.9653 15.927 34.9653Z" fill="#59DC8E"/>
<path d="M15.927 39.3354H13.3511C13.1877 39.3354 13.0552 39.4685 13.0552 39.6327V42.2198C13.0552 42.3839 13.1877 42.517 13.3511 42.517H15.927C16.0905 42.517 16.223 42.3839 16.223 42.2198V39.6327C16.223 39.4685 16.0905 39.3354 15.927 39.3354Z" fill="#59DC8E"/>
<path d="M15.927 43.7061H13.3511C13.1877 43.7061 13.0552 43.8391 13.0552 44.0033V46.5904C13.0552 46.7545 13.1877 46.8876 13.3511 46.8876H15.927C16.0905 46.8876 16.223 46.7545 16.223 46.5904V44.0033C16.223 43.8391 16.0905 43.7061 15.927 43.7061Z" fill="#59DC8E"/>
<path d="M20.2791 21.8535H17.7031C17.5397 21.8535 17.4072 21.9866 17.4072 22.1507V24.7379C17.4072 24.902 17.5397 25.0351 17.7031 25.0351H20.2791C20.4425 25.0351 20.575 24.902 20.575 24.7379V22.1507C20.575 21.9866 20.4425 21.8535 20.2791 21.8535Z" fill="#59DC8E"/>
<path d="M20.2791 26.2236H17.7031C17.5397 26.2236 17.4072 26.3567 17.4072 26.5208V29.108C17.4072 29.2721 17.5397 29.4052 17.7031 29.4052H20.2791C20.4425 29.4052 20.575 29.2721 20.575 29.108V26.5208C20.575 26.3567 20.4425 26.2236 20.2791 26.2236Z" fill="#59DC8E"/>
<path d="M20.2791 30.5942H17.7031C17.5397 30.5942 17.4072 30.7273 17.4072 30.8914V33.4786C17.4072 33.6427 17.5397 33.7758 17.7031 33.7758H20.2791C20.4425 33.7758 20.575 33.6427 20.575 33.4786V30.8914C20.575 30.7273 20.4425 30.5942 20.2791 30.5942Z" fill="#59DC8E"/>
<path d="M20.2791 34.9653H17.7031C17.5397 34.9653 17.4072 35.0984 17.4072 35.2625V37.8497C17.4072 38.0138 17.5397 38.1469 17.7031 38.1469H20.2791C20.4425 38.1469 20.575 38.0138 20.575 37.8497V35.2625C20.575 35.0984 20.4425 34.9653 20.2791 34.9653Z" fill="#59DC8E"/>
<path d="M20.2791 39.3354H17.7031C17.5397 39.3354 17.4072 39.4685 17.4072 39.6327V42.2198C17.4072 42.3839 17.5397 42.517 17.7031 42.517H20.2791C20.4425 42.517 20.575 42.3839 20.575 42.2198V39.6327C20.575 39.4685 20.4425 39.3354 20.2791 39.3354Z" fill="#59DC8E"/>
<path d="M20.2791 43.7061H17.7031C17.5397 43.7061 17.4072 43.8391 17.4072 44.0033V46.5904C17.4072 46.7545 17.5397 46.8876 17.7031 46.8876H20.2791C20.4425 46.8876 20.575 46.7545 20.575 46.5904V44.0033C20.575 43.8391 20.4425 43.7061 20.2791 43.7061Z" fill="#59DC8E"/>
<path d="M24.6307 21.8535H22.0547C21.8913 21.8535 21.7588 21.9866 21.7588 22.1507V24.7379C21.7588 24.902 21.8913 25.0351 22.0547 25.0351H24.6307C24.7941 25.0351 24.9266 24.902 24.9266 24.7379V22.1507C24.9266 21.9866 24.7941 21.8535 24.6307 21.8535Z" fill="#59DC8E"/>
<path d="M24.6307 26.2236H22.0547C21.8913 26.2236 21.7588 26.3567 21.7588 26.5208V29.108C21.7588 29.2721 21.8913 29.4052 22.0547 29.4052H24.6307C24.7941 29.4052 24.9266 29.2721 24.9266 29.108V26.5208C24.9266 26.3567 24.7941 26.2236 24.6307 26.2236Z" fill="#59DC8E"/>
<path d="M24.6307 30.5942H22.0547C21.8913 30.5942 21.7588 30.7273 21.7588 30.8914V33.4786C21.7588 33.6427 21.8913 33.7758 22.0547 33.7758H24.6307C24.7941 33.7758 24.9266 33.6427 24.9266 33.4786V30.8914C24.9266 30.7273 24.7941 30.5942 24.6307 30.5942Z" fill="#59DC8E"/>
<path d="M24.6307 34.9653H22.0547C21.8913 34.9653 21.7588 35.0984 21.7588 35.2625V37.8497C21.7588 38.0138 21.8913 38.1469 22.0547 38.1469H24.6307C24.7941 38.1469 24.9266 38.0138 24.9266 37.8497V35.2625C24.9266 35.0984 24.7941 34.9653 24.6307 34.9653Z" fill="#59DC8E"/>
<path d="M24.6307 39.3354H22.0547C21.8913 39.3354 21.7588 39.4685 21.7588 39.6327V42.2198C21.7588 42.3839 21.8913 42.517 22.0547 42.517H24.6307C24.7941 42.517 24.9266 42.3839 24.9266 42.2198V39.6327C24.9266 39.4685 24.7941 39.3354 24.6307 39.3354Z" fill="#59DC8E"/>
<path d="M24.6307 43.7061H22.0547C21.8913 43.7061 21.7588 43.8391 21.7588 44.0033V46.5904C21.7588 46.7545 21.8913 46.8876 22.0547 46.8876H24.6307C24.7941 46.8876 24.9266 46.7545 24.9266 46.5904V44.0033C24.9266 43.8391 24.7941 43.7061 24.6307 43.7061Z" fill="#59DC8E"/>
<path d="M24.6307 48.0771H22.0547C21.8913 48.0771 21.7588 48.2102 21.7588 48.3744V50.9615C21.7588 51.1256 21.8913 51.2587 22.0547 51.2587H24.6307C24.7941 51.2587 24.9266 51.1256 24.9266 50.9615V48.3744C24.9266 48.2102 24.7941 48.0771 24.6307 48.0771Z" fill="#59DC8E"/>
<path d="M24.6307 52.4473H22.0547C21.8913 52.4473 21.7588 52.5803 21.7588 52.7445V55.3316C21.7588 55.4958 21.8913 55.6288 22.0547 55.6288H24.6307C24.7941 55.6288 24.9266 55.4958 24.9266 55.3316V52.7445C24.9266 52.5803 24.7941 52.4473 24.6307 52.4473Z" fill="#59DC8E"/>
<path d="M28.9827 17.4824H26.4068C26.2433 17.4824 26.1108 17.6155 26.1108 17.7796V20.3668C26.1108 20.5309 26.2433 20.664 26.4068 20.664H28.9827C29.1461 20.664 29.2786 20.5309 29.2786 20.3668V17.7796C29.2786 17.6155 29.1461 17.4824 28.9827 17.4824Z" fill="#59DC8E"/>
<path d="M28.9827 21.8535H26.4068C26.2433 21.8535 26.1108 21.9866 26.1108 22.1507V24.7379C26.1108 24.902 26.2433 25.0351 26.4068 25.0351H28.9827C29.1461 25.0351 29.2786 24.902 29.2786 24.7379V22.1507C29.2786 21.9866 29.1461 21.8535 28.9827 21.8535Z" fill="#59DC8E"/>
<path d="M28.9827 26.2236H26.4068C26.2433 26.2236 26.1108 26.3567 26.1108 26.5208V29.108C26.1108 29.2721 26.2433 29.4052 26.4068 29.4052H28.9827C29.1461 29.4052 29.2786 29.2721 29.2786 29.108V26.5208C29.2786 26.3567 29.1461 26.2236 28.9827 26.2236Z" fill="#59DC8E"/>
<path d="M28.9827 30.5942H26.4068C26.2433 30.5942 26.1108 30.7273 26.1108 30.8914V33.4786C26.1108 33.6427 26.2433 33.7758 26.4068 33.7758H28.9827C29.1461 33.7758 29.2786 33.6427 29.2786 33.4786V30.8914C29.2786 30.7273 29.1461 30.5942 28.9827 30.5942Z" fill="#59DC8E"/>
<path d="M28.9827 34.9653H26.4068C26.2433 34.9653 26.1108 35.0984 26.1108 35.2625V37.8497C26.1108 38.0138 26.2433 38.1469 26.4068 38.1469H28.9827C29.1461 38.1469 29.2786 38.0138 29.2786 37.8497V35.2625C29.2786 35.0984 29.1461 34.9653 28.9827 34.9653Z" fill="#59DC8E"/>
<path d="M28.9827 39.3354H26.4068C26.2433 39.3354 26.1108 39.4685 26.1108 39.6327V42.2198C26.1108 42.3839 26.2433 42.517 26.4068 42.517H28.9827C29.1461 42.517 29.2786 42.3839 29.2786 42.2198V39.6327C29.2786 39.4685 29.1461 39.3354 28.9827 39.3354Z" fill="#59DC8E"/>
<path d="M28.9827 43.7061H26.4068C26.2433 43.7061 26.1108 43.8391 26.1108 44.0033V46.5904C26.1108 46.7545 26.2433 46.8876 26.4068 46.8876H28.9827C29.1461 46.8876 29.2786 46.7545 29.2786 46.5904V44.0033C29.2786 43.8391 29.1461 43.7061 28.9827 43.7061Z" fill="#59DC8E"/>
<path d="M28.9827 48.0771H26.4068C26.2433 48.0771 26.1108 48.2102 26.1108 48.3744V50.9615C26.1108 51.1256 26.2433 51.2587 26.4068 51.2587H28.9827C29.1461 51.2587 29.2786 51.1256 29.2786 50.9615V48.3744C29.2786 48.2102 29.1461 48.0771 28.9827 48.0771Z" fill="#59DC8E"/>
<path d="M28.9827 52.4473H26.4068C26.2433 52.4473 26.1108 52.5803 26.1108 52.7445V55.3316C26.1108 55.4958 26.2433 55.6288 26.4068 55.6288H28.9827C29.1461 55.6288 29.2786 55.4958 29.2786 55.3316V52.7445C29.2786 52.5803 29.1461 52.4473 28.9827 52.4473Z" fill="#59DC8E"/>
<path d="M28.9827 56.8179H26.4068C26.2433 56.8179 26.1108 56.9509 26.1108 57.1151V59.7022C26.1108 59.8664 26.2433 59.9994 26.4068 59.9994H28.9827C29.1461 59.9994 29.2786 59.8664 29.2786 59.7022V57.1151C29.2786 56.9509 29.1461 56.8179 28.9827 56.8179Z" fill="#59DC8E"/>
<path d="M33.3343 17.4824H30.7583C30.5949 17.4824 30.4624 17.6155 30.4624 17.7796V20.3668C30.4624 20.5309 30.5949 20.664 30.7583 20.664H33.3343C33.4977 20.664 33.6302 20.5309 33.6302 20.3668V17.7796C33.6302 17.6155 33.4977 17.4824 33.3343 17.4824Z" fill="#59DC8E"/>
<path d="M33.3343 21.8535H30.7583C30.5949 21.8535 30.4624 21.9866 30.4624 22.1507V24.7379C30.4624 24.902 30.5949 25.0351 30.7583 25.0351H33.3343C33.4977 25.0351 33.6302 24.902 33.6302 24.7379V22.1507C33.6302 21.9866 33.4977 21.8535 33.3343 21.8535Z" fill="#59DC8E"/>
<path d="M33.3343 26.2236H30.7583C30.5949 26.2236 30.4624 26.3567 30.4624 26.5208V29.108C30.4624 29.2721 30.5949 29.4052 30.7583 29.4052H33.3343C33.4977 29.4052 33.6302 29.2721 33.6302 29.108V26.5208C33.6302 26.3567 33.4977 26.2236 33.3343 26.2236Z" fill="#59DC8E"/>
<path d="M33.3343 30.5942H30.7583C30.5949 30.5942 30.4624 30.7273 30.4624 30.8914V33.4786C30.4624 33.6427 30.5949 33.7758 30.7583 33.7758H33.3343C33.4977 33.7758 33.6302 33.6427 33.6302 33.4786V30.8914C33.6302 30.7273 33.4977 30.5942 33.3343 30.5942Z" fill="#59DC8E"/>
<path d="M33.3343 34.9653H30.7583C30.5949 34.9653 30.4624 35.0984 30.4624 35.2625V37.8497C30.4624 38.0138 30.5949 38.1469 30.7583 38.1469H33.3343C33.4977 38.1469 33.6302 38.0138 33.6302 37.8497V35.2625C33.6302 35.0984 33.4977 34.9653 33.3343 34.9653Z" fill="#59DC8E"/>
<path d="M33.3343 39.3354H30.7583C30.5949 39.3354 30.4624 39.4685 30.4624 39.6327V42.2198C30.4624 42.3839 30.5949 42.517 30.7583 42.517H33.3343C33.4977 42.517 33.6302 42.3839 33.6302 42.2198V39.6327C33.6302 39.4685 33.4977 39.3354 33.3343 39.3354Z" fill="#59DC8E"/>
<path d="M33.3343 43.7061H30.7583C30.5949 43.7061 30.4624 43.8391 30.4624 44.0033V46.5904C30.4624 46.7545 30.5949 46.8876 30.7583 46.8876H33.3343C33.4977 46.8876 33.6302 46.7545 33.6302 46.5904V44.0033C33.6302 43.8391 33.4977 43.7061 33.3343 43.7061Z" fill="#59DC8E"/>
<path d="M33.3343 48.0771H30.7583C30.5949 48.0771 30.4624 48.2102 30.4624 48.3744V50.9615C30.4624 51.1256 30.5949 51.2587 30.7583 51.2587H33.3343C33.4977 51.2587 33.6302 51.1256 33.6302 50.9615V48.3744C33.6302 48.2102 33.4977 48.0771 33.3343 48.0771Z" fill="#59DC8E"/>
<path d="M33.3343 52.4473H30.7583C30.5949 52.4473 30.4624 52.5803 30.4624 52.7445V55.3316C30.4624 55.4958 30.5949 55.6288 30.7583 55.6288H33.3343C33.4977 55.6288 33.6302 55.4958 33.6302 55.3316V52.7445C33.6302 52.5803 33.4977 52.4473 33.3343 52.4473Z" fill="#59DC8E"/>
<path d="M37.6858 13.1118H35.1099C34.9465 13.1118 34.814 13.2449 34.814 13.409V15.9962C34.814 16.1603 34.9465 16.2934 35.1099 16.2934H37.6858C37.8493 16.2934 37.9817 16.1603 37.9817 15.9962V13.409C37.9817 13.2449 37.8493 13.1118 37.6858 13.1118Z" fill="#59DC8E"/>
<path d="M37.6858 17.4824H35.1099C34.9465 17.4824 34.814 17.6155 34.814 17.7796V20.3668C34.814 20.5309 34.9465 20.664 35.1099 20.664H37.6858C37.8493 20.664 37.9817 20.5309 37.9817 20.3668V17.7796C37.9817 17.6155 37.8493 17.4824 37.6858 17.4824Z" fill="#59DC8E"/>
<path d="M37.6858 21.8535H35.1099C34.9465 21.8535 34.814 21.9866 34.814 22.1507V24.7379C34.814 24.902 34.9465 25.0351 35.1099 25.0351H37.6858C37.8493 25.0351 37.9817 24.902 37.9817 24.7379V22.1507C37.9817 21.9866 37.8493 21.8535 37.6858 21.8535Z" fill="#59DC8E"/>
<path d="M37.6858 26.2236H35.1099C34.9465 26.2236 34.814 26.3567 34.814 26.5208V29.108C34.814 29.2721 34.9465 29.4052 35.1099 29.4052H37.6858C37.8493 29.4052 37.9817 29.2721 37.9817 29.108V26.5208C37.9817 26.3567 37.8493 26.2236 37.6858 26.2236Z" fill="#59DC8E"/>
<path d="M37.6858 30.5942H35.1099C34.9465 30.5942 34.814 30.7273 34.814 30.8914V33.4786C34.814 33.6427 34.9465 33.7758 35.1099 33.7758H37.6858C37.8493 33.7758 37.9817 33.6427 37.9817 33.4786V30.8914C37.9817 30.7273 37.8493 30.5942 37.6858 30.5942Z" fill="#59DC8E"/>
<path d="M37.6858 34.9653H35.1099C34.9465 34.9653 34.814 35.0984 34.814 35.2625V37.8497C34.814 38.0138 34.9465 38.1469 35.1099 38.1469H37.6858C37.8493 38.1469 37.9817 38.0138 37.9817 37.8497V35.2625C37.9817 35.0984 37.8493 34.9653 37.6858 34.9653Z" fill="#59DC8E"/>
<path d="M37.6858 39.3354H35.1099C34.9465 39.3354 34.814 39.4685 34.814 39.6327V42.2198C34.814 42.3839 34.9465 42.517 35.1099 42.517H37.6858C37.8493 42.517 37.9817 42.3839 37.9817 42.2198V39.6327C37.9817 39.4685 37.8493 39.3354 37.6858 39.3354Z" fill="#59DC8E"/>
<path d="M37.6858 43.7061H35.1099C34.9465 43.7061 34.814 43.8391 34.814 44.0033V46.5904C34.814 46.7545 34.9465 46.8876 35.1099 46.8876H37.6858C37.8493 46.8876 37.9817 46.7545 37.9817 46.5904V44.0033C37.9817 43.8391 37.8493 43.7061 37.6858 43.7061Z" fill="#59DC8E"/>
<path d="M37.6858 48.0771H35.1099C34.9465 48.0771 34.814 48.2102 34.814 48.3744V50.9615C34.814 51.1256 34.9465 51.2587 35.1099 51.2587H37.6858C37.8493 51.2587 37.9817 51.1256 37.9817 50.9615V48.3744C37.9817 48.2102 37.8493 48.0771 37.6858 48.0771Z" fill="#59DC8E"/>
<path d="M42.0379 13.1118H39.4619C39.2985 13.1118 39.166 13.2449 39.166 13.409V15.9962C39.166 16.1603 39.2985 16.2934 39.4619 16.2934H42.0379C42.2013 16.2934 42.3338 16.1603 42.3338 15.9962V13.409C42.3338 13.2449 42.2013 13.1118 42.0379 13.1118Z" fill="#59DC8E"/>
<path d="M42.0379 17.4824H39.4619C39.2985 17.4824 39.166 17.6155 39.166 17.7796V20.3668C39.166 20.5309 39.2985 20.664 39.4619 20.664H42.0379C42.2013 20.664 42.3338 20.5309 42.3338 20.3668V17.7796C42.3338 17.6155 42.2013 17.4824 42.0379 17.4824Z" fill="#59DC8E"/>
<path d="M42.0379 21.8535H39.4619C39.2985 21.8535 39.166 21.9866 39.166 22.1507V24.7379C39.166 24.902 39.2985 25.0351 39.4619 25.0351H42.0379C42.2013 25.0351 42.3338 24.902 42.3338 24.7379V22.1507C42.3338 21.9866 42.2013 21.8535 42.0379 21.8535Z" fill="#59DC8E"/>
<path d="M42.0379 26.2236H39.4619C39.2985 26.2236 39.166 26.3567 39.166 26.5208V29.108C39.166 29.2721 39.2985 29.4052 39.4619 29.4052H42.0379C42.2013 29.4052 42.3338 29.2721 42.3338 29.108V26.5208C42.3338 26.3567 42.2013 26.2236 42.0379 26.2236Z" fill="#59DC8E"/>
<path d="M42.0379 30.5942H39.4619C39.2985 30.5942 39.166 30.7273 39.166 30.8914V33.4786C39.166 33.6427 39.2985 33.7758 39.4619 33.7758H42.0379C42.2013 33.7758 42.3338 33.6427 42.3338 33.4786V30.8914C42.3338 30.7273 42.2013 30.5942 42.0379 30.5942Z" fill="#59DC8E"/>
<path d="M42.0379 34.9653H39.4619C39.2985 34.9653 39.166 35.0984 39.166 35.2625V37.8497C39.166 38.0138 39.2985 38.1469 39.4619 38.1469H42.0379C42.2013 38.1469 42.3338 38.0138 42.3338 37.8497V35.2625C42.3338 35.0984 42.2013 34.9653 42.0379 34.9653Z" fill="#59DC8E"/>
<path d="M42.0379 39.3354H39.4619C39.2985 39.3354 39.166 39.4685 39.166 39.6327V42.2198C39.166 42.3839 39.2985 42.517 39.4619 42.517H42.0379C42.2013 42.517 42.3338 42.3839 42.3338 42.2198V39.6327C42.3338 39.4685 42.2013 39.3354 42.0379 39.3354Z" fill="#59DC8E"/>
<path d="M42.0379 43.7061H39.4619C39.2985 43.7061 39.166 43.8391 39.166 44.0033V46.5904C39.166 46.7545 39.2985 46.8876 39.4619 46.8876H42.0379C42.2013 46.8876 42.3338 46.7545 42.3338 46.5904V44.0033C42.3338 43.8391 42.2013 43.7061 42.0379 43.7061Z" fill="#59DC8E"/>
<path d="M42.0379 48.0771H39.4619C39.2985 48.0771 39.166 48.2102 39.166 48.3744V50.9615C39.166 51.1256 39.2985 51.2587 39.4619 51.2587H42.0379C42.2013 51.2587 42.3338 51.1256 42.3338 50.9615V48.3744C42.3338 48.2102 42.2013 48.0771 42.0379 48.0771Z" fill="#59DC8E"/>
<path d="M42.0379 52.4473H39.4619C39.2985 52.4473 39.166 52.5803 39.166 52.7445V55.3316C39.166 55.4958 39.2985 55.6288 39.4619 55.6288H42.0379C42.2013 55.6288 42.3338 55.4958 42.3338 55.3316V52.7445C42.3338 52.5803 42.2013 52.4473 42.0379 52.4473Z" fill="#59DC8E"/>
<path d="M46.3894 13.1118H43.8135C43.6501 13.1118 43.5176 13.2449 43.5176 13.409V15.9962C43.5176 16.1603 43.6501 16.2934 43.8135 16.2934H46.3894C46.5529 16.2934 46.6854 16.1603 46.6854 15.9962V13.409C46.6854 13.2449 46.5529 13.1118 46.3894 13.1118Z" fill="#59DC8E"/>
<path d="M46.3894 17.4824H43.8135C43.6501 17.4824 43.5176 17.6155 43.5176 17.7796V20.3668C43.5176 20.5309 43.6501 20.664 43.8135 20.664H46.3894C46.5529 20.664 46.6854 20.5309 46.6854 20.3668V17.7796C46.6854 17.6155 46.5529 17.4824 46.3894 17.4824Z" fill="#59DC8E"/>
<path d="M46.3894 21.8535H43.8135C43.6501 21.8535 43.5176 21.9866 43.5176 22.1507V24.7379C43.5176 24.902 43.6501 25.0351 43.8135 25.0351H46.3894C46.5529 25.0351 46.6854 24.902 46.6854 24.7379V22.1507C46.6854 21.9866 46.5529 21.8535 46.3894 21.8535Z" fill="#59DC8E"/>
<path d="M46.3894 26.2236H43.8135C43.6501 26.2236 43.5176 26.3567 43.5176 26.5208V29.108C43.5176 29.2721 43.6501 29.4052 43.8135 29.4052H46.3894C46.5529 29.4052 46.6854 29.2721 46.6854 29.108V26.5208C46.6854 26.3567 46.5529 26.2236 46.3894 26.2236Z" fill="#59DC8E"/>
<path d="M46.3894 30.5942H43.8135C43.6501 30.5942 43.5176 30.7273 43.5176 30.8914V33.4786C43.5176 33.6427 43.6501 33.7758 43.8135 33.7758H46.3894C46.5529 33.7758 46.6854 33.6427 46.6854 33.4786V30.8914C46.6854 30.7273 46.5529 30.5942 46.3894 30.5942Z" fill="#59DC8E"/>
<path d="M46.3894 34.9653H43.8135C43.6501 34.9653 43.5176 35.0984 43.5176 35.2625V37.8497C43.5176 38.0138 43.6501 38.1469 43.8135 38.1469H46.3894C46.5529 38.1469 46.6854 38.0138 46.6854 37.8497V35.2625C46.6854 35.0984 46.5529 34.9653 46.3894 34.9653Z" fill="#59DC8E"/>
<path d="M46.3894 39.3354H43.8135C43.6501 39.3354 43.5176 39.4685 43.5176 39.6327V42.2198C43.5176 42.3839 43.6501 42.517 43.8135 42.517H46.3894C46.5529 42.517 46.6854 42.3839 46.6854 42.2198V39.6327C46.6854 39.4685 46.5529 39.3354 46.3894 39.3354Z" fill="#59DC8E"/>
<path d="M46.3894 43.7061H43.8135C43.6501 43.7061 43.5176 43.8391 43.5176 44.0033V46.5904C43.5176 46.7545 43.6501 46.8876 43.8135 46.8876H46.3894C46.5529 46.8876 46.6854 46.7545 46.6854 46.5904V44.0033C46.6854 43.8391 46.5529 43.7061 46.3894 43.7061Z" fill="#59DC8E"/>
<path d="M46.3894 48.0771H43.8135C43.6501 48.0771 43.5176 48.2102 43.5176 48.3744V50.9615C43.5176 51.1256 43.6501 51.2587 43.8135 51.2587H46.3894C46.5529 51.2587 46.6854 51.1256 46.6854 50.9615V48.3744C46.6854 48.2102 46.5529 48.0771 46.3894 48.0771Z" fill="#59DC8E"/>
<path d="M46.3894 52.4473H43.8135C43.6501 52.4473 43.5176 52.5803 43.5176 52.7445V55.3316C43.5176 55.4958 43.6501 55.6288 43.8135 55.6288H46.3894C46.5529 55.6288 46.6854 55.4958 46.6854 55.3316V52.7445C46.6854 52.5803 46.5529 52.4473 46.3894 52.4473Z" fill="#59DC8E"/>
<path d="M50.7415 13.1118H48.1655C48.0021 13.1118 47.8696 13.2449 47.8696 13.409V15.9962C47.8696 16.1603 48.0021 16.2934 48.1655 16.2934H50.7415C50.9049 16.2934 51.0374 16.1603 51.0374 15.9962V13.409C51.0374 13.2449 50.9049 13.1118 50.7415 13.1118Z" fill="#59DC8E"/>
<path d="M50.7415 17.4824H48.1655C48.0021 17.4824 47.8696 17.6155 47.8696 17.7796V20.3668C47.8696 20.5309 48.0021 20.664 48.1655 20.664H50.7415C50.9049 20.664 51.0374 20.5309 51.0374 20.3668V17.7796C51.0374 17.6155 50.9049 17.4824 50.7415 17.4824Z" fill="#59DC8E"/>
<path d="M50.7415 21.8535H48.1655C48.0021 21.8535 47.8696 21.9866 47.8696 22.1507V24.7379C47.8696 24.902 48.0021 25.0351 48.1655 25.0351H50.7415C50.9049 25.0351 51.0374 24.902 51.0374 24.7379V22.1507C51.0374 21.9866 50.9049 21.8535 50.7415 21.8535Z" fill="#59DC8E"/>
<path d="M50.7415 26.2236H48.1655C48.0021 26.2236 47.8696 26.3567 47.8696 26.5208V29.108C47.8696 29.2721 48.0021 29.4052 48.1655 29.4052H50.7415C50.9049 29.4052 51.0374 29.2721 51.0374 29.108V26.5208C51.0374 26.3567 50.9049 26.2236 50.7415 26.2236Z" fill="#59DC8E"/>
<path d="M50.7415 30.5942H48.1655C48.0021 30.5942 47.8696 30.7273 47.8696 30.8914V33.4786C47.8696 33.6427 48.0021 33.7758 48.1655 33.7758H50.7415C50.9049 33.7758 51.0374 33.6427 51.0374 33.4786V30.8914C51.0374 30.7273 50.9049 30.5942 50.7415 30.5942Z" fill="#59DC8E"/>
<path d="M50.7415 34.9653H48.1655C48.0021 34.9653 47.8696 35.0984 47.8696 35.2625V37.8497C47.8696 38.0138 48.0021 38.1469 48.1655 38.1469H50.7415C50.9049 38.1469 51.0374 38.0138 51.0374 37.8497V35.2625C51.0374 35.0984 50.9049 34.9653 50.7415 34.9653Z" fill="#59DC8E"/>
<path d="M50.7415 39.3354H48.1655C48.0021 39.3354 47.8696 39.4685 47.8696 39.6327V42.2198C47.8696 42.3839 48.0021 42.517 48.1655 42.517H50.7415C50.9049 42.517 51.0374 42.3839 51.0374 42.2198V39.6327C51.0374 39.4685 50.9049 39.3354 50.7415 39.3354Z" fill="#59DC8E"/>
<path d="M50.7415 43.7061H48.1655C48.0021 43.7061 47.8696 43.8391 47.8696 44.0033V46.5904C47.8696 46.7545 48.0021 46.8876 48.1655 46.8876H50.7415C50.9049 46.8876 51.0374 46.7545 51.0374 46.5904V44.0033C51.0374 43.8391 50.9049 43.7061 50.7415 43.7061Z" fill="#59DC8E"/>
<path d="M50.7415 48.0771H48.1655C48.0021 48.0771 47.8696 48.2102 47.8696 48.3744V50.9615C47.8696 51.1256 48.0021 51.2587 48.1655 51.2587H50.7415C50.9049 51.2587 51.0374 51.1256 51.0374 50.9615V48.3744C51.0374 48.2102 50.9049 48.0771 50.7415 48.0771Z" fill="#59DC8E"/>
<path d="M55.0931 8.7417H52.5171C52.3537 8.7417 52.2212 8.87476 52.2212 9.0389V11.6261C52.2212 11.7902 52.3537 11.9233 52.5171 11.9233H55.0931C55.2565 11.9233 55.389 11.7902 55.389 11.6261V9.0389C55.389 8.87476 55.2565 8.7417 55.0931 8.7417Z" fill="#59DC8E"/>
<path d="M55.0931 13.1118H52.5171C52.3537 13.1118 52.2212 13.2449 52.2212 13.409V15.9962C52.2212 16.1603 52.3537 16.2934 52.5171 16.2934H55.0931C55.2565 16.2934 55.389 16.1603 55.389 15.9962V13.409C55.389 13.2449 55.2565 13.1118 55.0931 13.1118Z" fill="#59DC8E"/>
<path d="M55.0931 17.4824H52.5171C52.3537 17.4824 52.2212 17.6155 52.2212 17.7796V20.3668C52.2212 20.5309 52.3537 20.664 52.5171 20.664H55.0931C55.2565 20.664 55.389 20.5309 55.389 20.3668V17.7796C55.389 17.6155 55.2565 17.4824 55.0931 17.4824Z" fill="#59DC8E"/>
<path d="M55.0931 21.8535H52.5171C52.3537 21.8535 52.2212 21.9866 52.2212 22.1507V24.7379C52.2212 24.902 52.3537 25.0351 52.5171 25.0351H55.0931C55.2565 25.0351 55.389 24.902 55.389 24.7379V22.1507C55.389 21.9866 55.2565 21.8535 55.0931 21.8535Z" fill="#59DC8E"/>
<path d="M55.0931 26.2236H52.5171C52.3537 26.2236 52.2212 26.3567 52.2212 26.5208V29.108C52.2212 29.2721 52.3537 29.4052 52.5171 29.4052H55.0931C55.2565 29.4052 55.389 29.2721 55.389 29.108V26.5208C55.389 26.3567 55.2565 26.2236 55.0931 26.2236Z" fill="#59DC8E"/>
<path d="M55.0931 30.5942H52.5171C52.3537 30.5942 52.2212 30.7273 52.2212 30.8914V33.4786C52.2212 33.6427 52.3537 33.7758 52.5171 33.7758H55.0931C55.2565 33.7758 55.389 33.6427 55.389 33.4786V30.8914C55.389 30.7273 55.2565 30.5942 55.0931 30.5942Z" fill="#59DC8E"/>
<path d="M55.0931 34.9653H52.5171C52.3537 34.9653 52.2212 35.0984 52.2212 35.2625V37.8497C52.2212 38.0138 52.3537 38.1469 52.5171 38.1469H55.0931C55.2565 38.1469 55.389 38.0138 55.389 37.8497V35.2625C55.389 35.0984 55.2565 34.9653 55.0931 34.9653Z" fill="#59DC8E"/>
<path d="M55.0931 39.3354H52.5171C52.3537 39.3354 52.2212 39.4685 52.2212 39.6327V42.2198C52.2212 42.3839 52.3537 42.517 52.5171 42.517H55.0931C55.2565 42.517 55.389 42.3839 55.389 42.2198V39.6327C55.389 39.4685 55.2565 39.3354 55.0931 39.3354Z" fill="#59DC8E"/>
<path d="M55.0931 43.7061H52.5171C52.3537 43.7061 52.2212 43.8391 52.2212 44.0033V46.5904C52.2212 46.7545 52.3537 46.8876 52.5171 46.8876H55.0931C55.2565 46.8876 55.389 46.7545 55.389 46.5904V44.0033C55.389 43.8391 55.2565 43.7061 55.0931 43.7061Z" fill="#59DC8E"/>
<path d="M55.0931 48.0771H52.5171C52.3537 48.0771 52.2212 48.2102 52.2212 48.3744V50.9615C52.2212 51.1256 52.3537 51.2587 52.5171 51.2587H55.0931C55.2565 51.2587 55.389 51.1256 55.389 50.9615V48.3744C55.389 48.2102 55.2565 48.0771 55.0931 48.0771Z" fill="#59DC8E"/>
<path d="M59.4441 17.4824H56.8682C56.7048 17.4824 56.5723 17.6155 56.5723 17.7796V20.3668C56.5723 20.5309 56.7048 20.664 56.8682 20.664H59.4441C59.6076 20.664 59.74 20.5309 59.74 20.3668V17.7796C59.74 17.6155 59.6076 17.4824 59.4441 17.4824Z" fill="#59DC8E"/>
<path d="M59.4441 21.8535H56.8682C56.7048 21.8535 56.5723 21.9866 56.5723 22.1507V24.7379C56.5723 24.902 56.7048 25.0351 56.8682 25.0351H59.4441C59.6076 25.0351 59.74 24.902 59.74 24.7379V22.1507C59.74 21.9866 59.6076 21.8535 59.4441 21.8535Z" fill="#59DC8E"/>
<path d="M59.4441 26.2236H56.8682C56.7048 26.2236 56.5723 26.3567 56.5723 26.5208V29.108C56.5723 29.2721 56.7048 29.4052 56.8682 29.4052H59.4441C59.6076 29.4052 59.74 29.2721 59.74 29.108V26.5208C59.74 26.3567 59.6076 26.2236 59.4441 26.2236Z" fill="#59DC8E"/>
<path d="M59.4441 30.5942H56.8682C56.7048 30.5942 56.5723 30.7273 56.5723 30.8914V33.4786C56.5723 33.6427 56.7048 33.7758 56.8682 33.7758H59.4441C59.6076 33.7758 59.74 33.6427 59.74 33.4786V30.8914C59.74 30.7273 59.6076 30.5942 59.4441 30.5942Z" fill="#59DC8E"/>
<path d="M59.4441 34.9653H56.8682C56.7048 34.9653 56.5723 35.0984 56.5723 35.2625V37.8497C56.5723 38.0138 56.7048 38.1469 56.8682 38.1469H59.4441C59.6076 38.1469 59.74 38.0138 59.74 37.8497V35.2625C59.74 35.0984 59.6076 34.9653 59.4441 34.9653Z" fill="#59DC8E"/>
<path d="M59.4441 39.3354H56.8682C56.7048 39.3354 56.5723 39.4685 56.5723 39.6327V42.2198C56.5723 42.3839 56.7048 42.517 56.8682 42.517H59.4441C59.6076 42.517 59.74 42.3839 59.74 42.2198V39.6327C59.74 39.4685 59.6076 39.3354 59.4441 39.3354Z" fill="#59DC8E"/>
<path d="M59.4441 43.7061H56.8682C56.7048 43.7061 56.5723 43.8391 56.5723 44.0033V46.5904C56.5723 46.7545 56.7048 46.8876 56.8682 46.8876H59.4441C59.6076 46.8876 59.74 46.7545 59.74 46.5904V44.0033C59.74 43.8391 59.6076 43.7061 59.4441 43.7061Z" fill="#59DC8E"/>
<path d="M59.4441 48.0771H56.8682C56.7048 48.0771 56.5723 48.2102 56.5723 48.3744V50.9615C56.5723 51.1256 56.7048 51.2587 56.8682 51.2587H59.4441C59.6076 51.2587 59.74 51.1256 59.74 50.9615V48.3744C59.74 48.2102 59.6076 48.0771 59.4441 48.0771Z" fill="#59DC8E"/>
<path d="M63.7967 17.4824H61.2207C61.0573 17.4824 60.9248 17.6155 60.9248 17.7796V20.3668C60.9248 20.5309 61.0573 20.664 61.2207 20.664H63.7967C63.9601 20.664 64.0926 20.5309 64.0926 20.3668V17.7796C64.0926 17.6155 63.9601 17.4824 63.7967 17.4824Z" fill="#59DC8E"/>
<path d="M63.7967 21.8535H61.2207C61.0573 21.8535 60.9248 21.9866 60.9248 22.1507V24.7379C60.9248 24.902 61.0573 25.0351 61.2207 25.0351H63.7967C63.9601 25.0351 64.0926 24.902 64.0926 24.7379V22.1507C64.0926 21.9866 63.9601 21.8535 63.7967 21.8535Z" fill="#59DC8E"/>
<path d="M63.7967 26.2236H61.2207C61.0573 26.2236 60.9248 26.3567 60.9248 26.5208V29.108C60.9248 29.2721 61.0573 29.4052 61.2207 29.4052H63.7967C63.9601 29.4052 64.0926 29.2721 64.0926 29.108V26.5208C64.0926 26.3567 63.9601 26.2236 63.7967 26.2236Z" fill="#59DC8E"/>
<path d="M63.7967 30.5942H61.2207C61.0573 30.5942 60.9248 30.7273 60.9248 30.8914V33.4786C60.9248 33.6427 61.0573 33.7758 61.2207 33.7758H63.7967C63.9601 33.7758 64.0926 33.6427 64.0926 33.4786V30.8914C64.0926 30.7273 63.9601 30.5942 63.7967 30.5942Z" fill="#59DC8E"/>
<path d="M63.7967 34.9653H61.2207C61.0573 34.9653 60.9248 35.0984 60.9248 35.2625V37.8497C60.9248 38.0138 61.0573 38.1469 61.2207 38.1469H63.7967C63.9601 38.1469 64.0926 38.0138 64.0926 37.8497V35.2625C64.0926 35.0984 63.9601 34.9653 63.7967 34.9653Z" fill="#59DC8E"/>
<path d="M63.7967 39.3354H61.2207C61.0573 39.3354 60.9248 39.4685 60.9248 39.6327V42.2198C60.9248 42.3839 61.0573 42.517 61.2207 42.517H63.7967C63.9601 42.517 64.0926 42.3839 64.0926 42.2198V39.6327C64.0926 39.4685 63.9601 39.3354 63.7967 39.3354Z" fill="#59DC8E"/>
<path d="M63.7967 43.7061H61.2207C61.0573 43.7061 60.9248 43.8391 60.9248 44.0033V46.5904C60.9248 46.7545 61.0573 46.8876 61.2207 46.8876H63.7967C63.9601 46.8876 64.0926 46.7545 64.0926 46.5904V44.0033C64.0926 43.8391 63.9601 43.7061 63.7967 43.7061Z" fill="#59DC8E"/>
<path d="M33.3343 8.7417H30.7583C30.5949 8.7417 30.4624 8.87476 30.4624 9.0389V11.6261C30.4624 11.7902 30.5949 11.9233 30.7583 11.9233H33.3343C33.4977 11.9233 33.6302 11.7902 33.6302 11.6261V9.0389C33.6302 8.87476 33.4977 8.7417 33.3343 8.7417Z" fill="#59DC8E"/>
<path d="M37.6858 4.37061H35.1099C34.9465 4.37061 34.814 4.50367 34.814 4.66781V7.25496C34.814 7.4191 34.9465 7.55216 35.1099 7.55216H37.6858C37.8493 7.55216 37.9817 7.4191 37.9817 7.25496V4.66781C37.9817 4.50367 37.8493 4.37061 37.6858 4.37061Z" fill="#59DC8E"/>
<path d="M37.6858 8.7417H35.1099C34.9465 8.7417 34.814 8.87476 34.814 9.0389V11.6261C34.814 11.7902 34.9465 11.9233 35.1099 11.9233H37.6858C37.8493 11.9233 37.9817 11.7902 37.9817 11.6261V9.0389C37.9817 8.87476 37.8493 8.7417 37.6858 8.7417Z" fill="#59DC8E"/>
<path d="M42.0379 4.37061H39.4619C39.2985 4.37061 39.166 4.50367 39.166 4.66781V7.25496C39.166 7.4191 39.2985 7.55216 39.4619 7.55216H42.0379C42.2013 7.55216 42.3338 7.4191 42.3338 7.25496V4.66781C42.3338 4.50367 42.2013 4.37061 42.0379 4.37061Z" fill="#59DC8E"/>
<path d="M55.0931 0H52.5171C52.3537 0 52.2212 0.133062 52.2212 0.297203V2.88435C52.2212 3.04849 52.3537 3.18155 52.5171 3.18155H55.0931C55.2565 3.18155 55.389 3.04849 55.389 2.88435V0.297203C55.389 0.133062 55.2565 0 55.0931 0Z" fill="#59DC8E"/>
<path d="M59.4441 0H56.8682C56.7048 0 56.5723 0.133062 56.5723 0.297203V2.88435C56.5723 3.04849 56.7048 3.18155 56.8682 3.18155H59.4441C59.6076 3.18155 59.74 3.04849 59.74 2.88435V0.297203C59.74 0.133062 59.6076 0 59.4441 0Z" fill="#59DC8E"/>
<path d="M63.7967 4.37061H61.2207C61.0573 4.37061 60.9248 4.50367 60.9248 4.66781V7.25496C60.9248 7.4191 61.0573 7.55216 61.2207 7.55216H63.7967C63.9601 7.55216 64.0926 7.4191 64.0926 7.25496V4.66781C64.0926 4.50367 63.9601 4.37061 63.7967 4.37061Z" fill="#59DC8E"/>
<path d="M2.87186 34.9653H0.295916C0.132486 34.9653 0 35.0984 0 35.2625V37.8497C0 38.0138 0.132486 38.1469 0.295916 38.1469H2.87186C3.03529 38.1469 3.16778 38.0138 3.16778 37.8497V35.2625C3.16778 35.0984 3.03529 34.9653 2.87186 34.9653Z" fill="#59DC8E"/>
<path d="M2.87186 39.3354H0.295916C0.132486 39.3354 0 39.4685 0 39.6327V42.2198C0 42.3839 0.132486 42.517 0.295916 42.517H2.87186C3.03529 42.517 3.16778 42.3839 3.16778 42.2198V39.6327C3.16778 39.4685 3.03529 39.3354 2.87186 39.3354Z" fill="#59DC8E"/>
<path d="M2.87186 43.7061H0.295916C0.132486 43.7061 0 43.8391 0 44.0033V46.5904C0 46.7545 0.132486 46.8876 0.295916 46.8876H2.87186C3.03529 46.8876 3.16778 46.7545 3.16778 46.5904V44.0033C3.16778 43.8391 3.03529 43.7061 2.87186 43.7061Z" fill="#59DC8E"/>
<path d="M7.22342 43.7061H4.64748C4.48405 43.7061 4.35156 43.8391 4.35156 44.0033V46.5904C4.35156 46.7545 4.48405 46.8876 4.64748 46.8876H7.22342C7.38685 46.8876 7.51934 46.7545 7.51934 46.5904V44.0033C7.51934 43.8391 7.38685 43.7061 7.22342 43.7061Z" fill="#59DC8E"/>
<path d="M7.22342 48.0771H4.64748C4.48405 48.0771 4.35156 48.2102 4.35156 48.3744V50.9615C4.35156 51.1256 4.48405 51.2587 4.64748 51.2587H7.22342C7.38685 51.2587 7.51934 51.1256 7.51934 50.9615V48.3744C7.51934 48.2102 7.38685 48.0771 7.22342 48.0771Z" fill="#EAFFF2"/>
<path d="M11.5755 43.7061H8.99953C8.8361 43.7061 8.70361 43.8391 8.70361 44.0033V46.5904C8.70361 46.7545 8.8361 46.8876 8.99953 46.8876H11.5755C11.7389 46.8876 11.8714 46.7545 11.8714 46.5904V44.0033C11.8714 43.8391 11.7389 43.7061 11.5755 43.7061Z" fill="#59DC8E"/>
<path d="M11.5755 48.0771H8.99953C8.8361 48.0771 8.70361 48.2102 8.70361 48.3744V50.9615C8.70361 51.1256 8.8361 51.2587 8.99953 51.2587H11.5755C11.7389 51.2587 11.8714 51.1256 11.8714 50.9615V48.3744C11.8714 48.2102 11.7389 48.0771 11.5755 48.0771Z" fill="#EAFFF2"/>
<path d="M11.5755 52.4473H8.99953C8.8361 52.4473 8.70361 52.5803 8.70361 52.7445V55.3316C8.70361 55.4958 8.8361 55.6288 8.99953 55.6288H11.5755C11.7389 55.6288 11.8714 55.4958 11.8714 55.3316V52.7445C11.8714 52.5803 11.7389 52.4473 11.5755 52.4473Z" fill="#EAFFF2"/>
<path d="M15.927 48.0771H13.3511C13.1877 48.0771 13.0552 48.2102 13.0552 48.3744V50.9615C13.0552 51.1256 13.1877 51.2587 13.3511 51.2587H15.927C16.0905 51.2587 16.223 51.1256 16.223 50.9615V48.3744C16.223 48.2102 16.0905 48.0771 15.927 48.0771Z" fill="#59DC8E"/>
<path d="M15.927 52.4473H13.3511C13.1877 52.4473 13.0552 52.5803 13.0552 52.7445V55.3316C13.0552 55.4958 13.1877 55.6288 13.3511 55.6288H15.927C16.0905 55.6288 16.223 55.4958 16.223 55.3316V52.7445C16.223 52.5803 16.0905 52.4473 15.927 52.4473Z" fill="#59DC8E"/>
<path d="M15.927 56.8179H13.3511C13.1877 56.8179 13.0552 56.9509 13.0552 57.1151V59.7022C13.0552 59.8664 13.1877 59.9994 13.3511 59.9994H15.927C16.0905 59.9994 16.223 59.8664 16.223 59.7022V57.1151C16.223 56.9509 16.0905 56.8179 15.927 56.8179Z" fill="#59DC8E"/>
<path d="M20.2791 48.0771H17.7031C17.5397 48.0771 17.4072 48.2102 17.4072 48.3744V50.9615C17.4072 51.1256 17.5397 51.2587 17.7031 51.2587H20.2791C20.4425 51.2587 20.575 51.1256 20.575 50.9615V48.3744C20.575 48.2102 20.4425 48.0771 20.2791 48.0771Z" fill="#59DC8E"/>
<path d="M20.2791 52.4473H17.7031C17.5397 52.4473 17.4072 52.5803 17.4072 52.7445V55.3316C17.4072 55.4958 17.5397 55.6288 17.7031 55.6288H20.2791C20.4425 55.6288 20.575 55.4958 20.575 55.3316V52.7445C20.575 52.5803 20.4425 52.4473 20.2791 52.4473Z" fill="#59DC8E"/>
<path d="M20.2791 56.8179H17.7031C17.5397 56.8179 17.4072 56.9509 17.4072 57.1151V59.7022C17.4072 59.8664 17.5397 59.9994 17.7031 59.9994H20.2791C20.4425 59.9994 20.575 59.8664 20.575 59.7022V57.1151C20.575 56.9509 20.4425 56.8179 20.2791 56.8179Z" fill="#59DC8E"/>
<path d="M24.6307 56.8179H22.0547C21.8913 56.8179 21.7588 56.9509 21.7588 57.1151V59.7022C21.7588 59.8664 21.8913 59.9994 22.0547 59.9994H24.6307C24.7941 59.9994 24.9266 59.8664 24.9266 59.7022V57.1151C24.9266 56.9509 24.7941 56.8179 24.6307 56.8179Z" fill="#59DC8E"/>
<path d="M33.3343 56.8179H30.7583C30.5949 56.8179 30.4624 56.9509 30.4624 57.1151V59.7022C30.4624 59.8664 30.5949 59.9994 30.7583 59.9994H33.3343C33.4977 59.9994 33.6302 59.8664 33.6302 59.7022V57.1151C33.6302 56.9509 33.4977 56.8179 33.3343 56.8179Z" fill="#59DC8E"/>
<path d="M37.6858 52.4473H35.1099C34.9465 52.4473 34.814 52.5803 34.814 52.7445V55.3316C34.814 55.4958 34.9465 55.6288 35.1099 55.6288H37.6858C37.8493 55.6288 37.9817 55.4958 37.9817 55.3316V52.7445C37.9817 52.5803 37.8493 52.4473 37.6858 52.4473Z" fill="#59DC8E"/>
<path d="M37.6858 56.8179H35.1099C34.9465 56.8179 34.814 56.9509 34.814 57.1151V59.7022C34.814 59.8664 34.9465 59.9994 35.1099 59.9994H37.6858C37.8493 59.9994 37.9817 59.8664 37.9817 59.7022V57.1151C37.9817 56.9509 37.8493 56.8179 37.6858 56.8179Z" fill="#59DC8E"/>
<path d="M42.0379 56.8179H39.4619C39.2985 56.8179 39.166 56.9509 39.166 57.1151V59.7022C39.166 59.8664 39.2985 59.9994 39.4619 59.9994H42.0379C42.2013 59.9994 42.3338 59.8664 42.3338 59.7022V57.1151C42.3338 56.9509 42.2013 56.8179 42.0379 56.8179Z" fill="#59DC8E"/>
<path d="M68.1311 13.1118H65.5552C65.3918 13.1118 65.2593 13.2449 65.2593 13.409V15.9962C65.2593 16.1603 65.3918 16.2934 65.5552 16.2934H68.1311C68.2946 16.2934 68.4271 16.1603 68.4271 15.9962V13.409C68.4271 13.2449 68.2946 13.1118 68.1311 13.1118Z" fill="#59DC8E"/>
<path d="M68.1311 17.4824H65.5552C65.3918 17.4824 65.2593 17.6155 65.2593 17.7796V20.3668C65.2593 20.5309 65.3918 20.664 65.5552 20.664H68.1311C68.2946 20.664 68.4271 20.5309 68.4271 20.3668V17.7796C68.4271 17.6155 68.2946 17.4824 68.1311 17.4824Z" fill="#59DC8E"/>
<path d="M68.1311 21.8535H65.5552C65.3918 21.8535 65.2593 21.9866 65.2593 22.1507V24.7379C65.2593 24.902 65.3918 25.0351 65.5552 25.0351H68.1311C68.2946 25.0351 68.4271 24.902 68.4271 24.7379V22.1507C68.4271 21.9866 68.2946 21.8535 68.1311 21.8535Z" fill="#59DC8E"/>
<path d="M68.1311 26.2236H65.5552C65.3918 26.2236 65.2593 26.3567 65.2593 26.5208V29.108C65.2593 29.2721 65.3918 29.4052 65.5552 29.4052H68.1311C68.2946 29.4052 68.4271 29.2721 68.4271 29.108V26.5208C68.4271 26.3567 68.2946 26.2236 68.1311 26.2236Z" fill="#59DC8E"/>
<path d="M68.1311 30.5942H65.5552C65.3918 30.5942 65.2593 30.7273 65.2593 30.8914V33.4786C65.2593 33.6427 65.3918 33.7758 65.5552 33.7758H68.1311C68.2946 33.7758 68.4271 33.6427 68.4271 33.4786V30.8914C68.4271 30.7273 68.2946 30.5942 68.1311 30.5942Z" fill="#59DC8E"/>
<path d="M68.1311 34.9653H65.5552C65.3918 34.9653 65.2593 35.0984 65.2593 35.2625V37.8497C65.2593 38.0138 65.3918 38.1469 65.5552 38.1469H68.1311C68.2946 38.1469 68.4271 38.0138 68.4271 37.8497V35.2625C68.4271 35.0984 68.2946 34.9653 68.1311 34.9653Z" fill="#59DC8E"/>
<path d="M68.1311 39.3354H65.5552C65.3918 39.3354 65.2593 39.4685 65.2593 39.6327V42.2198C65.2593 42.3839 65.3918 42.517 65.5552 42.517H68.1311C68.2946 42.517 68.4271 42.3839 68.4271 42.2198V39.6327C68.4271 39.4685 68.2946 39.3354 68.1311 39.3354Z" fill="#59DC8E"/>
<path d="M72.4832 8.7417H69.9072C69.7438 8.7417 69.6113 8.87476 69.6113 9.0389V11.6261C69.6113 11.7902 69.7438 11.9233 69.9072 11.9233H72.4832C72.6466 11.9233 72.7791 11.7902 72.7791 11.6261V9.0389C72.7791 8.87476 72.6466 8.7417 72.4832 8.7417Z" fill="#59DC8E"/>
<path d="M72.4832 13.1118H69.9072C69.7438 13.1118 69.6113 13.2449 69.6113 13.409V15.9962C69.6113 16.1603 69.7438 16.2934 69.9072 16.2934H72.4832C72.6466 16.2934 72.7791 16.1603 72.7791 15.9962V13.409C72.7791 13.2449 72.6466 13.1118 72.4832 13.1118Z" fill="#59DC8E"/>
<path d="M72.4832 17.4824H69.9072C69.7438 17.4824 69.6113 17.6155 69.6113 17.7796V20.3668C69.6113 20.5309 69.7438 20.664 69.9072 20.664H72.4832C72.6466 20.664 72.7791 20.5309 72.7791 20.3668V17.7796C72.7791 17.6155 72.6466 17.4824 72.4832 17.4824Z" fill="#59DC8E"/>
<path d="M72.4832 21.8535H69.9072C69.7438 21.8535 69.6113 21.9866 69.6113 22.1507V24.7379C69.6113 24.902 69.7438 25.0351 69.9072 25.0351H72.4832C72.6466 25.0351 72.7791 24.902 72.7791 24.7379V22.1507C72.7791 21.9866 72.6466 21.8535 72.4832 21.8535Z" fill="#59DC8E"/>
<path d="M72.4832 26.2236H69.9072C69.7438 26.2236 69.6113 26.3567 69.6113 26.5208V29.108C69.6113 29.2721 69.7438 29.4052 69.9072 29.4052H72.4832C72.6466 29.4052 72.7791 29.2721 72.7791 29.108V26.5208C72.7791 26.3567 72.6466 26.2236 72.4832 26.2236Z" fill="#59DC8E"/>
<path d="M72.4832 30.5942H69.9072C69.7438 30.5942 69.6113 30.7273 69.6113 30.8914V33.4786C69.6113 33.6427 69.7438 33.7758 69.9072 33.7758H72.4832C72.6466 33.7758 72.7791 33.6427 72.7791 33.4786V30.8914C72.7791 30.7273 72.6466 30.5942 72.4832 30.5942Z" fill="#59DC8E"/>
<path d="M72.4832 34.9653H69.9072C69.7438 34.9653 69.6113 35.0984 69.6113 35.2625V37.8497C69.6113 38.0138 69.7438 38.1469 69.9072 38.1469H72.4832C72.6466 38.1469 72.7791 38.0138 72.7791 37.8497V35.2625C72.7791 35.0984 72.6466 34.9653 72.4832 34.9653Z" fill="#59DC8E"/>
<path d="M72.4832 39.3354H69.9072C69.7438 39.3354 69.6113 39.4685 69.6113 39.6327V42.2198C69.6113 42.3839 69.7438 42.517 69.9072 42.517H72.4832C72.6466 42.517 72.7791 42.3839 72.7791 42.2198V39.6327C72.7791 39.4685 72.6466 39.3354 72.4832 39.3354Z" fill="#59DC8E"/>
<path d="M76.8347 4.37061H74.2588C74.0954 4.37061 73.9629 4.50367 73.9629 4.66781V7.25496C73.9629 7.4191 74.0954 7.55216 74.2588 7.55216H76.8347C76.9982 7.55216 77.1307 7.4191 77.1307 7.25496V4.66781C77.1307 4.50367 76.9982 4.37061 76.8347 4.37061Z" fill="#59DC8E"/>
<path d="M76.8347 8.7417H74.2588C74.0954 8.7417 73.9629 8.87476 73.9629 9.0389V11.6261C73.9629 11.7902 74.0954 11.9233 74.2588 11.9233H76.8347C76.9982 11.9233 77.1307 11.7902 77.1307 11.6261V9.0389C77.1307 8.87476 76.9982 8.7417 76.8347 8.7417Z" fill="#59DC8E"/>
<path d="M76.8347 13.1118H74.2588C74.0954 13.1118 73.9629 13.2449 73.9629 13.409V15.9962C73.9629 16.1603 74.0954 16.2934 74.2588 16.2934H76.8347C76.9982 16.2934 77.1307 16.1603 77.1307 15.9962V13.409C77.1307 13.2449 76.9982 13.1118 76.8347 13.1118Z" fill="#59DC8E"/>
<path d="M76.8347 17.4824H74.2588C74.0954 17.4824 73.9629 17.6155 73.9629 17.7796V20.3668C73.9629 20.5309 74.0954 20.664 74.2588 20.664H76.8347C76.9982 20.664 77.1307 20.5309 77.1307 20.3668V17.7796C77.1307 17.6155 76.9982 17.4824 76.8347 17.4824Z" fill="#59DC8E"/>
<path d="M76.8347 21.8535H74.2588C74.0954 21.8535 73.9629 21.9866 73.9629 22.1507V24.7379C73.9629 24.902 74.0954 25.0351 74.2588 25.0351H76.8347C76.9982 25.0351 77.1307 24.902 77.1307 24.7379V22.1507C77.1307 21.9866 76.9982 21.8535 76.8347 21.8535Z" fill="#59DC8E"/>
<path d="M76.8347 26.2236H74.2588C74.0954 26.2236 73.9629 26.3567 73.9629 26.5208V29.108C73.9629 29.2721 74.0954 29.4052 74.2588 29.4052H76.8347C76.9982 29.4052 77.1307 29.2721 77.1307 29.108V26.5208C77.1307 26.3567 76.9982 26.2236 76.8347 26.2236Z" fill="#59DC8E"/>
<path d="M76.8347 30.5942H74.2588C74.0954 30.5942 73.9629 30.7273 73.9629 30.8914V33.4786C73.9629 33.6427 74.0954 33.7758 74.2588 33.7758H76.8347C76.9982 33.7758 77.1307 33.6427 77.1307 33.4786V30.8914C77.1307 30.7273 76.9982 30.5942 76.8347 30.5942Z" fill="#59DC8E"/>
<path d="M76.8347 34.9653H74.2588C74.0954 34.9653 73.9629 35.0984 73.9629 35.2625V37.8497C73.9629 38.0138 74.0954 38.1469 74.2588 38.1469H76.8347C76.9982 38.1469 77.1307 38.0138 77.1307 37.8497V35.2625C77.1307 35.0984 76.9982 34.9653 76.8347 34.9653Z" fill="#59DC8E"/>
<path d="M81.1868 4.37061H78.6109C78.4474 4.37061 78.3149 4.50367 78.3149 4.66781V7.25496C78.3149 7.4191 78.4474 7.55216 78.6109 7.55216H81.1868C81.3502 7.55216 81.4827 7.4191 81.4827 7.25496V4.66781C81.4827 4.50367 81.3502 4.37061 81.1868 4.37061Z" fill="#59DC8E"/>
<path d="M81.1868 8.7417H78.6109C78.4474 8.7417 78.3149 8.87476 78.3149 9.0389V11.6261C78.3149 11.7902 78.4474 11.9233 78.6109 11.9233H81.1868C81.3502 11.9233 81.4827 11.7902 81.4827 11.6261V9.0389C81.4827 8.87476 81.3502 8.7417 81.1868 8.7417Z" fill="#59DC8E"/>
<path d="M81.1868 13.1118H78.6109C78.4474 13.1118 78.3149 13.2449 78.3149 13.409V15.9962C78.3149 16.1603 78.4474 16.2934 78.6109 16.2934H81.1868C81.3502 16.2934 81.4827 16.1603 81.4827 15.9962V13.409C81.4827 13.2449 81.3502 13.1118 81.1868 13.1118Z" fill="#59DC8E"/>
<path d="M81.1868 17.4824H78.6109C78.4474 17.4824 78.3149 17.6155 78.3149 17.7796V20.3668C78.3149 20.5309 78.4474 20.664 78.6109 20.664H81.1868C81.3502 20.664 81.4827 20.5309 81.4827 20.3668V17.7796C81.4827 17.6155 81.3502 17.4824 81.1868 17.4824Z" fill="#59DC8E"/>
<path d="M81.1868 21.8535H78.6109C78.4474 21.8535 78.3149 21.9866 78.3149 22.1507V24.7379C78.3149 24.902 78.4474 25.0351 78.6109 25.0351H81.1868C81.3502 25.0351 81.4827 24.902 81.4827 24.7379V22.1507C81.4827 21.9866 81.3502 21.8535 81.1868 21.8535Z" fill="#59DC8E"/>
<path d="M81.1868 26.2236H78.6109C78.4474 26.2236 78.3149 26.3567 78.3149 26.5208V29.108C78.3149 29.2721 78.4474 29.4052 78.6109 29.4052H81.1868C81.3502 29.4052 81.4827 29.2721 81.4827 29.108V26.5208C81.4827 26.3567 81.3502 26.2236 81.1868 26.2236Z" fill="#59DC8E"/>
<path d="M85.5384 4.37061H82.9624C82.799 4.37061 82.6665 4.50367 82.6665 4.66781V7.25496C82.6665 7.4191 82.799 7.55216 82.9624 7.55216H85.5384C85.7018 7.55216 85.8343 7.4191 85.8343 7.25496V4.66781C85.8343 4.50367 85.7018 4.37061 85.5384 4.37061Z" fill="#59DC8E"/>
<path d="M85.5384 8.7417H82.9624C82.799 8.7417 82.6665 8.87476 82.6665 9.0389V11.6261C82.6665 11.7902 82.799 11.9233 82.9624 11.9233H85.5384C85.7018 11.9233 85.8343 11.7902 85.8343 11.6261V9.0389C85.8343 8.87476 85.7018 8.7417 85.5384 8.7417Z" fill="#59DC8E"/>
<path d="M85.5384 13.1118H82.9624C82.799 13.1118 82.6665 13.2449 82.6665 13.409V15.9962C82.6665 16.1603 82.799 16.2934 82.9624 16.2934H85.5384C85.7018 16.2934 85.8343 16.1603 85.8343 15.9962V13.409C85.8343 13.2449 85.7018 13.1118 85.5384 13.1118Z" fill="#59DC8E"/>
<path d="M85.5384 17.4824H82.9624C82.799 17.4824 82.6665 17.6155 82.6665 17.7796V20.3668C82.6665 20.5309 82.799 20.664 82.9624 20.664H85.5384C85.7018 20.664 85.8343 20.5309 85.8343 20.3668V17.7796C85.8343 17.6155 85.7018 17.4824 85.5384 17.4824Z" fill="#59DC8E"/>
<path d="M85.5384 21.8535H82.9624C82.799 21.8535 82.6665 21.9866 82.6665 22.1507V24.7379C82.6665 24.902 82.799 25.0351 82.9624 25.0351H85.5384C85.7018 25.0351 85.8343 24.902 85.8343 24.7379V22.1507C85.8343 21.9866 85.7018 21.8535 85.5384 21.8535Z" fill="#59DC8E"/>
<path d="M85.5384 26.2236H82.9624C82.799 26.2236 82.6665 26.3567 82.6665 26.5208V29.108C82.6665 29.2721 82.799 29.4052 82.9624 29.4052H85.5384C85.7018 29.4052 85.8343 29.2721 85.8343 29.108V26.5208C85.8343 26.3567 85.7018 26.2236 85.5384 26.2236Z" fill="#59DC8E"/>
<path d="M89.8904 8.7417H87.3145C87.151 8.7417 87.0186 8.87476 87.0186 9.0389V11.6261C87.0186 11.7902 87.151 11.9233 87.3145 11.9233H89.8904C90.0538 11.9233 90.1863 11.7902 90.1863 11.6261V9.0389C90.1863 8.87476 90.0538 8.7417 89.8904 8.7417Z" fill="#59DC8E"/>
<path d="M89.8904 13.1118H87.3145C87.151 13.1118 87.0186 13.2449 87.0186 13.409V15.9962C87.0186 16.1603 87.151 16.2934 87.3145 16.2934H89.8904C90.0538 16.2934 90.1863 16.1603 90.1863 15.9962V13.409C90.1863 13.2449 90.0538 13.1118 89.8904 13.1118Z" fill="#59DC8E"/>
<path d="M89.8904 17.4824H87.3145C87.151 17.4824 87.0186 17.6155 87.0186 17.7796V20.3668C87.0186 20.5309 87.151 20.664 87.3145 20.664H89.8904C90.0538 20.664 90.1863 20.5309 90.1863 20.3668V17.7796C90.1863 17.6155 90.0538 17.4824 89.8904 17.4824Z" fill="#59DC8E"/>
<path d="M89.8904 21.8535H87.3145C87.151 21.8535 87.0186 21.9866 87.0186 22.1507V24.7379C87.0186 24.902 87.151 25.0351 87.3145 25.0351H89.8904C90.0538 25.0351 90.1863 24.902 90.1863 24.7379V22.1507C90.1863 21.9866 90.0538 21.8535 89.8904 21.8535Z" fill="#59DC8E"/>
<path d="M94.242 4.37061H91.666C91.5026 4.37061 91.3701 4.50367 91.3701 4.66781V7.25496C91.3701 7.4191 91.5026 7.55216 91.666 7.55216H94.242C94.4054 7.55216 94.5379 7.4191 94.5379 7.25496V4.66781C94.5379 4.50367 94.4054 4.37061 94.242 4.37061Z" fill="#59DC8E"/>
<path d="M94.242 8.7417H91.666C91.5026 8.7417 91.3701 8.87476 91.3701 9.0389V11.6261C91.3701 11.7902 91.5026 11.9233 91.666 11.9233H94.242C94.4054 11.9233 94.5379 11.7902 94.5379 11.6261V9.0389C94.5379 8.87476 94.4054 8.7417 94.242 8.7417Z" fill="#59DC8E"/>
<path d="M94.242 13.1118H91.666C91.5026 13.1118 91.3701 13.2449 91.3701 13.409V15.9962C91.3701 16.1603 91.5026 16.2934 91.666 16.2934H94.242C94.4054 16.2934 94.5379 16.1603 94.5379 15.9962V13.409C94.5379 13.2449 94.4054 13.1118 94.242 13.1118Z" fill="#59DC8E"/>
<path d="M94.242 17.4824H91.666C91.5026 17.4824 91.3701 17.6155 91.3701 17.7796V20.3668C91.3701 20.5309 91.5026 20.664 91.666 20.664H94.242C94.4054 20.664 94.5379 20.5309 94.5379 20.3668V17.7796C94.5379 17.6155 94.4054 17.4824 94.242 17.4824Z" fill="#59DC8E"/>
<path d="M94.242 21.8535H91.666C91.5026 21.8535 91.3701 21.9866 91.3701 22.1507V24.7379C91.3701 24.902 91.5026 25.0351 91.666 25.0351H94.242C94.4054 25.0351 94.5379 24.902 94.5379 24.7379V22.1507C94.5379 21.9866 94.4054 21.8535 94.242 21.8535Z" fill="#59DC8E"/>
<path d="M98.593 4.37061H96.0171C95.8537 4.37061 95.7212 4.50367 95.7212 4.66781V7.25496C95.7212 7.4191 95.8537 7.55216 96.0171 7.55216H98.593C98.7565 7.55216 98.889 7.4191 98.889 7.25496V4.66781C98.889 4.50367 98.7565 4.37061 98.593 4.37061Z" fill="#59DC8E"/>
<path d="M98.593 8.7417H96.0171C95.8537 8.7417 95.7212 8.87476 95.7212 9.0389V11.6261C95.7212 11.7902 95.8537 11.9233 96.0171 11.9233H98.593C98.7565 11.9233 98.889 11.7902 98.889 11.6261V9.0389C98.889 8.87476 98.7565 8.7417 98.593 8.7417Z" fill="#59DC8E"/>
<path d="M98.593 13.1118H96.0171C95.8537 13.1118 95.7212 13.2449 95.7212 13.409V15.9962C95.7212 16.1603 95.8537 16.2934 96.0171 16.2934H98.593C98.7565 16.2934 98.889 16.1603 98.889 15.9962V13.409C98.889 13.2449 98.7565 13.1118 98.593 13.1118Z" fill="#59DC8E"/>
<path d="M98.593 17.4824H96.0171C95.8537 17.4824 95.7212 17.6155 95.7212 17.7796V20.3668C95.7212 20.5309 95.8537 20.664 96.0171 20.664H98.593C98.7565 20.664 98.889 20.5309 98.889 20.3668V17.7796C98.889 17.6155 98.7565 17.4824 98.593 17.4824Z" fill="#59DC8E"/>
<path d="M102.946 8.7417H100.37C100.206 8.7417 100.074 8.87476 100.074 9.0389V11.6261C100.074 11.7902 100.206 11.9233 100.37 11.9233H102.946C103.109 11.9233 103.242 11.7902 103.242 11.6261V9.0389C103.242 8.87476 103.109 8.7417 102.946 8.7417Z" fill="#59DC8E"/>
<path d="M102.946 13.1118H100.37C100.206 13.1118 100.074 13.2449 100.074 13.409V15.9962C100.074 16.1603 100.206 16.2934 100.37 16.2934H102.946C103.109 16.2934 103.242 16.1603 103.242 15.9962V13.409C103.242 13.2449 103.109 13.1118 102.946 13.1118Z" fill="#59DC8E"/>
<path d="M102.946 17.4824H100.37C100.206 17.4824 100.074 17.6155 100.074 17.7796V20.3668C100.074 20.5309 100.206 20.664 100.37 20.664H102.946C103.109 20.664 103.242 20.5309 103.242 20.3668V17.7796C103.242 17.6155 103.109 17.4824 102.946 17.4824Z" fill="#59DC8E"/>
<path d="M107.297 13.1118H104.721C104.557 13.1118 104.425 13.2449 104.425 13.409V15.9962C104.425 16.1603 104.557 16.2934 104.721 16.2934H107.297C107.46 16.2934 107.593 16.1603 107.593 15.9962V13.409C107.593 13.2449 107.46 13.1118 107.297 13.1118Z" fill="#59DC8E"/>
<path d="M111.649 13.1118H109.073C108.91 13.1118 108.777 13.2449 108.777 13.409V15.9962C108.777 16.1603 108.91 16.2934 109.073 16.2934H111.649C111.813 16.2934 111.945 16.1603 111.945 15.9962V13.409C111.945 13.2449 111.813 13.1118 111.649 13.1118Z" fill="#59DC8E"/>
<path d="M81.1868 30.5942H78.6109C78.4474 30.5942 78.3149 30.7273 78.3149 30.8914V33.4786C78.3149 33.6427 78.4474 33.7758 78.6109 33.7758H81.1868C81.3502 33.7758 81.4827 33.6427 81.4827 33.4786V30.8914C81.4827 30.7273 81.3502 30.5942 81.1868 30.5942Z" fill="#59DC8E"/>
<path d="M85.5384 30.5942H82.9624C82.799 30.5942 82.6665 30.7273 82.6665 30.8914V33.4786C82.6665 33.6427 82.799 33.7758 82.9624 33.7758H85.5384C85.7018 33.7758 85.8343 33.6427 85.8343 33.4786V30.8914C85.8343 30.7273 85.7018 30.5942 85.5384 30.5942Z" fill="#59DC8E"/>
<path d="M89.8904 26.2236H87.3145C87.151 26.2236 87.0186 26.3567 87.0186 26.5208V29.108C87.0186 29.2721 87.151 29.4052 87.3145 29.4052H89.8904C90.0538 29.4052 90.1863 29.2721 90.1863 29.108V26.5208C90.1863 26.3567 90.0538 26.2236 89.8904 26.2236Z" fill="#59DC8E"/>
<path d="M89.8904 30.5942H87.3145C87.151 30.5942 87.0186 30.7273 87.0186 30.8914V33.4786C87.0186 33.6427 87.151 33.7758 87.3145 33.7758H89.8904C90.0538 33.7758 90.1863 33.6427 90.1863 33.4786V30.8914C90.1863 30.7273 90.0538 30.5942 89.8904 30.5942Z" fill="#59DC8E"/>
<path d="M89.8904 34.9653H87.3145C87.151 34.9653 87.0186 35.0984 87.0186 35.2625V37.8497C87.0186 38.0138 87.151 38.1469 87.3145 38.1469H89.8904C90.0538 38.1469 90.1863 38.0138 90.1863 37.8497V35.2625C90.1863 35.0984 90.0538 34.9653 89.8904 34.9653Z" fill="#59DC8E"/>
<path d="M94.242 26.2236H91.666C91.5026 26.2236 91.3701 26.3567 91.3701 26.5208V29.108C91.3701 29.2721 91.5026 29.4052 91.666 29.4052H94.242C94.4054 29.4052 94.5379 29.2721 94.5379 29.108V26.5208C94.5379 26.3567 94.4054 26.2236 94.242 26.2236Z" fill="#59DC8E"/>
<path d="M94.242 30.5942H91.666C91.5026 30.5942 91.3701 30.7273 91.3701 30.8914V33.4786C91.3701 33.6427 91.5026 33.7758 91.666 33.7758H94.242C94.4054 33.7758 94.5379 33.6427 94.5379 33.4786V30.8914C94.5379 30.7273 94.4054 30.5942 94.242 30.5942Z" fill="#59DC8E"/>
<path d="M94.242 34.9653H91.666C91.5026 34.9653 91.3701 35.0984 91.3701 35.2625V37.8497C91.3701 38.0138 91.5026 38.1469 91.666 38.1469H94.242C94.4054 38.1469 94.5379 38.0138 94.5379 37.8497V35.2625C94.5379 35.0984 94.4054 34.9653 94.242 34.9653Z" fill="#59DC8E"/>
<path d="M98.593 21.8535H96.0171C95.8537 21.8535 95.7212 21.9866 95.7212 22.1507V24.7379C95.7212 24.902 95.8537 25.0351 96.0171 25.0351H98.593C98.7565 25.0351 98.889 24.902 98.889 24.7379V22.1507C98.889 21.9866 98.7565 21.8535 98.593 21.8535Z" fill="#59DC8E"/>
<path d="M98.593 26.2236H96.0171C95.8537 26.2236 95.7212 26.3567 95.7212 26.5208V29.108C95.7212 29.2721 95.8537 29.4052 96.0171 29.4052H98.593C98.7565 29.4052 98.889 29.2721 98.889 29.108V26.5208C98.889 26.3567 98.7565 26.2236 98.593 26.2236Z" fill="#59DC8E"/>
<path d="M98.593 30.5942H96.0171C95.8537 30.5942 95.7212 30.7273 95.7212 30.8914V33.4786C95.7212 33.6427 95.8537 33.7758 96.0171 33.7758H98.593C98.7565 33.7758 98.889 33.6427 98.889 33.4786V30.8914C98.889 30.7273 98.7565 30.5942 98.593 30.5942Z" fill="#59DC8E"/>
<path d="M98.593 34.9653H96.0171C95.8537 34.9653 95.7212 35.0984 95.7212 35.2625V37.8497C95.7212 38.0138 95.8537 38.1469 96.0171 38.1469H98.593C98.7565 38.1469 98.889 38.0138 98.889 37.8497V35.2625C98.889 35.0984 98.7565 34.9653 98.593 34.9653Z" fill="#59DC8E"/>
<path d="M102.946 21.8535H100.37C100.206 21.8535 100.074 21.9866 100.074 22.1507V24.7379C100.074 24.902 100.206 25.0351 100.37 25.0351H102.946C103.109 25.0351 103.242 24.902 103.242 24.7379V22.1507C103.242 21.9866 103.109 21.8535 102.946 21.8535Z" fill="#59DC8E"/>
<path d="M102.946 26.2236H100.37C100.206 26.2236 100.074 26.3567 100.074 26.5208V29.108C100.074 29.2721 100.206 29.4052 100.37 29.4052H102.946C103.109 29.4052 103.242 29.2721 103.242 29.108V26.5208C103.242 26.3567 103.109 26.2236 102.946 26.2236Z" fill="#59DC8E"/>
<path d="M102.946 30.5942H100.37C100.206 30.5942 100.074 30.7273 100.074 30.8914V33.4786C100.074 33.6427 100.206 33.7758 100.37 33.7758H102.946C103.109 33.7758 103.242 33.6427 103.242 33.4786V30.8914C103.242 30.7273 103.109 30.5942 102.946 30.5942Z" fill="#59DC8E"/>
<path d="M102.946 34.9653H100.37C100.206 34.9653 100.074 35.0984 100.074 35.2625V37.8497C100.074 38.0138 100.206 38.1469 100.37 38.1469H102.946C103.109 38.1469 103.242 38.0138 103.242 37.8497V35.2625C103.242 35.0984 103.109 34.9653 102.946 34.9653Z" fill="#59DC8E"/>
<path d="M107.297 17.4824H104.721C104.557 17.4824 104.425 17.6155 104.425 17.7796V20.3668C104.425 20.5309 104.557 20.664 104.721 20.664H107.297C107.46 20.664 107.593 20.5309 107.593 20.3668V17.7796C107.593 17.6155 107.46 17.4824 107.297 17.4824Z" fill="#59DC8E"/>
<path d="M107.297 21.8535H104.721C104.557 21.8535 104.425 21.9866 104.425 22.1507V24.7379C104.425 24.902 104.557 25.0351 104.721 25.0351H107.297C107.46 25.0351 107.593 24.902 107.593 24.7379V22.1507C107.593 21.9866 107.46 21.8535 107.297 21.8535Z" fill="#59DC8E"/>
<path d="M107.297 26.2236H104.721C104.557 26.2236 104.425 26.3567 104.425 26.5208V29.108C104.425 29.2721 104.557 29.4052 104.721 29.4052H107.297C107.46 29.4052 107.593 29.2721 107.593 29.108V26.5208C107.593 26.3567 107.46 26.2236 107.297 26.2236Z" fill="#59DC8E"/>
<path d="M107.297 30.5942H104.721C104.557 30.5942 104.425 30.7273 104.425 30.8914V33.4786C104.425 33.6427 104.557 33.7758 104.721 33.7758H107.297C107.46 33.7758 107.593 33.6427 107.593 33.4786V30.8914C107.593 30.7273 107.46 30.5942 107.297 30.5942Z" fill="#59DC8E"/>
<path d="M107.297 34.9653H104.721C104.557 34.9653 104.425 35.0984 104.425 35.2625V37.8497C104.425 38.0138 104.557 38.1469 104.721 38.1469H107.297C107.46 38.1469 107.593 38.0138 107.593 37.8497V35.2625C107.593 35.0984 107.46 34.9653 107.297 34.9653Z" fill="#59DC8E"/>
<path d="M107.297 39.3354H104.721C104.557 39.3354 104.425 39.4685 104.425 39.6327V42.2198C104.425 42.3839 104.557 42.517 104.721 42.517H107.297C107.46 42.517 107.593 42.3839 107.593 42.2198V39.6327C107.593 39.4685 107.46 39.3354 107.297 39.3354Z" fill="#59DC8E"/>
<path d="M111.649 17.4824H109.073C108.91 17.4824 108.777 17.6155 108.777 17.7796V20.3668C108.777 20.5309 108.91 20.664 109.073 20.664H111.649C111.813 20.664 111.945 20.5309 111.945 20.3668V17.7796C111.945 17.6155 111.813 17.4824 111.649 17.4824Z" fill="#59DC8E"/>
<path d="M111.649 21.8535H109.073C108.91 21.8535 108.777 21.9866 108.777 22.1507V24.7379C108.777 24.902 108.91 25.0351 109.073 25.0351H111.649C111.813 25.0351 111.945 24.902 111.945 24.7379V22.1507C111.945 21.9866 111.813 21.8535 111.649 21.8535Z" fill="#59DC8E"/>
<path d="M111.649 26.2236H109.073C108.91 26.2236 108.777 26.3567 108.777 26.5208V29.108C108.777 29.2721 108.91 29.4052 109.073 29.4052H111.649C111.813 29.4052 111.945 29.2721 111.945 29.108V26.5208C111.945 26.3567 111.813 26.2236 111.649 26.2236Z" fill="#59DC8E"/>
<path d="M111.649 30.5942H109.073C108.91 30.5942 108.777 30.7273 108.777 30.8914V33.4786C108.777 33.6427 108.91 33.7758 109.073 33.7758H111.649C111.813 33.7758 111.945 33.6427 111.945 33.4786V30.8914C111.945 30.7273 111.813 30.5942 111.649 30.5942Z" fill="#59DC8E"/>
<path d="M111.649 34.9653H109.073C108.91 34.9653 108.777 35.0984 108.777 35.2625V37.8497C108.777 38.0138 108.91 38.1469 109.073 38.1469H111.649C111.813 38.1469 111.945 38.0138 111.945 37.8497V35.2625C111.945 35.0984 111.813 34.9653 111.649 34.9653Z" fill="#59DC8E"/>
<path d="M111.649 39.3354H109.073C108.91 39.3354 108.777 39.4685 108.777 39.6327V42.2198C108.777 42.3839 108.91 42.517 109.073 42.517H111.649C111.813 42.517 111.945 42.3839 111.945 42.2198V39.6327C111.945 39.4685 111.813 39.3354 111.649 39.3354Z" fill="#59DC8E"/>
<path d="M116 13.1118H113.424C113.261 13.1118 113.128 13.2449 113.128 13.409V15.9962C113.128 16.1603 113.261 16.2934 113.424 16.2934H116C116.164 16.2934 116.296 16.1603 116.296 15.9962V13.409C116.296 13.2449 116.164 13.1118 116 13.1118Z" fill="#59DC8E"/>
<path d="M116 17.4824H113.424C113.261 17.4824 113.128 17.6155 113.128 17.7796V20.3668C113.128 20.5309 113.261 20.664 113.424 20.664H116C116.164 20.664 116.296 20.5309 116.296 20.3668V17.7796C116.296 17.6155 116.164 17.4824 116 17.4824Z" fill="#59DC8E"/>
<path d="M116 21.8535H113.424C113.261 21.8535 113.128 21.9866 113.128 22.1507V24.7379C113.128 24.902 113.261 25.0351 113.424 25.0351H116C116.164 25.0351 116.296 24.902 116.296 24.7379V22.1507C116.296 21.9866 116.164 21.8535 116 21.8535Z" fill="#59DC8E"/>
<path d="M116 26.2236H113.424C113.261 26.2236 113.128 26.3567 113.128 26.5208V29.108C113.128 29.2721 113.261 29.4052 113.424 29.4052H116C116.164 29.4052 116.296 29.2721 116.296 29.108V26.5208C116.296 26.3567 116.164 26.2236 116 26.2236Z" fill="#59DC8E"/>
<path d="M116 30.5942H113.424C113.261 30.5942 113.128 30.7273 113.128 30.8914V33.4786C113.128 33.6427 113.261 33.7758 113.424 33.7758H116C116.164 33.7758 116.296 33.6427 116.296 33.4786V30.8914C116.296 30.7273 116.164 30.5942 116 30.5942Z" fill="#59DC8E"/>
<path d="M116 34.9653H113.424C113.261 34.9653 113.128 35.0984 113.128 35.2625V37.8497C113.128 38.0138 113.261 38.1469 113.424 38.1469H116C116.164 38.1469 116.296 38.0138 116.296 37.8497V35.2625C116.296 35.0984 116.164 34.9653 116 34.9653Z" fill="#59DC8E"/>
<path d="M116 39.3354H113.424C113.261 39.3354 113.128 39.4685 113.128 39.6327V42.2198C113.128 42.3839 113.261 42.517 113.424 42.517H116C116.164 42.517 116.296 42.3839 116.296 42.2198V39.6327C116.296 39.4685 116.164 39.3354 116 39.3354Z" fill="#59DC8E"/>
<path d="M120.353 13.1118H117.777C117.613 13.1118 117.481 13.2449 117.481 13.409V15.9962C117.481 16.1603 117.613 16.2934 117.777 16.2934H120.353C120.516 16.2934 120.649 16.1603 120.649 15.9962V13.409C120.649 13.2449 120.516 13.1118 120.353 13.1118Z" fill="#59DC8E"/>
<path d="M120.353 17.4824H117.777C117.613 17.4824 117.481 17.6155 117.481 17.7796V20.3668C117.481 20.5309 117.613 20.664 117.777 20.664H120.353C120.516 20.664 120.649 20.5309 120.649 20.3668V17.7796C120.649 17.6155 120.516 17.4824 120.353 17.4824Z" fill="#59DC8E"/>
<path d="M120.353 21.8535H117.777C117.613 21.8535 117.481 21.9866 117.481 22.1507V24.7379C117.481 24.902 117.613 25.0351 117.777 25.0351H120.353C120.516 25.0351 120.649 24.902 120.649 24.7379V22.1507C120.649 21.9866 120.516 21.8535 120.353 21.8535Z" fill="#59DC8E"/>
<path d="M120.353 26.2236H117.777C117.613 26.2236 117.481 26.3567 117.481 26.5208V29.108C117.481 29.2721 117.613 29.4052 117.777 29.4052H120.353C120.516 29.4052 120.649 29.2721 120.649 29.108V26.5208C120.649 26.3567 120.516 26.2236 120.353 26.2236Z" fill="#59DC8E"/>
<path d="M120.353 30.5942H117.777C117.613 30.5942 117.481 30.7273 117.481 30.8914V33.4786C117.481 33.6427 117.613 33.7758 117.777 33.7758H120.353C120.516 33.7758 120.649 33.6427 120.649 33.4786V30.8914C120.649 30.7273 120.516 30.5942 120.353 30.5942Z" fill="#59DC8E"/>
<path d="M124.704 17.4824H122.128C121.965 17.4824 121.832 17.6155 121.832 17.7796V20.3668C121.832 20.5309 121.965 20.664 122.128 20.664H124.704C124.867 20.664 125 20.5309 125 20.3668V17.7796C125 17.6155 124.867 17.4824 124.704 17.4824Z" fill="#59DC8E"/>
<path d="M124.704 21.8535H122.128C121.965 21.8535 121.832 21.9866 121.832 22.1507V24.7379C121.832 24.902 121.965 25.0351 122.128 25.0351H124.704C124.867 25.0351 125 24.902 125 24.7379V22.1507C125 21.9866 124.867 21.8535 124.704 21.8535Z" fill="#59DC8E"/>
<path d="M102.946 4.37061H100.37C100.206 4.37061 100.074 4.50367 100.074 4.66781V7.25496C100.074 7.4191 100.206 7.55216 100.37 7.55216H102.946C103.109 7.55216 103.242 7.4191 103.242 7.25496V4.66781C103.242 4.50367 103.109 4.37061 102.946 4.37061Z" fill="#59DC8E"/>
<path d="M107.297 4.37061H104.721C104.557 4.37061 104.425 4.50367 104.425 4.66781V7.25496C104.425 7.4191 104.557 7.55216 104.721 7.55216H107.297C107.46 7.55216 107.593 7.4191 107.593 7.25496V4.66781C107.593 4.50367 107.46 4.37061 107.297 4.37061Z" fill="#59DC8E"/>
<path d="M107.297 8.7417H104.721C104.557 8.7417 104.425 8.87476 104.425 9.0389V11.6261C104.425 11.7902 104.557 11.9233 104.721 11.9233H107.297C107.46 11.9233 107.593 11.7902 107.593 11.6261V9.0389C107.593 8.87476 107.46 8.7417 107.297 8.7417Z" fill="#59DC8E"/>
<path d="M111.649 8.7417H109.073C108.91 8.7417 108.777 8.87476 108.777 9.0389V11.6261C108.777 11.7902 108.91 11.9233 109.073 11.9233H111.649C111.813 11.9233 111.945 11.7902 111.945 11.6261V9.0389C111.945 8.87476 111.813 8.7417 111.649 8.7417Z" fill="#59DC8E"/>
<path d="M68.1311 43.7061H65.5552C65.3918 43.7061 65.2593 43.8391 65.2593 44.0033V46.5904C65.2593 46.7545 65.3918 46.8876 65.5552 46.8876H68.1311C68.2946 46.8876 68.4271 46.7545 68.4271 46.5904V44.0033C68.4271 43.8391 68.2946 43.7061 68.1311 43.7061Z" fill="#59DC8E"/>
<path d="M68.1311 48.0771H65.5552C65.3918 48.0771 65.2593 48.2102 65.2593 48.3744V50.9615C65.2593 51.1256 65.3918 51.2587 65.5552 51.2587H68.1311C68.2946 51.2587 68.4271 51.1256 68.4271 50.9615V48.3744C68.4271 48.2102 68.2946 48.0771 68.1311 48.0771Z" fill="#59DC8E"/>
<path d="M72.4832 43.7061H69.9072C69.7438 43.7061 69.6113 43.8391 69.6113 44.0033V46.5904C69.6113 46.7545 69.7438 46.8876 69.9072 46.8876H72.4832C72.6466 46.8876 72.7791 46.7545 72.7791 46.5904V44.0033C72.7791 43.8391 72.6466 43.7061 72.4832 43.7061Z" fill="#59DC8E"/>
<path d="M76.8347 39.3354H74.2588C74.0954 39.3354 73.9629 39.4685 73.9629 39.6327V42.2198C73.9629 42.3839 74.0954 42.517 74.2588 42.517H76.8347C76.9982 42.517 77.1307 42.3839 77.1307 42.2198V39.6327C77.1307 39.4685 76.9982 39.3354 76.8347 39.3354Z" fill="#59DC8E"/>
<path d="M76.8347 43.7061H74.2588C74.0954 43.7061 73.9629 43.8391 73.9629 44.0033V46.5904C73.9629 46.7545 74.0954 46.8876 74.2588 46.8876H76.8347C76.9982 46.8876 77.1307 46.7545 77.1307 46.5904V44.0033C77.1307 43.8391 76.9982 43.7061 76.8347 43.7061Z" fill="#59DC8E"/>
<path d="M81.1868 34.9653H78.6109C78.4474 34.9653 78.3149 35.0984 78.3149 35.2625V37.8497C78.3149 38.0138 78.4474 38.1469 78.6109 38.1469H81.1868C81.3502 38.1469 81.4827 38.0138 81.4827 37.8497V35.2625C81.4827 35.0984 81.3502 34.9653 81.1868 34.9653Z" fill="#59DC8E"/>
<path d="M81.1868 39.3354H78.6109C78.4474 39.3354 78.3149 39.4685 78.3149 39.6327V42.2198C78.3149 42.3839 78.4474 42.517 78.6109 42.517H81.1868C81.3502 42.517 81.4827 42.3839 81.4827 42.2198V39.6327C81.4827 39.4685 81.3502 39.3354 81.1868 39.3354Z" fill="#59DC8E"/>
</g>
<defs>
<clipPath id="clip0_7643_16190">
<rect width="125" height="60" fill="white"/>
</clipPath>
</defs>
</svg>
