<svg width="121" height="70" viewBox="0 0 121 70" fill="none" xmlns="http://www.w3.org/2000/svg">
<g clip-path="url(#clip0_7643_15935)">
<path d="M3.62223 22.2534H0.971061C0.802859 22.2534 0.666504 22.3889 0.666504 22.5561V25.1906C0.666504 25.3578 0.802859 25.4933 0.971061 25.4933H3.62223C3.79044 25.4933 3.92679 25.3578 3.92679 25.1906V22.5561C3.92679 22.3889 3.79044 22.2534 3.62223 22.2534Z" fill="#59DC8E"/>
<path d="M8.10075 22.2534H5.44958C5.28137 22.2534 5.14502 22.3889 5.14502 22.5561V25.1906C5.14502 25.3578 5.28137 25.4933 5.44958 25.4933H8.10075C8.26895 25.4933 8.40531 25.3578 8.40531 25.1906V22.5561C8.40531 22.3889 8.26895 22.2534 8.10075 22.2534Z" fill="#59DC8E"/>
<path d="M8.10075 26.7041H5.44958C5.28137 26.7041 5.14502 26.8396 5.14502 27.0067V29.6413C5.14502 29.8084 5.28137 29.9439 5.44958 29.9439H8.10075C8.26895 29.9439 8.40531 29.8084 8.40531 29.6413V27.0067C8.40531 26.8396 8.26895 26.7041 8.10075 26.7041Z" fill="#59DC8E"/>
<path d="M8.10075 31.1543H5.44958C5.28137 31.1543 5.14502 31.2898 5.14502 31.4569V34.0915C5.14502 34.2586 5.28137 34.3941 5.44958 34.3941H8.10075C8.26895 34.3941 8.40531 34.2586 8.40531 34.0915V31.4569C8.40531 31.2898 8.26895 31.1543 8.10075 31.1543Z" fill="#59DC8E"/>
<path d="M12.5802 17.8022H9.92907C9.76087 17.8022 9.62451 17.9377 9.62451 18.1049V20.7394C9.62451 20.9066 9.76087 21.0421 9.92907 21.0421H12.5802C12.7484 21.0421 12.8848 20.9066 12.8848 20.7394V18.1049C12.8848 17.9377 12.7484 17.8022 12.5802 17.8022Z" fill="#59DC8E"/>
<path d="M12.5802 22.2534H9.92907C9.76087 22.2534 9.62451 22.3889 9.62451 22.5561V25.1906C9.62451 25.3578 9.76087 25.4933 9.92907 25.4933H12.5802C12.7484 25.4933 12.8848 25.3578 12.8848 25.1906V22.5561C12.8848 22.3889 12.7484 22.2534 12.5802 22.2534Z" fill="#59DC8E"/>
<path d="M12.5802 26.7041H9.92907C9.76087 26.7041 9.62451 26.8396 9.62451 27.0067V29.6413C9.62451 29.8084 9.76087 29.9439 9.92907 29.9439H12.5802C12.7484 29.9439 12.8848 29.8084 12.8848 29.6413V27.0067C12.8848 26.8396 12.7484 26.7041 12.5802 26.7041Z" fill="#59DC8E"/>
<path d="M12.5802 31.1543H9.92907C9.76087 31.1543 9.62451 31.2898 9.62451 31.4569V34.0915C9.62451 34.2586 9.76087 34.3941 9.92907 34.3941H12.5802C12.7484 34.3941 12.8848 34.2586 12.8848 34.0915V31.4569C12.8848 31.2898 12.7484 31.1543 12.5802 31.1543Z" fill="#59DC8E"/>
<path d="M12.5802 35.6055H9.92907C9.76087 35.6055 9.62451 35.741 9.62451 35.9081V38.5427C9.62451 38.7098 9.76087 38.8453 9.92907 38.8453H12.5802C12.7484 38.8453 12.8848 38.7098 12.8848 38.5427V35.9081C12.8848 35.741 12.7484 35.6055 12.5802 35.6055Z" fill="#59DC8E"/>
<path d="M12.5802 40.0562H9.92907C9.76087 40.0562 9.62451 40.1917 9.62451 40.3588V42.9933C9.62451 43.1605 9.76087 43.296 9.92907 43.296H12.5802C12.7484 43.296 12.8848 43.1605 12.8848 42.9933V40.3588C12.8848 40.1917 12.7484 40.0562 12.5802 40.0562Z" fill="#59DC8E"/>
<path d="M17.0588 17.8022H14.4076C14.2394 17.8022 14.103 17.9377 14.103 18.1049V20.7394C14.103 20.9066 14.2394 21.0421 14.4076 21.0421H17.0588C17.227 21.0421 17.3633 20.9066 17.3633 20.7394V18.1049C17.3633 17.9377 17.227 17.8022 17.0588 17.8022Z" fill="#59DC8E"/>
<path d="M17.0588 22.2534H14.4076C14.2394 22.2534 14.103 22.3889 14.103 22.5561V25.1906C14.103 25.3578 14.2394 25.4933 14.4076 25.4933H17.0588C17.227 25.4933 17.3633 25.3578 17.3633 25.1906V22.5561C17.3633 22.3889 17.227 22.2534 17.0588 22.2534Z" fill="#59DC8E"/>
<path d="M17.0588 26.7041H14.4076C14.2394 26.7041 14.103 26.8396 14.103 27.0067V29.6413C14.103 29.8084 14.2394 29.9439 14.4076 29.9439H17.0588C17.227 29.9439 17.3633 29.8084 17.3633 29.6413V27.0067C17.3633 26.8396 17.227 26.7041 17.0588 26.7041Z" fill="#59DC8E"/>
<path d="M17.0588 31.1543H14.4076C14.2394 31.1543 14.103 31.2898 14.103 31.4569V34.0915C14.103 34.2586 14.2394 34.3941 14.4076 34.3941H17.0588C17.227 34.3941 17.3633 34.2586 17.3633 34.0915V31.4569C17.3633 31.2898 17.227 31.1543 17.0588 31.1543Z" fill="#59DC8E"/>
<path d="M17.0588 35.6055H14.4076C14.2394 35.6055 14.103 35.741 14.103 35.9081V38.5427C14.103 38.7098 14.2394 38.8453 14.4076 38.8453H17.0588C17.227 38.8453 17.3633 38.7098 17.3633 38.5427V35.9081C17.3633 35.741 17.227 35.6055 17.0588 35.6055Z" fill="#59DC8E"/>
<path d="M17.0588 40.0562H14.4076C14.2394 40.0562 14.103 40.1917 14.103 40.3588V42.9933C14.103 43.1605 14.2394 43.296 14.4076 43.296H17.0588C17.227 43.296 17.3633 43.1605 17.3633 42.9933V40.3588C17.3633 40.1917 17.227 40.0562 17.0588 40.0562Z" fill="#59DC8E"/>
<path d="M17.0588 44.5063H14.4076C14.2394 44.5063 14.103 44.6418 14.103 44.809V47.4435C14.103 47.6107 14.2394 47.7462 14.4076 47.7462H17.0588C17.227 47.7462 17.3633 47.6107 17.3633 47.4435V44.809C17.3633 44.6418 17.227 44.5063 17.0588 44.5063Z" fill="#59DC8E"/>
<path d="M21.5378 13.3521H18.8866C18.7184 13.3521 18.582 13.4876 18.582 13.6547V16.2892C18.582 16.4564 18.7184 16.5919 18.8866 16.5919H21.5378C21.706 16.5919 21.8423 16.4564 21.8423 16.2892V13.6547C21.8423 13.4876 21.706 13.3521 21.5378 13.3521Z" fill="#59DC8E"/>
<path d="M21.5378 17.8022H18.8866C18.7184 17.8022 18.582 17.9377 18.582 18.1049V20.7394C18.582 20.9066 18.7184 21.0421 18.8866 21.0421H21.5378C21.706 21.0421 21.8423 20.9066 21.8423 20.7394V18.1049C21.8423 17.9377 21.706 17.8022 21.5378 17.8022Z" fill="#59DC8E"/>
<path d="M21.5378 22.2534H18.8866C18.7184 22.2534 18.582 22.3889 18.582 22.5561V25.1906C18.582 25.3578 18.7184 25.4933 18.8866 25.4933H21.5378C21.706 25.4933 21.8423 25.3578 21.8423 25.1906V22.5561C21.8423 22.3889 21.706 22.2534 21.5378 22.2534Z" fill="#59DC8E"/>
<path d="M21.5378 26.7041H18.8866C18.7184 26.7041 18.582 26.8396 18.582 27.0067V29.6413C18.582 29.8084 18.7184 29.9439 18.8866 29.9439H21.5378C21.706 29.9439 21.8423 29.8084 21.8423 29.6413V27.0067C21.8423 26.8396 21.706 26.7041 21.5378 26.7041Z" fill="#59DC8E"/>
<path d="M21.5378 31.1543H18.8866C18.7184 31.1543 18.582 31.2898 18.582 31.4569V34.0915C18.582 34.2586 18.7184 34.3941 18.8866 34.3941H21.5378C21.706 34.3941 21.8423 34.2586 21.8423 34.0915V31.4569C21.8423 31.2898 21.706 31.1543 21.5378 31.1543Z" fill="#59DC8E"/>
<path d="M21.5378 35.6055H18.8866C18.7184 35.6055 18.582 35.741 18.582 35.9081V38.5427C18.582 38.7098 18.7184 38.8453 18.8866 38.8453H21.5378C21.706 38.8453 21.8423 38.7098 21.8423 38.5427V35.9081C21.8423 35.741 21.706 35.6055 21.5378 35.6055Z" fill="#59DC8E"/>
<path d="M21.5378 40.0562H18.8866C18.7184 40.0562 18.582 40.1917 18.582 40.3588V42.9933C18.582 43.1605 18.7184 43.296 18.8866 43.296H21.5378C21.706 43.296 21.8423 43.1605 21.8423 42.9933V40.3588C21.8423 40.1917 21.706 40.0562 21.5378 40.0562Z" fill="#59DC8E"/>
<path d="M21.5378 44.5063H18.8866C18.7184 44.5063 18.582 44.6418 18.582 44.809V47.4435C18.582 47.6107 18.7184 47.7462 18.8866 47.7462H21.5378C21.706 47.7462 21.8423 47.6107 21.8423 47.4435V44.809C21.8423 44.6418 21.706 44.5063 21.5378 44.5063Z" fill="#59DC8E"/>
<path d="M21.5378 48.9575H18.8866C18.7184 48.9575 18.582 49.093 18.582 49.2602V51.8947C18.582 52.0619 18.7184 52.1974 18.8866 52.1974H21.5378C21.706 52.1974 21.8423 52.0619 21.8423 51.8947V49.2602C21.8423 49.093 21.706 48.9575 21.5378 48.9575Z" fill="#59DC8E"/>
<path d="M26.0163 13.3521H23.3651C23.1969 13.3521 23.0605 13.4876 23.0605 13.6547V16.2892C23.0605 16.4564 23.1969 16.5919 23.3651 16.5919H26.0163C26.1845 16.5919 26.3208 16.4564 26.3208 16.2892V13.6547C26.3208 13.4876 26.1845 13.3521 26.0163 13.3521Z" fill="#59DC8E"/>
<path d="M26.0163 17.8022H23.3651C23.1969 17.8022 23.0605 17.9377 23.0605 18.1049V20.7394C23.0605 20.9066 23.1969 21.0421 23.3651 21.0421H26.0163C26.1845 21.0421 26.3208 20.9066 26.3208 20.7394V18.1049C26.3208 17.9377 26.1845 17.8022 26.0163 17.8022Z" fill="#59DC8E"/>
<path d="M26.0163 22.2534H23.3651C23.1969 22.2534 23.0605 22.3889 23.0605 22.5561V25.1906C23.0605 25.3578 23.1969 25.4933 23.3651 25.4933H26.0163C26.1845 25.4933 26.3208 25.3578 26.3208 25.1906V22.5561C26.3208 22.3889 26.1845 22.2534 26.0163 22.2534Z" fill="#59DC8E"/>
<path d="M26.0163 26.7041H23.3651C23.1969 26.7041 23.0605 26.8396 23.0605 27.0067V29.6413C23.0605 29.8084 23.1969 29.9439 23.3651 29.9439H26.0163C26.1845 29.9439 26.3208 29.8084 26.3208 29.6413V27.0067C26.3208 26.8396 26.1845 26.7041 26.0163 26.7041Z" fill="#59DC8E"/>
<path d="M26.0163 31.1543H23.3651C23.1969 31.1543 23.0605 31.2898 23.0605 31.4569V34.0915C23.0605 34.2586 23.1969 34.3941 23.3651 34.3941H26.0163C26.1845 34.3941 26.3208 34.2586 26.3208 34.0915V31.4569C26.3208 31.2898 26.1845 31.1543 26.0163 31.1543Z" fill="#59DC8E"/>
<path d="M26.0163 35.6055H23.3651C23.1969 35.6055 23.0605 35.741 23.0605 35.9081V38.5427C23.0605 38.7098 23.1969 38.8453 23.3651 38.8453H26.0163C26.1845 38.8453 26.3208 38.7098 26.3208 38.5427V35.9081C26.3208 35.741 26.1845 35.6055 26.0163 35.6055Z" fill="#59DC8E"/>
<path d="M26.0163 40.0562H23.3651C23.1969 40.0562 23.0605 40.1917 23.0605 40.3588V42.9933C23.0605 43.1605 23.1969 43.296 23.3651 43.296H26.0163C26.1845 43.296 26.3208 43.1605 26.3208 42.9933V40.3588C26.3208 40.1917 26.1845 40.0562 26.0163 40.0562Z" fill="#59DC8E"/>
<path d="M26.0163 44.5063H23.3651C23.1969 44.5063 23.0605 44.6418 23.0605 44.809V47.4435C23.0605 47.6107 23.1969 47.7462 23.3651 47.7462H26.0163C26.1845 47.7462 26.3208 47.6107 26.3208 47.4435V44.809C26.3208 44.6418 26.1845 44.5063 26.0163 44.5063Z" fill="#59DC8E"/>
<path d="M26.0163 48.9575H23.3651C23.1969 48.9575 23.0605 49.093 23.0605 49.2602V51.8947C23.0605 52.0619 23.1969 52.1974 23.3651 52.1974H26.0163C26.1845 52.1974 26.3208 52.0619 26.3208 51.8947V49.2602C26.3208 49.093 26.1845 48.9575 26.0163 48.9575Z" fill="#59DC8E"/>
<path d="M26.0163 53.4082H23.3651C23.1969 53.4082 23.0605 53.5437 23.0605 53.7109V56.3454C23.0605 56.5125 23.1969 56.648 23.3651 56.648H26.0163C26.1845 56.648 26.3208 56.5125 26.3208 56.3454V53.7109C26.3208 53.5437 26.1845 53.4082 26.0163 53.4082Z" fill="#59DC8E"/>
<path d="M30.4958 8.90137H27.8446C27.6764 8.90137 27.54 9.03687 27.54 9.20401V11.8386C27.54 12.0057 27.6764 12.1412 27.8446 12.1412H30.4958C30.664 12.1412 30.8003 12.0057 30.8003 11.8386V9.20401C30.8003 9.03687 30.664 8.90137 30.4958 8.90137Z" fill="#59DC8E"/>
<path d="M30.4958 13.3521H27.8446C27.6764 13.3521 27.54 13.4876 27.54 13.6547V16.2892C27.54 16.4564 27.6764 16.5919 27.8446 16.5919H30.4958C30.664 16.5919 30.8003 16.4564 30.8003 16.2892V13.6547C30.8003 13.4876 30.664 13.3521 30.4958 13.3521Z" fill="#59DC8E"/>
<path d="M30.4958 17.8022H27.8446C27.6764 17.8022 27.54 17.9377 27.54 18.1049V20.7394C27.54 20.9066 27.6764 21.0421 27.8446 21.0421H30.4958C30.664 21.0421 30.8003 20.9066 30.8003 20.7394V18.1049C30.8003 17.9377 30.664 17.8022 30.4958 17.8022Z" fill="#59DC8E"/>
<path d="M30.4958 22.2534H27.8446C27.6764 22.2534 27.54 22.3889 27.54 22.5561V25.1906C27.54 25.3578 27.6764 25.4933 27.8446 25.4933H30.4958C30.664 25.4933 30.8003 25.3578 30.8003 25.1906V22.5561C30.8003 22.3889 30.664 22.2534 30.4958 22.2534Z" fill="#59DC8E"/>
<path d="M30.4958 26.7041H27.8446C27.6764 26.7041 27.54 26.8396 27.54 27.0067V29.6413C27.54 29.8084 27.6764 29.9439 27.8446 29.9439H30.4958C30.664 29.9439 30.8003 29.8084 30.8003 29.6413V27.0067C30.8003 26.8396 30.664 26.7041 30.4958 26.7041Z" fill="#59DC8E"/>
<path d="M30.4958 31.1543H27.8446C27.6764 31.1543 27.54 31.2898 27.54 31.4569V34.0915C27.54 34.2586 27.6764 34.3941 27.8446 34.3941H30.4958C30.664 34.3941 30.8003 34.2586 30.8003 34.0915V31.4569C30.8003 31.2898 30.664 31.1543 30.4958 31.1543Z" fill="#59DC8E"/>
<path d="M30.4958 35.6055H27.8446C27.6764 35.6055 27.54 35.741 27.54 35.9081V38.5427C27.54 38.7098 27.6764 38.8453 27.8446 38.8453H30.4958C30.664 38.8453 30.8003 38.7098 30.8003 38.5427V35.9081C30.8003 35.741 30.664 35.6055 30.4958 35.6055Z" fill="#59DC8E"/>
<path d="M30.4958 40.0562H27.8446C27.6764 40.0562 27.54 40.1917 27.54 40.3588V42.9933C27.54 43.1605 27.6764 43.296 27.8446 43.296H30.4958C30.664 43.296 30.8003 43.1605 30.8003 42.9933V40.3588C30.8003 40.1917 30.664 40.0562 30.4958 40.0562Z" fill="#59DC8E"/>
<path d="M30.4958 44.5063H27.8446C27.6764 44.5063 27.54 44.6418 27.54 44.809V47.4435C27.54 47.6107 27.6764 47.7462 27.8446 47.7462H30.4958C30.664 47.7462 30.8003 47.6107 30.8003 47.4435V44.809C30.8003 44.6418 30.664 44.5063 30.4958 44.5063Z" fill="#59DC8E"/>
<path d="M30.4958 48.9575H27.8446C27.6764 48.9575 27.54 49.093 27.54 49.2602V51.8947C27.54 52.0619 27.6764 52.1974 27.8446 52.1974H30.4958C30.664 52.1974 30.8003 52.0619 30.8003 51.8947V49.2602C30.8003 49.093 30.664 48.9575 30.4958 48.9575Z" fill="#59DC8E"/>
<path d="M30.4958 53.4082H27.8446C27.6764 53.4082 27.54 53.5437 27.54 53.7109V56.3454C27.54 56.5125 27.6764 56.648 27.8446 56.648H30.4958C30.664 56.648 30.8003 56.5125 30.8003 56.3454V53.7109C30.8003 53.5437 30.664 53.4082 30.4958 53.4082Z" fill="#59DC8E"/>
<path d="M30.4958 57.8584H27.8446C27.6764 57.8584 27.54 57.9939 27.54 58.161V60.7956C27.54 60.9627 27.6764 61.0982 27.8446 61.0982H30.4958C30.664 61.0982 30.8003 60.9627 30.8003 60.7956V58.161C30.8003 57.9939 30.664 57.8584 30.4958 57.8584Z" fill="#59DC8E"/>
<path d="M34.9743 8.90137H32.3231C32.1549 8.90137 32.0186 9.03687 32.0186 9.20401V11.8386C32.0186 12.0057 32.1549 12.1412 32.3231 12.1412H34.9743C35.1425 12.1412 35.2788 12.0057 35.2788 11.8386V9.20401C35.2788 9.03687 35.1425 8.90137 34.9743 8.90137Z" fill="#59DC8E"/>
<path d="M34.9743 13.3521H32.3231C32.1549 13.3521 32.0186 13.4876 32.0186 13.6547V16.2892C32.0186 16.4564 32.1549 16.5919 32.3231 16.5919H34.9743C35.1425 16.5919 35.2788 16.4564 35.2788 16.2892V13.6547C35.2788 13.4876 35.1425 13.3521 34.9743 13.3521Z" fill="#59DC8E"/>
<path d="M34.9743 17.8022H32.3231C32.1549 17.8022 32.0186 17.9377 32.0186 18.1049V20.7394C32.0186 20.9066 32.1549 21.0421 32.3231 21.0421H34.9743C35.1425 21.0421 35.2788 20.9066 35.2788 20.7394V18.1049C35.2788 17.9377 35.1425 17.8022 34.9743 17.8022Z" fill="#59DC8E"/>
<path d="M34.9743 22.2534H32.3231C32.1549 22.2534 32.0186 22.3889 32.0186 22.5561V25.1906C32.0186 25.3578 32.1549 25.4933 32.3231 25.4933H34.9743C35.1425 25.4933 35.2788 25.3578 35.2788 25.1906V22.5561C35.2788 22.3889 35.1425 22.2534 34.9743 22.2534Z" fill="#59DC8E"/>
<path d="M34.9743 26.7041H32.3231C32.1549 26.7041 32.0186 26.8396 32.0186 27.0067V29.6413C32.0186 29.8084 32.1549 29.9439 32.3231 29.9439H34.9743C35.1425 29.9439 35.2788 29.8084 35.2788 29.6413V27.0067C35.2788 26.8396 35.1425 26.7041 34.9743 26.7041Z" fill="#59DC8E"/>
<path d="M34.9743 31.1543H32.3231C32.1549 31.1543 32.0186 31.2898 32.0186 31.4569V34.0915C32.0186 34.2586 32.1549 34.3941 32.3231 34.3941H34.9743C35.1425 34.3941 35.2788 34.2586 35.2788 34.0915V31.4569C35.2788 31.2898 35.1425 31.1543 34.9743 31.1543Z" fill="#59DC8E"/>
<path d="M34.9743 35.6055H32.3231C32.1549 35.6055 32.0186 35.741 32.0186 35.9081V38.5427C32.0186 38.7098 32.1549 38.8453 32.3231 38.8453H34.9743C35.1425 38.8453 35.2788 38.7098 35.2788 38.5427V35.9081C35.2788 35.741 35.1425 35.6055 34.9743 35.6055Z" fill="#59DC8E"/>
<path d="M34.9743 40.0562H32.3231C32.1549 40.0562 32.0186 40.1917 32.0186 40.3588V42.9933C32.0186 43.1605 32.1549 43.296 32.3231 43.296H34.9743C35.1425 43.296 35.2788 43.1605 35.2788 42.9933V40.3588C35.2788 40.1917 35.1425 40.0562 34.9743 40.0562Z" fill="#59DC8E"/>
<path d="M34.9743 44.5063H32.3231C32.1549 44.5063 32.0186 44.6418 32.0186 44.809V47.4435C32.0186 47.6107 32.1549 47.7462 32.3231 47.7462H34.9743C35.1425 47.7462 35.2788 47.6107 35.2788 47.4435V44.809C35.2788 44.6418 35.1425 44.5063 34.9743 44.5063Z" fill="#59DC8E"/>
<path d="M34.9743 48.9575H32.3231C32.1549 48.9575 32.0186 49.093 32.0186 49.2602V51.8947C32.0186 52.0619 32.1549 52.1974 32.3231 52.1974H34.9743C35.1425 52.1974 35.2788 52.0619 35.2788 51.8947V49.2602C35.2788 49.093 35.1425 48.9575 34.9743 48.9575Z" fill="#59DC8E"/>
<path d="M34.9743 53.4082H32.3231C32.1549 53.4082 32.0186 53.5437 32.0186 53.7109V56.3454C32.0186 56.5125 32.1549 56.648 32.3231 56.648H34.9743C35.1425 56.648 35.2788 56.5125 35.2788 56.3454V53.7109C35.2788 53.5437 35.1425 53.4082 34.9743 53.4082Z" fill="#59DC8E"/>
<path d="M34.9743 57.8584H32.3231C32.1549 57.8584 32.0186 57.9939 32.0186 58.161V60.7956C32.0186 60.9627 32.1549 61.0982 32.3231 61.0982H34.9743C35.1425 61.0982 35.2788 60.9627 35.2788 60.7956V58.161C35.2788 57.9939 35.1425 57.8584 34.9743 57.8584Z" fill="#59DC8E"/>
<path d="M34.9743 62.3096H32.3231C32.1549 62.3096 32.0186 62.4451 32.0186 62.6122V65.2468C32.0186 65.4139 32.1549 65.5494 32.3231 65.5494H34.9743C35.1425 65.5494 35.2788 65.4139 35.2788 65.2468V62.6122C35.2788 62.4451 35.1425 62.3096 34.9743 62.3096Z" fill="#59DC8E"/>
<path d="M39.4528 4.4502H36.8016C36.6334 4.4502 36.4971 4.5857 36.4971 4.75284V7.38739C36.4971 7.55453 36.6334 7.69003 36.8016 7.69003H39.4528C39.621 7.69003 39.7574 7.55453 39.7574 7.38739V4.75284C39.7574 4.5857 39.621 4.4502 39.4528 4.4502Z" fill="#59DC8E"/>
<path d="M39.4528 8.90137H36.8016C36.6334 8.90137 36.4971 9.03687 36.4971 9.20401V11.8386C36.4971 12.0057 36.6334 12.1412 36.8016 12.1412H39.4528C39.621 12.1412 39.7574 12.0057 39.7574 11.8386V9.20401C39.7574 9.03687 39.621 8.90137 39.4528 8.90137Z" fill="#59DC8E"/>
<path d="M39.4528 13.3521H36.8016C36.6334 13.3521 36.4971 13.4876 36.4971 13.6547V16.2892C36.4971 16.4564 36.6334 16.5919 36.8016 16.5919H39.4528C39.621 16.5919 39.7574 16.4564 39.7574 16.2892V13.6547C39.7574 13.4876 39.621 13.3521 39.4528 13.3521Z" fill="#59DC8E"/>
<path d="M39.4528 17.8022H36.8016C36.6334 17.8022 36.4971 17.9377 36.4971 18.1049V20.7394C36.4971 20.9066 36.6334 21.0421 36.8016 21.0421H39.4528C39.621 21.0421 39.7574 20.9066 39.7574 20.7394V18.1049C39.7574 17.9377 39.621 17.8022 39.4528 17.8022Z" fill="#59DC8E"/>
<path d="M39.4528 22.2534H36.8016C36.6334 22.2534 36.4971 22.3889 36.4971 22.5561V25.1906C36.4971 25.3578 36.6334 25.4933 36.8016 25.4933H39.4528C39.621 25.4933 39.7574 25.3578 39.7574 25.1906V22.5561C39.7574 22.3889 39.621 22.2534 39.4528 22.2534Z" fill="#59DC8E"/>
<path d="M39.4528 26.7041H36.8016C36.6334 26.7041 36.4971 26.8396 36.4971 27.0067V29.6413C36.4971 29.8084 36.6334 29.9439 36.8016 29.9439H39.4528C39.621 29.9439 39.7574 29.8084 39.7574 29.6413V27.0067C39.7574 26.8396 39.621 26.7041 39.4528 26.7041Z" fill="#59DC8E"/>
<path d="M39.4528 31.1543H36.8016C36.6334 31.1543 36.4971 31.2898 36.4971 31.4569V34.0915C36.4971 34.2586 36.6334 34.3941 36.8016 34.3941H39.4528C39.621 34.3941 39.7574 34.2586 39.7574 34.0915V31.4569C39.7574 31.2898 39.621 31.1543 39.4528 31.1543Z" fill="#59DC8E"/>
<path d="M39.4528 35.6055H36.8016C36.6334 35.6055 36.4971 35.741 36.4971 35.9081V38.5427C36.4971 38.7098 36.6334 38.8453 36.8016 38.8453H39.4528C39.621 38.8453 39.7574 38.7098 39.7574 38.5427V35.9081C39.7574 35.741 39.621 35.6055 39.4528 35.6055Z" fill="#59DC8E"/>
<path d="M39.4528 40.0562H36.8016C36.6334 40.0562 36.4971 40.1917 36.4971 40.3588V42.9933C36.4971 43.1605 36.6334 43.296 36.8016 43.296H39.4528C39.621 43.296 39.7574 43.1605 39.7574 42.9933V40.3588C39.7574 40.1917 39.621 40.0562 39.4528 40.0562Z" fill="#59DC8E"/>
<path d="M39.4528 44.5063H36.8016C36.6334 44.5063 36.4971 44.6418 36.4971 44.809V47.4435C36.4971 47.6107 36.6334 47.7462 36.8016 47.7462H39.4528C39.621 47.7462 39.7574 47.6107 39.7574 47.4435V44.809C39.7574 44.6418 39.621 44.5063 39.4528 44.5063Z" fill="#59DC8E"/>
<path d="M39.4528 48.9575H36.8016C36.6334 48.9575 36.4971 49.093 36.4971 49.2602V51.8947C36.4971 52.0619 36.6334 52.1974 36.8016 52.1974H39.4528C39.621 52.1974 39.7574 52.0619 39.7574 51.8947V49.2602C39.7574 49.093 39.621 48.9575 39.4528 48.9575Z" fill="#59DC8E"/>
<path d="M39.4528 53.4082H36.8016C36.6334 53.4082 36.4971 53.5437 36.4971 53.7109V56.3454C36.4971 56.5125 36.6334 56.648 36.8016 56.648H39.4528C39.621 56.648 39.7574 56.5125 39.7574 56.3454V53.7109C39.7574 53.5437 39.621 53.4082 39.4528 53.4082Z" fill="#59DC8E"/>
<path d="M39.4528 57.8584H36.8016C36.6334 57.8584 36.4971 57.9939 36.4971 58.161V60.7956C36.4971 60.9627 36.6334 61.0982 36.8016 61.0982H39.4528C39.621 61.0982 39.7574 60.9627 39.7574 60.7956V58.161C39.7574 57.9939 39.621 57.8584 39.4528 57.8584Z" fill="#59DC8E"/>
<path d="M39.4528 62.3096H36.8016C36.6334 62.3096 36.4971 62.4451 36.4971 62.6122V65.2468C36.4971 65.4139 36.6334 65.5494 36.8016 65.5494H39.4528C39.621 65.5494 39.7574 65.4139 39.7574 65.2468V62.6122C39.7574 62.4451 39.621 62.3096 39.4528 62.3096Z" fill="#59DC8E"/>
<path d="M39.4528 66.7603H36.8016C36.6334 66.7603 36.4971 66.8958 36.4971 67.0629V69.6974C36.4971 69.8646 36.6334 70.0001 36.8016 70.0001H39.4528C39.621 70.0001 39.7574 69.8646 39.7574 69.6974V67.0629C39.7574 66.8958 39.621 66.7603 39.4528 66.7603Z" fill="#59DC8E"/>
<path d="M43.9318 0H41.2806C41.1124 0 40.9761 0.1355 40.9761 0.302647V2.93719C40.9761 3.10434 41.1124 3.23984 41.2806 3.23984H43.9318C44.1 3.23984 44.2364 3.10434 44.2364 2.93719V0.302647C44.2364 0.1355 44.1 0 43.9318 0Z" fill="#59DC8E"/>
<path d="M43.9318 4.4502H41.2806C41.1124 4.4502 40.9761 4.5857 40.9761 4.75284V7.38739C40.9761 7.55453 41.1124 7.69003 41.2806 7.69003H43.9318C44.1 7.69003 44.2364 7.55453 44.2364 7.38739V4.75284C44.2364 4.5857 44.1 4.4502 43.9318 4.4502Z" fill="#59DC8E"/>
<path d="M43.9318 8.90137H41.2806C41.1124 8.90137 40.9761 9.03687 40.9761 9.20401V11.8386C40.9761 12.0057 41.1124 12.1412 41.2806 12.1412H43.9318C44.1 12.1412 44.2364 12.0057 44.2364 11.8386V9.20401C44.2364 9.03687 44.1 8.90137 43.9318 8.90137Z" fill="#59DC8E"/>
<path d="M43.9318 13.3521H41.2806C41.1124 13.3521 40.9761 13.4876 40.9761 13.6547V16.2892C40.9761 16.4564 41.1124 16.5919 41.2806 16.5919H43.9318C44.1 16.5919 44.2364 16.4564 44.2364 16.2892V13.6547C44.2364 13.4876 44.1 13.3521 43.9318 13.3521Z" fill="#59DC8E"/>
<path d="M43.9318 17.8022H41.2806C41.1124 17.8022 40.9761 17.9377 40.9761 18.1049V20.7394C40.9761 20.9066 41.1124 21.0421 41.2806 21.0421H43.9318C44.1 21.0421 44.2364 20.9066 44.2364 20.7394V18.1049C44.2364 17.9377 44.1 17.8022 43.9318 17.8022Z" fill="#59DC8E"/>
<path d="M43.9318 22.2534H41.2806C41.1124 22.2534 40.9761 22.3889 40.9761 22.5561V25.1906C40.9761 25.3578 41.1124 25.4933 41.2806 25.4933H43.9318C44.1 25.4933 44.2364 25.3578 44.2364 25.1906V22.5561C44.2364 22.3889 44.1 22.2534 43.9318 22.2534Z" fill="#59DC8E"/>
<path d="M43.9318 26.7041H41.2806C41.1124 26.7041 40.9761 26.8396 40.9761 27.0067V29.6413C40.9761 29.8084 41.1124 29.9439 41.2806 29.9439H43.9318C44.1 29.9439 44.2364 29.8084 44.2364 29.6413V27.0067C44.2364 26.8396 44.1 26.7041 43.9318 26.7041Z" fill="#59DC8E"/>
<path d="M43.9318 31.1543H41.2806C41.1124 31.1543 40.9761 31.2898 40.9761 31.4569V34.0915C40.9761 34.2586 41.1124 34.3941 41.2806 34.3941H43.9318C44.1 34.3941 44.2364 34.2586 44.2364 34.0915V31.4569C44.2364 31.2898 44.1 31.1543 43.9318 31.1543Z" fill="#59DC8E"/>
<path d="M43.9318 35.6055H41.2806C41.1124 35.6055 40.9761 35.741 40.9761 35.9081V38.5427C40.9761 38.7098 41.1124 38.8453 41.2806 38.8453H43.9318C44.1 38.8453 44.2364 38.7098 44.2364 38.5427V35.9081C44.2364 35.741 44.1 35.6055 43.9318 35.6055Z" fill="#59DC8E"/>
<path d="M43.9318 40.0562H41.2806C41.1124 40.0562 40.9761 40.1917 40.9761 40.3588V42.9933C40.9761 43.1605 41.1124 43.296 41.2806 43.296H43.9318C44.1 43.296 44.2364 43.1605 44.2364 42.9933V40.3588C44.2364 40.1917 44.1 40.0562 43.9318 40.0562Z" fill="#59DC8E"/>
<path d="M43.9318 44.5063H41.2806C41.1124 44.5063 40.9761 44.6418 40.9761 44.809V47.4435C40.9761 47.6107 41.1124 47.7462 41.2806 47.7462H43.9318C44.1 47.7462 44.2364 47.6107 44.2364 47.4435V44.809C44.2364 44.6418 44.1 44.5063 43.9318 44.5063Z" fill="#59DC8E"/>
<path d="M43.9318 48.9575H41.2806C41.1124 48.9575 40.9761 49.093 40.9761 49.2602V51.8947C40.9761 52.0619 41.1124 52.1974 41.2806 52.1974H43.9318C44.1 52.1974 44.2364 52.0619 44.2364 51.8947V49.2602C44.2364 49.093 44.1 48.9575 43.9318 48.9575Z" fill="#59DC8E"/>
<path d="M43.9318 53.4082H41.2806C41.1124 53.4082 40.9761 53.5437 40.9761 53.7109V56.3454C40.9761 56.5125 41.1124 56.648 41.2806 56.648H43.9318C44.1 56.648 44.2364 56.5125 44.2364 56.3454V53.7109C44.2364 53.5437 44.1 53.4082 43.9318 53.4082Z" fill="#59DC8E"/>
<path d="M43.9318 57.8584H41.2806C41.1124 57.8584 40.9761 57.9939 40.9761 58.161V60.7956C40.9761 60.9627 41.1124 61.0982 41.2806 61.0982H43.9318C44.1 61.0982 44.2364 60.9627 44.2364 60.7956V58.161C44.2364 57.9939 44.1 57.8584 43.9318 57.8584Z" fill="#59DC8E"/>
<path d="M43.9318 62.3096H41.2806C41.1124 62.3096 40.9761 62.4451 40.9761 62.6122V65.2468C40.9761 65.4139 41.1124 65.5494 41.2806 65.5494H43.9318C44.1 65.5494 44.2364 65.4139 44.2364 65.2468V62.6122C44.2364 62.4451 44.1 62.3096 43.9318 62.3096Z" fill="#59DC8E"/>
<path d="M43.9318 66.7603H41.2806C41.1124 66.7603 40.9761 66.8958 40.9761 67.0629V69.6974C40.9761 69.8646 41.1124 70.0001 41.2806 70.0001H43.9318C44.1 70.0001 44.2364 69.8646 44.2364 69.6974V67.0629C44.2364 66.8958 44.1 66.7603 43.9318 66.7603Z" fill="#59DC8E"/>
<path d="M48.4103 4.4502H45.7591C45.5909 4.4502 45.4546 4.5857 45.4546 4.75284V7.38739C45.4546 7.55453 45.5909 7.69003 45.7591 7.69003H48.4103C48.5785 7.69003 48.7149 7.55453 48.7149 7.38739V4.75284C48.7149 4.5857 48.5785 4.4502 48.4103 4.4502Z" fill="#59DC8E"/>
<path d="M48.4103 8.90137H45.7591C45.5909 8.90137 45.4546 9.03687 45.4546 9.20401V11.8386C45.4546 12.0057 45.5909 12.1412 45.7591 12.1412H48.4103C48.5785 12.1412 48.7149 12.0057 48.7149 11.8386V9.20401C48.7149 9.03687 48.5785 8.90137 48.4103 8.90137Z" fill="#59DC8E"/>
<path d="M48.4103 13.3521H45.7591C45.5909 13.3521 45.4546 13.4876 45.4546 13.6547V16.2892C45.4546 16.4564 45.5909 16.5919 45.7591 16.5919H48.4103C48.5785 16.5919 48.7149 16.4564 48.7149 16.2892V13.6547C48.7149 13.4876 48.5785 13.3521 48.4103 13.3521Z" fill="#59DC8E"/>
<path d="M48.4103 17.8022H45.7591C45.5909 17.8022 45.4546 17.9377 45.4546 18.1049V20.7394C45.4546 20.9066 45.5909 21.0421 45.7591 21.0421H48.4103C48.5785 21.0421 48.7149 20.9066 48.7149 20.7394V18.1049C48.7149 17.9377 48.5785 17.8022 48.4103 17.8022Z" fill="#59DC8E"/>
<path d="M48.4103 22.2534H45.7591C45.5909 22.2534 45.4546 22.3889 45.4546 22.5561V25.1906C45.4546 25.3578 45.5909 25.4933 45.7591 25.4933H48.4103C48.5785 25.4933 48.7149 25.3578 48.7149 25.1906V22.5561C48.7149 22.3889 48.5785 22.2534 48.4103 22.2534Z" fill="#59DC8E"/>
<path d="M48.4103 26.7041H45.7591C45.5909 26.7041 45.4546 26.8396 45.4546 27.0067V29.6413C45.4546 29.8084 45.5909 29.9439 45.7591 29.9439H48.4103C48.5785 29.9439 48.7149 29.8084 48.7149 29.6413V27.0067C48.7149 26.8396 48.5785 26.7041 48.4103 26.7041Z" fill="#59DC8E"/>
<path d="M48.4103 31.1543H45.7591C45.5909 31.1543 45.4546 31.2898 45.4546 31.4569V34.0915C45.4546 34.2586 45.5909 34.3941 45.7591 34.3941H48.4103C48.5785 34.3941 48.7149 34.2586 48.7149 34.0915V31.4569C48.7149 31.2898 48.5785 31.1543 48.4103 31.1543Z" fill="#59DC8E"/>
<path d="M48.4103 35.6055H45.7591C45.5909 35.6055 45.4546 35.741 45.4546 35.9081V38.5427C45.4546 38.7098 45.5909 38.8453 45.7591 38.8453H48.4103C48.5785 38.8453 48.7149 38.7098 48.7149 38.5427V35.9081C48.7149 35.741 48.5785 35.6055 48.4103 35.6055Z" fill="#59DC8E"/>
<path d="M48.4103 40.0562H45.7591C45.5909 40.0562 45.4546 40.1917 45.4546 40.3588V42.9933C45.4546 43.1605 45.5909 43.296 45.7591 43.296H48.4103C48.5785 43.296 48.7149 43.1605 48.7149 42.9933V40.3588C48.7149 40.1917 48.5785 40.0562 48.4103 40.0562Z" fill="#59DC8E"/>
<path d="M48.4103 44.5063H45.7591C45.5909 44.5063 45.4546 44.6418 45.4546 44.809V47.4435C45.4546 47.6107 45.5909 47.7462 45.7591 47.7462H48.4103C48.5785 47.7462 48.7149 47.6107 48.7149 47.4435V44.809C48.7149 44.6418 48.5785 44.5063 48.4103 44.5063Z" fill="#59DC8E"/>
<path d="M48.4103 48.9575H45.7591C45.5909 48.9575 45.4546 49.093 45.4546 49.2602V51.8947C45.4546 52.0619 45.5909 52.1974 45.7591 52.1974H48.4103C48.5785 52.1974 48.7149 52.0619 48.7149 51.8947V49.2602C48.7149 49.093 48.5785 48.9575 48.4103 48.9575Z" fill="#59DC8E"/>
<path d="M48.4103 53.4082H45.7591C45.5909 53.4082 45.4546 53.5437 45.4546 53.7109V56.3454C45.4546 56.5125 45.5909 56.648 45.7591 56.648H48.4103C48.5785 56.648 48.7149 56.5125 48.7149 56.3454V53.7109C48.7149 53.5437 48.5785 53.4082 48.4103 53.4082Z" fill="#59DC8E"/>
<path d="M48.4103 57.8584H45.7591C45.5909 57.8584 45.4546 57.9939 45.4546 58.161V60.7956C45.4546 60.9627 45.5909 61.0982 45.7591 61.0982H48.4103C48.5785 61.0982 48.7149 60.9627 48.7149 60.7956V58.161C48.7149 57.9939 48.5785 57.8584 48.4103 57.8584Z" fill="#59DC8E"/>
<path d="M48.4103 62.3096H45.7591C45.5909 62.3096 45.4546 62.4451 45.4546 62.6122V65.2468C45.4546 65.4139 45.5909 65.5494 45.7591 65.5494H48.4103C48.5785 65.5494 48.7149 65.4139 48.7149 65.2468V62.6122C48.7149 62.4451 48.5785 62.3096 48.4103 62.3096Z" fill="#59DC8E"/>
<path d="M48.4103 66.7603H45.7591C45.5909 66.7603 45.4546 66.8958 45.4546 67.0629V69.6974C45.4546 69.8646 45.5909 70.0001 45.7591 70.0001H48.4103C48.5785 70.0001 48.7149 69.8646 48.7149 69.6974V67.0629C48.7149 66.8958 48.5785 66.7603 48.4103 66.7603Z" fill="#59DC8E"/>
<path d="M52.8898 4.4502H50.2386C50.0704 4.4502 49.9341 4.5857 49.9341 4.75284V7.38739C49.9341 7.55453 50.0704 7.69003 50.2386 7.69003H52.8898C53.058 7.69003 53.1944 7.55453 53.1944 7.38739V4.75284C53.1944 4.5857 53.058 4.4502 52.8898 4.4502Z" fill="#59DC8E"/>
<path d="M52.8898 8.90137H50.2386C50.0704 8.90137 49.9341 9.03687 49.9341 9.20401V11.8386C49.9341 12.0057 50.0704 12.1412 50.2386 12.1412H52.8898C53.058 12.1412 53.1944 12.0057 53.1944 11.8386V9.20401C53.1944 9.03687 53.058 8.90137 52.8898 8.90137Z" fill="#59DC8E"/>
<path d="M52.8898 13.3521H50.2386C50.0704 13.3521 49.9341 13.4876 49.9341 13.6547V16.2892C49.9341 16.4564 50.0704 16.5919 50.2386 16.5919H52.8898C53.058 16.5919 53.1944 16.4564 53.1944 16.2892V13.6547C53.1944 13.4876 53.058 13.3521 52.8898 13.3521Z" fill="#59DC8E"/>
<path d="M52.8898 17.8022H50.2386C50.0704 17.8022 49.9341 17.9377 49.9341 18.1049V20.7394C49.9341 20.9066 50.0704 21.0421 50.2386 21.0421H52.8898C53.058 21.0421 53.1944 20.9066 53.1944 20.7394V18.1049C53.1944 17.9377 53.058 17.8022 52.8898 17.8022Z" fill="#59DC8E"/>
<path d="M52.8898 22.2534H50.2386C50.0704 22.2534 49.9341 22.3889 49.9341 22.5561V25.1906C49.9341 25.3578 50.0704 25.4933 50.2386 25.4933H52.8898C53.058 25.4933 53.1944 25.3578 53.1944 25.1906V22.5561C53.1944 22.3889 53.058 22.2534 52.8898 22.2534Z" fill="#59DC8E"/>
<path d="M52.8898 26.7041H50.2386C50.0704 26.7041 49.9341 26.8396 49.9341 27.0067V29.6413C49.9341 29.8084 50.0704 29.9439 50.2386 29.9439H52.8898C53.058 29.9439 53.1944 29.8084 53.1944 29.6413V27.0067C53.1944 26.8396 53.058 26.7041 52.8898 26.7041Z" fill="#59DC8E"/>
<path d="M52.8898 31.1543H50.2386C50.0704 31.1543 49.9341 31.2898 49.9341 31.4569V34.0915C49.9341 34.2586 50.0704 34.3941 50.2386 34.3941H52.8898C53.058 34.3941 53.1944 34.2586 53.1944 34.0915V31.4569C53.1944 31.2898 53.058 31.1543 52.8898 31.1543Z" fill="#59DC8E"/>
<path d="M52.8898 35.6055H50.2386C50.0704 35.6055 49.9341 35.741 49.9341 35.9081V38.5427C49.9341 38.7098 50.0704 38.8453 50.2386 38.8453H52.8898C53.058 38.8453 53.1944 38.7098 53.1944 38.5427V35.9081C53.1944 35.741 53.058 35.6055 52.8898 35.6055Z" fill="#59DC8E"/>
<path d="M52.8898 40.0562H50.2386C50.0704 40.0562 49.9341 40.1917 49.9341 40.3588V42.9933C49.9341 43.1605 50.0704 43.296 50.2386 43.296H52.8898C53.058 43.296 53.1944 43.1605 53.1944 42.9933V40.3588C53.1944 40.1917 53.058 40.0562 52.8898 40.0562Z" fill="#59DC8E"/>
<path d="M52.8898 44.5063H50.2386C50.0704 44.5063 49.9341 44.6418 49.9341 44.809V47.4435C49.9341 47.6107 50.0704 47.7462 50.2386 47.7462H52.8898C53.058 47.7462 53.1944 47.6107 53.1944 47.4435V44.809C53.1944 44.6418 53.058 44.5063 52.8898 44.5063Z" fill="#59DC8E"/>
<path d="M52.8898 48.9575H50.2386C50.0704 48.9575 49.9341 49.093 49.9341 49.2602V51.8947C49.9341 52.0619 50.0704 52.1974 50.2386 52.1974H52.8898C53.058 52.1974 53.1944 52.0619 53.1944 51.8947V49.2602C53.1944 49.093 53.058 48.9575 52.8898 48.9575Z" fill="#59DC8E"/>
<path d="M52.8898 53.4082H50.2386C50.0704 53.4082 49.9341 53.5437 49.9341 53.7109V56.3454C49.9341 56.5125 50.0704 56.648 50.2386 56.648H52.8898C53.058 56.648 53.1944 56.5125 53.1944 56.3454V53.7109C53.1944 53.5437 53.058 53.4082 52.8898 53.4082Z" fill="#59DC8E"/>
<path d="M52.8898 57.8584H50.2386C50.0704 57.8584 49.9341 57.9939 49.9341 58.161V60.7956C49.9341 60.9627 50.0704 61.0982 50.2386 61.0982H52.8898C53.058 61.0982 53.1944 60.9627 53.1944 60.7956V58.161C53.1944 57.9939 53.058 57.8584 52.8898 57.8584Z" fill="#59DC8E"/>
<path d="M52.8898 62.3096H50.2386C50.0704 62.3096 49.9341 62.4451 49.9341 62.6122V65.2468C49.9341 65.4139 50.0704 65.5494 50.2386 65.5494H52.8898C53.058 65.5494 53.1944 65.4139 53.1944 65.2468V62.6122C53.1944 62.4451 53.058 62.3096 52.8898 62.3096Z" fill="#59DC8E"/>
<path d="M57.3683 0H54.7172C54.549 0 54.4126 0.1355 54.4126 0.302647V2.93719C54.4126 3.10434 54.549 3.23984 54.7172 3.23984H57.3683C57.5365 3.23984 57.6729 3.10434 57.6729 2.93719V0.302647C57.6729 0.1355 57.5365 0 57.3683 0Z" fill="#59DC8E"/>
<path d="M57.3683 4.4502H54.7172C54.549 4.4502 54.4126 4.5857 54.4126 4.75284V7.38739C54.4126 7.55453 54.549 7.69003 54.7172 7.69003H57.3683C57.5365 7.69003 57.6729 7.55453 57.6729 7.38739V4.75284C57.6729 4.5857 57.5365 4.4502 57.3683 4.4502Z" fill="#59DC8E"/>
<path d="M57.3683 8.90137H54.7172C54.549 8.90137 54.4126 9.03687 54.4126 9.20401V11.8386C54.4126 12.0057 54.549 12.1412 54.7172 12.1412H57.3683C57.5365 12.1412 57.6729 12.0057 57.6729 11.8386V9.20401C57.6729 9.03687 57.5365 8.90137 57.3683 8.90137Z" fill="#59DC8E"/>
<path d="M57.3683 13.3521H54.7172C54.549 13.3521 54.4126 13.4876 54.4126 13.6547V16.2892C54.4126 16.4564 54.549 16.5919 54.7172 16.5919H57.3683C57.5365 16.5919 57.6729 16.4564 57.6729 16.2892V13.6547C57.6729 13.4876 57.5365 13.3521 57.3683 13.3521Z" fill="#59DC8E"/>
<path d="M57.3683 17.8022H54.7172C54.549 17.8022 54.4126 17.9377 54.4126 18.1049V20.7394C54.4126 20.9066 54.549 21.0421 54.7172 21.0421H57.3683C57.5365 21.0421 57.6729 20.9066 57.6729 20.7394V18.1049C57.6729 17.9377 57.5365 17.8022 57.3683 17.8022Z" fill="#59DC8E"/>
<path d="M57.3683 22.2534H54.7172C54.549 22.2534 54.4126 22.3889 54.4126 22.5561V25.1906C54.4126 25.3578 54.549 25.4933 54.7172 25.4933H57.3683C57.5365 25.4933 57.6729 25.3578 57.6729 25.1906V22.5561C57.6729 22.3889 57.5365 22.2534 57.3683 22.2534Z" fill="#59DC8E"/>
<path d="M57.3683 26.7041H54.7172C54.549 26.7041 54.4126 26.8396 54.4126 27.0067V29.6413C54.4126 29.8084 54.549 29.9439 54.7172 29.9439H57.3683C57.5365 29.9439 57.6729 29.8084 57.6729 29.6413V27.0067C57.6729 26.8396 57.5365 26.7041 57.3683 26.7041Z" fill="#59DC8E"/>
<path d="M57.3683 31.1543H54.7172C54.549 31.1543 54.4126 31.2898 54.4126 31.4569V34.0915C54.4126 34.2586 54.549 34.3941 54.7172 34.3941H57.3683C57.5365 34.3941 57.6729 34.2586 57.6729 34.0915V31.4569C57.6729 31.2898 57.5365 31.1543 57.3683 31.1543Z" fill="#59DC8E"/>
<path d="M57.3683 35.6055H54.7172C54.549 35.6055 54.4126 35.741 54.4126 35.9081V38.5427C54.4126 38.7098 54.549 38.8453 54.7172 38.8453H57.3683C57.5365 38.8453 57.6729 38.7098 57.6729 38.5427V35.9081C57.6729 35.741 57.5365 35.6055 57.3683 35.6055Z" fill="#59DC8E"/>
<path d="M57.3683 40.0562H54.7172C54.549 40.0562 54.4126 40.1917 54.4126 40.3588V42.9933C54.4126 43.1605 54.549 43.296 54.7172 43.296H57.3683C57.5365 43.296 57.6729 43.1605 57.6729 42.9933V40.3588C57.6729 40.1917 57.5365 40.0562 57.3683 40.0562Z" fill="#59DC8E"/>
<path d="M57.3683 44.5063H54.7172C54.549 44.5063 54.4126 44.6418 54.4126 44.809V47.4435C54.4126 47.6107 54.549 47.7462 54.7172 47.7462H57.3683C57.5365 47.7462 57.6729 47.6107 57.6729 47.4435V44.809C57.6729 44.6418 57.5365 44.5063 57.3683 44.5063Z" fill="#59DC8E"/>
<path d="M57.3683 48.9575H54.7172C54.549 48.9575 54.4126 49.093 54.4126 49.2602V51.8947C54.4126 52.0619 54.549 52.1974 54.7172 52.1974H57.3683C57.5365 52.1974 57.6729 52.0619 57.6729 51.8947V49.2602C57.6729 49.093 57.5365 48.9575 57.3683 48.9575Z" fill="#59DC8E"/>
<path d="M57.3683 53.4082H54.7172C54.549 53.4082 54.4126 53.5437 54.4126 53.7109V56.3454C54.4126 56.5125 54.549 56.648 54.7172 56.648H57.3683C57.5365 56.648 57.6729 56.5125 57.6729 56.3454V53.7109C57.6729 53.5437 57.5365 53.4082 57.3683 53.4082Z" fill="#59DC8E"/>
<path d="M61.8468 8.90137H59.1957C59.0275 8.90137 58.8911 9.03687 58.8911 9.20401V11.8386C58.8911 12.0057 59.0275 12.1412 59.1957 12.1412H61.8468C62.015 12.1412 62.1514 12.0057 62.1514 11.8386V9.20401C62.1514 9.03687 62.015 8.90137 61.8468 8.90137Z" fill="#59DC8E"/>
<path d="M61.8468 13.3521H59.1957C59.0275 13.3521 58.8911 13.4876 58.8911 13.6547V16.2892C58.8911 16.4564 59.0275 16.5919 59.1957 16.5919H61.8468C62.015 16.5919 62.1514 16.4564 62.1514 16.2892V13.6547C62.1514 13.4876 62.015 13.3521 61.8468 13.3521Z" fill="#59DC8E"/>
<path d="M61.8468 17.8022H59.1957C59.0275 17.8022 58.8911 17.9377 58.8911 18.1049V20.7394C58.8911 20.9066 59.0275 21.0421 59.1957 21.0421H61.8468C62.015 21.0421 62.1514 20.9066 62.1514 20.7394V18.1049C62.1514 17.9377 62.015 17.8022 61.8468 17.8022Z" fill="#59DC8E"/>
<path d="M61.8468 22.2534H59.1957C59.0275 22.2534 58.8911 22.3889 58.8911 22.5561V25.1906C58.8911 25.3578 59.0275 25.4933 59.1957 25.4933H61.8468C62.015 25.4933 62.1514 25.3578 62.1514 25.1906V22.5561C62.1514 22.3889 62.015 22.2534 61.8468 22.2534Z" fill="#59DC8E"/>
<path d="M61.8468 26.7041H59.1957C59.0275 26.7041 58.8911 26.8396 58.8911 27.0067V29.6413C58.8911 29.8084 59.0275 29.9439 59.1957 29.9439H61.8468C62.015 29.9439 62.1514 29.8084 62.1514 29.6413V27.0067C62.1514 26.8396 62.015 26.7041 61.8468 26.7041Z" fill="#59DC8E"/>
<path d="M61.8468 31.1543H59.1957C59.0275 31.1543 58.8911 31.2898 58.8911 31.4569V34.0915C58.8911 34.2586 59.0275 34.3941 59.1957 34.3941H61.8468C62.015 34.3941 62.1514 34.2586 62.1514 34.0915V31.4569C62.1514 31.2898 62.015 31.1543 61.8468 31.1543Z" fill="#59DC8E"/>
<path d="M61.8468 35.6055H59.1957C59.0275 35.6055 58.8911 35.741 58.8911 35.9081V38.5427C58.8911 38.7098 59.0275 38.8453 59.1957 38.8453H61.8468C62.015 38.8453 62.1514 38.7098 62.1514 38.5427V35.9081C62.1514 35.741 62.015 35.6055 61.8468 35.6055Z" fill="#59DC8E"/>
<path d="M61.8468 40.0562H59.1957C59.0275 40.0562 58.8911 40.1917 58.8911 40.3588V42.9933C58.8911 43.1605 59.0275 43.296 59.1957 43.296H61.8468C62.015 43.296 62.1514 43.1605 62.1514 42.9933V40.3588C62.1514 40.1917 62.015 40.0562 61.8468 40.0562Z" fill="#59DC8E"/>
<path d="M61.8468 44.5063H59.1957C59.0275 44.5063 58.8911 44.6418 58.8911 44.809V47.4435C58.8911 47.6107 59.0275 47.7462 59.1957 47.7462H61.8468C62.015 47.7462 62.1514 47.6107 62.1514 47.4435V44.809C62.1514 44.6418 62.015 44.5063 61.8468 44.5063Z" fill="#59DC8E"/>
<path d="M61.8468 48.9575H59.1957C59.0275 48.9575 58.8911 49.093 58.8911 49.2602V51.8947C58.8911 52.0619 59.0275 52.1974 59.1957 52.1974H61.8468C62.015 52.1974 62.1514 52.0619 62.1514 51.8947V49.2602C62.1514 49.093 62.015 48.9575 61.8468 48.9575Z" fill="#59DC8E"/>
<path d="M61.8468 53.4082H59.1957C59.0275 53.4082 58.8911 53.5437 58.8911 53.7109V56.3454C58.8911 56.5125 59.0275 56.648 59.1957 56.648H61.8468C62.015 56.648 62.1514 56.5125 62.1514 56.3454V53.7109C62.1514 53.5437 62.015 53.4082 61.8468 53.4082Z" fill="#59DC8E"/>
<path d="M66.3258 8.90137H63.6747C63.5065 8.90137 63.3701 9.03687 63.3701 9.20401V11.8386C63.3701 12.0057 63.5065 12.1412 63.6747 12.1412H66.3258C66.4941 12.1412 66.6304 12.0057 66.6304 11.8386V9.20401C66.6304 9.03687 66.4941 8.90137 66.3258 8.90137Z" fill="#59DC8E"/>
<path d="M66.3258 13.3521H63.6747C63.5065 13.3521 63.3701 13.4876 63.3701 13.6547V16.2892C63.3701 16.4564 63.5065 16.5919 63.6747 16.5919H66.3258C66.4941 16.5919 66.6304 16.4564 66.6304 16.2892V13.6547C66.6304 13.4876 66.4941 13.3521 66.3258 13.3521Z" fill="#59DC8E"/>
<path d="M66.3258 17.8022H63.6747C63.5065 17.8022 63.3701 17.9377 63.3701 18.1049V20.7394C63.3701 20.9066 63.5065 21.0421 63.6747 21.0421H66.3258C66.4941 21.0421 66.6304 20.9066 66.6304 20.7394V18.1049C66.6304 17.9377 66.4941 17.8022 66.3258 17.8022Z" fill="#59DC8E"/>
<path d="M66.3258 22.2534H63.6747C63.5065 22.2534 63.3701 22.3889 63.3701 22.5561V25.1906C63.3701 25.3578 63.5065 25.4933 63.6747 25.4933H66.3258C66.4941 25.4933 66.6304 25.3578 66.6304 25.1906V22.5561C66.6304 22.3889 66.4941 22.2534 66.3258 22.2534Z" fill="#59DC8E"/>
<path d="M66.3258 26.7041H63.6747C63.5065 26.7041 63.3701 26.8396 63.3701 27.0067V29.6413C63.3701 29.8084 63.5065 29.9439 63.6747 29.9439H66.3258C66.4941 29.9439 66.6304 29.8084 66.6304 29.6413V27.0067C66.6304 26.8396 66.4941 26.7041 66.3258 26.7041Z" fill="#59DC8E"/>
<path d="M66.3258 31.1543H63.6747C63.5065 31.1543 63.3701 31.2898 63.3701 31.4569V34.0915C63.3701 34.2586 63.5065 34.3941 63.6747 34.3941H66.3258C66.4941 34.3941 66.6304 34.2586 66.6304 34.0915V31.4569C66.6304 31.2898 66.4941 31.1543 66.3258 31.1543Z" fill="#59DC8E"/>
<path d="M66.3258 35.6055H63.6747C63.5065 35.6055 63.3701 35.741 63.3701 35.9081V38.5427C63.3701 38.7098 63.5065 38.8453 63.6747 38.8453H66.3258C66.4941 38.8453 66.6304 38.7098 66.6304 38.5427V35.9081C66.6304 35.741 66.4941 35.6055 66.3258 35.6055Z" fill="#59DC8E"/>
<path d="M66.3258 40.0562H63.6747C63.5065 40.0562 63.3701 40.1917 63.3701 40.3588V42.9933C63.3701 43.1605 63.5065 43.296 63.6747 43.296H66.3258C66.4941 43.296 66.6304 43.1605 66.6304 42.9933V40.3588C66.6304 40.1917 66.4941 40.0562 66.3258 40.0562Z" fill="#59DC8E"/>
<path d="M66.3258 44.5063H63.6747C63.5065 44.5063 63.3701 44.6418 63.3701 44.809V47.4435C63.3701 47.6107 63.5065 47.7462 63.6747 47.7462H66.3258C66.4941 47.7462 66.6304 47.6107 66.6304 47.4435V44.809C66.6304 44.6418 66.4941 44.5063 66.3258 44.5063Z" fill="#59DC8E"/>
<path d="M66.3258 48.9575H63.6747C63.5065 48.9575 63.3701 49.093 63.3701 49.2602V51.8947C63.3701 52.0619 63.5065 52.1974 63.6747 52.1974H66.3258C66.4941 52.1974 66.6304 52.0619 66.6304 51.8947V49.2602C66.6304 49.093 66.4941 48.9575 66.3258 48.9575Z" fill="#59DC8E"/>
<path d="M66.3258 53.4082H63.6747C63.5065 53.4082 63.3701 53.5437 63.3701 53.7109V56.3454C63.3701 56.5125 63.5065 56.648 63.6747 56.648H66.3258C66.4941 56.648 66.6304 56.5125 66.6304 56.3454V53.7109C66.6304 53.5437 66.4941 53.4082 66.3258 53.4082Z" fill="#59DC8E"/>
<path d="M66.3258 57.8584H63.6747C63.5065 57.8584 63.3701 57.9939 63.3701 58.161V60.7956C63.3701 60.9627 63.5065 61.0982 63.6747 61.0982H66.3258C66.4941 61.0982 66.6304 60.9627 66.6304 60.7956V58.161C66.6304 57.9939 66.4941 57.8584 66.3258 57.8584Z" fill="#59DC8E"/>
<path d="M70.8044 13.3521H68.1532C67.985 13.3521 67.8486 13.4876 67.8486 13.6547V16.2892C67.8486 16.4564 67.985 16.5919 68.1532 16.5919H70.8044C70.9726 16.5919 71.1089 16.4564 71.1089 16.2892V13.6547C71.1089 13.4876 70.9726 13.3521 70.8044 13.3521Z" fill="#59DC8E"/>
<path d="M70.8044 17.8022H68.1532C67.985 17.8022 67.8486 17.9377 67.8486 18.1049V20.7394C67.8486 20.9066 67.985 21.0421 68.1532 21.0421H70.8044C70.9726 21.0421 71.1089 20.9066 71.1089 20.7394V18.1049C71.1089 17.9377 70.9726 17.8022 70.8044 17.8022Z" fill="#59DC8E"/>
<path d="M70.8044 22.2534H68.1532C67.985 22.2534 67.8486 22.3889 67.8486 22.5561V25.1906C67.8486 25.3578 67.985 25.4933 68.1532 25.4933H70.8044C70.9726 25.4933 71.1089 25.3578 71.1089 25.1906V22.5561C71.1089 22.3889 70.9726 22.2534 70.8044 22.2534Z" fill="#59DC8E"/>
<path d="M70.8044 26.7041H68.1532C67.985 26.7041 67.8486 26.8396 67.8486 27.0067V29.6413C67.8486 29.8084 67.985 29.9439 68.1532 29.9439H70.8044C70.9726 29.9439 71.1089 29.8084 71.1089 29.6413V27.0067C71.1089 26.8396 70.9726 26.7041 70.8044 26.7041Z" fill="#59DC8E"/>
<path d="M70.8044 31.1543H68.1532C67.985 31.1543 67.8486 31.2898 67.8486 31.4569V34.0915C67.8486 34.2586 67.985 34.3941 68.1532 34.3941H70.8044C70.9726 34.3941 71.1089 34.2586 71.1089 34.0915V31.4569C71.1089 31.2898 70.9726 31.1543 70.8044 31.1543Z" fill="#59DC8E"/>
<path d="M70.8044 35.6055H68.1532C67.985 35.6055 67.8486 35.741 67.8486 35.9081V38.5427C67.8486 38.7098 67.985 38.8453 68.1532 38.8453H70.8044C70.9726 38.8453 71.1089 38.7098 71.1089 38.5427V35.9081C71.1089 35.741 70.9726 35.6055 70.8044 35.6055Z" fill="#59DC8E"/>
<path d="M70.8044 40.0562H68.1532C67.985 40.0562 67.8486 40.1917 67.8486 40.3588V42.9933C67.8486 43.1605 67.985 43.296 68.1532 43.296H70.8044C70.9726 43.296 71.1089 43.1605 71.1089 42.9933V40.3588C71.1089 40.1917 70.9726 40.0562 70.8044 40.0562Z" fill="#59DC8E"/>
<path d="M70.8044 44.5063H68.1532C67.985 44.5063 67.8486 44.6418 67.8486 44.809V47.4435C67.8486 47.6107 67.985 47.7462 68.1532 47.7462H70.8044C70.9726 47.7462 71.1089 47.6107 71.1089 47.4435V44.809C71.1089 44.6418 70.9726 44.5063 70.8044 44.5063Z" fill="#59DC8E"/>
<path d="M70.8044 48.9575H68.1532C67.985 48.9575 67.8486 49.093 67.8486 49.2602V51.8947C67.8486 52.0619 67.985 52.1974 68.1532 52.1974H70.8044C70.9726 52.1974 71.1089 52.0619 71.1089 51.8947V49.2602C71.1089 49.093 70.9726 48.9575 70.8044 48.9575Z" fill="#59DC8E"/>
<path d="M70.8044 53.4082H68.1532C67.985 53.4082 67.8486 53.5437 67.8486 53.7109V56.3454C67.8486 56.5125 67.985 56.648 68.1532 56.648H70.8044C70.9726 56.648 71.1089 56.5125 71.1089 56.3454V53.7109C71.1089 53.5437 70.9726 53.4082 70.8044 53.4082Z" fill="#59DC8E"/>
<path d="M70.8044 57.8584H68.1532C67.985 57.8584 67.8486 57.9939 67.8486 58.161V60.7956C67.8486 60.9627 67.985 61.0982 68.1532 61.0982H70.8044C70.9726 61.0982 71.1089 60.9627 71.1089 60.7956V58.161C71.1089 57.9939 70.9726 57.8584 70.8044 57.8584Z" fill="#59DC8E"/>
<path d="M75.2839 13.3521H72.6327C72.4645 13.3521 72.3281 13.4876 72.3281 13.6547V16.2892C72.3281 16.4564 72.4645 16.5919 72.6327 16.5919H75.2839C75.4521 16.5919 75.5884 16.4564 75.5884 16.2892V13.6547C75.5884 13.4876 75.4521 13.3521 75.2839 13.3521Z" fill="#59DC8E"/>
<path d="M75.2839 17.8022H72.6327C72.4645 17.8022 72.3281 17.9377 72.3281 18.1049V20.7394C72.3281 20.9066 72.4645 21.0421 72.6327 21.0421H75.2839C75.4521 21.0421 75.5884 20.9066 75.5884 20.7394V18.1049C75.5884 17.9377 75.4521 17.8022 75.2839 17.8022Z" fill="#59DC8E"/>
<path d="M75.2839 22.2534H72.6327C72.4645 22.2534 72.3281 22.3889 72.3281 22.5561V25.1906C72.3281 25.3578 72.4645 25.4933 72.6327 25.4933H75.2839C75.4521 25.4933 75.5884 25.3578 75.5884 25.1906V22.5561C75.5884 22.3889 75.4521 22.2534 75.2839 22.2534Z" fill="#59DC8E"/>
<path d="M75.2839 26.7041H72.6327C72.4645 26.7041 72.3281 26.8396 72.3281 27.0067V29.6413C72.3281 29.8084 72.4645 29.9439 72.6327 29.9439H75.2839C75.4521 29.9439 75.5884 29.8084 75.5884 29.6413V27.0067C75.5884 26.8396 75.4521 26.7041 75.2839 26.7041Z" fill="#59DC8E"/>
<path d="M75.2839 31.1543H72.6327C72.4645 31.1543 72.3281 31.2898 72.3281 31.4569V34.0915C72.3281 34.2586 72.4645 34.3941 72.6327 34.3941H75.2839C75.4521 34.3941 75.5884 34.2586 75.5884 34.0915V31.4569C75.5884 31.2898 75.4521 31.1543 75.2839 31.1543Z" fill="#59DC8E"/>
<path d="M75.2839 35.6055H72.6327C72.4645 35.6055 72.3281 35.741 72.3281 35.9081V38.5427C72.3281 38.7098 72.4645 38.8453 72.6327 38.8453H75.2839C75.4521 38.8453 75.5884 38.7098 75.5884 38.5427V35.9081C75.5884 35.741 75.4521 35.6055 75.2839 35.6055Z" fill="#59DC8E"/>
<path d="M75.2839 40.0562H72.6327C72.4645 40.0562 72.3281 40.1917 72.3281 40.3588V42.9933C72.3281 43.1605 72.4645 43.296 72.6327 43.296H75.2839C75.4521 43.296 75.5884 43.1605 75.5884 42.9933V40.3588C75.5884 40.1917 75.4521 40.0562 75.2839 40.0562Z" fill="#59DC8E"/>
<path d="M75.2839 44.5063H72.6327C72.4645 44.5063 72.3281 44.6418 72.3281 44.809V47.4435C72.3281 47.6107 72.4645 47.7462 72.6327 47.7462H75.2839C75.4521 47.7462 75.5884 47.6107 75.5884 47.4435V44.809C75.5884 44.6418 75.4521 44.5063 75.2839 44.5063Z" fill="#59DC8E"/>
<path d="M75.2839 48.9575H72.6327C72.4645 48.9575 72.3281 49.093 72.3281 49.2602V51.8947C72.3281 52.0619 72.4645 52.1974 72.6327 52.1974H75.2839C75.4521 52.1974 75.5884 52.0619 75.5884 51.8947V49.2602C75.5884 49.093 75.4521 48.9575 75.2839 48.9575Z" fill="#59DC8E"/>
<path d="M75.2839 53.4082H72.6327C72.4645 53.4082 72.3281 53.5437 72.3281 53.7109V56.3454C72.3281 56.5125 72.4645 56.648 72.6327 56.648H75.2839C75.4521 56.648 75.5884 56.5125 75.5884 56.3454V53.7109C75.5884 53.5437 75.4521 53.4082 75.2839 53.4082Z" fill="#59DC8E"/>
<path d="M75.2839 57.8584H72.6327C72.4645 57.8584 72.3281 57.9939 72.3281 58.161V60.7956C72.3281 60.9627 72.4645 61.0982 72.6327 61.0982H75.2839C75.4521 61.0982 75.5884 60.9627 75.5884 60.7956V58.161C75.5884 57.9939 75.4521 57.8584 75.2839 57.8584Z" fill="#59DC8E"/>
<path d="M75.2839 62.3096H72.6327C72.4645 62.3096 72.3281 62.4451 72.3281 62.6122V65.2468C72.3281 65.4139 72.4645 65.5494 72.6327 65.5494H75.2839C75.4521 65.5494 75.5884 65.4139 75.5884 65.2468V62.6122C75.5884 62.4451 75.4521 62.3096 75.2839 62.3096Z" fill="#59DC8E"/>
<path d="M79.7624 22.2534H77.1112C76.943 22.2534 76.8066 22.3889 76.8066 22.5561V25.1906C76.8066 25.3578 76.943 25.4933 77.1112 25.4933H79.7624C79.9306 25.4933 80.0669 25.3578 80.0669 25.1906V22.5561C80.0669 22.3889 79.9306 22.2534 79.7624 22.2534Z" fill="#59DC8E"/>
<path d="M79.7624 26.7041H77.1112C76.943 26.7041 76.8066 26.8396 76.8066 27.0067V29.6413C76.8066 29.8084 76.943 29.9439 77.1112 29.9439H79.7624C79.9306 29.9439 80.0669 29.8084 80.0669 29.6413V27.0067C80.0669 26.8396 79.9306 26.7041 79.7624 26.7041Z" fill="#59DC8E"/>
<path d="M79.7624 31.1543H77.1112C76.943 31.1543 76.8066 31.2898 76.8066 31.4569V34.0915C76.8066 34.2586 76.943 34.3941 77.1112 34.3941H79.7624C79.9306 34.3941 80.0669 34.2586 80.0669 34.0915V31.4569C80.0669 31.2898 79.9306 31.1543 79.7624 31.1543Z" fill="#59DC8E"/>
<path d="M79.7624 35.6055H77.1112C76.943 35.6055 76.8066 35.741 76.8066 35.9081V38.5427C76.8066 38.7098 76.943 38.8453 77.1112 38.8453H79.7624C79.9306 38.8453 80.0669 38.7098 80.0669 38.5427V35.9081C80.0669 35.741 79.9306 35.6055 79.7624 35.6055Z" fill="#59DC8E"/>
<path d="M79.7624 40.0562H77.1112C76.943 40.0562 76.8066 40.1917 76.8066 40.3588V42.9933C76.8066 43.1605 76.943 43.296 77.1112 43.296H79.7624C79.9306 43.296 80.0669 43.1605 80.0669 42.9933V40.3588C80.0669 40.1917 79.9306 40.0562 79.7624 40.0562Z" fill="#59DC8E"/>
<path d="M79.7624 44.5063H77.1112C76.943 44.5063 76.8066 44.6418 76.8066 44.809V47.4435C76.8066 47.6107 76.943 47.7462 77.1112 47.7462H79.7624C79.9306 47.7462 80.0669 47.6107 80.0669 47.4435V44.809C80.0669 44.6418 79.9306 44.5063 79.7624 44.5063Z" fill="#59DC8E"/>
<path d="M79.7624 48.9575H77.1112C76.943 48.9575 76.8066 49.093 76.8066 49.2602V51.8947C76.8066 52.0619 76.943 52.1974 77.1112 52.1974H79.7624C79.9306 52.1974 80.0669 52.0619 80.0669 51.8947V49.2602C80.0669 49.093 79.9306 48.9575 79.7624 48.9575Z" fill="#59DC8E"/>
<path d="M79.7624 53.4082H77.1112C76.943 53.4082 76.8066 53.5437 76.8066 53.7109V56.3454C76.8066 56.5125 76.943 56.648 77.1112 56.648H79.7624C79.9306 56.648 80.0669 56.5125 80.0669 56.3454V53.7109C80.0669 53.5437 79.9306 53.4082 79.7624 53.4082Z" fill="#59DC8E"/>
<path d="M79.7624 57.8584H77.1112C76.943 57.8584 76.8066 57.9939 76.8066 58.161V60.7956C76.8066 60.9627 76.943 61.0982 77.1112 61.0982H79.7624C79.9306 61.0982 80.0669 60.9627 80.0669 60.7956V58.161C80.0669 57.9939 79.9306 57.8584 79.7624 57.8584Z" fill="#59DC8E"/>
<path d="M79.7624 62.3096H77.1112C76.943 62.3096 76.8066 62.4451 76.8066 62.6122V65.2468C76.8066 65.4139 76.943 65.5494 77.1112 65.5494H79.7624C79.9306 65.5494 80.0669 65.4139 80.0669 65.2468V62.6122C80.0669 62.4451 79.9306 62.3096 79.7624 62.3096Z" fill="#59DC8E"/>
<path d="M84.2419 26.7041H81.5907C81.4225 26.7041 81.2861 26.8396 81.2861 27.0067V29.6413C81.2861 29.8084 81.4225 29.9439 81.5907 29.9439H84.2419C84.4101 29.9439 84.5464 29.8084 84.5464 29.6413V27.0067C84.5464 26.8396 84.4101 26.7041 84.2419 26.7041Z" fill="#59DC8E"/>
<path d="M84.2419 31.1543H81.5907C81.4225 31.1543 81.2861 31.2898 81.2861 31.4569V34.0915C81.2861 34.2586 81.4225 34.3941 81.5907 34.3941H84.2419C84.4101 34.3941 84.5464 34.2586 84.5464 34.0915V31.4569C84.5464 31.2898 84.4101 31.1543 84.2419 31.1543Z" fill="#59DC8E"/>
<path d="M84.2419 35.6055H81.5907C81.4225 35.6055 81.2861 35.741 81.2861 35.9081V38.5427C81.2861 38.7098 81.4225 38.8453 81.5907 38.8453H84.2419C84.4101 38.8453 84.5464 38.7098 84.5464 38.5427V35.9081C84.5464 35.741 84.4101 35.6055 84.2419 35.6055Z" fill="#59DC8E"/>
<path d="M84.2419 40.0562H81.5907C81.4225 40.0562 81.2861 40.1917 81.2861 40.3588V42.9933C81.2861 43.1605 81.4225 43.296 81.5907 43.296H84.2419C84.4101 43.296 84.5464 43.1605 84.5464 42.9933V40.3588C84.5464 40.1917 84.4101 40.0562 84.2419 40.0562Z" fill="#EAFFF2"/>
<path d="M84.2419 44.5063H81.5907C81.4225 44.5063 81.2861 44.6418 81.2861 44.809V47.4435C81.2861 47.6107 81.4225 47.7462 81.5907 47.7462H84.2419C84.4101 47.7462 84.5464 47.6107 84.5464 47.4435V44.809C84.5464 44.6418 84.4101 44.5063 84.2419 44.5063Z" fill="#EAFFF2"/>
<path d="M84.2419 48.9575H81.5907C81.4225 48.9575 81.2861 49.093 81.2861 49.2602V51.8947C81.2861 52.0619 81.4225 52.1974 81.5907 52.1974H84.2419C84.4101 52.1974 84.5464 52.0619 84.5464 51.8947V49.2602C84.5464 49.093 84.4101 48.9575 84.2419 48.9575Z" fill="#59DC8E"/>
<path d="M84.2419 53.4082H81.5907C81.4225 53.4082 81.2861 53.5437 81.2861 53.7109V56.3454C81.2861 56.5125 81.4225 56.648 81.5907 56.648H84.2419C84.4101 56.648 84.5464 56.5125 84.5464 56.3454V53.7109C84.5464 53.5437 84.4101 53.4082 84.2419 53.4082Z" fill="#59DC8E"/>
<path d="M84.2419 57.8584H81.5907C81.4225 57.8584 81.2861 57.9939 81.2861 58.161V60.7956C81.2861 60.9627 81.4225 61.0982 81.5907 61.0982H84.2419C84.4101 61.0982 84.5464 60.9627 84.5464 60.7956V58.161C84.5464 57.9939 84.4101 57.8584 84.2419 57.8584Z" fill="#59DC8E"/>
<path d="M88.7204 22.2534H86.0692C85.901 22.2534 85.7646 22.3889 85.7646 22.5561V25.1906C85.7646 25.3578 85.901 25.4933 86.0692 25.4933H88.7204C88.8886 25.4933 89.0249 25.3578 89.0249 25.1906V22.5561C89.0249 22.3889 88.8886 22.2534 88.7204 22.2534Z" fill="#59DC8E"/>
<path d="M88.7204 26.7041H86.0692C85.901 26.7041 85.7646 26.8396 85.7646 27.0067V29.6413C85.7646 29.8084 85.901 29.9439 86.0692 29.9439H88.7204C88.8886 29.9439 89.0249 29.8084 89.0249 29.6413V27.0067C89.0249 26.8396 88.8886 26.7041 88.7204 26.7041Z" fill="#59DC8E"/>
<path d="M88.7204 31.1543H86.0692C85.901 31.1543 85.7646 31.2898 85.7646 31.4569V34.0915C85.7646 34.2586 85.901 34.3941 86.0692 34.3941H88.7204C88.8886 34.3941 89.0249 34.2586 89.0249 34.0915V31.4569C89.0249 31.2898 88.8886 31.1543 88.7204 31.1543Z" fill="#59DC8E"/>
<path d="M88.7204 35.6055H86.0692C85.901 35.6055 85.7646 35.741 85.7646 35.9081V38.5427C85.7646 38.7098 85.901 38.8453 86.0692 38.8453H88.7204C88.8886 38.8453 89.0249 38.7098 89.0249 38.5427V35.9081C89.0249 35.741 88.8886 35.6055 88.7204 35.6055Z" fill="#59DC8E"/>
<path d="M88.7204 40.0562H86.0692C85.901 40.0562 85.7646 40.1917 85.7646 40.3588V42.9933C85.7646 43.1605 85.901 43.296 86.0692 43.296H88.7204C88.8886 43.296 89.0249 43.1605 89.0249 42.9933V40.3588C89.0249 40.1917 88.8886 40.0562 88.7204 40.0562Z" fill="#EAFFF2"/>
<path d="M88.7204 44.5063H86.0692C85.901 44.5063 85.7646 44.6418 85.7646 44.809V47.4435C85.7646 47.6107 85.901 47.7462 86.0692 47.7462H88.7204C88.8886 47.7462 89.0249 47.6107 89.0249 47.4435V44.809C89.0249 44.6418 88.8886 44.5063 88.7204 44.5063Z" fill="#EAFFF2"/>
<path d="M88.7204 48.9575H86.0692C85.901 48.9575 85.7646 49.093 85.7646 49.2602V51.8947C85.7646 52.0619 85.901 52.1974 86.0692 52.1974H88.7204C88.8886 52.1974 89.0249 52.0619 89.0249 51.8947V49.2602C89.0249 49.093 88.8886 48.9575 88.7204 48.9575Z" fill="#59DC8E"/>
<path d="M88.7204 53.4082H86.0692C85.901 53.4082 85.7646 53.5437 85.7646 53.7109V56.3454C85.7646 56.5125 85.901 56.648 86.0692 56.648H88.7204C88.8886 56.648 89.0249 56.5125 89.0249 56.3454V53.7109C89.0249 53.5437 88.8886 53.4082 88.7204 53.4082Z" fill="#59DC8E"/>
<path d="M88.7204 57.8584H86.0692C85.901 57.8584 85.7646 57.9939 85.7646 58.161V60.7956C85.7646 60.9627 85.901 61.0982 86.0692 61.0982H88.7204C88.8886 61.0982 89.0249 60.9627 89.0249 60.7956V58.161C89.0249 57.9939 88.8886 57.8584 88.7204 57.8584Z" fill="#59DC8E"/>
<path d="M88.7204 62.3096H86.0692C85.901 62.3096 85.7646 62.4451 85.7646 62.6122V65.2468C85.7646 65.4139 85.901 65.5494 86.0692 65.5494H88.7204C88.8886 65.5494 89.0249 65.4139 89.0249 65.2468V62.6122C89.0249 62.4451 88.8886 62.3096 88.7204 62.3096Z" fill="#59DC8E"/>
<path d="M93.1989 17.8022H90.5477C90.3795 17.8022 90.2432 17.9377 90.2432 18.1049V20.7394C90.2432 20.9066 90.3795 21.0421 90.5477 21.0421H93.1989C93.3671 21.0421 93.5035 20.9066 93.5035 20.7394V18.1049C93.5035 17.9377 93.3671 17.8022 93.1989 17.8022Z" fill="#59DC8E"/>
<path d="M93.1989 22.2534H90.5477C90.3795 22.2534 90.2432 22.3889 90.2432 22.5561V25.1906C90.2432 25.3578 90.3795 25.4933 90.5477 25.4933H93.1989C93.3671 25.4933 93.5035 25.3578 93.5035 25.1906V22.5561C93.5035 22.3889 93.3671 22.2534 93.1989 22.2534Z" fill="#59DC8E"/>
<path d="M93.1989 26.7041H90.5477C90.3795 26.7041 90.2432 26.8396 90.2432 27.0067V29.6413C90.2432 29.8084 90.3795 29.9439 90.5477 29.9439H93.1989C93.3671 29.9439 93.5035 29.8084 93.5035 29.6413V27.0067C93.5035 26.8396 93.3671 26.7041 93.1989 26.7041Z" fill="#59DC8E"/>
<path d="M93.1989 31.1543H90.5477C90.3795 31.1543 90.2432 31.2898 90.2432 31.4569V34.0915C90.2432 34.2586 90.3795 34.3941 90.5477 34.3941H93.1989C93.3671 34.3941 93.5035 34.2586 93.5035 34.0915V31.4569C93.5035 31.2898 93.3671 31.1543 93.1989 31.1543Z" fill="#59DC8E"/>
<path d="M93.1989 35.6055H90.5477C90.3795 35.6055 90.2432 35.741 90.2432 35.9081V38.5427C90.2432 38.7098 90.3795 38.8453 90.5477 38.8453H93.1989C93.3671 38.8453 93.5035 38.7098 93.5035 38.5427V35.9081C93.5035 35.741 93.3671 35.6055 93.1989 35.6055Z" fill="#59DC8E"/>
<path d="M93.1989 40.0562H90.5477C90.3795 40.0562 90.2432 40.1917 90.2432 40.3588V42.9933C90.2432 43.1605 90.3795 43.296 90.5477 43.296H93.1989C93.3671 43.296 93.5035 43.1605 93.5035 42.9933V40.3588C93.5035 40.1917 93.3671 40.0562 93.1989 40.0562Z" fill="#59DC8E"/>
<path d="M93.1989 44.5063H90.5477C90.3795 44.5063 90.2432 44.6418 90.2432 44.809V47.4435C90.2432 47.6107 90.3795 47.7462 90.5477 47.7462H93.1989C93.3671 47.7462 93.5035 47.6107 93.5035 47.4435V44.809C93.5035 44.6418 93.3671 44.5063 93.1989 44.5063Z" fill="#59DC8E"/>
<path d="M93.1989 48.9575H90.5477C90.3795 48.9575 90.2432 49.093 90.2432 49.2602V51.8947C90.2432 52.0619 90.3795 52.1974 90.5477 52.1974H93.1989C93.3671 52.1974 93.5035 52.0619 93.5035 51.8947V49.2602C93.5035 49.093 93.3671 48.9575 93.1989 48.9575Z" fill="#59DC8E"/>
<path d="M93.1989 53.4082H90.5477C90.3795 53.4082 90.2432 53.5437 90.2432 53.7109V56.3454C90.2432 56.5125 90.3795 56.648 90.5477 56.648H93.1989C93.3671 56.648 93.5035 56.5125 93.5035 56.3454V53.7109C93.5035 53.5437 93.3671 53.4082 93.1989 53.4082Z" fill="#59DC8E"/>
<path d="M93.1989 57.8584H90.5477C90.3795 57.8584 90.2432 57.9939 90.2432 58.161V60.7956C90.2432 60.9627 90.3795 61.0982 90.5477 61.0982H93.1989C93.3671 61.0982 93.5035 60.9627 93.5035 60.7956V58.161C93.5035 57.9939 93.3671 57.8584 93.1989 57.8584Z" fill="#59DC8E"/>
<path d="M97.6779 22.2534H95.0267C94.8585 22.2534 94.7222 22.3889 94.7222 22.5561V25.1906C94.7222 25.3578 94.8585 25.4933 95.0267 25.4933H97.6779C97.8461 25.4933 97.9825 25.3578 97.9825 25.1906V22.5561C97.9825 22.3889 97.8461 22.2534 97.6779 22.2534Z" fill="#59DC8E"/>
<path d="M97.6779 26.7041H95.0267C94.8585 26.7041 94.7222 26.8396 94.7222 27.0067V29.6413C94.7222 29.8084 94.8585 29.9439 95.0267 29.9439H97.6779C97.8461 29.9439 97.9825 29.8084 97.9825 29.6413V27.0067C97.9825 26.8396 97.8461 26.7041 97.6779 26.7041Z" fill="#59DC8E"/>
<path d="M97.6779 31.1543H95.0267C94.8585 31.1543 94.7222 31.2898 94.7222 31.4569V34.0915C94.7222 34.2586 94.8585 34.3941 95.0267 34.3941H97.6779C97.8461 34.3941 97.9825 34.2586 97.9825 34.0915V31.4569C97.9825 31.2898 97.8461 31.1543 97.6779 31.1543Z" fill="#59DC8E"/>
<path d="M97.6779 35.6055H95.0267C94.8585 35.6055 94.7222 35.741 94.7222 35.9081V38.5427C94.7222 38.7098 94.8585 38.8453 95.0267 38.8453H97.6779C97.8461 38.8453 97.9825 38.7098 97.9825 38.5427V35.9081C97.9825 35.741 97.8461 35.6055 97.6779 35.6055Z" fill="#59DC8E"/>
<path d="M97.6779 40.0562H95.0267C94.8585 40.0562 94.7222 40.1917 94.7222 40.3588V42.9933C94.7222 43.1605 94.8585 43.296 95.0267 43.296H97.6779C97.8461 43.296 97.9825 43.1605 97.9825 42.9933V40.3588C97.9825 40.1917 97.8461 40.0562 97.6779 40.0562Z" fill="#59DC8E"/>
<path d="M97.6779 44.5063H95.0267C94.8585 44.5063 94.7222 44.6418 94.7222 44.809V47.4435C94.7222 47.6107 94.8585 47.7462 95.0267 47.7462H97.6779C97.8461 47.7462 97.9825 47.6107 97.9825 47.4435V44.809C97.9825 44.6418 97.8461 44.5063 97.6779 44.5063Z" fill="#59DC8E"/>
<path d="M97.6779 48.9575H95.0267C94.8585 48.9575 94.7222 49.093 94.7222 49.2602V51.8947C94.7222 52.0619 94.8585 52.1974 95.0267 52.1974H97.6779C97.8461 52.1974 97.9825 52.0619 97.9825 51.8947V49.2602C97.9825 49.093 97.8461 48.9575 97.6779 48.9575Z" fill="#59DC8E"/>
<path d="M97.6779 53.4082H95.0267C94.8585 53.4082 94.7222 53.5437 94.7222 53.7109V56.3454C94.7222 56.5125 94.8585 56.648 95.0267 56.648H97.6779C97.8461 56.648 97.9825 56.5125 97.9825 56.3454V53.7109C97.9825 53.5437 97.8461 53.4082 97.6779 53.4082Z" fill="#59DC8E"/>
<path d="M97.6779 57.8584H95.0267C94.8585 57.8584 94.7222 57.9939 94.7222 58.161V60.7956C94.7222 60.9627 94.8585 61.0982 95.0267 61.0982H97.6779C97.8461 61.0982 97.9825 60.9627 97.9825 60.7956V58.161C97.9825 57.9939 97.8461 57.8584 97.6779 57.8584Z" fill="#59DC8E"/>
<path d="M102.156 22.2534H99.5052C99.337 22.2534 99.2007 22.3889 99.2007 22.5561V25.1906C99.2007 25.3578 99.337 25.4933 99.5052 25.4933H102.156C102.325 25.4933 102.461 25.3578 102.461 25.1906V22.5561C102.461 22.3889 102.325 22.2534 102.156 22.2534Z" fill="#59DC8E"/>
<path d="M102.156 31.1543H99.5052C99.337 31.1543 99.2007 31.2898 99.2007 31.4569V34.0915C99.2007 34.2586 99.337 34.3941 99.5052 34.3941H102.156C102.325 34.3941 102.461 34.2586 102.461 34.0915V31.4569C102.461 31.2898 102.325 31.1543 102.156 31.1543Z" fill="#59DC8E"/>
<path d="M102.156 35.6055H99.5052C99.337 35.6055 99.2007 35.741 99.2007 35.9081V38.5427C99.2007 38.7098 99.337 38.8453 99.5052 38.8453H102.156C102.325 38.8453 102.461 38.7098 102.461 38.5427V35.9081C102.461 35.741 102.325 35.6055 102.156 35.6055Z" fill="#59DC8E"/>
<path d="M102.156 40.0562H99.5052C99.337 40.0562 99.2007 40.1917 99.2007 40.3588V42.9933C99.2007 43.1605 99.337 43.296 99.5052 43.296H102.156C102.325 43.296 102.461 43.1605 102.461 42.9933V40.3588C102.461 40.1917 102.325 40.0562 102.156 40.0562Z" fill="#59DC8E"/>
<path d="M102.156 44.5063H99.5052C99.337 44.5063 99.2007 44.6418 99.2007 44.809V47.4435C99.2007 47.6107 99.337 47.7462 99.5052 47.7462H102.156C102.325 47.7462 102.461 47.6107 102.461 47.4435V44.809C102.461 44.6418 102.325 44.5063 102.156 44.5063Z" fill="#59DC8E"/>
<path d="M102.156 48.9575H99.5052C99.337 48.9575 99.2007 49.093 99.2007 49.2602V51.8947C99.2007 52.0619 99.337 52.1974 99.5052 52.1974H102.156C102.325 52.1974 102.461 52.0619 102.461 51.8947V49.2602C102.461 49.093 102.325 48.9575 102.156 48.9575Z" fill="#59DC8E"/>
<path d="M102.156 53.4082H99.5052C99.337 53.4082 99.2007 53.5437 99.2007 53.7109V56.3454C99.2007 56.5125 99.337 56.648 99.5052 56.648H102.156C102.325 56.648 102.461 56.5125 102.461 56.3454V53.7109C102.461 53.5437 102.325 53.4082 102.156 53.4082Z" fill="#59DC8E"/>
<path d="M102.156 57.8584H99.5052C99.337 57.8584 99.2007 57.9939 99.2007 58.161V60.7956C99.2007 60.9627 99.337 61.0982 99.5052 61.0982H102.156C102.325 61.0982 102.461 60.9627 102.461 60.7956V58.161C102.461 57.9939 102.325 57.8584 102.156 57.8584Z" fill="#59DC8E"/>
<path d="M106.636 31.1543H103.985C103.817 31.1543 103.68 31.2898 103.68 31.4569V34.0915C103.68 34.2586 103.817 34.3941 103.985 34.3941H106.636C106.804 34.3941 106.94 34.2586 106.94 34.0915V31.4569C106.94 31.2898 106.804 31.1543 106.636 31.1543Z" fill="#59DC8E"/>
<path d="M106.636 35.6055H103.985C103.817 35.6055 103.68 35.741 103.68 35.9081V38.5427C103.68 38.7098 103.817 38.8453 103.985 38.8453H106.636C106.804 38.8453 106.94 38.7098 106.94 38.5427V35.9081C106.94 35.741 106.804 35.6055 106.636 35.6055Z" fill="#59DC8E"/>
<path d="M106.636 40.0562H103.985C103.817 40.0562 103.68 40.1917 103.68 40.3588V42.9933C103.68 43.1605 103.817 43.296 103.985 43.296H106.636C106.804 43.296 106.94 43.1605 106.94 42.9933V40.3588C106.94 40.1917 106.804 40.0562 106.636 40.0562Z" fill="#59DC8E"/>
<path d="M106.636 44.5063H103.985C103.817 44.5063 103.68 44.6418 103.68 44.809V47.4435C103.68 47.6107 103.817 47.7462 103.985 47.7462H106.636C106.804 47.7462 106.94 47.6107 106.94 47.4435V44.809C106.94 44.6418 106.804 44.5063 106.636 44.5063Z" fill="#59DC8E"/>
<path d="M106.636 48.9575H103.985C103.817 48.9575 103.68 49.093 103.68 49.2602V51.8947C103.68 52.0619 103.817 52.1974 103.985 52.1974H106.636C106.804 52.1974 106.94 52.0619 106.94 51.8947V49.2602C106.94 49.093 106.804 48.9575 106.636 48.9575Z" fill="#59DC8E"/>
<path d="M106.636 53.4082H103.985C103.817 53.4082 103.68 53.5437 103.68 53.7109V56.3454C103.68 56.5125 103.817 56.648 103.985 56.648H106.636C106.804 56.648 106.94 56.5125 106.94 56.3454V53.7109C106.94 53.5437 106.804 53.4082 106.636 53.4082Z" fill="#59DC8E"/>
<path d="M111.114 31.1543H108.463C108.295 31.1543 108.159 31.2898 108.159 31.4569V34.0915C108.159 34.2586 108.295 34.3941 108.463 34.3941H111.114C111.283 34.3941 111.419 34.2586 111.419 34.0915V31.4569C111.419 31.2898 111.283 31.1543 111.114 31.1543Z" fill="#59DC8E"/>
<path d="M111.114 35.6055H108.463C108.295 35.6055 108.159 35.741 108.159 35.9081V38.5427C108.159 38.7098 108.295 38.8453 108.463 38.8453H111.114C111.283 38.8453 111.419 38.7098 111.419 38.5427V35.9081C111.419 35.741 111.283 35.6055 111.114 35.6055Z" fill="#59DC8E"/>
<path d="M111.114 40.0562H108.463C108.295 40.0562 108.159 40.1917 108.159 40.3588V42.9933C108.159 43.1605 108.295 43.296 108.463 43.296H111.114C111.283 43.296 111.419 43.1605 111.419 42.9933V40.3588C111.419 40.1917 111.283 40.0562 111.114 40.0562Z" fill="#59DC8E"/>
<path d="M111.114 44.5063H108.463C108.295 44.5063 108.159 44.6418 108.159 44.809V47.4435C108.159 47.6107 108.295 47.7462 108.463 47.7462H111.114C111.283 47.7462 111.419 47.6107 111.419 47.4435V44.809C111.419 44.6418 111.283 44.5063 111.114 44.5063Z" fill="#59DC8E"/>
<path d="M111.114 48.9575H108.463C108.295 48.9575 108.159 49.093 108.159 49.2602V51.8947C108.159 52.0619 108.295 52.1974 108.463 52.1974H111.114C111.283 52.1974 111.419 52.0619 111.419 51.8947V49.2602C111.419 49.093 111.283 48.9575 111.114 48.9575Z" fill="#59DC8E"/>
<path d="M115.593 31.1543H112.942C112.774 31.1543 112.638 31.2898 112.638 31.4569V34.0915C112.638 34.2586 112.774 34.3941 112.942 34.3941H115.593C115.762 34.3941 115.898 34.2586 115.898 34.0915V31.4569C115.898 31.2898 115.762 31.1543 115.593 31.1543Z" fill="#59DC8E"/>
<path d="M115.593 35.6055H112.942C112.774 35.6055 112.638 35.741 112.638 35.9081V38.5427C112.638 38.7098 112.774 38.8453 112.942 38.8453H115.593C115.762 38.8453 115.898 38.7098 115.898 38.5427V35.9081C115.898 35.741 115.762 35.6055 115.593 35.6055Z" fill="#59DC8E"/>
<path d="M115.593 40.0562H112.942C112.774 40.0562 112.638 40.1917 112.638 40.3588V42.9933C112.638 43.1605 112.774 43.296 112.942 43.296H115.593C115.762 43.296 115.898 43.1605 115.898 42.9933V40.3588C115.898 40.1917 115.762 40.0562 115.593 40.0562Z" fill="#59DC8E"/>
<path d="M115.593 44.5063H112.942C112.774 44.5063 112.638 44.6418 112.638 44.809V47.4435C112.638 47.6107 112.774 47.7462 112.942 47.7462H115.593C115.762 47.7462 115.898 47.6107 115.898 47.4435V44.809C115.898 44.6418 115.762 44.5063 115.593 44.5063Z" fill="#59DC8E"/>
<path d="M120.072 35.6055H117.421C117.253 35.6055 117.116 35.741 117.116 35.9081V38.5427C117.116 38.7098 117.253 38.8453 117.421 38.8453H120.072C120.24 38.8453 120.376 38.7098 120.376 38.5427V35.9081C120.376 35.741 120.24 35.6055 120.072 35.6055Z" fill="#59DC8E"/>
<path d="M120.072 40.0562H117.421C117.253 40.0562 117.116 40.1917 117.116 40.3588V42.9933C117.116 43.1605 117.253 43.296 117.421 43.296H120.072C120.24 43.296 120.376 43.1605 120.376 42.9933V40.3588C120.376 40.1917 120.24 40.0562 120.072 40.0562Z" fill="#59DC8E"/>
</g>
<defs>
<clipPath id="clip0_7643_15935">
<rect width="119.71" height="70" fill="white" transform="translate(0.666504)"/>
</clipPath>
</defs>
</svg>
