<svg width="130" height="101" viewBox="0 0 130 101" fill="none" xmlns="http://www.w3.org/2000/svg">
<path d="M47.143 73.2839C39.2378 73.2839 29.4395 70.47 24.335 62.4642C21.6121 58.1989 20.8341 53.5867 21.2706 49.1479C20.8816 48.1155 20.5748 47.0407 20.363 45.9194C18.15 34.3676 26.5177 24.8427 34.3537 20.1966C35.7887 19.3461 37.2798 18.5506 38.7883 17.827C46.4903 14.1414 55.8996 12.3558 64.5915 12.9312C68.3561 13.1809 71.9391 13.8452 75.2931 14.9073C77.1473 15.377 79.0145 15.9948 80.8816 16.7734C86.9975 19.3207 94.7903 22.9682 100.807 28.6256C108.193 35.5736 113.172 46.2621 107.636 54.4753C107.519 54.6488 107.402 54.818 107.277 54.9873C107.208 60.2469 105.367 65.1131 100.906 68.1978C94.384 72.7042 85.6317 72.5815 77.9123 72.4757L76.8923 72.463C73.6075 72.4207 70.4048 72.188 67.2237 71.786C61.2764 72.6069 55.0655 73.0131 48.3445 73.2628C47.9469 73.2755 47.5449 73.2839 47.1386 73.2839H47.143ZM22.524 51.8603C22.5845 55.2962 23.4619 58.7025 25.4372 61.7956C30.5114 69.7507 40.582 72.2769 48.3056 71.9976C53.2977 71.8114 58.0088 71.5406 62.5298 71.0751C54.8277 69.7084 47.1343 67.4192 38.7105 64.5461C32.7502 62.515 26.0682 58.2582 22.5284 51.8645L22.524 51.8603ZM72.1682 70.9947C73.7371 71.1048 75.319 71.1725 76.9182 71.1894L77.9382 71.2021C85.4631 71.3079 93.9864 71.4221 100.167 67.1568C103.945 64.5461 105.544 60.7124 105.898 56.6799C101.286 61.7152 94.1809 64.326 87.8187 66.6618L86.8635 67.013C82.0097 68.8029 77.1646 70.0765 72.1682 70.9947ZM22.6451 49.1141C25.5755 56.3921 32.7805 61.1736 39.134 63.3401C49.1225 66.7464 58.0737 69.3276 67.2237 70.4997C73.8495 69.5772 80.1296 68.1343 86.4096 65.8197L87.3648 65.4685C94.0944 62.9974 101.68 60.2131 105.976 54.5811C105.924 49.9858 104.485 45.3693 102.998 42.2126C99.5922 34.9854 93.7919 28.9218 89.124 24.4449C85.113 20.5986 80.4797 17.9497 75.5697 16.291C57.944 11.5222 41.3599 20.6197 31.9939 30.5889C30.8874 31.7653 29.8198 33.0135 28.8214 34.2914C25.6317 38.3705 23.2069 43.6852 22.6451 49.1183V49.1141ZM86.9413 20.9032C88.0175 21.7241 89.0462 22.6043 90.0273 23.5436C94.7773 28.0966 100.673 34.2745 104.169 41.6879C105.799 45.145 106.905 48.9787 107.203 52.715C111.828 44.2395 104.921 34.2576 99.912 29.5438C96.0437 25.9048 91.3888 23.1078 86.9456 20.9032H86.9413ZM39.3545 18.9695C37.8806 19.6761 36.4241 20.4547 35.0237 21.2841C26.9499 26.0698 19.6801 35.472 21.6337 45.6866C21.6683 45.8559 21.7028 46.0252 21.7374 46.1944C22.7877 41.3748 25.1389 36.9107 27.7884 33.5213C28.8128 32.2138 29.9063 30.9401 31.0387 29.7342C37.872 22.4562 48.4569 15.6351 60.5286 14.0568C52.8914 14.1837 45.4357 16.0583 39.3545 18.9695Z" fill="white"/>
<path d="M36.4018 35.9846C36.6395 35.9846 36.8427 36.0904 36.9507 36.2596C36.9507 36.2681 36.9594 36.2681 36.9594 36.2808C37.4651 36.979 37.4218 37.0763 37.3916 37.1567V37.1652C36.7433 38.223 35.5114 38.223 35.1657 38.223C33.3417 38.223 32.5508 36.3612 32.5508 34.5332V34.5121C32.5508 32.6841 33.3374 30.8223 35.1657 30.8223C35.5114 30.8223 36.7433 30.8223 37.3916 31.8801V31.8928C37.4218 31.9774 37.4651 32.0705 36.9594 32.7687C36.9594 32.7772 36.9507 32.7772 36.9507 32.7899C36.8427 32.9591 36.6395 33.0649 36.4018 33.0649C36.3932 33.0522 36.3802 33.0311 36.3586 33.0226C36.0993 32.7899 35.4509 32.2102 34.9107 32.5698C34.0895 33.1199 34.3618 36.0692 34.9107 36.4289C35.4812 36.8182 36.1857 36.175 36.4018 35.9846Z" fill="white"/>
<path d="M38.6839 37.6982C38.6839 37.2751 38.632 31.8377 38.6191 31.6811C38.6191 31.5119 38.6104 31.3553 38.6191 31.1861C38.6277 31.038 38.7271 30.9956 38.7704 30.8391L38.8136 30.8052C38.8136 30.8052 38.9648 30.7968 39.0297 30.8052C39.5267 30.8179 41.8175 30.7418 42.3145 30.856C42.5738 30.8645 42.4874 30.8645 42.5522 31.076L42.6171 31.7742L42.5522 32.282C42.5522 32.282 42.4528 32.3878 42.4355 32.4089C42.2626 32.4512 42.1546 32.4301 41.9947 32.4174C41.8434 32.4089 40.6678 32.3666 40.5165 32.3751C40.5165 32.4089 40.4949 32.502 40.4949 32.5232V32.7348C40.4862 32.8702 40.5468 33.4414 40.5597 33.4541L40.5813 33.4879C40.5813 33.4879 40.6462 33.5091 40.698 33.5091C41.1173 33.5726 41.5927 33.5091 42.0379 33.5091C42.0595 33.5218 42.1892 33.5303 42.1892 33.5303C42.254 33.6149 42.241 33.6022 42.2324 33.6911C42.2324 33.8899 42.2194 34.7362 42.1892 34.9901C42.1892 35.0197 42.1243 35.1382 42.1114 35.1382C42.0033 35.2355 40.5554 35.117 40.5468 35.172L40.5381 36.3018C40.5381 36.3315 40.5468 36.4372 40.5727 36.4796C40.5943 36.4796 40.6678 36.488 40.6807 36.488C41.2729 36.5303 41.9342 36.488 42.5393 36.5303C42.6041 36.5388 42.6041 36.615 42.6257 36.6573C42.7035 37.072 42.7035 37.2285 42.6689 37.6305C42.6603 37.6728 42.6473 37.8844 42.6387 37.9267C42.6257 37.9986 42.5868 38.0748 42.5306 38.1256C42.3664 38.0833 41.4933 38.2525 38.7617 38.1467C38.6234 38.0494 38.6969 37.8294 38.6969 37.694L38.6839 37.6982Z" fill="white"/>
<path d="M43.8711 31.3933V31.1098C43.8711 31.0887 43.9013 30.949 43.9143 30.9067C43.9143 30.8771 43.9359 30.8433 43.9791 30.8433C44.0008 30.8348 44.1736 30.8348 44.2255 30.8221C44.6361 30.8136 45.2715 30.7163 45.6821 30.7163C46.1791 30.7163 47.4412 30.7248 47.908 30.9067C48.686 31.2156 48.9107 32.155 48.8588 32.9378C48.7724 34.313 48.0593 34.5881 47.5103 34.7573L48.7508 37.8886C48.7508 37.8886 48.7422 37.9859 48.7422 38.0028C48.6903 38.244 47.8475 38.1805 47.64 38.2228H47.0133C46.875 38.2228 46.7756 37.9478 46.7107 37.842L45.9111 35.6417C45.8895 35.7263 45.8895 35.7559 45.8895 35.8194V35.8617C45.8895 35.9887 45.8679 37.3427 45.9111 37.4993C45.9198 37.6474 45.9457 37.7616 45.9457 37.9013C45.9457 38.1975 45.6864 38.1213 45.4703 38.134C45.306 38.1424 44.8652 38.1551 44.1736 38.134C44.1088 38.134 44.0872 38.0832 44.0569 38.0282C43.9705 37.8589 43.9921 37.5839 43.9835 37.3935L43.8754 31.3849L43.8711 31.3933ZM45.7944 33.6868C45.7944 33.6868 45.8161 33.7375 45.8161 33.7502C45.8593 33.7714 45.9976 33.7799 46.0408 33.7799C46.4817 33.7799 47.1213 33.581 47.1213 33.1451C47.1213 32.6501 47.0781 32.2692 46.5162 32.0788C46.3995 32.0492 45.9544 32.0788 45.8161 32.0788H45.7642L45.7944 33.6868Z" fill="white"/>
<path d="M51.4346 38.0578C51.4216 37.9309 51.4346 37.3385 51.4346 37.2115C51.4346 37.1777 51.4432 37.0761 51.4432 37.0507C51.4346 36.8899 51.4 36.1748 51.4 36.014C51.4 35.9506 51.4432 35.4343 51.4432 35.3709C51.4432 35.0747 51.4216 34.7785 51.4346 34.4823C51.4346 34.4611 51.4432 34.2919 51.4432 34.2707C51.4432 34.1438 51.4346 33.1282 51.4346 33.014C51.4432 32.9082 51.4432 32.7051 51.3481 32.6416C51.1969 32.5993 51.145 32.6331 51.024 32.6331C50.7992 32.6331 50.5615 32.6416 50.3324 32.6416H50.2157C50.0428 32.4723 50.1423 31.5414 50.0645 31.1183V31.0464C50.0731 31.0252 50.1163 30.8771 50.1163 30.8433C50.1595 30.7459 50.3756 30.7459 50.4405 30.7459H50.9894C51.2271 30.7375 51.5297 30.7375 54.3693 30.7163C54.3693 30.7163 54.378 30.7375 54.378 30.7459C54.4298 30.8221 54.4082 30.9363 54.4212 31.021C54.4125 31.0633 54.4428 31.3299 54.4558 31.3722C54.4558 31.4441 54.499 31.9011 54.4903 31.973V32.0788C54.4774 32.1761 54.4558 32.3116 54.4558 32.4046C54.4558 32.667 54.4341 32.5951 53.8852 32.5951C53.7988 32.6035 53.4011 32.5951 53.3147 32.5951L53.2931 32.9124L53.4011 37.8843C53.4011 37.9266 53.3666 38.0536 53.3363 38.1171C53.2715 38.2144 52.5713 38.2144 52.3638 38.2144H52.031C51.8495 38.2144 51.6636 38.2228 51.4908 38.1932C51.4475 38.1721 51.4259 38.1086 51.4389 38.0578H51.4346Z" fill="white"/>
<path d="M55.8859 37.5162C55.834 35.9929 55.834 35.8787 55.7778 34.1861C55.7562 33.4794 55.7346 32.4935 55.6914 31.0125C56.0458 30.6655 56.8454 30.7798 57.4289 30.8644C57.5153 30.8771 57.5456 31.0548 57.5456 31.0548L57.5802 31.1395C57.6969 32.502 57.7531 35.4851 57.7963 37.8039L57.7876 37.9394C57.6796 38.0748 57.5629 38.0451 57.4419 38.0748C57.4332 38.0874 57.377 38.1086 57.377 38.1171C57.2474 38.189 57.0226 38.1594 56.9016 38.1594C56.5472 38.1594 56.2317 38.0621 55.9075 38.0113C55.8989 37.8336 55.8989 37.6643 55.8859 37.5162Z" fill="white"/>
<path d="M62.8234 30.8435C62.8753 30.8943 62.9228 30.9704 62.9315 31.0466C62.9401 31.0889 62.9531 31.3005 62.966 31.3428C62.9963 31.7448 62.9963 31.9648 62.9228 32.3795C62.9012 32.4218 62.9012 32.4937 62.8364 32.5064C62.2313 32.5487 61.6262 32.5064 61.034 32.5487C61.0254 32.5487 60.9476 32.5572 60.926 32.5572C60.9044 32.5995 60.8957 32.7053 60.8957 32.7392V33.395C60.9044 33.4458 62.1708 33.3527 62.2788 33.4458C62.2875 33.4458 62.3523 33.5601 62.3523 33.5939C62.3869 33.8478 62.3955 34.6941 62.3955 34.893C62.4042 34.9776 62.4171 34.9649 62.3523 35.0537C62.3523 35.0537 62.2226 35.0622 62.201 35.0749C61.7602 35.0749 61.4144 34.9903 60.9908 35.0537C60.9389 35.0537 60.8957 35.0622 60.8741 35.0749L60.8525 35.1088C60.8309 35.9974 60.926 38.1215 60.7531 38.2273C60.1394 38.2273 59.6942 38.1765 59.4781 38.1765C59.4132 38.185 59.2317 38.1765 59.2187 38.1765L59.1755 38.1469C59.1323 37.9861 59.0329 37.9438 59.0242 37.7957C59.0156 37.6264 59.0242 37.4699 59.0242 37.3006C59.0329 37.1441 59.0156 31.7067 59.0156 31.2836C59.0156 31.1439 58.9421 30.9239 59.0804 30.8308C61.812 30.725 62.6678 30.8943 62.8277 30.8519L62.8234 30.8435Z" fill="white"/>
<path d="M64.3664 37.5162C64.3145 35.9929 64.3145 35.8787 64.2583 34.1861C64.2367 33.4794 64.2151 32.4935 64.1719 31.0125C64.5263 30.6655 65.3259 30.7798 65.9094 30.8644C65.9958 30.8771 66.0304 31.0548 66.0304 31.0548L66.065 31.1395C66.1817 32.502 66.2379 35.4851 66.2811 37.8039L66.2681 37.9394C66.1601 38.0748 66.0434 38.0451 65.9223 38.0748C65.9094 38.0874 65.8575 38.1086 65.8575 38.1171C65.7278 38.189 65.4988 38.1594 65.3821 38.1594C65.0277 38.1594 64.7121 38.0621 64.388 38.0113C64.375 37.8336 64.375 37.6643 64.3664 37.5162Z" fill="white"/>
<path d="M67.4787 31.004V30.9955C67.4787 30.9744 67.4354 30.7501 68.8488 30.8263C69.2594 30.8474 69.3545 30.9194 69.4323 31.2706C69.4452 31.9899 69.4539 32.2226 69.4107 32.942C69.7997 32.3919 70.3702 30.8178 70.6857 30.8263L72.1423 30.877C72.2287 30.8559 72.2589 30.8559 72.3238 30.8643C72.3756 30.8643 72.6825 30.8855 72.6825 30.9828C72.6825 31.2156 70.7376 34.0802 70.4912 34.5245C70.6338 34.7065 72.8122 37.6769 72.8122 38.0154C72.8122 38.0916 72.7776 38.1551 72.6912 38.1762C72.6566 38.1678 72.5399 38.1847 72.5096 38.1762C71.991 38.1762 71.334 38.2185 70.8024 38.1974C70.7592 38.1889 70.6641 38.1889 70.6511 38.1889C70.3183 37.4484 69.7435 36.8687 69.4193 36.1917C69.389 36.1917 69.389 36.2213 69.389 36.2425V36.2848C69.389 36.4964 69.4193 37.3934 69.4107 37.7319C69.4107 37.7319 69.4193 37.8462 69.4107 37.8927C69.3977 38.2397 69.2032 38.2312 68.9136 38.2312H68.8185C68.7667 38.2312 68.6154 38.2397 68.5678 38.2397C68.5678 38.2397 68.516 38.2312 68.4944 38.2312C68.3128 38.2312 67.7164 38.1678 67.5997 37.9689C67.5262 37.8546 67.5565 37.6727 67.5478 37.5458C67.5608 37.0168 67.4614 31.0632 67.483 31.0082L67.4787 31.004Z" fill="white"/>
<path d="M75.5387 30.9067C75.6813 30.8221 75.7202 30.8136 75.8758 30.7925C76.2432 30.7079 77.1379 30.7925 77.5398 30.7925C78.1233 30.7925 78.1449 30.8644 78.2962 31.3214L79.8824 37.9097C79.904 38.2906 78.4475 38.2059 78.4475 38.2059C77.8726 38.2059 77.8208 37.6982 77.7127 37.275L77.6133 36.8519L76.187 36.8942L76.066 37.622C76.0012 37.969 76.0876 38.0451 75.7202 38.1721C75.6035 38.1805 75.556 38.1932 75.5473 38.1932H75.1583C75.1151 38.1932 74.8687 38.1721 74.7909 38.1636H74.7564C74.5532 38.1551 74.0216 38.1298 74 37.9013V37.8505C74.0216 37.7997 74.0519 37.5543 74.0648 37.5035C74.0778 37.4739 74.0994 37.3681 74.0994 37.3681L75.5344 30.9152L75.5387 30.9067ZM76.8872 28.8545C76.952 28.863 76.9866 28.8968 77.0385 28.9391C77.0385 28.9391 77.0471 28.9518 77.0601 28.9518C77.2114 29.0576 77.3281 29.1718 77.4793 29.2903C77.5312 29.3411 77.6954 29.4257 77.6825 29.5315C77.6738 29.5738 76.0833 30.2932 76.0746 30.2932C76.0012 30.2847 75.6424 29.9123 75.6554 29.8404C75.6035 29.9166 76.7229 28.8376 76.8872 28.8587V28.8545ZM76.4463 35.5063L76.9304 35.5147L77.328 35.4809L76.8829 33.4625C76.8526 33.6529 76.7446 33.9364 76.442 35.502L76.4463 35.5063Z" fill="white"/>
<path d="M81.4506 38.0578C81.442 37.9309 81.4506 37.3385 81.4506 37.2115C81.4506 37.1777 81.4636 37.0761 81.4636 37.0507C81.4506 36.8899 81.4204 36.1748 81.4204 36.014C81.4204 35.9506 81.4636 35.4343 81.4636 35.3709C81.4636 35.0747 81.442 34.7785 81.4506 34.4823C81.4506 34.4611 81.4636 34.2919 81.4636 34.2707C81.4636 34.1438 81.4506 33.1282 81.4506 33.014C81.4636 32.9082 81.4636 32.7051 81.3642 32.6416C81.2129 32.5993 81.1567 32.6331 81.04 32.6331C80.8109 32.6331 80.5732 32.6416 80.3485 32.6416H80.2274C80.0546 32.4723 80.154 31.5414 80.0762 31.1183V31.0464C80.0848 31.0252 80.128 30.8771 80.128 30.8433C80.1713 30.7459 80.3874 30.7459 80.4522 30.7459H81.0011C81.2388 30.7375 81.5414 30.7375 84.381 30.7163C84.381 30.7163 84.3897 30.7375 84.3897 30.7459C84.4415 30.8221 84.4242 30.9363 84.4329 31.021C84.4199 31.0633 84.4545 31.3299 84.4675 31.3722C84.4675 31.4441 84.5107 31.9011 84.4977 31.973V32.0788C84.4891 32.1761 84.4675 32.3116 84.4675 32.4046C84.4675 32.667 84.4459 32.5951 83.8926 32.5951C83.8062 32.6035 83.4085 32.5951 83.3221 32.5951L83.3005 32.9124L83.4085 37.8843C83.4085 37.9266 83.3783 38.0536 83.3437 38.1171C83.2789 38.2144 82.5787 38.2144 82.3712 38.2144H82.0384C81.8569 38.2144 81.671 38.2228 81.4982 38.1932C81.4549 38.1721 81.4333 38.1086 81.4463 38.0578H81.4506Z" fill="white"/>
<path d="M89.3828 33.2211C89.3915 33.0645 89.4995 32.3113 89.5471 32.1548C89.6335 31.6682 90.0873 31.1181 90.5714 30.97C91.2068 30.7711 92.9918 30.6865 93.5969 31.0969C94.4484 31.6766 94.8071 32.3452 94.8071 33.6569C94.8071 34.8417 95.2177 37.8249 93.2079 38.1422C92.9399 38.1846 92.1836 38.2353 91.9113 38.2353C91.8594 38.2353 91.6087 38.2269 91.5525 38.2269C91.5093 38.2184 91.4661 38.2184 91.4229 38.2057C91.0123 38.1422 90.485 38.0661 90.2343 37.7826C89.5427 36.9998 89.4347 35.8911 89.4044 34.6005C89.3915 34.317 89.3828 33.9574 89.3828 33.6823V33.2296V33.2211ZM91.2068 35.7303C91.2802 36.31 91.5309 36.5555 91.9847 36.5555H92.0712C92.525 36.5682 93.0653 36.5682 93.0307 35.286C93.0307 35.1591 93.0177 34.334 93.0177 34.262V34.0928C93.0177 33.8389 93.0048 33.6062 92.9961 33.3438V33.2592C92.9832 32.4764 92.3997 32.4975 92.0453 32.5102H91.9458C91.2975 32.5102 91.2673 32.7514 91.1592 33.5469V33.9489C91.1808 34.1689 91.1074 34.9094 91.2024 35.7346L91.2068 35.7303Z" fill="white"/>
<path d="M32.5861 40.1563V40.1436C32.5861 40.1225 32.5386 39.8813 34.0686 39.9617C34.5138 39.9828 34.6175 40.0632 34.6996 40.4398C34.7126 41.2184 34.7212 41.468 34.678 42.2424C35.0973 41.65 35.7153 39.9447 36.0568 39.9574L37.63 40.0167C37.7251 39.9955 37.7597 39.9955 37.8289 40.004C37.8894 40.004 38.2135 40.0251 38.2135 40.1309C38.2135 40.3806 36.113 43.478 35.845 43.9561C35.9963 44.1508 38.3518 47.3582 38.3518 47.7263C38.3518 47.8067 38.3173 47.8744 38.2222 47.8998C38.1876 47.8871 38.0579 47.9125 38.0234 47.8998C37.4615 47.8998 36.7526 47.9463 36.1821 47.921C36.1346 47.9083 36.0308 47.9083 36.0179 47.9083C35.6548 47.1085 35.0368 46.4823 34.6867 45.7502C34.6521 45.7502 34.6521 45.7841 34.6521 45.8052V45.8518C34.6521 46.0803 34.6867 47.0493 34.6737 47.4174C34.6737 47.4174 34.6867 47.5444 34.6737 47.5909C34.6607 47.9675 34.4533 47.9548 34.1377 47.9548H34.034C33.9735 47.9548 33.8136 47.9675 33.766 47.9675C33.766 47.9675 33.7099 47.9548 33.6839 47.9548C33.4851 47.9548 32.8454 47.8871 32.7158 47.6713C32.6336 47.5444 32.6682 47.3497 32.6596 47.2143C32.6725 46.6431 32.5645 40.2113 32.5904 40.1563H32.5861Z" fill="white"/>
<path d="M38.641 42.5555C38.654 42.3863 38.7707 41.5738 38.8139 41.4004C38.909 40.8757 39.3974 40.279 39.9204 40.1225C40.6076 39.9067 42.5353 39.8136 43.1879 40.2579C44.1086 40.8841 44.4932 41.6077 44.4932 43.021C44.4932 44.2989 44.9384 47.519 42.7644 47.8617C42.4748 47.9083 41.6579 47.9633 41.364 47.9633C41.3078 47.9633 41.0355 47.9506 40.9793 47.9506C40.9318 47.9379 40.8842 47.9379 40.841 47.9294C40.3958 47.8617 39.8253 47.7813 39.5573 47.4724C38.8096 46.6262 38.6929 45.4287 38.6583 44.0365C38.6454 43.7276 38.6367 43.3384 38.6367 43.0422V42.5513L38.641 42.5555ZM40.6163 45.2636C40.6984 45.8899 40.9664 46.1565 41.4548 46.1565H41.5498C42.0382 46.1692 42.6217 46.1692 42.5872 44.7855C42.5872 44.6501 42.5742 43.7573 42.5742 43.6769V43.4949C42.5742 43.2199 42.5612 42.9702 42.5526 42.6825V42.5894C42.5396 41.7431 41.9129 41.7685 41.5239 41.777H41.4202C40.72 41.777 40.6854 42.0393 40.5687 42.8941V43.3299C40.5903 43.5711 40.5125 44.3708 40.6163 45.2594V45.2636Z" fill="white"/>
<path d="M45.8199 47.8533C45.5735 47.8322 45.6081 47.6122 45.6081 47.4175C45.5951 47.3498 45.5865 47.0536 45.5865 46.9817C45.6081 46.9351 45.6081 46.8886 45.6081 46.8336C45.6081 45.2341 45.5605 42.3906 45.5605 40.3003C45.5605 39.9448 46.2737 39.9448 46.4941 39.9448H46.667C47.0992 39.9448 47.8686 39.9448 48.1495 40.1141C48.1841 40.1352 49.1177 42.7545 49.5283 43.7023C49.7401 43.3046 50.1118 41.7601 50.9503 40.186C51.0799 39.9914 51.5337 39.9575 51.7455 39.9575L52.9946 39.9914C53.228 40.0252 53.2496 40.3891 53.2626 40.5753C53.3793 43.4992 53.2064 42.9745 53.3318 47.6122V47.7052C53.2626 47.7518 53.2151 47.8322 53.1329 47.8406H53.0854C52.8045 47.8618 52.5624 47.9084 52.2815 47.921C52.2685 47.921 52.1648 47.8999 52.1302 47.8999C52.1172 47.8872 52.0351 47.866 52.0265 47.866C51.9919 47.866 51.8536 47.8533 51.7715 47.8449C51.6202 47.8322 51.5381 47.7899 51.3868 47.6841C51.3522 47.6502 51.3306 47.5825 51.3306 47.536C51.3306 47.4556 51.3176 47.134 51.3176 47.0917C51.2831 44.7136 51.2831 44.8871 51.2615 43.8462L49.8957 47.7983C49.6493 47.7983 49.4289 47.866 49.1825 47.7518C49.1825 47.7518 49.1609 47.7391 49.1609 47.7306C48.975 47.2863 48.2273 45.4457 47.6222 43.7319L47.6438 47.409C47.6309 47.5106 47.6309 47.7729 47.4925 47.8449C47.458 47.8576 47.3758 47.8576 47.3283 47.866C47.3153 47.866 47.2808 47.8872 47.2721 47.8872L47.2246 47.866C47.2246 47.866 47.1425 47.8449 47.1208 47.8449C46.6411 47.811 46.3169 47.8914 45.8242 47.8576L45.8199 47.8533Z" fill="white"/>
<path d="M54.3531 40.0884C54.3531 40.0546 54.366 40.0334 54.4006 40.0081C54.5735 39.9742 54.6686 39.9742 54.8199 39.9742C55.4595 39.9742 57.0112 39.9403 57.6552 39.953C59.2198 39.9996 59.6131 41.4256 59.6131 42.6823C59.6131 43.8713 59.2501 44.98 57.8972 45.0223C57.7114 45.0223 56.5314 45.0561 56.5185 45.0561L56.4968 45.0688V45.2296C56.4968 45.9955 56.566 46.736 56.566 47.4807V47.7219C56.4709 48.0435 55.9955 47.9377 55.7361 47.9377H55.399C55.3515 47.925 54.8501 47.8912 54.7334 47.8827C54.4654 47.8489 54.4049 47.7092 54.4309 47.4596C54.4438 46.9095 54.3358 40.8586 54.3487 40.0927L54.3531 40.0884ZM56.4147 43.389C56.4147 43.389 56.4363 43.4101 56.4363 43.4228C56.4709 43.4228 56.5055 43.4355 56.5401 43.4355C56.6913 43.4355 57.3224 43.4228 57.4607 43.389C57.8799 43.3086 57.9621 41.4129 57.2489 41.379C57.0025 41.3663 56.4536 41.324 56.3153 41.3452L56.2937 41.3579V41.506C56.2937 41.9968 56.2462 42.7839 56.3499 43.2662C56.3629 43.2789 56.4104 43.3678 56.4104 43.3932L56.4147 43.389Z" fill="white"/>
<path d="M60.7097 47.3878C60.7097 46.9308 60.6492 41.0618 60.6405 40.8884C60.6405 40.7064 60.6276 40.5329 60.6405 40.351C60.6535 40.1902 60.7572 40.1436 60.8048 39.9744L60.8523 39.9405C60.8523 39.9405 61.0166 39.9278 61.0857 39.9405C61.6217 39.9532 64.0939 39.8728 64.6342 39.9955C64.9151 40.0082 64.82 40.0082 64.8892 40.2367L64.9583 40.9899L64.8892 41.54C64.8892 41.5612 64.7855 41.6542 64.7595 41.6754C64.5737 41.722 64.457 41.6966 64.2798 41.6881C64.1155 41.6754 62.8448 41.6289 62.6806 41.6416C62.6806 41.6754 62.659 41.777 62.659 41.8023V42.0308C62.646 42.1789 62.7152 42.7967 62.7281 42.8052L62.7497 42.839C62.7713 42.8517 62.8189 42.8602 62.8794 42.8602C63.3332 42.9279 63.8476 42.8602 64.3273 42.8602C64.3489 42.8729 64.4916 42.8814 64.4916 42.8814C64.5607 42.9744 64.5521 42.9618 64.5391 43.0506C64.5391 43.2664 64.5261 44.1804 64.4916 44.4554C64.4916 44.4893 64.4224 44.6162 64.4094 44.6162C64.2927 44.7178 62.7281 44.5951 62.7195 44.6501L62.7065 45.873C62.7065 45.9068 62.7195 46.0211 62.7411 46.0676C62.7627 46.0676 62.8448 46.0803 62.8578 46.0803C63.4975 46.1269 64.2106 46.0803 64.8633 46.1269C64.9324 46.1395 64.9324 46.2199 64.9583 46.2623C65.0405 46.7066 65.0405 46.88 65.0059 47.3117C64.9929 47.3582 64.9843 47.5867 64.9713 47.6332C64.9584 47.7136 64.9108 47.794 64.8546 47.849C64.6817 47.8025 63.7352 47.9844 60.7832 47.8702C60.6319 47.7686 60.714 47.5275 60.714 47.3794L60.7097 47.3878Z" fill="white"/>
<path d="M66.0655 41.5401C66.0655 41.4258 66.0655 40.5118 66.0526 40.3976C66.0655 40.2706 66.0396 40.1691 66.0526 40.0548C66.0655 39.839 66.2038 39.8856 66.3897 39.8856C66.4589 39.8856 66.8781 39.8856 66.9516 39.8983C66.9645 39.8983 67.2412 39.911 67.2887 39.911C67.4529 39.911 68.2698 39.9787 68.0926 40.0464L70.2148 44.0324C70.2148 44.0324 70.2494 44.1593 70.2969 44.1678L70.3099 44.1551L70.3315 44.1339L70.1327 40.3637V40.3172C70.1327 40.1691 70.1327 39.9617 70.3185 39.9617C70.6081 39.949 70.6686 39.9406 70.9582 39.949H71.0403C71.1095 39.9617 71.9739 40.0167 72.0431 40.0294C72.0776 40.0294 72.2419 40.0083 72.2765 40.0845C72.2419 40.4272 72.2894 40.7699 72.311 41.1254V41.6374C72.2981 42.3694 72.4061 47.0494 72.3326 47.464C72.3197 47.6248 72.2635 47.8279 72.0992 47.9083C71.2953 47.8872 71.4596 47.8956 70.2926 47.9422C70.2234 47.9422 70.1889 47.8068 70.1543 47.7475C69.9079 47.4175 68.3563 44.5613 68.1488 43.9308L68.3217 47.7095V47.7222C68.2742 47.8153 68.2266 47.9041 68.0883 47.9041C67.95 47.8914 67.8074 47.8703 67.6561 47.8703C67.3751 47.8576 67.1072 47.8914 66.8392 47.883C66.7225 47.8703 66.3854 47.8618 66.2687 47.756C66.2471 47.7349 66.152 47.6418 66.152 47.6418L66.1649 47.426L66.0612 41.5316L66.0655 41.5401Z" fill="white"/>
<path d="M77.9902 40.0631H78.3057C78.4095 40.2577 78.457 42.1322 78.3749 42.1069C77.9772 42.5977 77.0437 44.2649 75.5871 46.059L78.0032 45.9913H78.3187C78.3317 46.0124 78.4354 46.0717 78.4484 46.0844C78.4484 46.0844 78.47 46.1055 78.47 46.1182C78.4829 46.1394 78.4916 46.2917 78.4916 46.3129C78.5262 46.8164 78.5132 47.193 78.5132 47.705C78.5132 47.7727 78.4916 47.7516 78.444 47.7981C77.8606 47.9928 74.3855 47.8193 73.6508 47.925C73.5557 47.9124 73.439 47.7643 73.4174 47.6839C73.4174 47.5696 73.3828 47.0661 73.3828 46.9518V46.8968L73.4865 45.7882L76.0755 42.0518V42.0307C76.0755 41.9968 76.028 41.9968 76.0064 41.9968C75.1203 41.9291 73.6162 42.0899 73.452 41.9291C73.452 41.4383 73.3569 40.5708 73.5211 40.1139C73.6249 40.0546 73.7675 40.0673 73.8712 40.0673C73.9058 40.0673 73.9749 40.0546 74.0009 40.0885C74.1867 40.0885 75.4358 40.0081 77.6272 40.0885C77.7222 40.0546 77.8951 40.0673 77.9902 40.0673V40.0631Z" fill="white"/>
<path d="M81.2014 40.055C81.3527 39.9619 81.4002 39.9535 81.5645 39.9281C81.9621 39.835 82.9303 39.9281 83.3625 39.9281C83.9935 39.9281 84.0151 40.0085 84.1794 40.4993L85.8953 47.6166C85.9169 48.027 84.3436 47.9382 84.3436 47.9382C83.7256 47.9382 83.665 47.3881 83.5527 46.9311L83.4489 46.4741L81.9103 46.5206L81.7806 47.3077C81.7114 47.6843 81.8022 47.7647 81.4089 47.9001C81.2792 47.9128 81.2317 47.9212 81.223 47.9212H80.8038C80.7562 47.9212 80.4883 47.9001 80.4062 47.8874H80.3716C80.1511 47.8747 79.5763 47.8535 79.5547 47.6039V47.5489C79.5763 47.4939 79.6109 47.2273 79.6238 47.1723C79.6368 47.1384 79.6584 47.0242 79.6584 47.0242L81.2101 40.055H81.2014ZM82.1826 45.0227L82.7055 45.0354L83.1377 45.0016L82.658 42.8181C82.6234 43.0255 82.5067 43.3301 82.1782 45.0227H82.1826Z" fill="white"/>
<path d="M90.6539 45.5684C90.9564 45.5684 91.5529 46.677 91.5399 46.7786C91.5183 46.9605 91.4448 47.0536 91.3281 47.189L91.2936 47.2102C90.5588 47.8153 89.6468 48.0776 88.7392 47.9507C88.7176 47.9507 88.6009 47.938 88.6009 47.938C86.8029 47.7306 86.3145 45.5388 86.3145 44.0789V43.9308C86.3145 42.4668 86.8029 40.2749 88.6009 40.0718C88.6009 40.0718 88.7176 40.0591 88.7392 40.0591C89.6511 39.9321 90.5588 40.1945 91.2936 40.7996L91.3281 40.8207C91.4448 40.9561 91.514 41.0492 91.5399 41.2312C91.5529 41.3327 90.9564 42.4414 90.6539 42.4414C90.5847 42.4414 90.3643 42.306 90.3254 42.234C88.7046 40.8419 88.1903 42.3821 88.2032 43.9943C88.2162 45.6742 88.6916 47.1679 90.3254 45.763C90.36 45.6953 90.5804 45.5557 90.6539 45.5557V45.5684Z" fill="white"/>
<path d="M92.7684 47.1934C92.7122 45.5474 92.7122 45.4247 92.6517 43.5967C92.6301 42.8308 92.6042 41.7687 92.5566 40.1692C92.9413 39.7926 93.8057 39.9196 94.4368 40.0084C94.5319 40.0211 94.5664 40.2158 94.5664 40.2158L94.601 40.3089C94.7307 41.7814 94.7869 45.0015 94.8344 47.5065L94.8214 47.6546C94.7047 47.8027 94.5751 47.7689 94.4497 47.8027C94.4368 47.8154 94.3806 47.8366 94.3806 47.8493C94.2423 47.9297 93.9959 47.8958 93.8662 47.8958C93.4816 47.8958 93.1445 47.7943 92.7944 47.735C92.7814 47.5404 92.7814 47.3584 92.7727 47.1976L92.7684 47.1934Z" fill="white"/>
<path d="M52.8065 60.7976C53.3295 60.7976 53.779 61.0303 54.0167 61.4026C54.0167 61.4238 54.0426 61.4238 54.0426 61.4492C55.1578 62.9852 55.0627 63.1925 54.9935 63.3787V63.3999C53.5672 65.7272 50.8572 65.7272 50.0965 65.7272C46.0813 65.7272 44.3438 61.6311 44.3438 57.6071V57.5605C44.3438 53.5364 46.0769 49.4404 50.0965 49.4404C50.8572 49.4404 53.5672 49.4404 54.9935 51.7677V51.7889C55.067 51.975 55.1621 52.1824 54.0426 53.7184C54.0426 53.7395 54.0167 53.7395 54.0167 53.7649C53.779 54.1373 53.3295 54.37 52.8065 54.37C52.7806 54.3446 52.759 54.2981 52.7114 54.2769C52.1409 53.7649 50.7146 52.4828 49.526 53.2741C47.7193 54.4843 48.3158 60.9753 49.526 61.7665C50.7837 62.6298 52.3311 61.208 52.8065 60.7891V60.7976Z" fill="white"/>
<path d="M58.3691 54.721C58.3951 54.374 58.6285 52.7196 58.7279 52.3726C58.9181 51.302 59.9165 50.0918 60.984 49.766C62.3844 49.326 66.3089 49.1355 67.6401 50.0453C69.516 51.3232 70.3026 52.7915 70.3026 55.6773C70.3026 58.2839 71.2059 64.8468 66.7844 65.545C66.1922 65.6381 64.5282 65.7565 63.9317 65.7565C63.815 65.7565 63.2661 65.7312 63.1494 65.7312C63.0543 65.71 62.9593 65.71 62.8642 65.6846C61.9608 65.545 60.7982 65.3842 60.2493 64.7537C58.7279 63.0315 58.4902 60.59 58.421 57.7507C58.3951 57.1245 58.3735 56.3332 58.3735 55.7281V54.7252L58.3691 54.721ZM62.3887 60.2388C62.553 61.5167 63.1019 62.0541 64.1003 62.0541H64.2905C65.2889 62.0752 66.4775 62.0752 66.404 59.2613C66.404 58.982 66.3824 57.1668 66.3824 57.006V56.6336C66.3824 56.0751 66.3565 55.5631 66.3349 54.9834V54.7972C66.3132 53.075 65.0296 53.1215 64.2429 53.1469H64.0312C62.6048 53.1469 62.5357 53.6801 62.298 55.4277V56.312C62.3455 56.7986 62.177 58.4277 62.3931 60.243L62.3887 60.2388Z" fill="white"/>
<path d="M74.8673 65.7779C74.6296 65.7779 74.2492 65.706 74.2017 65.4267C74.1066 64.4493 74.2233 63.5437 74.2492 62.5663C74.3918 58.4703 79.2154 56.9131 79.4055 54.095C79.4531 53.4222 79.1203 53.0033 78.4547 53.0033C77.171 53.0033 77.4822 53.913 77.0543 55.119C77.0067 55.2586 77.0067 55.6775 76.8166 55.6775C76.0559 55.631 73.7262 55.2375 73.7522 54.6535C73.7997 53.3037 74.059 51.535 75.7015 50.1851C75.7274 50.1851 75.7965 50.1598 75.8225 50.1386C75.87 50.1174 76.1077 49.9524 76.1077 49.927C76.2979 49.8551 77.1321 49.5081 77.3179 49.4616C77.7934 49.3431 78.2688 49.3008 78.7442 49.3008C79.1462 49.3008 79.4099 49.3008 79.8118 49.3473C82.1631 49.7451 83.1874 52.047 83.0448 54.095C82.686 59.2615 79.9544 58.4449 78.7918 62.3547C79.0987 62.3547 79.2672 62.4012 79.5309 62.3335C79.8637 62.3082 81.0739 62.1939 81.4067 62.1939H81.6228C82.0031 62.1939 82.2409 62.1939 82.6904 62.2405C82.8546 62.2658 82.9065 62.3124 82.9497 62.4732C82.9497 63.5903 83.0448 64.0769 82.9756 65.2194C82.9756 65.4056 82.9497 65.5452 82.8805 65.7314L74.8716 65.7779H74.8673Z" fill="white"/>
<path d="M28.0953 79.0007C28.2898 79.115 28.441 79.2039 28.5923 79.2927C28.6744 79.3393 28.7479 79.3139 28.7868 79.2419C28.843 79.1404 28.7306 79.1404 28.6831 79.1277C28.5059 79.0727 28.346 78.9584 28.0996 79.0007M30.2088 79.8513C30.1872 79.8174 30.1785 79.7836 30.1569 79.7751C29.8803 79.6397 29.6037 79.5 29.3184 79.3816C29.219 79.3393 29.1499 79.4535 29.1023 79.5254C29.0375 79.6228 29.1585 79.6439 29.2061 79.682C29.3746 79.8132 29.5518 79.9359 29.7247 80.0628C29.7809 80.1051 29.8328 80.1855 29.9192 80.1178C30.0186 80.0374 30.1094 79.9444 30.2088 79.8555M32.0284 81.2095C31.9852 81.1588 31.9463 81.108 31.8988 81.0657C31.661 80.8541 31.4363 80.6298 31.1813 80.4437C30.7664 80.1348 30.922 80.1221 30.52 80.4817C30.3903 80.596 30.4249 80.6595 30.5373 80.7652C30.7966 81.0149 31.0603 81.2688 31.2893 81.5481C31.4449 81.7427 31.553 81.7681 31.7043 81.565C31.7994 81.4423 31.9463 81.3661 32.0241 81.2138M32.1581 84.3577C31.9031 84.4085 31.687 84.5693 31.419 84.582C31.3887 84.582 31.3628 84.5735 31.3326 84.5693C31.0559 84.1588 30.7404 83.7865 30.2996 83.5411C29.4784 83.0798 28.6485 83.1645 27.8187 83.5241C27.8014 83.5241 27.7798 83.5241 27.7625 83.5241C27.2006 82.7794 26.898 81.9162 26.5782 81.0572C26.1287 79.8386 25.3291 78.9034 24.1924 78.2433C24.1146 78.1968 24.0195 78.1672 23.959 78.0656C24.3177 77.8413 24.7024 77.6721 25.0914 77.5197C26.5393 76.9527 28.0218 76.6862 29.5691 77.0374C31.2288 77.4182 32.465 78.3279 33.217 79.8386C33.0312 80.5325 32.8453 81.2265 32.6638 81.9204C32.6162 81.8612 32.5817 81.7427 32.4779 81.8358C32.3007 81.9966 32.0933 82.1489 31.9895 82.352C31.929 82.4705 32.1408 82.6228 32.2186 82.7667C32.2618 82.8471 32.3137 82.9233 32.3612 83.0037C32.3223 83.4607 32.1667 83.9007 32.1624 84.3577" fill="white"/>
<path d="M61.3154 80.2873C60.9956 81.1547 60.6887 81.9798 60.3775 82.805C60.3602 82.8473 60.3343 82.9234 60.3732 82.9277C60.5504 82.9446 60.7276 82.9531 60.9048 82.9404C61.0301 82.9319 61.0085 82.805 61.0215 82.7203C61.1339 82.0221 61.2506 81.324 61.3543 80.63C61.3673 80.5369 61.4148 80.4354 61.3111 80.2873M61.4753 85.5512C61.229 85.5512 60.9826 85.5342 60.7406 85.5554C60.4985 85.5765 60.4726 85.475 60.5158 85.2803C60.5763 85.0095 60.6152 84.7345 60.6714 84.4679C60.706 84.3113 60.6887 84.2352 60.4899 84.2394C60.0231 84.2394 60.0274 84.2309 59.8675 84.6668C59.7594 84.9588 59.7681 85.365 59.5174 85.5131C59.284 85.6485 58.9123 85.5512 58.6011 85.5554C58.3547 85.5554 58.1084 85.5427 57.8663 85.5554C57.62 85.5723 57.5595 85.5215 57.6589 85.2761C58.2337 83.8544 58.787 82.4284 59.3532 81.0024C59.6816 80.1688 60.0144 79.3394 60.3343 78.5016C60.3991 78.3324 60.4683 78.2562 60.6714 78.2604C61.4451 78.2731 62.2187 78.2689 62.9924 78.2604C63.1739 78.2604 63.2301 78.29 63.2085 78.4889C62.9621 80.7527 62.7244 83.0165 62.491 85.2761C62.4694 85.475 62.4132 85.5723 62.1842 85.5512C61.9508 85.53 61.713 85.5469 61.4753 85.5469" fill="white"/>
<path d="M93.9993 83.5029C93.9993 83.6383 93.9777 83.7314 94.0728 83.7737C94.1722 83.8244 94.2759 83.8075 94.3667 83.744C94.4618 83.6763 94.505 83.5706 94.5353 83.4648C94.8032 82.5931 95.0193 81.7087 95.2225 80.8201C95.2441 80.7186 95.27 80.6086 95.149 80.5536C95.0237 80.4985 94.907 80.5409 94.8162 80.6382C94.7125 80.7524 94.6693 80.8963 94.6304 81.0359C94.518 81.4422 94.4099 81.8526 94.3062 82.2631C94.1981 82.6904 94.0901 83.1178 93.995 83.4986M95.4818 80.0119C95.5596 79.5761 95.8492 79.5549 96.1863 79.5761C96.5235 79.5973 96.8649 79.5846 97.2064 79.5761C97.3576 79.5761 97.4268 79.5846 97.3792 79.7707C96.9168 81.5099 96.4629 83.249 96.0178 84.9881C95.8362 85.6905 95.3738 86.1221 94.7038 86.3548C93.9302 86.6256 93.1306 86.6553 92.3396 86.4352C91.7518 86.2744 91.5271 85.8217 91.6827 85.2504C91.7172 85.132 91.7821 85.1108 91.8858 85.115C92.3699 85.115 92.8496 85.115 93.3294 85.115C93.4115 85.115 93.5109 85.0939 93.498 85.2335C93.485 85.3647 93.5109 85.4832 93.6708 85.5043C93.848 85.5297 93.9907 85.4662 94.0685 85.3054C94.1895 85.0558 94.2414 84.7892 94.3148 84.4761C94.1765 84.5522 94.0771 84.603 93.982 84.6538C93.5628 84.8696 93.1219 84.9288 92.6681 84.7934C92.2748 84.6792 92.0889 84.4126 92.0803 84.0149C92.076 83.6679 92.1711 83.3421 92.2575 83.012C92.439 82.3054 92.6206 81.603 92.8107 80.9005C92.9015 80.5578 93.0398 80.2362 93.2775 79.9654C93.8437 79.3138 94.8076 79.318 95.4861 80.0119" fill="white"/>
<path d="M32.1582 84.358C32.1582 83.8967 32.3138 83.4567 32.357 83.0039C32.5213 82.6612 32.5731 82.2888 32.6639 81.9249C32.8497 81.2309 33.0356 80.537 33.2171 79.843C33.5586 79.0348 34.1377 78.489 35.0065 78.2436C35.5727 78.087 36.1432 78.0701 36.7137 78.2097C37.4874 78.4001 37.8418 78.9079 37.764 79.678C37.7078 80.2196 37.5522 80.7443 37.4269 81.2733C37.3966 81.4044 37.3232 81.4467 37.1892 81.4425C36.6792 81.434 36.1692 81.4298 35.6591 81.4425C35.456 81.4467 35.4474 81.379 35.4906 81.214C35.6116 80.7697 35.7326 80.3254 35.8277 79.8727C35.8623 79.7076 36.0049 79.4791 35.7369 79.3733C35.5079 79.2845 35.2961 79.4199 35.2053 79.7373C34.9806 80.5158 34.7731 81.2986 34.57 82.0857C34.3971 82.7458 34.2415 83.4101 34.0816 84.0745C34.047 84.2183 33.9994 84.3876 34.1983 84.451C34.4014 84.5145 34.5743 84.4384 34.665 84.2395C34.8293 83.8756 34.9071 83.4863 35.0108 83.1055C35.1362 82.6358 35.1318 82.6358 35.6202 82.6358C36.0352 82.6358 36.4501 82.6442 36.865 82.6358C37.0422 82.6358 37.0638 82.6781 37.0206 82.8431C36.9082 83.2409 36.8002 83.6428 36.6532 84.0321C36.2772 85.0477 35.4733 85.5216 34.436 85.6824C34.0556 85.7416 33.6666 85.7247 33.282 85.6401C32.5299 85.4751 32.2057 85.1112 32.1582 84.3664" fill="white"/>
<path d="M65.2354 84.341C65.2268 84.5568 65.3219 84.6076 65.4818 84.5864C65.6763 84.561 65.7368 84.4087 65.7844 84.2606C66.1172 83.1308 66.3938 81.9841 66.6747 80.8416C66.705 80.7231 66.7136 80.5919 66.5537 80.5454C66.4154 80.5073 66.2814 80.5454 66.2122 80.6766C66.1517 80.7908 66.1042 80.9135 66.0739 81.0362C65.8103 82.0306 65.5553 83.0292 65.296 84.0279C65.2657 84.1421 65.2484 84.2606 65.2311 84.341M66.9168 79.9445C67.0507 79.4283 67.1804 78.9671 67.2885 78.5016C67.3274 78.3281 67.3879 78.2562 67.5824 78.2604C68.0535 78.2774 68.5246 78.2689 69 78.2604C69.1686 78.2604 69.2118 78.3027 69.1686 78.4678C68.5721 80.7612 67.9757 83.0546 67.3879 85.3481C67.349 85.5004 67.2841 85.5554 67.1199 85.5554C66.6963 85.5427 66.2684 85.5554 65.8449 85.5554C65.623 85.5554 65.5049 85.4552 65.4905 85.255C65.3694 85.2296 65.3046 85.3269 65.2182 85.3734C64.8767 85.5639 64.518 85.695 64.116 85.6485C63.5152 85.5766 63.2213 85.1957 63.3164 84.6076C63.4158 84.0067 63.593 83.4228 63.7486 82.8388C63.9561 82.0645 64.1117 81.2732 64.3797 80.5158C64.6174 79.8472 65.2225 79.4579 65.9486 79.4791C66.3246 79.4918 66.6445 79.6272 66.9168 79.9488" fill="white"/>
<path d="M53.9238 80.0459C54.33 79.6693 54.7363 79.462 55.2377 79.4747C55.9033 79.4916 56.2361 79.8343 56.1497 80.4818C56.033 81.3703 55.7347 82.2209 55.5273 83.0883C55.3457 83.833 55.1426 84.5693 54.9611 85.314C54.9178 85.496 54.8444 85.5679 54.6412 85.5595C54.1874 85.5425 53.7336 85.5425 53.2841 85.5595C53.0636 85.5679 53.0377 85.5002 53.0896 85.3098C53.444 83.9727 53.7854 82.6355 54.1312 81.2942C54.1701 81.1419 54.2047 80.9895 54.2306 80.833C54.2479 80.7272 54.2868 80.6002 54.1399 80.5495C54.0015 80.5029 53.8676 80.5495 53.7941 80.6722C53.7293 80.7822 53.6817 80.9049 53.6515 81.0276C53.2754 82.4451 52.8994 83.8627 52.5407 85.2802C52.4888 85.4875 52.411 85.5637 52.1863 85.5552C51.7324 85.5383 51.2786 85.5383 50.8291 85.5552C50.6303 85.5595 50.6173 85.496 50.6562 85.331C51.1403 83.4734 51.62 81.62 52.0955 79.7624C52.1344 79.6185 52.2035 79.5762 52.3505 79.5762C52.813 79.5847 53.2754 79.5889 53.7379 79.5762C53.9843 79.5678 54.075 79.6228 53.954 79.8597C53.9367 79.8894 53.941 79.9317 53.9281 80.0417" fill="white"/>
<path d="M81.3882 79.5848C81.4185 79.7372 81.2931 79.8472 81.332 79.9784C81.4444 79.9657 81.492 79.8768 81.5654 79.8218C81.9458 79.5383 82.3694 79.4198 82.8448 79.4917C83.3505 79.5679 83.6098 79.9191 83.5493 80.4184C83.4715 81.032 83.2857 81.6244 83.1344 82.221C82.875 83.2492 82.5984 84.2732 82.3434 85.3015C82.3002 85.4834 82.2397 85.5638 82.0279 85.5554C81.5827 85.5384 81.1375 85.5342 80.6967 85.5554C80.4374 85.5681 80.4287 85.4792 80.4806 85.2676C80.8436 83.884 81.1981 82.5003 81.5525 81.1166C81.5741 81.0277 81.5914 80.9347 81.6087 80.8458C81.6346 80.7273 81.6821 80.5961 81.5136 80.5454C81.358 80.4988 81.2283 80.5581 81.1548 80.6935C81.0986 80.7993 81.0597 80.9135 81.0295 81.0277C80.6535 82.4453 80.2774 83.8628 79.9187 85.2846C79.8625 85.5046 79.7717 85.5596 79.56 85.5511C79.1148 85.5342 78.6739 85.5384 78.2287 85.5511C78.0559 85.5511 77.991 85.5173 78.0386 85.3353C78.5226 83.4777 79.0024 81.6244 79.4865 79.7668C79.5081 79.6779 79.5124 79.5806 79.6464 79.5806C80.2299 79.5806 80.8134 79.5806 81.3925 79.5806" fill="white"/>
<path d="M75.8371 82.75C75.7679 82.7796 75.7334 82.7923 75.6988 82.8092C75.1023 83.1139 74.9899 83.6809 74.8862 84.2479C74.8646 84.3748 74.8171 84.5229 74.9899 84.5737C75.1628 84.6245 75.3141 84.5737 75.3789 84.396C75.5734 83.8671 75.6815 83.3212 75.8371 82.75ZM75.2666 85.0772C74.8214 85.5342 74.3546 85.7289 73.7841 85.6316C73.2179 85.5342 72.9845 85.2677 73.0363 84.7176C73.0882 84.1929 73.2308 83.6851 73.4297 83.1985C73.542 82.9319 73.7408 82.75 74.0045 82.6188C74.5275 82.3607 75.0937 82.2041 75.6296 81.9798C76.0402 81.8106 76.399 81.1209 76.2952 80.702C76.2736 80.6089 76.2174 80.5539 76.1223 80.5454C75.9797 80.5327 75.863 80.5793 75.8025 80.7231C75.6772 81.0236 75.5994 81.3367 75.5302 81.6498C75.487 81.8444 75.4049 81.9164 75.1931 81.9079C74.7695 81.891 74.3416 81.8995 73.9181 81.9079C73.7668 81.9079 73.7279 81.8698 73.7581 81.7133C74.0996 79.9911 75.5259 79.1194 77.272 79.5722C77.8944 79.733 78.2013 80.1307 78.1278 80.7485C78.0198 81.6456 77.7431 82.513 77.5227 83.3847C77.3585 84.0363 77.1813 84.688 77.0257 85.3438C76.9868 85.5089 76.9176 85.5681 76.7404 85.5639C76.3082 85.5512 75.8717 85.5469 75.4351 85.5639C75.1974 85.5723 75.1239 85.5046 75.219 85.2888C75.2363 85.2465 75.2363 85.2 75.2579 85.0857" fill="white"/>
<path d="M48.4535 82.75C47.6842 83.0843 47.5805 83.7359 47.4854 84.3875C47.4724 84.4891 47.5199 84.5695 47.6366 84.5864C47.7749 84.6076 47.9133 84.5864 47.9738 84.4468C48.1985 83.9094 48.2936 83.3381 48.4578 82.75M47.8095 85.1704C47.3989 85.5385 46.9365 85.7374 46.3659 85.6273C45.8257 85.5216 45.6052 85.2423 45.6528 84.7134C45.6614 84.6033 45.6744 84.4933 45.7003 84.3875C46.0461 82.8346 46.1152 82.7584 47.6496 82.2084C47.7749 82.1618 47.8916 82.1068 48.0213 82.0772C48.7129 81.9291 48.8598 81.4171 48.9117 80.8374C48.9246 80.7147 48.929 80.5793 48.769 80.5496C48.6178 80.52 48.4924 80.575 48.4276 80.7274C48.3066 81.0193 48.2288 81.324 48.1683 81.6287C48.125 81.836 48.0429 81.9164 47.8182 81.9079C47.3946 81.891 46.9667 81.9079 46.5431 81.8995C46.4697 81.8995 46.3357 81.9545 46.3746 81.7725C46.5691 80.9093 46.8587 80.118 47.7793 79.733C48.5054 79.4325 49.2488 79.3945 49.9965 79.6018C50.606 79.7711 50.8566 80.2365 50.7443 80.9009C50.6276 81.5821 50.446 82.2507 50.2731 82.9192C50.0614 83.7317 49.8496 84.5441 49.6508 85.3565C49.6119 85.5131 49.547 85.5681 49.3871 85.5639C48.9722 85.5554 48.5573 85.5639 48.1423 85.5639C47.9118 85.5639 47.8182 85.4496 47.8614 85.2211C47.8787 85.1915 47.8916 85.1661 47.8614 85.1365C47.8484 85.1534 47.8311 85.1661 47.8182 85.183" fill="white"/>
<path d="M89.5084 82.75C89.4349 82.7838 89.4004 82.7923 89.3701 82.8092C88.778 83.1139 88.657 83.6767 88.5532 84.2479C88.5273 84.3833 88.4841 84.5399 88.6872 84.5822C88.8687 84.6245 89.007 84.5526 89.0676 84.3791C89.2491 83.8586 89.3615 83.317 89.5127 82.75M88.899 85.1407C88.5835 85.4158 88.2809 85.6104 87.8963 85.6485C87.6931 85.6654 87.4986 85.6527 87.3084 85.5977C86.846 85.4665 86.6601 85.2338 86.7033 84.7641C86.7595 84.2056 86.9022 83.6597 87.1312 83.1393C87.2523 82.8685 87.477 82.7119 87.7363 82.585C88.2593 82.3311 88.8255 82.1787 89.3615 81.9502C89.7159 81.7979 90.0746 81.0574 89.9666 80.6893C89.9406 80.6004 89.8844 80.5454 89.7894 80.5369C89.6424 80.5285 89.5214 80.5793 89.4738 80.7189C89.3744 81.0363 89.2707 81.3536 89.1972 81.6752C89.1583 81.8445 89.0892 81.8995 88.9163 81.8952C88.4711 81.8868 88.0302 81.8952 87.5851 81.8952C87.4943 81.8952 87.3906 81.9122 87.4251 81.7514C87.6153 80.8966 87.9092 80.118 88.8169 79.733C89.5516 79.4199 90.3037 79.386 91.0601 79.5976C91.6047 79.7499 91.8726 80.1604 91.8078 80.7147C91.6997 81.616 91.4274 82.4792 91.2113 83.3551C91.0471 84.0152 90.8612 84.6753 90.7013 85.3354C90.6624 85.5046 90.589 85.5554 90.4117 85.5512C90.0271 85.5385 89.6381 85.5512 89.2491 85.5512C88.8601 85.5512 88.8558 85.5512 88.8947 85.1407" fill="white"/>
<path d="M100.016 81.6877C100.232 81.7681 100.297 81.6327 100.332 81.4465C100.371 81.2477 100.427 81.0572 100.461 80.8584C100.483 80.7356 100.526 80.5833 100.345 80.5452C100.176 80.5071 100.051 80.5833 99.9947 80.7483C99.9212 80.9726 99.8694 81.2053 99.7872 81.4296C99.7094 81.6454 99.744 81.747 100.016 81.6919M100.673 82.6779C100.345 82.6779 100.012 82.6863 99.6835 82.6779C99.5236 82.6736 99.4501 82.716 99.4155 82.8767C99.3161 83.3253 99.1951 83.7696 99.087 84.2181C99.0568 84.345 98.9876 84.5101 99.1735 84.5735C99.355 84.6328 99.5106 84.5651 99.6057 84.3958C99.731 84.1758 99.7829 83.9304 99.8477 83.6892C100.016 83.0502 100.012 83.0502 100.695 83.0502C100.997 83.0502 101.3 83.0502 101.603 83.0502C101.689 83.0502 101.78 83.0418 101.745 83.1814C101.585 83.8077 101.443 84.4339 100.946 84.9205C100.215 85.6314 98.9574 85.8853 98.0065 85.4791C97.449 85.2421 97.1896 84.7851 97.2761 84.1546C97.3841 83.3507 97.6478 82.5763 97.8379 81.7893C97.9071 81.4931 97.9979 81.2011 98.1189 80.9218C98.6592 79.7074 100.232 79.1066 101.477 79.6397C102.087 79.9021 102.329 80.4014 102.216 81.2096C102.156 81.6581 102.022 82.0897 101.909 82.5298C101.875 82.6609 101.81 82.6821 101.689 82.6821C101.348 82.6779 101.01 82.6821 100.669 82.6821" fill="white"/>
<path d="M43.3531 81.6917C43.5821 81.751 43.6686 81.641 43.6988 81.4294C43.7248 81.2474 43.7896 81.0739 43.8242 80.892C43.8501 80.7608 43.9149 80.5958 43.7161 80.545C43.5346 80.4985 43.4049 80.5916 43.3487 80.7651C43.2796 80.9935 43.2234 81.2263 43.1456 81.4548C43.0764 81.6537 43.124 81.734 43.3487 81.6917M44.0316 82.6777C43.6902 82.6777 43.3531 82.6819 43.0116 82.6777C42.8863 82.6777 42.8214 82.7073 42.7912 82.83C42.6788 83.287 42.5535 83.7397 42.4497 84.1967C42.4238 84.3237 42.3374 84.5141 42.5491 84.5733C42.7609 84.6368 42.9165 84.531 43.003 84.3406C43.1542 84.0105 43.2234 83.6551 43.3055 83.3039C43.3487 83.105 43.4309 83.0331 43.647 83.0458C44.0619 83.0627 44.4768 83.0627 44.8917 83.0458C45.1165 83.0373 45.1381 83.1177 45.0906 83.2997C44.9263 83.8878 44.7707 84.4675 44.3039 84.9245C43.5821 85.6312 42.2682 85.8808 41.3389 85.4619C40.8203 85.2292 40.5437 84.751 40.6431 84.1713C40.8203 83.1262 41.071 82.0937 41.4254 81.0951C41.9008 79.7749 43.3574 79.1317 44.7232 79.5929C45.3023 79.7876 45.6135 80.2065 45.6135 80.8031C45.6135 81.4082 45.419 81.9837 45.2764 82.5634C45.2462 82.6946 45.1511 82.6777 45.056 82.6777H44.036" fill="white"/>
<path d="M70.7029 83.6174C70.8974 83.0547 71.0919 82.4919 71.2864 81.9291C71.5284 81.2224 71.7791 80.52 72.0168 79.8092C72.073 79.6441 72.1378 79.5722 72.328 79.5764C72.7343 79.5934 73.1406 79.5849 73.5425 79.5764C73.7197 79.5764 73.75 79.6187 73.6808 79.7838C72.9201 81.6456 72.1681 83.5117 71.4204 85.3777C71.3642 85.5173 71.2864 85.5512 71.1481 85.5512C70.4781 85.547 69.8082 85.5512 69.1383 85.5512C69.0043 85.5512 68.9092 85.5554 68.9308 85.365C69.1296 83.5159 69.3198 81.6667 69.5013 79.8134C69.5186 79.6187 69.5878 79.5722 69.7736 79.5764C70.1713 79.5891 70.5646 79.5891 70.9622 79.5764C71.1437 79.5722 71.187 79.623 71.1653 79.7965C70.9968 80.9559 70.8412 82.111 70.6769 83.2705C70.6597 83.3805 70.651 83.4863 70.638 83.5963C70.6597 83.6047 70.6769 83.609 70.6986 83.6174" fill="white"/>
<path d="M38.304 85.5512C38.0793 85.5512 37.8502 85.53 37.6255 85.5554C37.3618 85.585 37.3402 85.4919 37.3964 85.2677C37.8632 83.4947 38.3213 81.7175 38.7795 79.9403C38.9048 79.4495 39.0345 78.9586 39.1555 78.4678C39.1901 78.3197 39.2506 78.2562 39.4192 78.2605C39.9205 78.2731 40.4219 78.2731 40.9189 78.2605C41.0961 78.2605 41.1221 78.3112 41.0789 78.4678C40.4824 80.7612 39.8903 83.0546 39.3025 85.3481C39.2636 85.4919 39.2074 85.5639 39.0388 85.5554C38.7968 85.5385 38.5461 85.5554 38.304 85.5554" fill="white"/>
<path d="M86.7679 79.6988C87.0935 79.727 87.2174 79.8907 87.1396 80.1897C87.118 80.2701 87.0921 80.3505 87.0791 80.4309C87.0575 80.6213 86.9624 80.7101 86.7593 80.6721C86.5561 80.634 86.487 80.7313 86.4394 80.9132C86.1671 82.0219 85.8862 83.1305 85.5966 84.2391C85.5318 84.4888 85.6009 84.5946 85.8603 84.5734C86.0547 84.5565 86.072 84.6242 86.0288 84.7977C85.8386 85.5551 85.843 85.5593 85.0434 85.5509C84.8186 85.5509 84.5895 85.5339 84.3648 85.517C83.7986 85.4747 83.5306 85.1447 83.6516 84.5988C83.8159 83.8795 84.0017 83.1644 84.1789 82.4492C84.3086 81.9415 84.4426 81.4337 84.5766 80.9259C84.6155 80.7821 84.65 80.6467 84.4123 80.6763C84.2567 80.6932 84.2394 80.617 84.2783 80.4901C84.3259 80.3505 84.3605 80.2066 84.3907 80.0627C84.4339 79.8554 84.4728 79.6607 84.7711 79.72C84.8618 79.7369 84.9007 79.6734 84.918 79.5888C84.931 79.5253 84.9483 79.4619 84.9656 79.4026C85.0722 78.9879 85.3402 78.7806 85.7695 78.7806C86.1023 78.7806 86.4308 78.7848 86.7593 78.7806C86.9321 78.7764 87.0013 78.8102 86.9408 78.9964C86.8673 79.2207 86.8198 79.4576 86.7549 79.7031" fill="white"/>
<path d="M31.3373 84.5735C31.3676 84.5735 31.3935 84.5819 31.4238 84.5862C31.1817 85.2378 30.6674 85.6271 30.058 85.8979C29.4313 86.173 28.7873 86.1053 28.1562 85.8725C27.4388 85.6102 26.838 85.1659 26.2718 84.675C26.1508 84.5693 26.2026 84.5227 26.2977 84.4465C26.7515 84.0826 27.2529 83.7949 27.7716 83.5283C27.7889 83.5283 27.8105 83.5283 27.8278 83.5283C27.8667 83.5918 27.8926 83.6637 27.9401 83.7187C28.623 84.5354 29.5134 84.8993 30.581 84.7893C30.836 84.7639 31.1342 84.7977 31.3417 84.5777" fill="white"/>
<path d="M103.55 79.204C103.166 79.204 102.863 79.4875 102.854 79.8598C102.846 80.2407 103.153 80.5538 103.542 80.558C103.931 80.558 104.242 80.2534 104.238 79.8725C104.233 79.4959 103.935 79.2124 103.55 79.2082M104.384 79.8683C104.384 80.3168 104.026 80.6765 103.563 80.685C103.096 80.6934 102.699 80.3211 102.703 79.8725C102.703 79.424 103.101 79.0432 103.559 79.0474C104.013 79.0559 104.384 79.4198 104.384 79.8641" fill="white"/>
<path d="M102.458 88.0854C102.449 88.1235 102.458 88.1743 102.393 88.1743C102.345 88.0981 102.415 88.1024 102.458 88.0854Z" fill="white"/>
<path d="M31.3362 84.5737C31.1287 84.7937 30.8305 84.7598 30.5755 84.7852C29.5036 84.8952 28.6175 84.5356 27.9346 83.7147C27.8871 83.6597 27.8612 83.5877 27.8223 83.5243C28.6521 83.1688 29.482 83.0842 30.3032 83.5412C30.7484 83.7866 31.0596 84.159 31.3362 84.5694" fill="white"/>
<path d="M47.8086 85.1701C47.8086 85.1701 47.8389 85.1405 47.8518 85.1235C47.8821 85.1532 47.8691 85.1785 47.8518 85.2082C47.8389 85.1955 47.8259 85.1828 47.8086 85.1701Z" fill="white"/>
<path d="M103.715 79.6778C103.689 79.5762 103.607 79.5678 103.52 79.5593C103.417 79.5551 103.399 79.6186 103.399 79.699C103.399 79.7794 103.447 79.8132 103.525 79.8047C103.611 79.7963 103.693 79.7836 103.711 79.6736M103.209 79.8767V79.7667C103.209 79.4197 103.365 79.3139 103.706 79.4324C103.892 79.4959 103.983 79.7032 103.845 79.8217C103.689 79.9613 103.762 80.0459 103.84 80.1644C103.87 80.211 103.94 80.2787 103.849 80.321C103.784 80.3506 103.724 80.321 103.685 80.2533C103.663 80.211 103.641 80.1729 103.615 80.1348C103.568 80.0713 103.555 79.9528 103.451 79.9825C103.365 80.0079 103.412 80.1094 103.404 80.1771C103.395 80.2533 103.404 80.3379 103.291 80.3252C103.201 80.3167 103.209 80.2406 103.209 80.1771C103.209 80.0756 103.209 79.974 103.209 79.8724" fill="white"/>
</svg>
