<svg width="111" height="79" viewBox="0 0 111 79" fill="none" xmlns="http://www.w3.org/2000/svg">
<path d="M79.0926 25.4014C79.0546 23.714 78.8685 22.0332 78.5366 20.3784H55.7188V29.8676H68.5176C68.294 31.3533 67.7702 32.7777 66.9781 34.0536C66.186 35.3296 65.1423 36.4303 63.9109 37.2884V43.4592H71.8535C76.4488 39.1862 79.0926 32.8677 79.0926 25.4014Z" fill="#4284F4"/>
<path d="M55.6354 49.3774C61.5895 49.5476 67.3829 47.4291 71.8269 43.4566L63.8843 37.2858C61.9935 38.4977 59.8514 39.2612 57.6214 39.5184C55.3913 39.7756 53.1321 39.5196 51.0157 38.77C48.8994 38.0203 46.9818 36.7968 45.409 35.1925C43.8363 33.5883 42.6499 31.6457 41.9401 29.5127H33.8047V35.8653C35.835 39.9233 38.9518 43.3359 42.8069 45.722C46.662 48.1081 51.1036 49.3737 55.6354 49.3774Z" fill="#59DC8E"/>
<path d="M41.9809 29.5148C40.9672 26.4838 40.9672 23.2045 41.9809 20.1734V13.8208H33.8228C32.1142 17.2434 31.2246 21.0175 31.2246 24.8441C31.2246 28.6707 32.1142 32.4448 33.8228 35.8674L41.9809 29.5148Z" fill="#FBBC04"/>
<path d="M55.6354 10.0584C59.112 10.0062 62.4699 11.3245 64.9849 13.7291L71.9857 6.6946C67.57 2.51943 61.7076 0.225419 55.6354 0.296527C51.1026 0.30256 46.6608 1.57038 42.8058 3.95843C38.9508 6.34648 35.8344 9.76074 33.8047 13.82L41.9628 20.1726C42.8937 17.2738 44.7073 14.7397 47.1492 12.9258C49.5912 11.1119 52.5388 10.1092 55.5787 10.0584H55.6354Z" fill="#EA4335"/>
<path d="M2.93808 74.3707C2.04864 73.8379 1.31338 73.0819 0.804937 72.1774C0.277172 71.2349 0 70.1725 0 69.092C0 68.0114 0.277172 66.949 0.804937 66.0066C1.33331 65.0923 2.0929 64.3336 3.0072 63.8069C3.92151 63.2802 4.95824 63.0041 6.01299 63.0064C6.84119 63.0028 7.66213 63.161 8.4298 63.4723C9.13928 63.7419 9.77361 64.1785 10.2793 64.7451L9.29213 65.7452C8.91606 65.2834 8.43308 64.9206 7.88517 64.6883C7.21971 64.4142 6.50155 64.2924 5.7831 64.3317C5.06464 64.3711 4.36402 64.5705 3.73234 64.9156C2.99176 65.3005 2.37145 65.8825 1.93959 66.5975C1.50736 67.3544 1.28779 68.2145 1.30418 69.0863C1.28911 69.9616 1.50852 70.8249 1.93959 71.5864C2.35134 72.2866 2.94298 72.8635 3.65291 73.257C4.34618 73.6457 5.12768 73.8492 5.92222 73.8479C6.59113 73.8666 7.25638 73.7426 7.87382 73.4842C8.3821 73.2529 8.84066 72.9248 9.22405 72.5183C9.52118 72.1843 9.75565 71.7993 9.91619 71.3819C10.092 70.9268 10.1991 70.448 10.2339 69.9613H5.9903V68.7113H11.5728C11.6253 68.9923 11.6518 69.2776 11.6522 69.5636C11.6537 70.2708 11.5387 70.9735 11.3118 71.6432C11.0789 72.3191 10.6902 72.9303 10.1772 73.4274C9.63321 74.0081 8.97033 74.4642 8.23395 74.7643C7.49757 75.0644 6.7051 75.2015 5.91087 75.1661C4.8672 75.1685 3.84153 74.894 2.93808 74.3707V74.3707Z" fill="white"/>
<path d="M15.0578 74.5849C14.4148 74.1993 13.8892 73.6453 13.5373 72.9826C13.1867 72.2946 13.0039 71.5332 13.0039 70.7608C13.0039 69.9885 13.1867 69.2271 13.5373 68.5391C13.8997 67.87 14.4356 67.3113 15.0887 66.922C15.7418 66.5327 16.4877 66.3271 17.2476 66.3271C18.0076 66.3271 18.7535 66.5327 19.4066 66.922C20.0596 67.3113 20.5956 67.87 20.958 68.5391C21.3159 69.2248 21.5028 69.9871 21.5028 70.7608C21.5028 71.5346 21.3159 72.2969 20.958 72.9826C20.6061 73.6453 20.0804 74.1993 19.4375 74.5849C18.7699 74.9644 18.0153 75.164 17.2476 75.164C16.48 75.164 15.7254 74.9644 15.0578 74.5849V74.5849ZM18.666 73.528C19.1206 73.2601 19.4873 72.8652 19.7212 72.3916C19.9919 71.8643 20.1332 71.2799 20.1332 70.687C20.1332 70.094 19.9919 69.5097 19.7212 68.9823C19.479 68.5366 19.1217 68.1642 18.6865 67.9043C18.2513 67.6444 17.7543 67.5065 17.2476 67.505C16.7448 67.5008 16.2504 67.6344 15.818 67.8914C15.3634 68.1593 14.9967 68.5543 14.7628 69.0278C14.492 69.5551 14.3508 70.1395 14.3508 70.7324C14.3508 71.3254 14.492 71.9098 14.7628 72.4371C14.9967 72.9106 15.3634 73.3055 15.818 73.5735C16.2504 73.8305 16.7448 73.9641 17.2476 73.9599C17.7526 73.9485 18.2441 73.7949 18.666 73.5167V73.528Z" fill="white"/>
<path d="M24.7313 74.5849C24.0883 74.1993 23.5627 73.6453 23.2108 72.9826C22.8529 72.2969 22.666 71.5346 22.666 70.7608C22.666 69.9871 22.8529 69.2248 23.2108 68.5391C23.5732 67.87 24.1092 67.3113 24.7622 66.922C25.4153 66.5327 26.1612 66.3271 26.9211 66.3271C27.6811 66.3271 28.427 66.5327 29.0801 66.922C29.7331 67.3113 30.2691 67.87 30.6315 68.5391C30.9893 69.2248 31.1763 69.9871 31.1763 70.7608C31.1763 71.5346 30.9893 72.2969 30.6315 72.9826C30.2796 73.6453 29.7539 74.1993 29.111 74.5849C28.4434 74.9644 27.6888 75.164 26.9211 75.164C26.1535 75.164 25.3989 74.9644 24.7313 74.5849ZM28.3395 73.528C28.7941 73.2601 29.1608 72.8652 29.3947 72.3916C29.6654 71.8643 29.8067 71.2799 29.8067 70.687C29.8067 70.094 29.6654 69.5097 29.3947 68.9823C29.1385 68.5539 28.7736 68.201 28.3372 67.9595C27.9008 67.718 27.4083 67.5965 26.9098 67.6073C26.407 67.6031 25.9126 67.7367 25.4801 67.9937C25.0255 68.2616 24.6588 68.6565 24.4249 69.1301C24.1542 69.6574 24.0129 70.2418 24.0129 70.8347C24.0129 71.4277 24.1542 72.012 24.4249 72.5394C24.6588 73.0129 25.0255 73.4078 25.4801 73.6758C25.9126 73.9327 26.407 74.0663 26.9098 74.0622C27.429 74.0228 27.9257 73.8333 28.3395 73.5167V73.528Z" fill="white"/>
<path d="M33.9798 77.9969C33.389 77.6002 32.943 77.0218 32.709 76.349L33.9572 75.8149C34.1387 76.2765 34.455 76.6726 34.8649 76.9513C35.311 77.26 35.8433 77.4192 36.3853 77.4059C36.7476 77.4288 37.1107 77.3772 37.4522 77.254C37.7937 77.1309 38.1064 76.9389 38.371 76.69C38.6196 76.414 38.8101 76.0906 38.931 75.7391C39.0519 75.3876 39.1007 75.0152 39.0744 74.6444V73.7125C38.7895 74.1477 38.3992 74.5035 37.9398 74.7467C37.3715 75.0332 36.7393 75.1691 36.1036 75.1412C35.468 75.1134 34.8501 74.9227 34.3089 74.5876C33.7061 74.2029 33.2196 73.6606 32.9019 73.0193C32.5425 72.3167 32.3632 71.5357 32.38 70.7465C32.3674 69.9577 32.5465 69.1776 32.9019 68.4736C33.2196 67.8323 33.7061 67.2901 34.3089 66.9053C34.8501 66.5702 35.468 66.3796 36.1036 66.3517C36.7393 66.3239 37.3715 66.4597 37.9398 66.7462C38.4023 66.9901 38.7934 67.3504 39.0744 67.7918V67.7918V66.6553H40.3906V74.6103C40.4249 75.1692 40.3416 75.7291 40.1461 76.2538C39.9507 76.7784 39.6474 77.2561 39.256 77.6559C38.4622 78.3726 37.419 78.7481 36.3513 78.7014C35.5065 78.7223 34.6766 78.4757 33.9798 77.9969ZM37.7469 73.5193C38.1641 73.2337 38.4971 72.8413 38.7113 72.3829C38.9539 71.8475 39.0794 71.2663 39.0794 70.6783C39.0794 70.0903 38.9539 69.5091 38.7113 68.9736C38.5058 68.5098 38.1709 68.1152 37.7469 67.8372C37.337 67.587 36.8653 67.4571 36.3853 67.4622C35.9036 67.4554 35.4303 67.5897 35.0237 67.8486C34.5959 68.1284 34.2541 68.5219 34.0366 68.985C33.7925 69.5201 33.6662 70.1014 33.6662 70.6896C33.6662 71.2779 33.7925 71.8592 34.0366 72.3943C34.2488 72.8608 34.5918 73.2556 35.0237 73.5307C35.4357 73.7758 35.9061 73.9051 36.3853 73.9051C36.8645 73.9051 37.3349 73.7758 37.7469 73.5307V73.5193Z" fill="white"/>
<path d="M42.4258 63.2915H43.8101V74.9285H42.4258V63.2915Z" fill="white"/>
<path d="M47.408 74.6528C46.7836 74.2771 46.2766 73.7339 45.9443 73.0846C45.581 72.383 45.3977 71.6019 45.411 70.8117C45.3962 70.0253 45.5673 69.2465 45.9103 68.5389C46.2318 67.8936 46.722 67.3477 47.3286 66.9592C47.9577 66.555 48.6918 66.3455 49.4391 66.3569C50.1797 66.3368 50.9111 66.5259 51.5495 66.9024C52.1424 67.2589 52.6193 67.78 52.9224 68.4025C53.2499 69.0864 53.4131 69.8375 53.399 70.5958C53.4189 70.7352 53.4189 70.8768 53.399 71.0163H46.7953C46.8081 71.5803 46.9643 72.1318 47.2492 72.6186C47.4986 73.0292 47.8557 73.3633 48.2817 73.5846C48.6831 73.7998 49.1312 73.913 49.5866 73.9141C50.0982 73.9172 50.6003 73.7747 51.0342 73.5031C51.4681 73.2315 51.816 72.842 52.0374 72.38L53.1721 72.9482C52.8316 73.5971 52.3318 74.1485 51.7197 74.5505C51.0572 74.9271 50.3086 75.125 49.5469 75.125C48.7851 75.125 48.0365 74.9271 47.374 74.5505L47.408 74.6528ZM51.9466 69.9367C51.9175 69.5758 51.8172 69.2243 51.6516 68.9025C51.4677 68.5391 51.1843 68.2356 50.8347 68.0275C50.41 67.7741 49.9218 67.6479 49.4277 67.6638C48.8194 67.6519 48.2299 67.8759 47.7825 68.2888C47.3177 68.7281 47.0072 69.3061 46.8974 69.9367H51.9466Z" fill="white"/>
<path d="M58.3789 63.2916H62.2821C62.9109 63.2871 63.5309 63.4395 64.0862 63.7348C64.624 64.0223 65.0777 64.4454 65.4024 64.9621C65.7293 65.4976 65.9023 66.113 65.9023 66.7407C65.9023 67.3683 65.7293 67.9837 65.4024 68.5192C65.0777 69.0359 64.624 69.4589 64.0862 69.7465C63.5309 70.0418 62.9109 70.1941 62.2821 70.1897H59.7405V74.9286H58.3789V63.2916ZM62.3162 68.8714C62.7156 68.8776 63.1087 68.7713 63.4508 68.5646C63.7696 68.3673 64.0347 68.094 64.2224 67.7691C64.4004 67.4557 64.4941 67.1013 64.4941 66.7407C64.4941 66.38 64.4004 66.0256 64.2224 65.7122C64.0347 65.3873 63.7696 65.114 63.4508 64.9167C63.1087 64.71 62.7156 64.6037 62.3162 64.6099H59.7405V68.8714H62.3162Z" fill="white"/>
<path d="M68.6816 74.813C68.2214 74.5993 67.8341 74.2549 67.5678 73.8225C67.3015 73.3901 67.168 72.8888 67.1839 72.381C67.1668 71.9833 67.248 71.5875 67.4202 71.2287C67.5924 70.8699 67.8503 70.5592 68.171 70.3241C68.9043 69.811 69.7847 69.5516 70.6786 69.5854C71.1446 69.5845 71.6092 69.6379 72.0629 69.7445C72.4031 69.8262 72.7312 69.9523 73.0387 70.1195V69.6195C73.05 69.3386 72.9976 69.0587 72.8856 68.8009C72.7736 68.5431 72.6048 68.314 72.3919 68.1308C71.9353 67.7482 71.3528 67.5496 70.758 67.5739C70.3134 67.5704 69.8742 67.6716 69.4759 67.8694C69.093 68.0567 68.7706 68.3481 68.5454 68.7104L67.5129 67.9262C67.8478 67.4326 68.3107 67.0397 68.8518 66.7898C69.4378 66.5031 70.0832 66.359 70.7353 66.3693C71.7008 66.3147 72.6507 66.6318 73.3904 67.2557C73.7153 67.5637 73.9698 67.9386 74.1363 68.3545C74.3028 68.7704 74.3773 69.2175 74.3549 69.665V74.9152H73.0387V73.7788C72.7538 74.2112 72.3632 74.5633 71.904 74.8016C71.4193 75.086 70.8658 75.2315 70.3042 75.2221C69.7385 75.2171 69.1822 75.0768 68.6816 74.813V74.813ZM71.7225 73.5856C72.1204 73.3556 72.4525 73.0268 72.6869 72.631C72.9228 72.2323 73.0445 71.7762 73.0387 71.3128C72.7423 71.1284 72.4214 70.9869 72.0856 70.8923C71.6945 70.7808 71.2893 70.7271 70.8828 70.7332C70.2752 70.6861 69.6699 70.8507 69.1695 71.1991C68.9872 71.3438 68.841 71.529 68.7425 71.74C68.644 71.9511 68.596 72.1822 68.6022 72.4151C68.5928 72.6313 68.6341 72.8467 68.7228 73.044C68.8115 73.2414 68.945 73.4152 69.1128 73.5515C69.4907 73.8381 69.9552 73.9864 70.429 73.972C70.8876 73.9658 71.3354 73.832 71.7225 73.5856V73.5856Z" fill="white"/>
<path d="M76.0371 66.6989H77.3533V68.0626C77.5467 67.5807 77.8991 67.1796 78.3518 66.9262C78.994 66.5577 79.747 66.4327 80.4736 66.5739V67.9831C80.2275 67.9312 79.9761 67.9084 79.7247 67.9149C79.4057 67.905 79.0883 67.9627 78.793 68.0841C78.4978 68.2055 78.2315 68.388 78.0114 68.6195C77.5639 69.1165 77.3277 69.7689 77.3533 70.4377V74.9834H76.0371V66.6989ZM84.4335 74.9493C84.1619 74.8569 83.9139 74.7055 83.7074 74.5061C83.4955 74.3007 83.3293 74.0529 83.2195 73.7788C83.1072 73.4537 83.0534 73.1113 83.0606 72.7674V67.8353H81.6196V66.5853H83.0606V64.2783H84.4335V66.6194H86.4532V67.8353H84.4335V72.4492C84.4078 72.813 84.4993 73.1755 84.6945 73.4834C84.8079 73.6064 84.9471 73.7028 85.1021 73.7656C85.257 73.8285 85.424 73.8563 85.5909 73.847C85.9132 73.8446 86.2282 73.75 86.4986 73.5743V74.9153C86.3404 74.9939 86.1726 75.0512 85.9994 75.0857C85.7881 75.1065 85.5752 75.1065 85.364 75.0857C85.0509 75.1149 84.7351 75.0841 84.4335 74.9948V74.9493Z" fill="white"/>
<path d="M88.0352 66.6179H89.306V67.8339H89.374C89.6458 67.3848 90.0393 67.0223 90.5087 66.7884C90.9907 66.5062 91.5389 66.3572 92.0972 66.3566C92.515 66.331 92.9334 66.3949 93.3247 66.5438C93.7159 66.6927 94.0711 66.9233 94.3665 67.2202C94.9185 67.884 95.1983 68.7329 95.1494 69.5954V74.9025H93.7765V69.7999C93.8062 69.498 93.7721 69.1931 93.6763 68.9053C93.5805 68.6175 93.4252 68.3531 93.2205 68.1294C92.8065 67.7617 92.2637 67.5737 91.7114 67.6066C91.2846 67.6016 90.8673 67.733 90.52 67.9816C90.1661 68.234 89.8844 68.5749 89.7031 68.9703C89.5097 69.3667 89.4088 69.8019 89.4081 70.2431V74.9025H88.0352V66.6179Z" fill="white"/>
<path d="M98.6971 74.6528C98.0726 74.2771 97.5656 73.7339 97.2334 73.0846C96.8701 72.383 96.6868 71.6019 96.7001 70.8117C96.6853 70.0253 96.8564 69.2465 97.1993 68.5389C97.5112 67.8881 97.9936 67.3343 98.595 66.9365C99.2135 66.5488 99.9304 66.3476 100.66 66.3569C101.401 66.3368 102.132 66.5259 102.77 66.9024C103.363 67.2589 103.84 67.78 104.143 68.4025C104.471 69.0864 104.634 69.8375 104.62 70.5958C104.64 70.7352 104.64 70.8768 104.62 71.0163H98.0844C98.092 71.5811 98.2486 72.1339 98.5382 72.6186C98.7876 73.0292 99.1448 73.3633 99.5708 73.5846C99.9722 73.7998 100.42 73.913 100.876 73.9141C101.382 73.9209 101.88 73.7835 102.312 73.518C102.744 73.2525 103.092 72.8697 103.315 72.4141L104.45 72.9823C104.109 73.6343 103.604 74.1865 102.986 74.5846C102.304 74.9993 101.514 75.2011 100.717 75.1642C100.011 75.1725 99.3145 74.9962 98.6971 74.6528V74.6528ZM103.236 69.9367C103.207 69.5758 103.106 69.2243 102.941 68.9025C102.751 68.5429 102.469 68.2407 102.124 68.0275C101.689 67.7434 101.179 67.5969 100.66 67.607C100.052 67.5951 99.4623 67.819 99.0148 68.232C98.55 68.6713 98.2395 69.2493 98.1298 69.8798L103.236 69.9367Z" fill="white"/>
<path d="M106.246 66.6184H107.562V67.948H107.63C107.809 67.4747 108.141 67.0748 108.572 66.8116C109 66.5189 109.506 66.3606 110.024 66.357C110.359 66.3447 110.692 66.4068 111 66.5388V68.0162C110.647 67.8442 110.259 67.7548 109.866 67.7548C109.461 67.7472 109.064 67.8664 108.731 68.0957C108.392 68.3324 108.115 68.6483 107.925 69.0162C107.731 69.404 107.63 69.8322 107.63 70.2663V74.9029H106.246V66.6184Z" fill="white"/>
</svg>
