<svg width="121" height="70" viewBox="0 0 121 70" fill="none" xmlns="http://www.w3.org/2000/svg">
<g clip-path="url(#clip0_7643_15680)">
<path d="M3.28923 22.2534H0.638054C0.469851 22.2534 0.333496 22.3889 0.333496 22.5561V25.1906C0.333496 25.3578 0.469851 25.4933 0.638054 25.4933H3.28923C3.45743 25.4933 3.59378 25.3578 3.59378 25.1906V22.5561C3.59378 22.3889 3.45743 22.2534 3.28923 22.2534Z" fill="#59DC8E"/>
<path d="M7.76774 22.2534H5.11657C4.94837 22.2534 4.81201 22.3889 4.81201 22.5561V25.1906C4.81201 25.3578 4.94837 25.4933 5.11657 25.4933H7.76774C7.93595 25.4933 8.0723 25.3578 8.0723 25.1906V22.5561C8.0723 22.3889 7.93595 22.2534 7.76774 22.2534Z" fill="#59DC8E"/>
<path d="M7.76774 26.7041H5.11657C4.94837 26.7041 4.81201 26.8396 4.81201 27.0067V29.6413C4.81201 29.8084 4.94837 29.9439 5.11657 29.9439H7.76774C7.93595 29.9439 8.0723 29.8084 8.0723 29.6413V27.0067C8.0723 26.8396 7.93595 26.7041 7.76774 26.7041Z" fill="#59DC8E"/>
<path d="M7.76774 31.1543H5.11657C4.94837 31.1543 4.81201 31.2898 4.81201 31.4569V34.0915C4.81201 34.2586 4.94837 34.3941 5.11657 34.3941H7.76774C7.93595 34.3941 8.0723 34.2586 8.0723 34.0915V31.4569C8.0723 31.2898 7.93595 31.1543 7.76774 31.1543Z" fill="#59DC8E"/>
<path d="M12.2472 17.8022H9.59606C9.42786 17.8022 9.2915 17.9377 9.2915 18.1049V20.7394C9.2915 20.9066 9.42786 21.0421 9.59606 21.0421H12.2472C12.4154 21.0421 12.5518 20.9066 12.5518 20.7394V18.1049C12.5518 17.9377 12.4154 17.8022 12.2472 17.8022Z" fill="#59DC8E"/>
<path d="M12.2472 22.2534H9.59606C9.42786 22.2534 9.2915 22.3889 9.2915 22.5561V25.1906C9.2915 25.3578 9.42786 25.4933 9.59606 25.4933H12.2472C12.4154 25.4933 12.5518 25.3578 12.5518 25.1906V22.5561C12.5518 22.3889 12.4154 22.2534 12.2472 22.2534Z" fill="#59DC8E"/>
<path d="M12.2472 26.7041H9.59606C9.42786 26.7041 9.2915 26.8396 9.2915 27.0067V29.6413C9.2915 29.8084 9.42786 29.9439 9.59606 29.9439H12.2472C12.4154 29.9439 12.5518 29.8084 12.5518 29.6413V27.0067C12.5518 26.8396 12.4154 26.7041 12.2472 26.7041Z" fill="#59DC8E"/>
<path d="M12.2472 31.1543H9.59606C9.42786 31.1543 9.2915 31.2898 9.2915 31.4569V34.0915C9.2915 34.2586 9.42786 34.3941 9.59606 34.3941H12.2472C12.4154 34.3941 12.5518 34.2586 12.5518 34.0915V31.4569C12.5518 31.2898 12.4154 31.1543 12.2472 31.1543Z" fill="#59DC8E"/>
<path d="M12.2472 35.6055H9.59606C9.42786 35.6055 9.2915 35.741 9.2915 35.9081V38.5427C9.2915 38.7098 9.42786 38.8453 9.59606 38.8453H12.2472C12.4154 38.8453 12.5518 38.7098 12.5518 38.5427V35.9081C12.5518 35.741 12.4154 35.6055 12.2472 35.6055Z" fill="#59DC8E"/>
<path d="M12.2472 40.0562H9.59606C9.42786 40.0562 9.2915 40.1917 9.2915 40.3588V42.9933C9.2915 43.1605 9.42786 43.296 9.59606 43.296H12.2472C12.4154 43.296 12.5518 43.1605 12.5518 42.9933V40.3588C12.5518 40.1917 12.4154 40.0562 12.2472 40.0562Z" fill="#59DC8E"/>
<path d="M16.7257 17.8022H14.0746C13.9064 17.8022 13.77 17.9377 13.77 18.1049V20.7394C13.77 20.9066 13.9064 21.0421 14.0746 21.0421H16.7257C16.894 21.0421 17.0303 20.9066 17.0303 20.7394V18.1049C17.0303 17.9377 16.894 17.8022 16.7257 17.8022Z" fill="#59DC8E"/>
<path d="M16.7257 22.2534H14.0746C13.9064 22.2534 13.77 22.3889 13.77 22.5561V25.1906C13.77 25.3578 13.9064 25.4933 14.0746 25.4933H16.7257C16.894 25.4933 17.0303 25.3578 17.0303 25.1906V22.5561C17.0303 22.3889 16.894 22.2534 16.7257 22.2534Z" fill="#59DC8E"/>
<path d="M16.7257 26.7041H14.0746C13.9064 26.7041 13.77 26.8396 13.77 27.0067V29.6413C13.77 29.8084 13.9064 29.9439 14.0746 29.9439H16.7257C16.894 29.9439 17.0303 29.8084 17.0303 29.6413V27.0067C17.0303 26.8396 16.894 26.7041 16.7257 26.7041Z" fill="#59DC8E"/>
<path d="M16.7257 31.1543H14.0746C13.9064 31.1543 13.77 31.2898 13.77 31.4569V34.0915C13.77 34.2586 13.9064 34.3941 14.0746 34.3941H16.7257C16.894 34.3941 17.0303 34.2586 17.0303 34.0915V31.4569C17.0303 31.2898 16.894 31.1543 16.7257 31.1543Z" fill="#59DC8E"/>
<path d="M16.7257 35.6055H14.0746C13.9064 35.6055 13.77 35.741 13.77 35.9081V38.5427C13.77 38.7098 13.9064 38.8453 14.0746 38.8453H16.7257C16.894 38.8453 17.0303 38.7098 17.0303 38.5427V35.9081C17.0303 35.741 16.894 35.6055 16.7257 35.6055Z" fill="#59DC8E"/>
<path d="M16.7257 40.0562H14.0746C13.9064 40.0562 13.77 40.1917 13.77 40.3588V42.9933C13.77 43.1605 13.9064 43.296 14.0746 43.296H16.7257C16.894 43.296 17.0303 43.1605 17.0303 42.9933V40.3588C17.0303 40.1917 16.894 40.0562 16.7257 40.0562Z" fill="#59DC8E"/>
<path d="M16.7257 44.5063H14.0746C13.9064 44.5063 13.77 44.6418 13.77 44.809V47.4435C13.77 47.6107 13.9064 47.7462 14.0746 47.7462H16.7257C16.894 47.7462 17.0303 47.6107 17.0303 47.4435V44.809C17.0303 44.6418 16.894 44.5063 16.7257 44.5063Z" fill="#59DC8E"/>
<path d="M21.2048 13.3521H18.5536C18.3854 13.3521 18.249 13.4876 18.249 13.6547V16.2892C18.249 16.4564 18.3854 16.5919 18.5536 16.5919H21.2048C21.373 16.5919 21.5093 16.4564 21.5093 16.2892V13.6547C21.5093 13.4876 21.373 13.3521 21.2048 13.3521Z" fill="#59DC8E"/>
<path d="M21.2048 17.8022H18.5536C18.3854 17.8022 18.249 17.9377 18.249 18.1049V20.7394C18.249 20.9066 18.3854 21.0421 18.5536 21.0421H21.2048C21.373 21.0421 21.5093 20.9066 21.5093 20.7394V18.1049C21.5093 17.9377 21.373 17.8022 21.2048 17.8022Z" fill="#59DC8E"/>
<path d="M21.2048 22.2534H18.5536C18.3854 22.2534 18.249 22.3889 18.249 22.5561V25.1906C18.249 25.3578 18.3854 25.4933 18.5536 25.4933H21.2048C21.373 25.4933 21.5093 25.3578 21.5093 25.1906V22.5561C21.5093 22.3889 21.373 22.2534 21.2048 22.2534Z" fill="#59DC8E"/>
<path d="M21.2048 26.7041H18.5536C18.3854 26.7041 18.249 26.8396 18.249 27.0067V29.6413C18.249 29.8084 18.3854 29.9439 18.5536 29.9439H21.2048C21.373 29.9439 21.5093 29.8084 21.5093 29.6413V27.0067C21.5093 26.8396 21.373 26.7041 21.2048 26.7041Z" fill="#59DC8E"/>
<path d="M21.2048 31.1543H18.5536C18.3854 31.1543 18.249 31.2898 18.249 31.4569V34.0915C18.249 34.2586 18.3854 34.3941 18.5536 34.3941H21.2048C21.373 34.3941 21.5093 34.2586 21.5093 34.0915V31.4569C21.5093 31.2898 21.373 31.1543 21.2048 31.1543Z" fill="#59DC8E"/>
<path d="M21.2048 35.6055H18.5536C18.3854 35.6055 18.249 35.741 18.249 35.9081V38.5427C18.249 38.7098 18.3854 38.8453 18.5536 38.8453H21.2048C21.373 38.8453 21.5093 38.7098 21.5093 38.5427V35.9081C21.5093 35.741 21.373 35.6055 21.2048 35.6055Z" fill="#59DC8E"/>
<path d="M21.2048 40.0562H18.5536C18.3854 40.0562 18.249 40.1917 18.249 40.3588V42.9933C18.249 43.1605 18.3854 43.296 18.5536 43.296H21.2048C21.373 43.296 21.5093 43.1605 21.5093 42.9933V40.3588C21.5093 40.1917 21.373 40.0562 21.2048 40.0562Z" fill="#59DC8E"/>
<path d="M21.2048 44.5063H18.5536C18.3854 44.5063 18.249 44.6418 18.249 44.809V47.4435C18.249 47.6107 18.3854 47.7462 18.5536 47.7462H21.2048C21.373 47.7462 21.5093 47.6107 21.5093 47.4435V44.809C21.5093 44.6418 21.373 44.5063 21.2048 44.5063Z" fill="#59DC8E"/>
<path d="M21.2048 48.9575H18.5536C18.3854 48.9575 18.249 49.093 18.249 49.2602V51.8947C18.249 52.0619 18.3854 52.1974 18.5536 52.1974H21.2048C21.373 52.1974 21.5093 52.0619 21.5093 51.8947V49.2602C21.5093 49.093 21.373 48.9575 21.2048 48.9575Z" fill="#59DC8E"/>
<path d="M25.6833 13.3521H23.0321C22.8639 13.3521 22.7275 13.4876 22.7275 13.6547V16.2892C22.7275 16.4564 22.8639 16.5919 23.0321 16.5919H25.6833C25.8515 16.5919 25.9878 16.4564 25.9878 16.2892V13.6547C25.9878 13.4876 25.8515 13.3521 25.6833 13.3521Z" fill="#59DC8E"/>
<path d="M25.6833 17.8022H23.0321C22.8639 17.8022 22.7275 17.9377 22.7275 18.1049V20.7394C22.7275 20.9066 22.8639 21.0421 23.0321 21.0421H25.6833C25.8515 21.0421 25.9878 20.9066 25.9878 20.7394V18.1049C25.9878 17.9377 25.8515 17.8022 25.6833 17.8022Z" fill="#59DC8E"/>
<path d="M25.6833 22.2534H23.0321C22.8639 22.2534 22.7275 22.3889 22.7275 22.5561V25.1906C22.7275 25.3578 22.8639 25.4933 23.0321 25.4933H25.6833C25.8515 25.4933 25.9878 25.3578 25.9878 25.1906V22.5561C25.9878 22.3889 25.8515 22.2534 25.6833 22.2534Z" fill="#59DC8E"/>
<path d="M25.6833 26.7041H23.0321C22.8639 26.7041 22.7275 26.8396 22.7275 27.0067V29.6413C22.7275 29.8084 22.8639 29.9439 23.0321 29.9439H25.6833C25.8515 29.9439 25.9878 29.8084 25.9878 29.6413V27.0067C25.9878 26.8396 25.8515 26.7041 25.6833 26.7041Z" fill="#59DC8E"/>
<path d="M25.6833 31.1543H23.0321C22.8639 31.1543 22.7275 31.2898 22.7275 31.4569V34.0915C22.7275 34.2586 22.8639 34.3941 23.0321 34.3941H25.6833C25.8515 34.3941 25.9878 34.2586 25.9878 34.0915V31.4569C25.9878 31.2898 25.8515 31.1543 25.6833 31.1543Z" fill="#59DC8E"/>
<path d="M25.6833 35.6055H23.0321C22.8639 35.6055 22.7275 35.741 22.7275 35.9081V38.5427C22.7275 38.7098 22.8639 38.8453 23.0321 38.8453H25.6833C25.8515 38.8453 25.9878 38.7098 25.9878 38.5427V35.9081C25.9878 35.741 25.8515 35.6055 25.6833 35.6055Z" fill="#59DC8E"/>
<path d="M25.6833 40.0562H23.0321C22.8639 40.0562 22.7275 40.1917 22.7275 40.3588V42.9933C22.7275 43.1605 22.8639 43.296 23.0321 43.296H25.6833C25.8515 43.296 25.9878 43.1605 25.9878 42.9933V40.3588C25.9878 40.1917 25.8515 40.0562 25.6833 40.0562Z" fill="#59DC8E"/>
<path d="M25.6833 44.5063H23.0321C22.8639 44.5063 22.7275 44.6418 22.7275 44.809V47.4435C22.7275 47.6107 22.8639 47.7462 23.0321 47.7462H25.6833C25.8515 47.7462 25.9878 47.6107 25.9878 47.4435V44.809C25.9878 44.6418 25.8515 44.5063 25.6833 44.5063Z" fill="#59DC8E"/>
<path d="M25.6833 48.9575H23.0321C22.8639 48.9575 22.7275 49.093 22.7275 49.2602V51.8947C22.7275 52.0619 22.8639 52.1974 23.0321 52.1974H25.6833C25.8515 52.1974 25.9878 52.0619 25.9878 51.8947V49.2602C25.9878 49.093 25.8515 48.9575 25.6833 48.9575Z" fill="#59DC8E"/>
<path d="M25.6833 53.4082H23.0321C22.8639 53.4082 22.7275 53.5437 22.7275 53.7109V56.3454C22.7275 56.5125 22.8639 56.648 23.0321 56.648H25.6833C25.8515 56.648 25.9878 56.5125 25.9878 56.3454V53.7109C25.9878 53.5437 25.8515 53.4082 25.6833 53.4082Z" fill="#59DC8E"/>
<path d="M30.1628 8.90137H27.5116C27.3434 8.90137 27.207 9.03687 27.207 9.20401V11.8386C27.207 12.0057 27.3434 12.1412 27.5116 12.1412H30.1628C30.331 12.1412 30.4673 12.0057 30.4673 11.8386V9.20401C30.4673 9.03687 30.331 8.90137 30.1628 8.90137Z" fill="#59DC8E"/>
<path d="M30.1628 13.3521H27.5116C27.3434 13.3521 27.207 13.4876 27.207 13.6547V16.2892C27.207 16.4564 27.3434 16.5919 27.5116 16.5919H30.1628C30.331 16.5919 30.4673 16.4564 30.4673 16.2892V13.6547C30.4673 13.4876 30.331 13.3521 30.1628 13.3521Z" fill="#59DC8E"/>
<path d="M30.1628 17.8022H27.5116C27.3434 17.8022 27.207 17.9377 27.207 18.1049V20.7394C27.207 20.9066 27.3434 21.0421 27.5116 21.0421H30.1628C30.331 21.0421 30.4673 20.9066 30.4673 20.7394V18.1049C30.4673 17.9377 30.331 17.8022 30.1628 17.8022Z" fill="#59DC8E"/>
<path d="M30.1628 22.2534H27.5116C27.3434 22.2534 27.207 22.3889 27.207 22.5561V25.1906C27.207 25.3578 27.3434 25.4933 27.5116 25.4933H30.1628C30.331 25.4933 30.4673 25.3578 30.4673 25.1906V22.5561C30.4673 22.3889 30.331 22.2534 30.1628 22.2534Z" fill="#59DC8E"/>
<path d="M30.1628 26.7041H27.5116C27.3434 26.7041 27.207 26.8396 27.207 27.0067V29.6413C27.207 29.8084 27.3434 29.9439 27.5116 29.9439H30.1628C30.331 29.9439 30.4673 29.8084 30.4673 29.6413V27.0067C30.4673 26.8396 30.331 26.7041 30.1628 26.7041Z" fill="#59DC8E"/>
<path d="M30.1628 31.1543H27.5116C27.3434 31.1543 27.207 31.2898 27.207 31.4569V34.0915C27.207 34.2586 27.3434 34.3941 27.5116 34.3941H30.1628C30.331 34.3941 30.4673 34.2586 30.4673 34.0915V31.4569C30.4673 31.2898 30.331 31.1543 30.1628 31.1543Z" fill="#59DC8E"/>
<path d="M30.1628 35.6055H27.5116C27.3434 35.6055 27.207 35.741 27.207 35.9081V38.5427C27.207 38.7098 27.3434 38.8453 27.5116 38.8453H30.1628C30.331 38.8453 30.4673 38.7098 30.4673 38.5427V35.9081C30.4673 35.741 30.331 35.6055 30.1628 35.6055Z" fill="#59DC8E"/>
<path d="M30.1628 40.0562H27.5116C27.3434 40.0562 27.207 40.1917 27.207 40.3588V42.9933C27.207 43.1605 27.3434 43.296 27.5116 43.296H30.1628C30.331 43.296 30.4673 43.1605 30.4673 42.9933V40.3588C30.4673 40.1917 30.331 40.0562 30.1628 40.0562Z" fill="#59DC8E"/>
<path d="M30.1628 44.5063H27.5116C27.3434 44.5063 27.207 44.6418 27.207 44.809V47.4435C27.207 47.6107 27.3434 47.7462 27.5116 47.7462H30.1628C30.331 47.7462 30.4673 47.6107 30.4673 47.4435V44.809C30.4673 44.6418 30.331 44.5063 30.1628 44.5063Z" fill="#59DC8E"/>
<path d="M30.1628 48.9575H27.5116C27.3434 48.9575 27.207 49.093 27.207 49.2602V51.8947C27.207 52.0619 27.3434 52.1974 27.5116 52.1974H30.1628C30.331 52.1974 30.4673 52.0619 30.4673 51.8947V49.2602C30.4673 49.093 30.331 48.9575 30.1628 48.9575Z" fill="#59DC8E"/>
<path d="M30.1628 53.4082H27.5116C27.3434 53.4082 27.207 53.5437 27.207 53.7109V56.3454C27.207 56.5125 27.3434 56.648 27.5116 56.648H30.1628C30.331 56.648 30.4673 56.5125 30.4673 56.3454V53.7109C30.4673 53.5437 30.331 53.4082 30.1628 53.4082Z" fill="#59DC8E"/>
<path d="M30.1628 57.8584H27.5116C27.3434 57.8584 27.207 57.9939 27.207 58.161V60.7956C27.207 60.9627 27.3434 61.0982 27.5116 61.0982H30.1628C30.331 61.0982 30.4673 60.9627 30.4673 60.7956V58.161C30.4673 57.9939 30.331 57.8584 30.1628 57.8584Z" fill="#59DC8E"/>
<path d="M34.6413 8.90137H31.9901C31.8219 8.90137 31.6855 9.03687 31.6855 9.20401V11.8386C31.6855 12.0057 31.8219 12.1412 31.9901 12.1412H34.6413C34.8095 12.1412 34.9458 12.0057 34.9458 11.8386V9.20401C34.9458 9.03687 34.8095 8.90137 34.6413 8.90137Z" fill="#59DC8E"/>
<path d="M34.6413 13.3521H31.9901C31.8219 13.3521 31.6855 13.4876 31.6855 13.6547V16.2892C31.6855 16.4564 31.8219 16.5919 31.9901 16.5919H34.6413C34.8095 16.5919 34.9458 16.4564 34.9458 16.2892V13.6547C34.9458 13.4876 34.8095 13.3521 34.6413 13.3521Z" fill="#59DC8E"/>
<path d="M34.6413 17.8022H31.9901C31.8219 17.8022 31.6855 17.9377 31.6855 18.1049V20.7394C31.6855 20.9066 31.8219 21.0421 31.9901 21.0421H34.6413C34.8095 21.0421 34.9458 20.9066 34.9458 20.7394V18.1049C34.9458 17.9377 34.8095 17.8022 34.6413 17.8022Z" fill="#59DC8E"/>
<path d="M34.6413 22.2534H31.9901C31.8219 22.2534 31.6855 22.3889 31.6855 22.5561V25.1906C31.6855 25.3578 31.8219 25.4933 31.9901 25.4933H34.6413C34.8095 25.4933 34.9458 25.3578 34.9458 25.1906V22.5561C34.9458 22.3889 34.8095 22.2534 34.6413 22.2534Z" fill="#59DC8E"/>
<path d="M34.6413 26.7041H31.9901C31.8219 26.7041 31.6855 26.8396 31.6855 27.0067V29.6413C31.6855 29.8084 31.8219 29.9439 31.9901 29.9439H34.6413C34.8095 29.9439 34.9458 29.8084 34.9458 29.6413V27.0067C34.9458 26.8396 34.8095 26.7041 34.6413 26.7041Z" fill="#59DC8E"/>
<path d="M34.6413 31.1543H31.9901C31.8219 31.1543 31.6855 31.2898 31.6855 31.4569V34.0915C31.6855 34.2586 31.8219 34.3941 31.9901 34.3941H34.6413C34.8095 34.3941 34.9458 34.2586 34.9458 34.0915V31.4569C34.9458 31.2898 34.8095 31.1543 34.6413 31.1543Z" fill="#59DC8E"/>
<path d="M34.6413 35.6055H31.9901C31.8219 35.6055 31.6855 35.741 31.6855 35.9081V38.5427C31.6855 38.7098 31.8219 38.8453 31.9901 38.8453H34.6413C34.8095 38.8453 34.9458 38.7098 34.9458 38.5427V35.9081C34.9458 35.741 34.8095 35.6055 34.6413 35.6055Z" fill="#59DC8E"/>
<path d="M34.6413 40.0562H31.9901C31.8219 40.0562 31.6855 40.1917 31.6855 40.3588V42.9933C31.6855 43.1605 31.8219 43.296 31.9901 43.296H34.6413C34.8095 43.296 34.9458 43.1605 34.9458 42.9933V40.3588C34.9458 40.1917 34.8095 40.0562 34.6413 40.0562Z" fill="#59DC8E"/>
<path d="M34.6413 44.5063H31.9901C31.8219 44.5063 31.6855 44.6418 31.6855 44.809V47.4435C31.6855 47.6107 31.8219 47.7462 31.9901 47.7462H34.6413C34.8095 47.7462 34.9458 47.6107 34.9458 47.4435V44.809C34.9458 44.6418 34.8095 44.5063 34.6413 44.5063Z" fill="#59DC8E"/>
<path d="M34.6413 48.9575H31.9901C31.8219 48.9575 31.6855 49.093 31.6855 49.2602V51.8947C31.6855 52.0619 31.8219 52.1974 31.9901 52.1974H34.6413C34.8095 52.1974 34.9458 52.0619 34.9458 51.8947V49.2602C34.9458 49.093 34.8095 48.9575 34.6413 48.9575Z" fill="#59DC8E"/>
<path d="M34.6413 53.4082H31.9901C31.8219 53.4082 31.6855 53.5437 31.6855 53.7109V56.3454C31.6855 56.5125 31.8219 56.648 31.9901 56.648H34.6413C34.8095 56.648 34.9458 56.5125 34.9458 56.3454V53.7109C34.9458 53.5437 34.8095 53.4082 34.6413 53.4082Z" fill="#59DC8E"/>
<path d="M34.6413 57.8584H31.9901C31.8219 57.8584 31.6855 57.9939 31.6855 58.161V60.7956C31.6855 60.9627 31.8219 61.0982 31.9901 61.0982H34.6413C34.8095 61.0982 34.9458 60.9627 34.9458 60.7956V58.161C34.9458 57.9939 34.8095 57.8584 34.6413 57.8584Z" fill="#59DC8E"/>
<path d="M34.6413 62.3096H31.9901C31.8219 62.3096 31.6855 62.4451 31.6855 62.6122V65.2468C31.6855 65.4139 31.8219 65.5494 31.9901 65.5494H34.6413C34.8095 65.5494 34.9458 65.4139 34.9458 65.2468V62.6122C34.9458 62.4451 34.8095 62.3096 34.6413 62.3096Z" fill="#59DC8E"/>
<path d="M39.1198 4.4502H36.4686C36.3004 4.4502 36.1641 4.5857 36.1641 4.75284V7.38739C36.1641 7.55453 36.3004 7.69003 36.4686 7.69003H39.1198C39.288 7.69003 39.4243 7.55453 39.4243 7.38739V4.75284C39.4243 4.5857 39.288 4.4502 39.1198 4.4502Z" fill="#59DC8E"/>
<path d="M39.1198 8.90137H36.4686C36.3004 8.90137 36.1641 9.03687 36.1641 9.20401V11.8386C36.1641 12.0057 36.3004 12.1412 36.4686 12.1412H39.1198C39.288 12.1412 39.4243 12.0057 39.4243 11.8386V9.20401C39.4243 9.03687 39.288 8.90137 39.1198 8.90137Z" fill="#59DC8E"/>
<path d="M39.1198 13.3521H36.4686C36.3004 13.3521 36.1641 13.4876 36.1641 13.6547V16.2892C36.1641 16.4564 36.3004 16.5919 36.4686 16.5919H39.1198C39.288 16.5919 39.4243 16.4564 39.4243 16.2892V13.6547C39.4243 13.4876 39.288 13.3521 39.1198 13.3521Z" fill="#59DC8E"/>
<path d="M39.1198 17.8022H36.4686C36.3004 17.8022 36.1641 17.9377 36.1641 18.1049V20.7394C36.1641 20.9066 36.3004 21.0421 36.4686 21.0421H39.1198C39.288 21.0421 39.4243 20.9066 39.4243 20.7394V18.1049C39.4243 17.9377 39.288 17.8022 39.1198 17.8022Z" fill="#59DC8E"/>
<path d="M39.1198 22.2534H36.4686C36.3004 22.2534 36.1641 22.3889 36.1641 22.5561V25.1906C36.1641 25.3578 36.3004 25.4933 36.4686 25.4933H39.1198C39.288 25.4933 39.4243 25.3578 39.4243 25.1906V22.5561C39.4243 22.3889 39.288 22.2534 39.1198 22.2534Z" fill="#59DC8E"/>
<path d="M39.1198 26.7041H36.4686C36.3004 26.7041 36.1641 26.8396 36.1641 27.0067V29.6413C36.1641 29.8084 36.3004 29.9439 36.4686 29.9439H39.1198C39.288 29.9439 39.4243 29.8084 39.4243 29.6413V27.0067C39.4243 26.8396 39.288 26.7041 39.1198 26.7041Z" fill="#EAFFF2"/>
<path d="M39.1198 31.1543H36.4686C36.3004 31.1543 36.1641 31.2898 36.1641 31.4569V34.0915C36.1641 34.2586 36.3004 34.3941 36.4686 34.3941H39.1198C39.288 34.3941 39.4243 34.2586 39.4243 34.0915V31.4569C39.4243 31.2898 39.288 31.1543 39.1198 31.1543Z" fill="#EAFFF2"/>
<path d="M39.1198 35.6055H36.4686C36.3004 35.6055 36.1641 35.741 36.1641 35.9081V38.5427C36.1641 38.7098 36.3004 38.8453 36.4686 38.8453H39.1198C39.288 38.8453 39.4243 38.7098 39.4243 38.5427V35.9081C39.4243 35.741 39.288 35.6055 39.1198 35.6055Z" fill="#59DC8E"/>
<path d="M39.1198 40.0562H36.4686C36.3004 40.0562 36.1641 40.1917 36.1641 40.3588V42.9933C36.1641 43.1605 36.3004 43.296 36.4686 43.296H39.1198C39.288 43.296 39.4243 43.1605 39.4243 42.9933V40.3588C39.4243 40.1917 39.288 40.0562 39.1198 40.0562Z" fill="#59DC8E"/>
<path d="M39.1198 44.5063H36.4686C36.3004 44.5063 36.1641 44.6418 36.1641 44.809V47.4435C36.1641 47.6107 36.3004 47.7462 36.4686 47.7462H39.1198C39.288 47.7462 39.4243 47.6107 39.4243 47.4435V44.809C39.4243 44.6418 39.288 44.5063 39.1198 44.5063Z" fill="#59DC8E"/>
<path d="M39.1198 48.9575H36.4686C36.3004 48.9575 36.1641 49.093 36.1641 49.2602V51.8947C36.1641 52.0619 36.3004 52.1974 36.4686 52.1974H39.1198C39.288 52.1974 39.4243 52.0619 39.4243 51.8947V49.2602C39.4243 49.093 39.288 48.9575 39.1198 48.9575Z" fill="#59DC8E"/>
<path d="M39.1198 53.4082H36.4686C36.3004 53.4082 36.1641 53.5437 36.1641 53.7109V56.3454C36.1641 56.5125 36.3004 56.648 36.4686 56.648H39.1198C39.288 56.648 39.4243 56.5125 39.4243 56.3454V53.7109C39.4243 53.5437 39.288 53.4082 39.1198 53.4082Z" fill="#59DC8E"/>
<path d="M39.1198 57.8584H36.4686C36.3004 57.8584 36.1641 57.9939 36.1641 58.161V60.7956C36.1641 60.9627 36.3004 61.0982 36.4686 61.0982H39.1198C39.288 61.0982 39.4243 60.9627 39.4243 60.7956V58.161C39.4243 57.9939 39.288 57.8584 39.1198 57.8584Z" fill="#59DC8E"/>
<path d="M39.1198 62.3096H36.4686C36.3004 62.3096 36.1641 62.4451 36.1641 62.6122V65.2468C36.1641 65.4139 36.3004 65.5494 36.4686 65.5494H39.1198C39.288 65.5494 39.4243 65.4139 39.4243 65.2468V62.6122C39.4243 62.4451 39.288 62.3096 39.1198 62.3096Z" fill="#59DC8E"/>
<path d="M39.1198 66.7603H36.4686C36.3004 66.7603 36.1641 66.8958 36.1641 67.0629V69.6974C36.1641 69.8646 36.3004 70.0001 36.4686 70.0001H39.1198C39.288 70.0001 39.4243 69.8646 39.4243 69.6974V67.0629C39.4243 66.8958 39.288 66.7603 39.1198 66.7603Z" fill="#59DC8E"/>
<path d="M43.5988 0H40.9476C40.7794 0 40.6431 0.1355 40.6431 0.302647V2.93719C40.6431 3.10434 40.7794 3.23984 40.9476 3.23984H43.5988C43.767 3.23984 43.9034 3.10434 43.9034 2.93719V0.302647C43.9034 0.1355 43.767 0 43.5988 0Z" fill="#59DC8E"/>
<path d="M43.5988 4.4502H40.9476C40.7794 4.4502 40.6431 4.5857 40.6431 4.75284V7.38739C40.6431 7.55453 40.7794 7.69003 40.9476 7.69003H43.5988C43.767 7.69003 43.9034 7.55453 43.9034 7.38739V4.75284C43.9034 4.5857 43.767 4.4502 43.5988 4.4502Z" fill="#59DC8E"/>
<path d="M43.5988 8.90137H40.9476C40.7794 8.90137 40.6431 9.03687 40.6431 9.20401V11.8386C40.6431 12.0057 40.7794 12.1412 40.9476 12.1412H43.5988C43.767 12.1412 43.9034 12.0057 43.9034 11.8386V9.20401C43.9034 9.03687 43.767 8.90137 43.5988 8.90137Z" fill="#59DC8E"/>
<path d="M43.5988 13.3521H40.9476C40.7794 13.3521 40.6431 13.4876 40.6431 13.6547V16.2892C40.6431 16.4564 40.7794 16.5919 40.9476 16.5919H43.5988C43.767 16.5919 43.9034 16.4564 43.9034 16.2892V13.6547C43.9034 13.4876 43.767 13.3521 43.5988 13.3521Z" fill="#59DC8E"/>
<path d="M43.5988 17.8022H40.9476C40.7794 17.8022 40.6431 17.9377 40.6431 18.1049V20.7394C40.6431 20.9066 40.7794 21.0421 40.9476 21.0421H43.5988C43.767 21.0421 43.9034 20.9066 43.9034 20.7394V18.1049C43.9034 17.9377 43.767 17.8022 43.5988 17.8022Z" fill="#59DC8E"/>
<path d="M43.5988 22.2534H40.9476C40.7794 22.2534 40.6431 22.3889 40.6431 22.5561V25.1906C40.6431 25.3578 40.7794 25.4933 40.9476 25.4933H43.5988C43.767 25.4933 43.9034 25.3578 43.9034 25.1906V22.5561C43.9034 22.3889 43.767 22.2534 43.5988 22.2534Z" fill="#59DC8E"/>
<path d="M43.5988 26.7041H40.9476C40.7794 26.7041 40.6431 26.8396 40.6431 27.0067V29.6413C40.6431 29.8084 40.7794 29.9439 40.9476 29.9439H43.5988C43.767 29.9439 43.9034 29.8084 43.9034 29.6413V27.0067C43.9034 26.8396 43.767 26.7041 43.5988 26.7041Z" fill="#EAFFF2"/>
<path d="M43.5988 31.1543H40.9476C40.7794 31.1543 40.6431 31.2898 40.6431 31.4569V34.0915C40.6431 34.2586 40.7794 34.3941 40.9476 34.3941H43.5988C43.767 34.3941 43.9034 34.2586 43.9034 34.0915V31.4569C43.9034 31.2898 43.767 31.1543 43.5988 31.1543Z" fill="#EAFFF2"/>
<path d="M43.5988 35.6055H40.9476C40.7794 35.6055 40.6431 35.741 40.6431 35.9081V38.5427C40.6431 38.7098 40.7794 38.8453 40.9476 38.8453H43.5988C43.767 38.8453 43.9034 38.7098 43.9034 38.5427V35.9081C43.9034 35.741 43.767 35.6055 43.5988 35.6055Z" fill="#59DC8E"/>
<path d="M43.5988 40.0562H40.9476C40.7794 40.0562 40.6431 40.1917 40.6431 40.3588V42.9933C40.6431 43.1605 40.7794 43.296 40.9476 43.296H43.5988C43.767 43.296 43.9034 43.1605 43.9034 42.9933V40.3588C43.9034 40.1917 43.767 40.0562 43.5988 40.0562Z" fill="#59DC8E"/>
<path d="M43.5988 44.5063H40.9476C40.7794 44.5063 40.6431 44.6418 40.6431 44.809V47.4435C40.6431 47.6107 40.7794 47.7462 40.9476 47.7462H43.5988C43.767 47.7462 43.9034 47.6107 43.9034 47.4435V44.809C43.9034 44.6418 43.767 44.5063 43.5988 44.5063Z" fill="#59DC8E"/>
<path d="M43.5988 48.9575H40.9476C40.7794 48.9575 40.6431 49.093 40.6431 49.2602V51.8947C40.6431 52.0619 40.7794 52.1974 40.9476 52.1974H43.5988C43.767 52.1974 43.9034 52.0619 43.9034 51.8947V49.2602C43.9034 49.093 43.767 48.9575 43.5988 48.9575Z" fill="#59DC8E"/>
<path d="M43.5988 53.4082H40.9476C40.7794 53.4082 40.6431 53.5437 40.6431 53.7109V56.3454C40.6431 56.5125 40.7794 56.648 40.9476 56.648H43.5988C43.767 56.648 43.9034 56.5125 43.9034 56.3454V53.7109C43.9034 53.5437 43.767 53.4082 43.5988 53.4082Z" fill="#59DC8E"/>
<path d="M43.5988 57.8584H40.9476C40.7794 57.8584 40.6431 57.9939 40.6431 58.161V60.7956C40.6431 60.9627 40.7794 61.0982 40.9476 61.0982H43.5988C43.767 61.0982 43.9034 60.9627 43.9034 60.7956V58.161C43.9034 57.9939 43.767 57.8584 43.5988 57.8584Z" fill="#59DC8E"/>
<path d="M43.5988 62.3096H40.9476C40.7794 62.3096 40.6431 62.4451 40.6431 62.6122V65.2468C40.6431 65.4139 40.7794 65.5494 40.9476 65.5494H43.5988C43.767 65.5494 43.9034 65.4139 43.9034 65.2468V62.6122C43.9034 62.4451 43.767 62.3096 43.5988 62.3096Z" fill="#59DC8E"/>
<path d="M43.5988 66.7603H40.9476C40.7794 66.7603 40.6431 66.8958 40.6431 67.0629V69.6974C40.6431 69.8646 40.7794 70.0001 40.9476 70.0001H43.5988C43.767 70.0001 43.9034 69.8646 43.9034 69.6974V67.0629C43.9034 66.8958 43.767 66.7603 43.5988 66.7603Z" fill="#59DC8E"/>
<path d="M48.0773 4.4502H45.4261C45.2579 4.4502 45.1216 4.5857 45.1216 4.75284V7.38739C45.1216 7.55453 45.2579 7.69003 45.4261 7.69003H48.0773C48.2455 7.69003 48.3819 7.55453 48.3819 7.38739V4.75284C48.3819 4.5857 48.2455 4.4502 48.0773 4.4502Z" fill="#59DC8E"/>
<path d="M48.0773 8.90137H45.4261C45.2579 8.90137 45.1216 9.03687 45.1216 9.20401V11.8386C45.1216 12.0057 45.2579 12.1412 45.4261 12.1412H48.0773C48.2455 12.1412 48.3819 12.0057 48.3819 11.8386V9.20401C48.3819 9.03687 48.2455 8.90137 48.0773 8.90137Z" fill="#59DC8E"/>
<path d="M48.0773 13.3521H45.4261C45.2579 13.3521 45.1216 13.4876 45.1216 13.6547V16.2892C45.1216 16.4564 45.2579 16.5919 45.4261 16.5919H48.0773C48.2455 16.5919 48.3819 16.4564 48.3819 16.2892V13.6547C48.3819 13.4876 48.2455 13.3521 48.0773 13.3521Z" fill="#59DC8E"/>
<path d="M48.0773 17.8022H45.4261C45.2579 17.8022 45.1216 17.9377 45.1216 18.1049V20.7394C45.1216 20.9066 45.2579 21.0421 45.4261 21.0421H48.0773C48.2455 21.0421 48.3819 20.9066 48.3819 20.7394V18.1049C48.3819 17.9377 48.2455 17.8022 48.0773 17.8022Z" fill="#59DC8E"/>
<path d="M48.0773 22.2534H45.4261C45.2579 22.2534 45.1216 22.3889 45.1216 22.5561V25.1906C45.1216 25.3578 45.2579 25.4933 45.4261 25.4933H48.0773C48.2455 25.4933 48.3819 25.3578 48.3819 25.1906V22.5561C48.3819 22.3889 48.2455 22.2534 48.0773 22.2534Z" fill="#59DC8E"/>
<path d="M48.0773 26.7041H45.4261C45.2579 26.7041 45.1216 26.8396 45.1216 27.0067V29.6413C45.1216 29.8084 45.2579 29.9439 45.4261 29.9439H48.0773C48.2455 29.9439 48.3819 29.8084 48.3819 29.6413V27.0067C48.3819 26.8396 48.2455 26.7041 48.0773 26.7041Z" fill="#59DC8E"/>
<path d="M48.0773 31.1543H45.4261C45.2579 31.1543 45.1216 31.2898 45.1216 31.4569V34.0915C45.1216 34.2586 45.2579 34.3941 45.4261 34.3941H48.0773C48.2455 34.3941 48.3819 34.2586 48.3819 34.0915V31.4569C48.3819 31.2898 48.2455 31.1543 48.0773 31.1543Z" fill="#59DC8E"/>
<path d="M48.0773 35.6055H45.4261C45.2579 35.6055 45.1216 35.741 45.1216 35.9081V38.5427C45.1216 38.7098 45.2579 38.8453 45.4261 38.8453H48.0773C48.2455 38.8453 48.3819 38.7098 48.3819 38.5427V35.9081C48.3819 35.741 48.2455 35.6055 48.0773 35.6055Z" fill="#59DC8E"/>
<path d="M48.0773 40.0562H45.4261C45.2579 40.0562 45.1216 40.1917 45.1216 40.3588V42.9933C45.1216 43.1605 45.2579 43.296 45.4261 43.296H48.0773C48.2455 43.296 48.3819 43.1605 48.3819 42.9933V40.3588C48.3819 40.1917 48.2455 40.0562 48.0773 40.0562Z" fill="#59DC8E"/>
<path d="M48.0773 44.5063H45.4261C45.2579 44.5063 45.1216 44.6418 45.1216 44.809V47.4435C45.1216 47.6107 45.2579 47.7462 45.4261 47.7462H48.0773C48.2455 47.7462 48.3819 47.6107 48.3819 47.4435V44.809C48.3819 44.6418 48.2455 44.5063 48.0773 44.5063Z" fill="#59DC8E"/>
<path d="M48.0773 48.9575H45.4261C45.2579 48.9575 45.1216 49.093 45.1216 49.2602V51.8947C45.1216 52.0619 45.2579 52.1974 45.4261 52.1974H48.0773C48.2455 52.1974 48.3819 52.0619 48.3819 51.8947V49.2602C48.3819 49.093 48.2455 48.9575 48.0773 48.9575Z" fill="#59DC8E"/>
<path d="M48.0773 53.4082H45.4261C45.2579 53.4082 45.1216 53.5437 45.1216 53.7109V56.3454C45.1216 56.5125 45.2579 56.648 45.4261 56.648H48.0773C48.2455 56.648 48.3819 56.5125 48.3819 56.3454V53.7109C48.3819 53.5437 48.2455 53.4082 48.0773 53.4082Z" fill="#59DC8E"/>
<path d="M48.0773 57.8584H45.4261C45.2579 57.8584 45.1216 57.9939 45.1216 58.161V60.7956C45.1216 60.9627 45.2579 61.0982 45.4261 61.0982H48.0773C48.2455 61.0982 48.3819 60.9627 48.3819 60.7956V58.161C48.3819 57.9939 48.2455 57.8584 48.0773 57.8584Z" fill="#59DC8E"/>
<path d="M48.0773 62.3096H45.4261C45.2579 62.3096 45.1216 62.4451 45.1216 62.6122V65.2468C45.1216 65.4139 45.2579 65.5494 45.4261 65.5494H48.0773C48.2455 65.5494 48.3819 65.4139 48.3819 65.2468V62.6122C48.3819 62.4451 48.2455 62.3096 48.0773 62.3096Z" fill="#59DC8E"/>
<path d="M48.0773 66.7603H45.4261C45.2579 66.7603 45.1216 66.8958 45.1216 67.0629V69.6974C45.1216 69.8646 45.2579 70.0001 45.4261 70.0001H48.0773C48.2455 70.0001 48.3819 69.8646 48.3819 69.6974V67.0629C48.3819 66.8958 48.2455 66.7603 48.0773 66.7603Z" fill="#59DC8E"/>
<path d="M52.5568 4.4502H49.9056C49.7374 4.4502 49.6011 4.5857 49.6011 4.75284V7.38739C49.6011 7.55453 49.7374 7.69003 49.9056 7.69003H52.5568C52.725 7.69003 52.8614 7.55453 52.8614 7.38739V4.75284C52.8614 4.5857 52.725 4.4502 52.5568 4.4502Z" fill="#59DC8E"/>
<path d="M52.5568 8.90137H49.9056C49.7374 8.90137 49.6011 9.03687 49.6011 9.20401V11.8386C49.6011 12.0057 49.7374 12.1412 49.9056 12.1412H52.5568C52.725 12.1412 52.8614 12.0057 52.8614 11.8386V9.20401C52.8614 9.03687 52.725 8.90137 52.5568 8.90137Z" fill="#59DC8E"/>
<path d="M52.5568 13.3521H49.9056C49.7374 13.3521 49.6011 13.4876 49.6011 13.6547V16.2892C49.6011 16.4564 49.7374 16.5919 49.9056 16.5919H52.5568C52.725 16.5919 52.8614 16.4564 52.8614 16.2892V13.6547C52.8614 13.4876 52.725 13.3521 52.5568 13.3521Z" fill="#59DC8E"/>
<path d="M52.5568 17.8022H49.9056C49.7374 17.8022 49.6011 17.9377 49.6011 18.1049V20.7394C49.6011 20.9066 49.7374 21.0421 49.9056 21.0421H52.5568C52.725 21.0421 52.8614 20.9066 52.8614 20.7394V18.1049C52.8614 17.9377 52.725 17.8022 52.5568 17.8022Z" fill="#59DC8E"/>
<path d="M52.5568 22.2534H49.9056C49.7374 22.2534 49.6011 22.3889 49.6011 22.5561V25.1906C49.6011 25.3578 49.7374 25.4933 49.9056 25.4933H52.5568C52.725 25.4933 52.8614 25.3578 52.8614 25.1906V22.5561C52.8614 22.3889 52.725 22.2534 52.5568 22.2534Z" fill="#59DC8E"/>
<path d="M52.5568 26.7041H49.9056C49.7374 26.7041 49.6011 26.8396 49.6011 27.0067V29.6413C49.6011 29.8084 49.7374 29.9439 49.9056 29.9439H52.5568C52.725 29.9439 52.8614 29.8084 52.8614 29.6413V27.0067C52.8614 26.8396 52.725 26.7041 52.5568 26.7041Z" fill="#59DC8E"/>
<path d="M52.5568 31.1543H49.9056C49.7374 31.1543 49.6011 31.2898 49.6011 31.4569V34.0915C49.6011 34.2586 49.7374 34.3941 49.9056 34.3941H52.5568C52.725 34.3941 52.8614 34.2586 52.8614 34.0915V31.4569C52.8614 31.2898 52.725 31.1543 52.5568 31.1543Z" fill="#59DC8E"/>
<path d="M52.5568 35.6055H49.9056C49.7374 35.6055 49.6011 35.741 49.6011 35.9081V38.5427C49.6011 38.7098 49.7374 38.8453 49.9056 38.8453H52.5568C52.725 38.8453 52.8614 38.7098 52.8614 38.5427V35.9081C52.8614 35.741 52.725 35.6055 52.5568 35.6055Z" fill="#59DC8E"/>
<path d="M52.5568 40.0562H49.9056C49.7374 40.0562 49.6011 40.1917 49.6011 40.3588V42.9933C49.6011 43.1605 49.7374 43.296 49.9056 43.296H52.5568C52.725 43.296 52.8614 43.1605 52.8614 42.9933V40.3588C52.8614 40.1917 52.725 40.0562 52.5568 40.0562Z" fill="#59DC8E"/>
<path d="M52.5568 44.5063H49.9056C49.7374 44.5063 49.6011 44.6418 49.6011 44.809V47.4435C49.6011 47.6107 49.7374 47.7462 49.9056 47.7462H52.5568C52.725 47.7462 52.8614 47.6107 52.8614 47.4435V44.809C52.8614 44.6418 52.725 44.5063 52.5568 44.5063Z" fill="#59DC8E"/>
<path d="M52.5568 48.9575H49.9056C49.7374 48.9575 49.6011 49.093 49.6011 49.2602V51.8947C49.6011 52.0619 49.7374 52.1974 49.9056 52.1974H52.5568C52.725 52.1974 52.8614 52.0619 52.8614 51.8947V49.2602C52.8614 49.093 52.725 48.9575 52.5568 48.9575Z" fill="#59DC8E"/>
<path d="M52.5568 53.4082H49.9056C49.7374 53.4082 49.6011 53.5437 49.6011 53.7109V56.3454C49.6011 56.5125 49.7374 56.648 49.9056 56.648H52.5568C52.725 56.648 52.8614 56.5125 52.8614 56.3454V53.7109C52.8614 53.5437 52.725 53.4082 52.5568 53.4082Z" fill="#59DC8E"/>
<path d="M52.5568 57.8584H49.9056C49.7374 57.8584 49.6011 57.9939 49.6011 58.161V60.7956C49.6011 60.9627 49.7374 61.0982 49.9056 61.0982H52.5568C52.725 61.0982 52.8614 60.9627 52.8614 60.7956V58.161C52.8614 57.9939 52.725 57.8584 52.5568 57.8584Z" fill="#59DC8E"/>
<path d="M52.5568 62.3096H49.9056C49.7374 62.3096 49.6011 62.4451 49.6011 62.6122V65.2468C49.6011 65.4139 49.7374 65.5494 49.9056 65.5494H52.5568C52.725 65.5494 52.8614 65.4139 52.8614 65.2468V62.6122C52.8614 62.4451 52.725 62.3096 52.5568 62.3096Z" fill="#59DC8E"/>
<path d="M57.0353 0H54.3841C54.2159 0 54.0796 0.1355 54.0796 0.302647V2.93719C54.0796 3.10434 54.2159 3.23984 54.3841 3.23984H57.0353C57.2035 3.23984 57.3399 3.10434 57.3399 2.93719V0.302647C57.3399 0.1355 57.2035 0 57.0353 0Z" fill="#59DC8E"/>
<path d="M57.0353 4.4502H54.3841C54.2159 4.4502 54.0796 4.5857 54.0796 4.75284V7.38739C54.0796 7.55453 54.2159 7.69003 54.3841 7.69003H57.0353C57.2035 7.69003 57.3399 7.55453 57.3399 7.38739V4.75284C57.3399 4.5857 57.2035 4.4502 57.0353 4.4502Z" fill="#59DC8E"/>
<path d="M57.0353 8.90137H54.3841C54.2159 8.90137 54.0796 9.03687 54.0796 9.20401V11.8386C54.0796 12.0057 54.2159 12.1412 54.3841 12.1412H57.0353C57.2035 12.1412 57.3399 12.0057 57.3399 11.8386V9.20401C57.3399 9.03687 57.2035 8.90137 57.0353 8.90137Z" fill="#59DC8E"/>
<path d="M57.0353 13.3521H54.3841C54.2159 13.3521 54.0796 13.4876 54.0796 13.6547V16.2892C54.0796 16.4564 54.2159 16.5919 54.3841 16.5919H57.0353C57.2035 16.5919 57.3399 16.4564 57.3399 16.2892V13.6547C57.3399 13.4876 57.2035 13.3521 57.0353 13.3521Z" fill="#59DC8E"/>
<path d="M57.0353 17.8022H54.3841C54.2159 17.8022 54.0796 17.9377 54.0796 18.1049V20.7394C54.0796 20.9066 54.2159 21.0421 54.3841 21.0421H57.0353C57.2035 21.0421 57.3399 20.9066 57.3399 20.7394V18.1049C57.3399 17.9377 57.2035 17.8022 57.0353 17.8022Z" fill="#59DC8E"/>
<path d="M57.0353 22.2534H54.3841C54.2159 22.2534 54.0796 22.3889 54.0796 22.5561V25.1906C54.0796 25.3578 54.2159 25.4933 54.3841 25.4933H57.0353C57.2035 25.4933 57.3399 25.3578 57.3399 25.1906V22.5561C57.3399 22.3889 57.2035 22.2534 57.0353 22.2534Z" fill="#59DC8E"/>
<path d="M57.0353 26.7041H54.3841C54.2159 26.7041 54.0796 26.8396 54.0796 27.0067V29.6413C54.0796 29.8084 54.2159 29.9439 54.3841 29.9439H57.0353C57.2035 29.9439 57.3399 29.8084 57.3399 29.6413V27.0067C57.3399 26.8396 57.2035 26.7041 57.0353 26.7041Z" fill="#59DC8E"/>
<path d="M57.0353 31.1543H54.3841C54.2159 31.1543 54.0796 31.2898 54.0796 31.4569V34.0915C54.0796 34.2586 54.2159 34.3941 54.3841 34.3941H57.0353C57.2035 34.3941 57.3399 34.2586 57.3399 34.0915V31.4569C57.3399 31.2898 57.2035 31.1543 57.0353 31.1543Z" fill="#59DC8E"/>
<path d="M57.0353 35.6055H54.3841C54.2159 35.6055 54.0796 35.741 54.0796 35.9081V38.5427C54.0796 38.7098 54.2159 38.8453 54.3841 38.8453H57.0353C57.2035 38.8453 57.3399 38.7098 57.3399 38.5427V35.9081C57.3399 35.741 57.2035 35.6055 57.0353 35.6055Z" fill="#59DC8E"/>
<path d="M57.0353 40.0562H54.3841C54.2159 40.0562 54.0796 40.1917 54.0796 40.3588V42.9933C54.0796 43.1605 54.2159 43.296 54.3841 43.296H57.0353C57.2035 43.296 57.3399 43.1605 57.3399 42.9933V40.3588C57.3399 40.1917 57.2035 40.0562 57.0353 40.0562Z" fill="#59DC8E"/>
<path d="M57.0353 44.5063H54.3841C54.2159 44.5063 54.0796 44.6418 54.0796 44.809V47.4435C54.0796 47.6107 54.2159 47.7462 54.3841 47.7462H57.0353C57.2035 47.7462 57.3399 47.6107 57.3399 47.4435V44.809C57.3399 44.6418 57.2035 44.5063 57.0353 44.5063Z" fill="#59DC8E"/>
<path d="M57.0353 48.9575H54.3841C54.2159 48.9575 54.0796 49.093 54.0796 49.2602V51.8947C54.0796 52.0619 54.2159 52.1974 54.3841 52.1974H57.0353C57.2035 52.1974 57.3399 52.0619 57.3399 51.8947V49.2602C57.3399 49.093 57.2035 48.9575 57.0353 48.9575Z" fill="#59DC8E"/>
<path d="M57.0353 53.4082H54.3841C54.2159 53.4082 54.0796 53.5437 54.0796 53.7109V56.3454C54.0796 56.5125 54.2159 56.648 54.3841 56.648H57.0353C57.2035 56.648 57.3399 56.5125 57.3399 56.3454V53.7109C57.3399 53.5437 57.2035 53.4082 57.0353 53.4082Z" fill="#59DC8E"/>
<path d="M61.5138 8.90137H58.8627C58.6945 8.90137 58.5581 9.03687 58.5581 9.20401V11.8386C58.5581 12.0057 58.6945 12.1412 58.8627 12.1412H61.5138C61.682 12.1412 61.8184 12.0057 61.8184 11.8386V9.20401C61.8184 9.03687 61.682 8.90137 61.5138 8.90137Z" fill="#59DC8E"/>
<path d="M61.5138 13.3521H58.8627C58.6945 13.3521 58.5581 13.4876 58.5581 13.6547V16.2892C58.5581 16.4564 58.6945 16.5919 58.8627 16.5919H61.5138C61.682 16.5919 61.8184 16.4564 61.8184 16.2892V13.6547C61.8184 13.4876 61.682 13.3521 61.5138 13.3521Z" fill="#59DC8E"/>
<path d="M61.5138 17.8022H58.8627C58.6945 17.8022 58.5581 17.9377 58.5581 18.1049V20.7394C58.5581 20.9066 58.6945 21.0421 58.8627 21.0421H61.5138C61.682 21.0421 61.8184 20.9066 61.8184 20.7394V18.1049C61.8184 17.9377 61.682 17.8022 61.5138 17.8022Z" fill="#59DC8E"/>
<path d="M61.5138 22.2534H58.8627C58.6945 22.2534 58.5581 22.3889 58.5581 22.5561V25.1906C58.5581 25.3578 58.6945 25.4933 58.8627 25.4933H61.5138C61.682 25.4933 61.8184 25.3578 61.8184 25.1906V22.5561C61.8184 22.3889 61.682 22.2534 61.5138 22.2534Z" fill="#59DC8E"/>
<path d="M61.5138 26.7041H58.8627C58.6945 26.7041 58.5581 26.8396 58.5581 27.0067V29.6413C58.5581 29.8084 58.6945 29.9439 58.8627 29.9439H61.5138C61.682 29.9439 61.8184 29.8084 61.8184 29.6413V27.0067C61.8184 26.8396 61.682 26.7041 61.5138 26.7041Z" fill="#59DC8E"/>
<path d="M61.5138 31.1543H58.8627C58.6945 31.1543 58.5581 31.2898 58.5581 31.4569V34.0915C58.5581 34.2586 58.6945 34.3941 58.8627 34.3941H61.5138C61.682 34.3941 61.8184 34.2586 61.8184 34.0915V31.4569C61.8184 31.2898 61.682 31.1543 61.5138 31.1543Z" fill="#59DC8E"/>
<path d="M61.5138 35.6055H58.8627C58.6945 35.6055 58.5581 35.741 58.5581 35.9081V38.5427C58.5581 38.7098 58.6945 38.8453 58.8627 38.8453H61.5138C61.682 38.8453 61.8184 38.7098 61.8184 38.5427V35.9081C61.8184 35.741 61.682 35.6055 61.5138 35.6055Z" fill="#59DC8E"/>
<path d="M61.5138 40.0562H58.8627C58.6945 40.0562 58.5581 40.1917 58.5581 40.3588V42.9933C58.5581 43.1605 58.6945 43.296 58.8627 43.296H61.5138C61.682 43.296 61.8184 43.1605 61.8184 42.9933V40.3588C61.8184 40.1917 61.682 40.0562 61.5138 40.0562Z" fill="#59DC8E"/>
<path d="M61.5138 44.5063H58.8627C58.6945 44.5063 58.5581 44.6418 58.5581 44.809V47.4435C58.5581 47.6107 58.6945 47.7462 58.8627 47.7462H61.5138C61.682 47.7462 61.8184 47.6107 61.8184 47.4435V44.809C61.8184 44.6418 61.682 44.5063 61.5138 44.5063Z" fill="#59DC8E"/>
<path d="M61.5138 48.9575H58.8627C58.6945 48.9575 58.5581 49.093 58.5581 49.2602V51.8947C58.5581 52.0619 58.6945 52.1974 58.8627 52.1974H61.5138C61.682 52.1974 61.8184 52.0619 61.8184 51.8947V49.2602C61.8184 49.093 61.682 48.9575 61.5138 48.9575Z" fill="#59DC8E"/>
<path d="M61.5138 53.4082H58.8627C58.6945 53.4082 58.5581 53.5437 58.5581 53.7109V56.3454C58.5581 56.5125 58.6945 56.648 58.8627 56.648H61.5138C61.682 56.648 61.8184 56.5125 61.8184 56.3454V53.7109C61.8184 53.5437 61.682 53.4082 61.5138 53.4082Z" fill="#59DC8E"/>
<path d="M65.9928 8.90137H63.3417C63.1735 8.90137 63.0371 9.03687 63.0371 9.20401V11.8386C63.0371 12.0057 63.1735 12.1412 63.3417 12.1412H65.9928C66.161 12.1412 66.2974 12.0057 66.2974 11.8386V9.20401C66.2974 9.03687 66.161 8.90137 65.9928 8.90137Z" fill="#59DC8E"/>
<path d="M65.9928 13.3521H63.3417C63.1735 13.3521 63.0371 13.4876 63.0371 13.6547V16.2892C63.0371 16.4564 63.1735 16.5919 63.3417 16.5919H65.9928C66.161 16.5919 66.2974 16.4564 66.2974 16.2892V13.6547C66.2974 13.4876 66.161 13.3521 65.9928 13.3521Z" fill="#59DC8E"/>
<path d="M65.9928 17.8022H63.3417C63.1735 17.8022 63.0371 17.9377 63.0371 18.1049V20.7394C63.0371 20.9066 63.1735 21.0421 63.3417 21.0421H65.9928C66.161 21.0421 66.2974 20.9066 66.2974 20.7394V18.1049C66.2974 17.9377 66.161 17.8022 65.9928 17.8022Z" fill="#59DC8E"/>
<path d="M65.9928 22.2534H63.3417C63.1735 22.2534 63.0371 22.3889 63.0371 22.5561V25.1906C63.0371 25.3578 63.1735 25.4933 63.3417 25.4933H65.9928C66.161 25.4933 66.2974 25.3578 66.2974 25.1906V22.5561C66.2974 22.3889 66.161 22.2534 65.9928 22.2534Z" fill="#59DC8E"/>
<path d="M65.9928 26.7041H63.3417C63.1735 26.7041 63.0371 26.8396 63.0371 27.0067V29.6413C63.0371 29.8084 63.1735 29.9439 63.3417 29.9439H65.9928C66.161 29.9439 66.2974 29.8084 66.2974 29.6413V27.0067C66.2974 26.8396 66.161 26.7041 65.9928 26.7041Z" fill="#59DC8E"/>
<path d="M65.9928 31.1543H63.3417C63.1735 31.1543 63.0371 31.2898 63.0371 31.4569V34.0915C63.0371 34.2586 63.1735 34.3941 63.3417 34.3941H65.9928C66.161 34.3941 66.2974 34.2586 66.2974 34.0915V31.4569C66.2974 31.2898 66.161 31.1543 65.9928 31.1543Z" fill="#59DC8E"/>
<path d="M65.9928 35.6055H63.3417C63.1735 35.6055 63.0371 35.741 63.0371 35.9081V38.5427C63.0371 38.7098 63.1735 38.8453 63.3417 38.8453H65.9928C66.161 38.8453 66.2974 38.7098 66.2974 38.5427V35.9081C66.2974 35.741 66.161 35.6055 65.9928 35.6055Z" fill="#59DC8E"/>
<path d="M65.9928 40.0562H63.3417C63.1735 40.0562 63.0371 40.1917 63.0371 40.3588V42.9933C63.0371 43.1605 63.1735 43.296 63.3417 43.296H65.9928C66.161 43.296 66.2974 43.1605 66.2974 42.9933V40.3588C66.2974 40.1917 66.161 40.0562 65.9928 40.0562Z" fill="#59DC8E"/>
<path d="M65.9928 44.5063H63.3417C63.1735 44.5063 63.0371 44.6418 63.0371 44.809V47.4435C63.0371 47.6107 63.1735 47.7462 63.3417 47.7462H65.9928C66.161 47.7462 66.2974 47.6107 66.2974 47.4435V44.809C66.2974 44.6418 66.161 44.5063 65.9928 44.5063Z" fill="#59DC8E"/>
<path d="M65.9928 48.9575H63.3417C63.1735 48.9575 63.0371 49.093 63.0371 49.2602V51.8947C63.0371 52.0619 63.1735 52.1974 63.3417 52.1974H65.9928C66.161 52.1974 66.2974 52.0619 66.2974 51.8947V49.2602C66.2974 49.093 66.161 48.9575 65.9928 48.9575Z" fill="#59DC8E"/>
<path d="M65.9928 53.4082H63.3417C63.1735 53.4082 63.0371 53.5437 63.0371 53.7109V56.3454C63.0371 56.5125 63.1735 56.648 63.3417 56.648H65.9928C66.161 56.648 66.2974 56.5125 66.2974 56.3454V53.7109C66.2974 53.5437 66.161 53.4082 65.9928 53.4082Z" fill="#59DC8E"/>
<path d="M65.9928 57.8584H63.3417C63.1735 57.8584 63.0371 57.9939 63.0371 58.161V60.7956C63.0371 60.9627 63.1735 61.0982 63.3417 61.0982H65.9928C66.161 61.0982 66.2974 60.9627 66.2974 60.7956V58.161C66.2974 57.9939 66.161 57.8584 65.9928 57.8584Z" fill="#59DC8E"/>
<path d="M70.4714 13.3521H67.8202C67.652 13.3521 67.5156 13.4876 67.5156 13.6547V16.2892C67.5156 16.4564 67.652 16.5919 67.8202 16.5919H70.4714C70.6396 16.5919 70.7759 16.4564 70.7759 16.2892V13.6547C70.7759 13.4876 70.6396 13.3521 70.4714 13.3521Z" fill="#59DC8E"/>
<path d="M70.4714 17.8022H67.8202C67.652 17.8022 67.5156 17.9377 67.5156 18.1049V20.7394C67.5156 20.9066 67.652 21.0421 67.8202 21.0421H70.4714C70.6396 21.0421 70.7759 20.9066 70.7759 20.7394V18.1049C70.7759 17.9377 70.6396 17.8022 70.4714 17.8022Z" fill="#59DC8E"/>
<path d="M70.4714 22.2534H67.8202C67.652 22.2534 67.5156 22.3889 67.5156 22.5561V25.1906C67.5156 25.3578 67.652 25.4933 67.8202 25.4933H70.4714C70.6396 25.4933 70.7759 25.3578 70.7759 25.1906V22.5561C70.7759 22.3889 70.6396 22.2534 70.4714 22.2534Z" fill="#59DC8E"/>
<path d="M70.4714 26.7041H67.8202C67.652 26.7041 67.5156 26.8396 67.5156 27.0067V29.6413C67.5156 29.8084 67.652 29.9439 67.8202 29.9439H70.4714C70.6396 29.9439 70.7759 29.8084 70.7759 29.6413V27.0067C70.7759 26.8396 70.6396 26.7041 70.4714 26.7041Z" fill="#59DC8E"/>
<path d="M70.4714 31.1543H67.8202C67.652 31.1543 67.5156 31.2898 67.5156 31.4569V34.0915C67.5156 34.2586 67.652 34.3941 67.8202 34.3941H70.4714C70.6396 34.3941 70.7759 34.2586 70.7759 34.0915V31.4569C70.7759 31.2898 70.6396 31.1543 70.4714 31.1543Z" fill="#59DC8E"/>
<path d="M70.4714 35.6055H67.8202C67.652 35.6055 67.5156 35.741 67.5156 35.9081V38.5427C67.5156 38.7098 67.652 38.8453 67.8202 38.8453H70.4714C70.6396 38.8453 70.7759 38.7098 70.7759 38.5427V35.9081C70.7759 35.741 70.6396 35.6055 70.4714 35.6055Z" fill="#59DC8E"/>
<path d="M70.4714 40.0562H67.8202C67.652 40.0562 67.5156 40.1917 67.5156 40.3588V42.9933C67.5156 43.1605 67.652 43.296 67.8202 43.296H70.4714C70.6396 43.296 70.7759 43.1605 70.7759 42.9933V40.3588C70.7759 40.1917 70.6396 40.0562 70.4714 40.0562Z" fill="#59DC8E"/>
<path d="M70.4714 44.5063H67.8202C67.652 44.5063 67.5156 44.6418 67.5156 44.809V47.4435C67.5156 47.6107 67.652 47.7462 67.8202 47.7462H70.4714C70.6396 47.7462 70.7759 47.6107 70.7759 47.4435V44.809C70.7759 44.6418 70.6396 44.5063 70.4714 44.5063Z" fill="#59DC8E"/>
<path d="M70.4714 48.9575H67.8202C67.652 48.9575 67.5156 49.093 67.5156 49.2602V51.8947C67.5156 52.0619 67.652 52.1974 67.8202 52.1974H70.4714C70.6396 52.1974 70.7759 52.0619 70.7759 51.8947V49.2602C70.7759 49.093 70.6396 48.9575 70.4714 48.9575Z" fill="#59DC8E"/>
<path d="M70.4714 53.4082H67.8202C67.652 53.4082 67.5156 53.5437 67.5156 53.7109V56.3454C67.5156 56.5125 67.652 56.648 67.8202 56.648H70.4714C70.6396 56.648 70.7759 56.5125 70.7759 56.3454V53.7109C70.7759 53.5437 70.6396 53.4082 70.4714 53.4082Z" fill="#59DC8E"/>
<path d="M70.4714 57.8584H67.8202C67.652 57.8584 67.5156 57.9939 67.5156 58.161V60.7956C67.5156 60.9627 67.652 61.0982 67.8202 61.0982H70.4714C70.6396 61.0982 70.7759 60.9627 70.7759 60.7956V58.161C70.7759 57.9939 70.6396 57.8584 70.4714 57.8584Z" fill="#59DC8E"/>
<path d="M74.9508 13.3521H72.2997C72.1315 13.3521 71.9951 13.4876 71.9951 13.6547V16.2892C71.9951 16.4564 72.1315 16.5919 72.2997 16.5919H74.9508C75.1191 16.5919 75.2554 16.4564 75.2554 16.2892V13.6547C75.2554 13.4876 75.1191 13.3521 74.9508 13.3521Z" fill="#59DC8E"/>
<path d="M74.9508 17.8022H72.2997C72.1315 17.8022 71.9951 17.9377 71.9951 18.1049V20.7394C71.9951 20.9066 72.1315 21.0421 72.2997 21.0421H74.9508C75.1191 21.0421 75.2554 20.9066 75.2554 20.7394V18.1049C75.2554 17.9377 75.1191 17.8022 74.9508 17.8022Z" fill="#59DC8E"/>
<path d="M74.9508 22.2534H72.2997C72.1315 22.2534 71.9951 22.3889 71.9951 22.5561V25.1906C71.9951 25.3578 72.1315 25.4933 72.2997 25.4933H74.9508C75.1191 25.4933 75.2554 25.3578 75.2554 25.1906V22.5561C75.2554 22.3889 75.1191 22.2534 74.9508 22.2534Z" fill="#59DC8E"/>
<path d="M74.9508 26.7041H72.2997C72.1315 26.7041 71.9951 26.8396 71.9951 27.0067V29.6413C71.9951 29.8084 72.1315 29.9439 72.2997 29.9439H74.9508C75.1191 29.9439 75.2554 29.8084 75.2554 29.6413V27.0067C75.2554 26.8396 75.1191 26.7041 74.9508 26.7041Z" fill="#59DC8E"/>
<path d="M74.9508 31.1543H72.2997C72.1315 31.1543 71.9951 31.2898 71.9951 31.4569V34.0915C71.9951 34.2586 72.1315 34.3941 72.2997 34.3941H74.9508C75.1191 34.3941 75.2554 34.2586 75.2554 34.0915V31.4569C75.2554 31.2898 75.1191 31.1543 74.9508 31.1543Z" fill="#59DC8E"/>
<path d="M74.9508 35.6055H72.2997C72.1315 35.6055 71.9951 35.741 71.9951 35.9081V38.5427C71.9951 38.7098 72.1315 38.8453 72.2997 38.8453H74.9508C75.1191 38.8453 75.2554 38.7098 75.2554 38.5427V35.9081C75.2554 35.741 75.1191 35.6055 74.9508 35.6055Z" fill="#59DC8E"/>
<path d="M74.9508 40.0562H72.2997C72.1315 40.0562 71.9951 40.1917 71.9951 40.3588V42.9933C71.9951 43.1605 72.1315 43.296 72.2997 43.296H74.9508C75.1191 43.296 75.2554 43.1605 75.2554 42.9933V40.3588C75.2554 40.1917 75.1191 40.0562 74.9508 40.0562Z" fill="#59DC8E"/>
<path d="M74.9508 44.5063H72.2997C72.1315 44.5063 71.9951 44.6418 71.9951 44.809V47.4435C71.9951 47.6107 72.1315 47.7462 72.2997 47.7462H74.9508C75.1191 47.7462 75.2554 47.6107 75.2554 47.4435V44.809C75.2554 44.6418 75.1191 44.5063 74.9508 44.5063Z" fill="#59DC8E"/>
<path d="M74.9508 48.9575H72.2997C72.1315 48.9575 71.9951 49.093 71.9951 49.2602V51.8947C71.9951 52.0619 72.1315 52.1974 72.2997 52.1974H74.9508C75.1191 52.1974 75.2554 52.0619 75.2554 51.8947V49.2602C75.2554 49.093 75.1191 48.9575 74.9508 48.9575Z" fill="#59DC8E"/>
<path d="M74.9508 53.4082H72.2997C72.1315 53.4082 71.9951 53.5437 71.9951 53.7109V56.3454C71.9951 56.5125 72.1315 56.648 72.2997 56.648H74.9508C75.1191 56.648 75.2554 56.5125 75.2554 56.3454V53.7109C75.2554 53.5437 75.1191 53.4082 74.9508 53.4082Z" fill="#59DC8E"/>
<path d="M74.9508 57.8584H72.2997C72.1315 57.8584 71.9951 57.9939 71.9951 58.161V60.7956C71.9951 60.9627 72.1315 61.0982 72.2997 61.0982H74.9508C75.1191 61.0982 75.2554 60.9627 75.2554 60.7956V58.161C75.2554 57.9939 75.1191 57.8584 74.9508 57.8584Z" fill="#59DC8E"/>
<path d="M74.9508 62.3096H72.2997C72.1315 62.3096 71.9951 62.4451 71.9951 62.6122V65.2468C71.9951 65.4139 72.1315 65.5494 72.2997 65.5494H74.9508C75.1191 65.5494 75.2554 65.4139 75.2554 65.2468V62.6122C75.2554 62.4451 75.1191 62.3096 74.9508 62.3096Z" fill="#59DC8E"/>
<path d="M79.4294 22.2534H76.7782C76.61 22.2534 76.4736 22.3889 76.4736 22.5561V25.1906C76.4736 25.3578 76.61 25.4933 76.7782 25.4933H79.4294C79.5976 25.4933 79.7339 25.3578 79.7339 25.1906V22.5561C79.7339 22.3889 79.5976 22.2534 79.4294 22.2534Z" fill="#59DC8E"/>
<path d="M79.4294 26.7041H76.7782C76.61 26.7041 76.4736 26.8396 76.4736 27.0067V29.6413C76.4736 29.8084 76.61 29.9439 76.7782 29.9439H79.4294C79.5976 29.9439 79.7339 29.8084 79.7339 29.6413V27.0067C79.7339 26.8396 79.5976 26.7041 79.4294 26.7041Z" fill="#59DC8E"/>
<path d="M79.4294 31.1543H76.7782C76.61 31.1543 76.4736 31.2898 76.4736 31.4569V34.0915C76.4736 34.2586 76.61 34.3941 76.7782 34.3941H79.4294C79.5976 34.3941 79.7339 34.2586 79.7339 34.0915V31.4569C79.7339 31.2898 79.5976 31.1543 79.4294 31.1543Z" fill="#59DC8E"/>
<path d="M79.4294 35.6055H76.7782C76.61 35.6055 76.4736 35.741 76.4736 35.9081V38.5427C76.4736 38.7098 76.61 38.8453 76.7782 38.8453H79.4294C79.5976 38.8453 79.7339 38.7098 79.7339 38.5427V35.9081C79.7339 35.741 79.5976 35.6055 79.4294 35.6055Z" fill="#59DC8E"/>
<path d="M79.4294 40.0562H76.7782C76.61 40.0562 76.4736 40.1917 76.4736 40.3588V42.9933C76.4736 43.1605 76.61 43.296 76.7782 43.296H79.4294C79.5976 43.296 79.7339 43.1605 79.7339 42.9933V40.3588C79.7339 40.1917 79.5976 40.0562 79.4294 40.0562Z" fill="#59DC8E"/>
<path d="M79.4294 44.5063H76.7782C76.61 44.5063 76.4736 44.6418 76.4736 44.809V47.4435C76.4736 47.6107 76.61 47.7462 76.7782 47.7462H79.4294C79.5976 47.7462 79.7339 47.6107 79.7339 47.4435V44.809C79.7339 44.6418 79.5976 44.5063 79.4294 44.5063Z" fill="#59DC8E"/>
<path d="M79.4294 48.9575H76.7782C76.61 48.9575 76.4736 49.093 76.4736 49.2602V51.8947C76.4736 52.0619 76.61 52.1974 76.7782 52.1974H79.4294C79.5976 52.1974 79.7339 52.0619 79.7339 51.8947V49.2602C79.7339 49.093 79.5976 48.9575 79.4294 48.9575Z" fill="#59DC8E"/>
<path d="M79.4294 53.4082H76.7782C76.61 53.4082 76.4736 53.5437 76.4736 53.7109V56.3454C76.4736 56.5125 76.61 56.648 76.7782 56.648H79.4294C79.5976 56.648 79.7339 56.5125 79.7339 56.3454V53.7109C79.7339 53.5437 79.5976 53.4082 79.4294 53.4082Z" fill="#59DC8E"/>
<path d="M79.4294 57.8584H76.7782C76.61 57.8584 76.4736 57.9939 76.4736 58.161V60.7956C76.4736 60.9627 76.61 61.0982 76.7782 61.0982H79.4294C79.5976 61.0982 79.7339 60.9627 79.7339 60.7956V58.161C79.7339 57.9939 79.5976 57.8584 79.4294 57.8584Z" fill="#59DC8E"/>
<path d="M79.4294 62.3096H76.7782C76.61 62.3096 76.4736 62.4451 76.4736 62.6122V65.2468C76.4736 65.4139 76.61 65.5494 76.7782 65.5494H79.4294C79.5976 65.5494 79.7339 65.4139 79.7339 65.2468V62.6122C79.7339 62.4451 79.5976 62.3096 79.4294 62.3096Z" fill="#59DC8E"/>
<path d="M83.9089 26.7041H81.2577C81.0895 26.7041 80.9531 26.8396 80.9531 27.0067V29.6413C80.9531 29.8084 81.0895 29.9439 81.2577 29.9439H83.9089C84.0771 29.9439 84.2134 29.8084 84.2134 29.6413V27.0067C84.2134 26.8396 84.0771 26.7041 83.9089 26.7041Z" fill="#59DC8E"/>
<path d="M83.9089 31.1543H81.2577C81.0895 31.1543 80.9531 31.2898 80.9531 31.4569V34.0915C80.9531 34.2586 81.0895 34.3941 81.2577 34.3941H83.9089C84.0771 34.3941 84.2134 34.2586 84.2134 34.0915V31.4569C84.2134 31.2898 84.0771 31.1543 83.9089 31.1543Z" fill="#59DC8E"/>
<path d="M83.9089 35.6055H81.2577C81.0895 35.6055 80.9531 35.741 80.9531 35.9081V38.5427C80.9531 38.7098 81.0895 38.8453 81.2577 38.8453H83.9089C84.0771 38.8453 84.2134 38.7098 84.2134 38.5427V35.9081C84.2134 35.741 84.0771 35.6055 83.9089 35.6055Z" fill="#59DC8E"/>
<path d="M83.9089 40.0562H81.2577C81.0895 40.0562 80.9531 40.1917 80.9531 40.3588V42.9933C80.9531 43.1605 81.0895 43.296 81.2577 43.296H83.9089C84.0771 43.296 84.2134 43.1605 84.2134 42.9933V40.3588C84.2134 40.1917 84.0771 40.0562 83.9089 40.0562Z" fill="#59DC8E"/>
<path d="M83.9089 44.5063H81.2577C81.0895 44.5063 80.9531 44.6418 80.9531 44.809V47.4435C80.9531 47.6107 81.0895 47.7462 81.2577 47.7462H83.9089C84.0771 47.7462 84.2134 47.6107 84.2134 47.4435V44.809C84.2134 44.6418 84.0771 44.5063 83.9089 44.5063Z" fill="#59DC8E"/>
<path d="M83.9089 48.9575H81.2577C81.0895 48.9575 80.9531 49.093 80.9531 49.2602V51.8947C80.9531 52.0619 81.0895 52.1974 81.2577 52.1974H83.9089C84.0771 52.1974 84.2134 52.0619 84.2134 51.8947V49.2602C84.2134 49.093 84.0771 48.9575 83.9089 48.9575Z" fill="#59DC8E"/>
<path d="M83.9089 53.4082H81.2577C81.0895 53.4082 80.9531 53.5437 80.9531 53.7109V56.3454C80.9531 56.5125 81.0895 56.648 81.2577 56.648H83.9089C84.0771 56.648 84.2134 56.5125 84.2134 56.3454V53.7109C84.2134 53.5437 84.0771 53.4082 83.9089 53.4082Z" fill="#59DC8E"/>
<path d="M83.9089 57.8584H81.2577C81.0895 57.8584 80.9531 57.9939 80.9531 58.161V60.7956C80.9531 60.9627 81.0895 61.0982 81.2577 61.0982H83.9089C84.0771 61.0982 84.2134 60.9627 84.2134 60.7956V58.161C84.2134 57.9939 84.0771 57.8584 83.9089 57.8584Z" fill="#59DC8E"/>
<path d="M88.3874 22.2534H85.7362C85.568 22.2534 85.4316 22.3889 85.4316 22.5561V25.1906C85.4316 25.3578 85.568 25.4933 85.7362 25.4933H88.3874C88.5556 25.4933 88.6919 25.3578 88.6919 25.1906V22.5561C88.6919 22.3889 88.5556 22.2534 88.3874 22.2534Z" fill="#59DC8E"/>
<path d="M88.3874 26.7041H85.7362C85.568 26.7041 85.4316 26.8396 85.4316 27.0067V29.6413C85.4316 29.8084 85.568 29.9439 85.7362 29.9439H88.3874C88.5556 29.9439 88.6919 29.8084 88.6919 29.6413V27.0067C88.6919 26.8396 88.5556 26.7041 88.3874 26.7041Z" fill="#59DC8E"/>
<path d="M88.3874 31.1543H85.7362C85.568 31.1543 85.4316 31.2898 85.4316 31.4569V34.0915C85.4316 34.2586 85.568 34.3941 85.7362 34.3941H88.3874C88.5556 34.3941 88.6919 34.2586 88.6919 34.0915V31.4569C88.6919 31.2898 88.5556 31.1543 88.3874 31.1543Z" fill="#59DC8E"/>
<path d="M88.3874 35.6055H85.7362C85.568 35.6055 85.4316 35.741 85.4316 35.9081V38.5427C85.4316 38.7098 85.568 38.8453 85.7362 38.8453H88.3874C88.5556 38.8453 88.6919 38.7098 88.6919 38.5427V35.9081C88.6919 35.741 88.5556 35.6055 88.3874 35.6055Z" fill="#59DC8E"/>
<path d="M88.3874 40.0562H85.7362C85.568 40.0562 85.4316 40.1917 85.4316 40.3588V42.9933C85.4316 43.1605 85.568 43.296 85.7362 43.296H88.3874C88.5556 43.296 88.6919 43.1605 88.6919 42.9933V40.3588C88.6919 40.1917 88.5556 40.0562 88.3874 40.0562Z" fill="#59DC8E"/>
<path d="M88.3874 44.5063H85.7362C85.568 44.5063 85.4316 44.6418 85.4316 44.809V47.4435C85.4316 47.6107 85.568 47.7462 85.7362 47.7462H88.3874C88.5556 47.7462 88.6919 47.6107 88.6919 47.4435V44.809C88.6919 44.6418 88.5556 44.5063 88.3874 44.5063Z" fill="#59DC8E"/>
<path d="M88.3874 48.9575H85.7362C85.568 48.9575 85.4316 49.093 85.4316 49.2602V51.8947C85.4316 52.0619 85.568 52.1974 85.7362 52.1974H88.3874C88.5556 52.1974 88.6919 52.0619 88.6919 51.8947V49.2602C88.6919 49.093 88.5556 48.9575 88.3874 48.9575Z" fill="#59DC8E"/>
<path d="M88.3874 53.4082H85.7362C85.568 53.4082 85.4316 53.5437 85.4316 53.7109V56.3454C85.4316 56.5125 85.568 56.648 85.7362 56.648H88.3874C88.5556 56.648 88.6919 56.5125 88.6919 56.3454V53.7109C88.6919 53.5437 88.5556 53.4082 88.3874 53.4082Z" fill="#59DC8E"/>
<path d="M88.3874 57.8584H85.7362C85.568 57.8584 85.4316 57.9939 85.4316 58.161V60.7956C85.4316 60.9627 85.568 61.0982 85.7362 61.0982H88.3874C88.5556 61.0982 88.6919 60.9627 88.6919 60.7956V58.161C88.6919 57.9939 88.5556 57.8584 88.3874 57.8584Z" fill="#59DC8E"/>
<path d="M88.3874 62.3096H85.7362C85.568 62.3096 85.4316 62.4451 85.4316 62.6122V65.2468C85.4316 65.4139 85.568 65.5494 85.7362 65.5494H88.3874C88.5556 65.5494 88.6919 65.4139 88.6919 65.2468V62.6122C88.6919 62.4451 88.5556 62.3096 88.3874 62.3096Z" fill="#59DC8E"/>
<path d="M92.8659 17.8022H90.2147C90.0465 17.8022 89.9102 17.9377 89.9102 18.1049V20.7394C89.9102 20.9066 90.0465 21.0421 90.2147 21.0421H92.8659C93.0341 21.0421 93.1704 20.9066 93.1704 20.7394V18.1049C93.1704 17.9377 93.0341 17.8022 92.8659 17.8022Z" fill="#59DC8E"/>
<path d="M92.8659 22.2534H90.2147C90.0465 22.2534 89.9102 22.3889 89.9102 22.5561V25.1906C89.9102 25.3578 90.0465 25.4933 90.2147 25.4933H92.8659C93.0341 25.4933 93.1704 25.3578 93.1704 25.1906V22.5561C93.1704 22.3889 93.0341 22.2534 92.8659 22.2534Z" fill="#59DC8E"/>
<path d="M92.8659 26.7041H90.2147C90.0465 26.7041 89.9102 26.8396 89.9102 27.0067V29.6413C89.9102 29.8084 90.0465 29.9439 90.2147 29.9439H92.8659C93.0341 29.9439 93.1704 29.8084 93.1704 29.6413V27.0067C93.1704 26.8396 93.0341 26.7041 92.8659 26.7041Z" fill="#59DC8E"/>
<path d="M92.8659 31.1543H90.2147C90.0465 31.1543 89.9102 31.2898 89.9102 31.4569V34.0915C89.9102 34.2586 90.0465 34.3941 90.2147 34.3941H92.8659C93.0341 34.3941 93.1704 34.2586 93.1704 34.0915V31.4569C93.1704 31.2898 93.0341 31.1543 92.8659 31.1543Z" fill="#59DC8E"/>
<path d="M92.8659 35.6055H90.2147C90.0465 35.6055 89.9102 35.741 89.9102 35.9081V38.5427C89.9102 38.7098 90.0465 38.8453 90.2147 38.8453H92.8659C93.0341 38.8453 93.1704 38.7098 93.1704 38.5427V35.9081C93.1704 35.741 93.0341 35.6055 92.8659 35.6055Z" fill="#59DC8E"/>
<path d="M92.8659 40.0562H90.2147C90.0465 40.0562 89.9102 40.1917 89.9102 40.3588V42.9933C89.9102 43.1605 90.0465 43.296 90.2147 43.296H92.8659C93.0341 43.296 93.1704 43.1605 93.1704 42.9933V40.3588C93.1704 40.1917 93.0341 40.0562 92.8659 40.0562Z" fill="#59DC8E"/>
<path d="M92.8659 44.5063H90.2147C90.0465 44.5063 89.9102 44.6418 89.9102 44.809V47.4435C89.9102 47.6107 90.0465 47.7462 90.2147 47.7462H92.8659C93.0341 47.7462 93.1704 47.6107 93.1704 47.4435V44.809C93.1704 44.6418 93.0341 44.5063 92.8659 44.5063Z" fill="#59DC8E"/>
<path d="M92.8659 48.9575H90.2147C90.0465 48.9575 89.9102 49.093 89.9102 49.2602V51.8947C89.9102 52.0619 90.0465 52.1974 90.2147 52.1974H92.8659C93.0341 52.1974 93.1704 52.0619 93.1704 51.8947V49.2602C93.1704 49.093 93.0341 48.9575 92.8659 48.9575Z" fill="#59DC8E"/>
<path d="M92.8659 53.4082H90.2147C90.0465 53.4082 89.9102 53.5437 89.9102 53.7109V56.3454C89.9102 56.5125 90.0465 56.648 90.2147 56.648H92.8659C93.0341 56.648 93.1704 56.5125 93.1704 56.3454V53.7109C93.1704 53.5437 93.0341 53.4082 92.8659 53.4082Z" fill="#59DC8E"/>
<path d="M92.8659 57.8584H90.2147C90.0465 57.8584 89.9102 57.9939 89.9102 58.161V60.7956C89.9102 60.9627 90.0465 61.0982 90.2147 61.0982H92.8659C93.0341 61.0982 93.1704 60.9627 93.1704 60.7956V58.161C93.1704 57.9939 93.0341 57.8584 92.8659 57.8584Z" fill="#59DC8E"/>
<path d="M97.3449 22.2534H94.6937C94.5255 22.2534 94.3892 22.3889 94.3892 22.5561V25.1906C94.3892 25.3578 94.5255 25.4933 94.6937 25.4933H97.3449C97.5131 25.4933 97.6494 25.3578 97.6494 25.1906V22.5561C97.6494 22.3889 97.5131 22.2534 97.3449 22.2534Z" fill="#59DC8E"/>
<path d="M97.3449 26.7041H94.6937C94.5255 26.7041 94.3892 26.8396 94.3892 27.0067V29.6413C94.3892 29.8084 94.5255 29.9439 94.6937 29.9439H97.3449C97.5131 29.9439 97.6494 29.8084 97.6494 29.6413V27.0067C97.6494 26.8396 97.5131 26.7041 97.3449 26.7041Z" fill="#59DC8E"/>
<path d="M97.3449 31.1543H94.6937C94.5255 31.1543 94.3892 31.2898 94.3892 31.4569V34.0915C94.3892 34.2586 94.5255 34.3941 94.6937 34.3941H97.3449C97.5131 34.3941 97.6494 34.2586 97.6494 34.0915V31.4569C97.6494 31.2898 97.5131 31.1543 97.3449 31.1543Z" fill="#59DC8E"/>
<path d="M97.3449 35.6055H94.6937C94.5255 35.6055 94.3892 35.741 94.3892 35.9081V38.5427C94.3892 38.7098 94.5255 38.8453 94.6937 38.8453H97.3449C97.5131 38.8453 97.6494 38.7098 97.6494 38.5427V35.9081C97.6494 35.741 97.5131 35.6055 97.3449 35.6055Z" fill="#59DC8E"/>
<path d="M97.3449 40.0562H94.6937C94.5255 40.0562 94.3892 40.1917 94.3892 40.3588V42.9933C94.3892 43.1605 94.5255 43.296 94.6937 43.296H97.3449C97.5131 43.296 97.6494 43.1605 97.6494 42.9933V40.3588C97.6494 40.1917 97.5131 40.0562 97.3449 40.0562Z" fill="#59DC8E"/>
<path d="M97.3449 44.5063H94.6937C94.5255 44.5063 94.3892 44.6418 94.3892 44.809V47.4435C94.3892 47.6107 94.5255 47.7462 94.6937 47.7462H97.3449C97.5131 47.7462 97.6494 47.6107 97.6494 47.4435V44.809C97.6494 44.6418 97.5131 44.5063 97.3449 44.5063Z" fill="#59DC8E"/>
<path d="M97.3449 48.9575H94.6937C94.5255 48.9575 94.3892 49.093 94.3892 49.2602V51.8947C94.3892 52.0619 94.5255 52.1974 94.6937 52.1974H97.3449C97.5131 52.1974 97.6494 52.0619 97.6494 51.8947V49.2602C97.6494 49.093 97.5131 48.9575 97.3449 48.9575Z" fill="#59DC8E"/>
<path d="M97.3449 53.4082H94.6937C94.5255 53.4082 94.3892 53.5437 94.3892 53.7109V56.3454C94.3892 56.5125 94.5255 56.648 94.6937 56.648H97.3449C97.5131 56.648 97.6494 56.5125 97.6494 56.3454V53.7109C97.6494 53.5437 97.5131 53.4082 97.3449 53.4082Z" fill="#59DC8E"/>
<path d="M97.3449 57.8584H94.6937C94.5255 57.8584 94.3892 57.9939 94.3892 58.161V60.7956C94.3892 60.9627 94.5255 61.0982 94.6937 61.0982H97.3449C97.5131 61.0982 97.6494 60.9627 97.6494 60.7956V58.161C97.6494 57.9939 97.5131 57.8584 97.3449 57.8584Z" fill="#59DC8E"/>
<path d="M101.823 22.2534H99.1722C99.004 22.2534 98.8677 22.3889 98.8677 22.5561V25.1906C98.8677 25.3578 99.004 25.4933 99.1722 25.4933H101.823C101.992 25.4933 102.128 25.3578 102.128 25.1906V22.5561C102.128 22.3889 101.992 22.2534 101.823 22.2534Z" fill="#59DC8E"/>
<path d="M101.823 31.1543H99.1722C99.004 31.1543 98.8677 31.2898 98.8677 31.4569V34.0915C98.8677 34.2586 99.004 34.3941 99.1722 34.3941H101.823C101.992 34.3941 102.128 34.2586 102.128 34.0915V31.4569C102.128 31.2898 101.992 31.1543 101.823 31.1543Z" fill="#59DC8E"/>
<path d="M101.823 35.6055H99.1722C99.004 35.6055 98.8677 35.741 98.8677 35.9081V38.5427C98.8677 38.7098 99.004 38.8453 99.1722 38.8453H101.823C101.992 38.8453 102.128 38.7098 102.128 38.5427V35.9081C102.128 35.741 101.992 35.6055 101.823 35.6055Z" fill="#59DC8E"/>
<path d="M101.823 40.0562H99.1722C99.004 40.0562 98.8677 40.1917 98.8677 40.3588V42.9933C98.8677 43.1605 99.004 43.296 99.1722 43.296H101.823C101.992 43.296 102.128 43.1605 102.128 42.9933V40.3588C102.128 40.1917 101.992 40.0562 101.823 40.0562Z" fill="#59DC8E"/>
<path d="M101.823 44.5063H99.1722C99.004 44.5063 98.8677 44.6418 98.8677 44.809V47.4435C98.8677 47.6107 99.004 47.7462 99.1722 47.7462H101.823C101.992 47.7462 102.128 47.6107 102.128 47.4435V44.809C102.128 44.6418 101.992 44.5063 101.823 44.5063Z" fill="#59DC8E"/>
<path d="M101.823 48.9575H99.1722C99.004 48.9575 98.8677 49.093 98.8677 49.2602V51.8947C98.8677 52.0619 99.004 52.1974 99.1722 52.1974H101.823C101.992 52.1974 102.128 52.0619 102.128 51.8947V49.2602C102.128 49.093 101.992 48.9575 101.823 48.9575Z" fill="#59DC8E"/>
<path d="M101.823 53.4082H99.1722C99.004 53.4082 98.8677 53.5437 98.8677 53.7109V56.3454C98.8677 56.5125 99.004 56.648 99.1722 56.648H101.823C101.992 56.648 102.128 56.5125 102.128 56.3454V53.7109C102.128 53.5437 101.992 53.4082 101.823 53.4082Z" fill="#59DC8E"/>
<path d="M101.823 57.8584H99.1722C99.004 57.8584 98.8677 57.9939 98.8677 58.161V60.7956C98.8677 60.9627 99.004 61.0982 99.1722 61.0982H101.823C101.992 61.0982 102.128 60.9627 102.128 60.7956V58.161C102.128 57.9939 101.992 57.8584 101.823 57.8584Z" fill="#59DC8E"/>
<path d="M106.303 31.1543H103.652C103.484 31.1543 103.347 31.2898 103.347 31.4569V34.0915C103.347 34.2586 103.484 34.3941 103.652 34.3941H106.303C106.471 34.3941 106.607 34.2586 106.607 34.0915V31.4569C106.607 31.2898 106.471 31.1543 106.303 31.1543Z" fill="#59DC8E"/>
<path d="M106.303 35.6055H103.652C103.484 35.6055 103.347 35.741 103.347 35.9081V38.5427C103.347 38.7098 103.484 38.8453 103.652 38.8453H106.303C106.471 38.8453 106.607 38.7098 106.607 38.5427V35.9081C106.607 35.741 106.471 35.6055 106.303 35.6055Z" fill="#59DC8E"/>
<path d="M106.303 40.0562H103.652C103.484 40.0562 103.347 40.1917 103.347 40.3588V42.9933C103.347 43.1605 103.484 43.296 103.652 43.296H106.303C106.471 43.296 106.607 43.1605 106.607 42.9933V40.3588C106.607 40.1917 106.471 40.0562 106.303 40.0562Z" fill="#59DC8E"/>
<path d="M106.303 44.5063H103.652C103.484 44.5063 103.347 44.6418 103.347 44.809V47.4435C103.347 47.6107 103.484 47.7462 103.652 47.7462H106.303C106.471 47.7462 106.607 47.6107 106.607 47.4435V44.809C106.607 44.6418 106.471 44.5063 106.303 44.5063Z" fill="#59DC8E"/>
<path d="M106.303 48.9575H103.652C103.484 48.9575 103.347 49.093 103.347 49.2602V51.8947C103.347 52.0619 103.484 52.1974 103.652 52.1974H106.303C106.471 52.1974 106.607 52.0619 106.607 51.8947V49.2602C106.607 49.093 106.471 48.9575 106.303 48.9575Z" fill="#59DC8E"/>
<path d="M106.303 53.4082H103.652C103.484 53.4082 103.347 53.5437 103.347 53.7109V56.3454C103.347 56.5125 103.484 56.648 103.652 56.648H106.303C106.471 56.648 106.607 56.5125 106.607 56.3454V53.7109C106.607 53.5437 106.471 53.4082 106.303 53.4082Z" fill="#59DC8E"/>
<path d="M110.781 31.1543H108.13C107.962 31.1543 107.826 31.2898 107.826 31.4569V34.0915C107.826 34.2586 107.962 34.3941 108.13 34.3941H110.781C110.95 34.3941 111.086 34.2586 111.086 34.0915V31.4569C111.086 31.2898 110.95 31.1543 110.781 31.1543Z" fill="#59DC8E"/>
<path d="M110.781 35.6055H108.13C107.962 35.6055 107.826 35.741 107.826 35.9081V38.5427C107.826 38.7098 107.962 38.8453 108.13 38.8453H110.781C110.95 38.8453 111.086 38.7098 111.086 38.5427V35.9081C111.086 35.741 110.95 35.6055 110.781 35.6055Z" fill="#59DC8E"/>
<path d="M110.781 40.0562H108.13C107.962 40.0562 107.826 40.1917 107.826 40.3588V42.9933C107.826 43.1605 107.962 43.296 108.13 43.296H110.781C110.95 43.296 111.086 43.1605 111.086 42.9933V40.3588C111.086 40.1917 110.95 40.0562 110.781 40.0562Z" fill="#59DC8E"/>
<path d="M110.781 44.5063H108.13C107.962 44.5063 107.826 44.6418 107.826 44.809V47.4435C107.826 47.6107 107.962 47.7462 108.13 47.7462H110.781C110.95 47.7462 111.086 47.6107 111.086 47.4435V44.809C111.086 44.6418 110.95 44.5063 110.781 44.5063Z" fill="#59DC8E"/>
<path d="M110.781 48.9575H108.13C107.962 48.9575 107.826 49.093 107.826 49.2602V51.8947C107.826 52.0619 107.962 52.1974 108.13 52.1974H110.781C110.95 52.1974 111.086 52.0619 111.086 51.8947V49.2602C111.086 49.093 110.95 48.9575 110.781 48.9575Z" fill="#59DC8E"/>
<path d="M115.26 31.1543H112.609C112.441 31.1543 112.305 31.2898 112.305 31.4569V34.0915C112.305 34.2586 112.441 34.3941 112.609 34.3941H115.26C115.429 34.3941 115.565 34.2586 115.565 34.0915V31.4569C115.565 31.2898 115.429 31.1543 115.26 31.1543Z" fill="#59DC8E"/>
<path d="M115.26 35.6055H112.609C112.441 35.6055 112.305 35.741 112.305 35.9081V38.5427C112.305 38.7098 112.441 38.8453 112.609 38.8453H115.26C115.429 38.8453 115.565 38.7098 115.565 38.5427V35.9081C115.565 35.741 115.429 35.6055 115.26 35.6055Z" fill="#59DC8E"/>
<path d="M115.26 40.0562H112.609C112.441 40.0562 112.305 40.1917 112.305 40.3588V42.9933C112.305 43.1605 112.441 43.296 112.609 43.296H115.26C115.429 43.296 115.565 43.1605 115.565 42.9933V40.3588C115.565 40.1917 115.429 40.0562 115.26 40.0562Z" fill="#59DC8E"/>
<path d="M115.26 44.5063H112.609C112.441 44.5063 112.305 44.6418 112.305 44.809V47.4435C112.305 47.6107 112.441 47.7462 112.609 47.7462H115.26C115.429 47.7462 115.565 47.6107 115.565 47.4435V44.809C115.565 44.6418 115.429 44.5063 115.26 44.5063Z" fill="#59DC8E"/>
<path d="M119.739 35.6055H117.088C116.92 35.6055 116.783 35.741 116.783 35.9081V38.5427C116.783 38.7098 116.92 38.8453 117.088 38.8453H119.739C119.907 38.8453 120.043 38.7098 120.043 38.5427V35.9081C120.043 35.741 119.907 35.6055 119.739 35.6055Z" fill="#59DC8E"/>
<path d="M119.739 40.0562H117.088C116.92 40.0562 116.783 40.1917 116.783 40.3588V42.9933C116.783 43.1605 116.92 43.296 117.088 43.296H119.739C119.907 43.296 120.043 43.1605 120.043 42.9933V40.3588C120.043 40.1917 119.907 40.0562 119.739 40.0562Z" fill="#59DC8E"/>
</g>
<defs>
<clipPath id="clip0_7643_15680">
<rect width="119.71" height="70" fill="white" transform="translate(0.333496)"/>
</clipPath>
</defs>
</svg>
