<svg width="101" height="101" viewBox="0 0 101 101" fill="none" xmlns="http://www.w3.org/2000/svg">
<path d="M49.7937 21.8564C44.3403 21.8564 39.0093 23.4736 34.475 26.5033C29.9406 29.5331 26.4065 33.8394 24.3196 38.8777C22.2327 43.916 21.6866 49.46 22.7505 54.8087C23.8144 60.1573 26.4405 65.0704 30.2967 68.9265C34.1528 72.7827 39.0658 75.4087 44.4145 76.4726C49.7631 77.5366 55.3071 76.9905 60.3454 74.9036C65.3837 72.8166 69.6901 69.2825 72.7198 64.7482C75.7496 60.2138 77.3667 54.8829 77.3667 49.4294C77.3667 42.1166 74.4617 35.1033 69.2908 29.9324C64.1198 24.7614 57.1065 21.8564 49.7937 21.8564V21.8564ZM45.8749 60.8526H38.2595V53.2371H45.8749V60.8526ZM61.1057 53.2371H53.5307V45.6217H45.8749V38.0063H61.1057V45.6217V53.2371Z" fill="#F76F57"/>
<path d="M6.96875 64.4278C7.92576 67.1545 9.1434 69.7825 10.6048 72.2755L11.534 71.72C10.1465 69.32 8.98987 66.7938 8.07975 64.1753L6.96875 64.4278Z" fill="white"/>
<path d="M49.7922 5.14094C51.5033 5.14113 53.2129 5.23892 54.9129 5.43384L55.0947 4.42384C53.336 4.19409 51.5656 4.06595 49.7922 4.04004C48.105 4.04394 46.4193 4.13834 44.7422 4.32284L44.9644 5.33284C46.5691 5.18345 48.1807 5.1194 49.7922 5.14094V5.14094Z" fill="white"/>
<path d="M87.1621 73.1847L88.061 73.7907C89.5011 71.5503 90.7349 69.184 91.7475 66.7207L90.7375 66.3672C89.7484 68.7403 88.5519 71.0217 87.1621 73.1847V73.1847Z" fill="white"/>
<path d="M64.8918 12.3422C65.4491 12.2681 65.9761 12.0447 66.4169 11.6958C66.8126 11.3671 67.1126 10.938 67.2855 10.4535C67.5031 9.92774 67.5351 9.34355 67.3764 8.79712C67.2454 8.34703 66.9981 7.93944 66.6593 7.61542C66.2203 7.21294 65.751 6.84489 65.2554 6.51452C64.7605 6.17112 64.3868 5.87822 64.1242 5.65602C63.8729 5.4425 63.6756 5.17255 63.5485 4.86822C63.4242 4.54304 63.4242 4.18341 63.5485 3.85822C63.6162 3.62863 63.7362 3.41788 63.8992 3.24261C64.0622 3.06734 64.2637 2.93233 64.4878 2.84822C64.9672 2.67291 65.4931 2.67291 65.9725 2.84822C66.4873 2.99894 66.9314 3.32844 67.2249 3.77742C67.3448 3.96408 67.4262 4.17279 67.4643 4.39131C67.5025 4.60984 67.4966 4.83379 67.4471 5.05002L68.8813 5.55502C68.9839 5.18082 69.0054 4.78904 68.9444 4.40586C68.8835 4.02269 68.7414 3.65693 68.5278 3.33302C68.0423 2.61684 67.3313 2.08356 66.5078 1.81802C65.9106 1.59963 65.2731 1.51348 64.6393 1.56552C64.0903 1.60372 63.5641 1.80017 63.1243 2.13112C62.6924 2.46597 62.372 2.92371 62.2052 3.44412C61.9865 3.95054 61.9404 4.51481 62.0739 5.05002C62.2103 5.49667 62.4651 5.89804 62.8112 6.21152C63.2513 6.60661 63.7206 6.96787 64.2151 7.29222C64.6999 7.62552 65.0837 7.90832 65.3564 8.14062C65.6189 8.36464 65.8233 8.64877 65.9523 8.96882C66.0757 9.29418 66.0757 9.65346 65.9523 9.97882C65.874 10.2141 65.7419 10.4278 65.5666 10.6031C65.3913 10.7784 65.1776 10.9105 64.9423 10.9888C64.4155 11.1901 63.833 11.1901 63.3061 10.9888C62.7514 10.8353 62.2773 10.4735 61.983 9.97882C61.758 9.55039 61.7004 9.05357 61.8214 8.58502L60.468 8.08002C60.3023 8.6025 60.3023 9.16344 60.468 9.68592C60.6149 10.2271 60.9044 10.719 61.3063 11.11C61.7768 11.5602 62.3381 11.9046 62.9526 12.12C63.5711 12.3515 64.237 12.4278 64.8918 12.3422V12.3422Z" fill="white"/>
<path d="M78.2146 10.9785C77.9294 10.4563 77.5201 10.0123 77.0228 9.6857C76.5614 9.37599 76.0371 9.17247 75.4876 9.0898C74.9812 9.01372 74.4636 9.08017 73.9928 9.2817L76.2855 5.8679L75.1341 5.0498L68.8418 14.4125L69.9932 15.1801L72.5687 11.3522C72.9349 10.7376 73.525 10.2888 74.215 10.0998C74.5324 10.0313 74.8609 10.0319 75.1781 10.1016C75.4953 10.1713 75.7938 10.3085 76.0532 10.5038C76.3174 10.6701 76.5438 10.8899 76.7178 11.1491C76.8918 11.4083 77.0095 11.7012 77.0632 12.0087C77.1403 12.6983 76.9446 13.3907 76.5178 13.9378L73.8817 17.8566L75.0129 18.6242L77.7601 14.5842C78.1608 14.0305 78.4145 13.3841 78.4974 12.7056C78.5881 12.1145 78.4891 11.5098 78.2146 10.9785V10.9785Z" fill="white"/>
<path d="M81.406 24.7247C82.0974 24.9778 82.8448 25.0372 83.5674 24.8964C84.3483 24.7349 85.0707 24.365 85.6581 23.8258C86.2666 23.3192 86.73 22.6606 87.0015 21.9169C87.249 21.2377 87.298 20.502 87.1429 19.7959C86.9711 19.0676 86.6249 18.3919 86.134 17.8271C85.6431 17.2623 85.0223 16.8253 84.3249 16.5538C83.6398 16.3032 82.8987 16.2473 82.1837 16.3922C81.413 16.5652 80.6999 16.9339 80.1132 17.4628C79.5163 17.9777 79.0579 18.634 78.78 19.3717C78.5258 20.049 78.4697 20.7847 78.6184 21.4927C78.7804 22.219 79.1285 22.8908 79.6284 23.442C80.1046 24.0113 80.7157 24.4523 81.406 24.7247V24.7247ZM79.992 19.9474C80.2122 19.4029 80.5584 18.9183 81.002 18.5334C81.4388 18.129 81.9702 17.8408 82.5473 17.6951C83.0266 17.5835 83.5278 17.6115 83.9916 17.7759C84.4491 17.9479 84.8556 18.2328 85.1733 18.6041C85.501 18.9656 85.7336 19.4029 85.85 19.8767C85.9569 20.3645 85.9218 20.8727 85.7491 21.3412C85.5379 21.8935 85.1905 22.3834 84.739 22.7653C84.3014 23.1678 83.7646 23.4466 83.1836 23.5733C82.6893 23.6829 82.1739 23.6479 81.6989 23.4723C81.2427 23.298 80.8368 23.0134 80.5172 22.6441C80.195 22.2871 79.9721 21.8518 79.8708 21.3816C79.7664 20.9022 79.8086 20.4025 79.992 19.9474V19.9474Z" fill="white"/>
<path d="M80.9006 31.704L85.8496 29.2901C85.5252 29.7771 85.3369 30.342 85.3042 30.9263C85.2569 31.5813 85.386 32.2369 85.6779 32.8251C85.9787 33.4716 86.4545 34.0209 87.0515 34.4108C87.6536 34.8031 88.3531 35.02 89.0715 35.037C89.8564 35.053 90.6333 34.8761 91.3339 34.5219C92.045 34.2039 92.6637 33.7104 93.1317 33.0877C93.5543 32.527 93.8099 31.8583 93.869 31.1586C93.9212 30.4632 93.7888 29.7664 93.4852 29.1386C93.2127 28.5322 92.7796 28.0118 92.2328 27.6337C91.7592 27.2973 91.2053 27.0918 90.6269 27.0378L92.0106 26.3813L91.4147 25.1289L80.3047 30.4415L80.9006 31.704ZM86.4051 30.6435C86.4547 30.1532 86.6361 29.6855 86.9303 29.2901C87.2735 28.8304 87.7204 28.4582 88.2347 28.2037C88.7489 27.9492 89.3159 27.8197 89.8896 27.8256C90.3987 27.8423 90.8926 28.0035 91.3137 28.2902C91.7224 28.5706 92.0498 28.9538 92.2631 29.4012C92.4792 29.8506 92.5765 30.3478 92.5459 30.8455C92.512 31.35 92.3331 31.834 92.0308 32.2393C91.6775 32.6776 91.2236 33.0241 90.7077 33.2493C90.1925 33.5122 89.6193 33.6408 89.0412 33.623C88.5327 33.6115 88.0382 33.4537 87.6171 33.1685C87.2057 32.8825 86.878 32.4921 86.6677 32.0373C86.4578 31.6043 86.3672 31.1232 86.4051 30.6435V30.6435Z" fill="white"/>
<path d="M90.4057 38.7942C90.0917 38.8351 89.7896 38.9406 89.5185 39.104C89.2473 39.2674 89.0129 39.4852 88.8301 39.7436C88.5585 40.3114 88.5116 40.9608 88.6988 41.5616L88.9714 42.7736L90.1128 42.511L89.8906 41.501C89.7775 41.1981 89.7775 40.8646 89.8906 40.5617C90.0856 40.3188 90.3688 40.1627 90.6784 40.1274L95.4758 39.0265L95.9606 41.1475L97.0716 40.895L96.5868 38.774L98.6068 38.2993L98.3038 36.956L96.2838 37.4206L96.0414 36.4106L94.9405 36.6429L95.1829 37.6529L90.4057 38.7942Z" fill="white"/>
<path d="M93.0709 46.1368L93.182 52.8129H94.0202C94.7282 52.8097 95.4236 52.6254 96.0402 52.2776C96.6335 51.9452 97.1203 51.4514 97.4442 50.8535C97.7942 50.2163 97.975 49.5 97.9693 48.7729C97.9698 48.019 97.775 47.2778 97.4038 46.6216C97.0424 46.008 96.5133 45.5104 95.8787 45.1874C95.163 44.8597 94.3827 44.6977 93.5958 44.7134C92.8088 44.7292 92.0356 44.9223 91.3337 45.2783C90.704 45.6251 90.1856 46.1434 89.8389 46.7731C89.4909 47.4318 89.3203 48.1697 89.344 48.9143C89.3278 49.808 89.6084 50.6818 90.1419 51.3989C90.6452 52.0527 91.3587 52.5129 92.1619 52.7018V51.207C91.658 51.091 91.2111 50.8014 90.8994 50.3889C90.6027 49.9474 90.4477 49.426 90.455 48.8941C90.4387 48.5429 90.4929 48.192 90.6143 47.8621C90.7357 47.5321 90.9218 47.2298 91.1618 46.9729C91.4018 46.716 91.6907 46.5096 92.0117 46.3661C92.3326 46.2225 92.679 46.1445 93.0305 46.1368H93.0709ZM96.1009 46.9448C96.5547 47.4287 96.8044 48.0691 96.7977 48.7325C96.8132 49.1922 96.7197 49.649 96.525 50.0657C96.3458 50.4773 96.0511 50.8281 95.6767 51.0757C95.2637 51.3198 94.7929 51.4488 94.3131 51.4494L94.2324 46.1772C94.9206 46.1891 95.5782 46.4637 96.0706 46.9448H96.1009Z" fill="white"/>
<path d="M97.1611 57.4588L97.3732 56.4488L96.242 56.2266L96.04 57.2871L91.2122 56.3377C90.906 56.25 90.5852 56.2254 90.2693 56.2653C89.9533 56.3052 89.6487 56.4089 89.374 56.57C88.9003 56.9817 88.5948 57.5533 88.5155 58.1759L88.2832 59.398L89.4346 59.6303L89.6265 58.6203C89.6542 58.2994 89.8065 58.0021 90.0507 57.7921C90.1847 57.7168 90.3328 57.6699 90.4857 57.6542C90.6386 57.6386 90.793 57.6546 90.9395 57.7012L95.7673 58.6506L95.3532 60.7918L96.4743 61.014L96.8884 58.8728L98.9084 59.2768L99.171 57.9133L97.1611 57.4588Z" fill="white"/>
<path d="M79.1543 76.1641L82.2954 79.3052L80.8511 80.8C80.4702 81.1203 80.1563 81.5127 79.9275 81.9547C79.6987 82.3967 79.5595 82.8795 79.5179 83.3755C79.5259 84.2068 79.8631 85.001 80.4557 85.5841C81.0483 86.1672 81.8479 86.4916 82.6792 86.4863C83.6632 86.3864 84.5727 85.9172 85.2244 85.1733L87.6484 82.7392L80.1441 75.2349L79.1543 76.1641ZM85.8506 82.8705L84.4063 84.3148C83.3963 85.3248 82.3863 85.446 81.3763 84.5168C81.1865 84.3368 81.037 84.1186 80.9377 83.8766C80.8385 83.6346 80.7918 83.3743 80.8006 83.1129C80.8789 82.5065 81.1816 81.9516 81.649 81.5575L83.0933 80.1132L85.8506 82.8705Z" fill="white"/>
<path d="M71.8105 82.4361L74.3052 86.2236C75.2344 87.6376 75.0493 88.7688 73.7497 89.6172L73.4467 89.8192L74.2345 91.0211C74.7241 90.7162 75.1247 90.2877 75.396 89.7788C75.6296 89.3138 75.721 88.7904 75.6587 88.2739L76.406 89.4051L77.5574 88.6476L72.972 81.6685L71.8105 82.4361Z" fill="white"/>
<path d="M68.1044 86.941C67.5624 86.4681 66.8967 86.1597 66.1854 86.0522C65.4502 85.9544 64.7021 86.0484 64.0139 86.3249C63.1853 86.6289 62.4769 87.1921 61.9939 87.9308C61.5639 88.6211 61.3756 89.4347 61.4586 90.2437L62.8524 89.7084C62.8297 89.2275 62.9644 88.7524 63.2362 88.355C63.543 87.9231 63.9775 87.5981 64.4785 87.4258C64.7984 87.2919 65.1417 87.223 65.4885 87.223C65.8353 87.223 66.1786 87.2919 66.4985 87.4258C67.1424 87.7063 67.6503 88.2287 67.9125 88.8802L61.6909 91.2941C61.7633 91.5648 61.8509 91.8312 61.9535 92.092C62.1981 92.7648 62.612 93.3632 63.1554 93.8292C63.6738 94.2715 64.3083 94.5554 64.9835 94.6473C65.713 94.7454 66.4555 94.6478 67.1348 94.3645C67.8393 94.1069 68.4654 93.6721 68.9528 93.102C69.4064 92.5516 69.6906 91.8815 69.7709 91.1729C69.8436 90.3921 69.7257 89.6054 69.4275 88.8802C69.1602 88.131 68.7045 87.4632 68.1044 86.941V86.941ZM68.1953 91.991C67.898 92.5833 67.3846 93.0389 66.7611 93.2636C66.3344 93.4317 65.8751 93.5008 65.4178 93.4656C64.9802 93.4323 64.5622 93.2707 64.2159 93.001C63.8387 92.7054 63.5518 92.31 63.3877 91.8597L68.3064 89.9508C68.5304 90.6168 68.4906 91.3433 68.1953 91.9809V91.991Z" fill="white"/>
<path d="M56.631 88.8802L56.8027 93.4757C56.876 94.1963 56.6739 94.918 56.2371 95.4957C56.0253 95.7365 55.7641 95.9287 55.4713 96.0595C55.1785 96.1902 54.8609 96.2563 54.5403 96.2532C54.2306 96.2796 53.9188 96.2391 53.6261 96.1345C53.3333 96.03 53.0665 95.8638 52.8435 95.6472C52.3822 95.1322 52.1363 94.4597 52.1567 93.7686L51.9749 89.0418L50.6013 89.1024L50.7831 93.6979C50.8564 94.4185 50.6543 95.1402 50.2175 95.7179C50.0075 95.9616 49.7469 96.1564 49.4538 96.289C49.1608 96.4216 48.8423 96.4887 48.5207 96.4855C48.2125 96.5117 47.9023 96.4711 47.6112 96.3666C47.3202 96.262 47.0551 96.0959 46.834 95.8795C46.3675 95.363 46.1179 94.6866 46.1371 93.9908L45.9553 89.2741H44.5918L44.7736 94.1928C44.7768 94.8771 44.9578 95.5489 45.2988 96.1421C45.5855 96.6464 46.0187 97.0515 46.5411 97.3036C47.0899 97.5604 47.6934 97.6783 48.2985 97.647C48.9305 97.6266 49.5449 97.4346 50.0761 97.0915C50.5892 96.7548 50.9763 96.2576 51.177 95.6775C51.4408 96.2446 51.8799 96.712 52.4294 97.0107C53.0079 97.3119 53.6569 97.4515 54.308 97.4147C54.839 97.4009 55.3588 97.2589 55.823 97.0006C56.2639 96.766 56.6337 96.4171 56.8936 95.9906V97.1925H58.2874L57.9642 88.8398L56.631 88.8802Z" fill="white"/>
<path d="M38.8242 97.5759C38.5819 97.5281 38.3306 97.5776 38.1246 97.7137C37.9185 97.8498 37.7744 98.0615 37.7233 98.3031C37.693 98.4223 37.6872 98.5465 37.7063 98.668C37.7254 98.7895 37.769 98.9059 37.8344 99.0101C37.8983 99.1147 37.9825 99.2055 38.0821 99.277C38.1816 99.3486 38.2945 99.3996 38.414 99.4268C38.5335 99.4541 38.6573 99.4572 38.7781 99.436C38.8988 99.4147 39.0141 99.3695 39.1171 99.303C39.2248 99.238 39.3181 99.1516 39.391 99.0491C39.464 98.9466 39.5151 98.8302 39.5413 98.7071C39.5877 98.451 39.5334 98.1869 39.3898 97.9698C39.2595 97.7701 39.0567 97.6289 38.8242 97.5759V97.5759Z" fill="white"/>
<path d="M40.3164 87.9655L38.4688 96.1113L39.8182 96.4174L41.6659 88.2716L40.3164 87.9655Z" fill="white"/>
<path d="M35.5612 86.8602C35.1747 86.388 34.679 86.0171 34.1169 85.7795C33.6275 85.5525 33.0901 85.4485 32.5514 85.4765C32.0459 85.4962 31.5561 85.6571 31.1374 85.9411L31.6323 84.8099L30.3698 84.2544L26.9863 91.9102L28.2791 92.4152L30.1375 88.2237C30.3826 87.5415 30.8821 86.9806 31.5313 86.6582C31.8327 86.5394 32.1556 86.4852 32.4792 86.4991C32.8028 86.513 33.1199 86.5947 33.4099 86.739C33.7061 86.851 33.9748 87.0252 34.1979 87.25C34.4209 87.4748 34.5931 87.7448 34.7027 88.0419C34.8058 88.3746 34.8419 88.7244 34.8089 89.0711C34.776 89.4178 34.6747 89.7546 34.5108 90.0619L32.5716 94.3342L33.824 94.8897L35.844 90.4154C36.149 89.7881 36.2815 89.0909 36.2278 88.3954C36.162 87.8291 35.9301 87.2949 35.5612 86.8602V86.8602Z" fill="white"/>
<path d="M26.6129 82.0526L23.4819 85.426C23.0173 85.9811 22.3613 86.3416 21.6437 86.436C21.3251 86.453 21.0065 86.4024 20.7088 86.2875C20.4112 86.1726 20.1412 85.996 19.9166 85.7694C19.6898 85.5675 19.5079 85.3202 19.3827 85.0436C19.2574 84.767 19.1916 84.4672 19.1894 84.1635C19.2278 83.471 19.5317 82.8199 20.0378 82.3455L23.2294 78.8913L22.2194 77.952L19.0783 81.3153C18.6197 81.8776 17.9606 82.2398 17.2401 82.3253C16.921 82.347 16.601 82.2985 16.3027 82.1833C16.0043 82.0682 15.7348 81.8891 15.513 81.6587C15.2766 81.4602 15.0857 81.2131 14.9532 80.9343C14.8208 80.6555 14.7499 80.3514 14.7454 80.0427C14.7854 79.3476 15.0888 78.6939 15.5938 78.2146L18.8157 74.7402L17.8057 73.811L14.4424 77.4066C13.9648 77.8914 13.6174 78.4889 13.4324 79.1438C13.2647 79.7004 13.2647 80.2941 13.4324 80.8507C13.6426 81.4207 13.9894 81.9305 14.4424 82.3354C14.9007 82.771 15.4704 83.0716 16.0887 83.204C16.6881 83.3378 17.3152 83.263 17.8663 82.9919C17.6575 83.5898 17.654 84.2401 17.8562 84.8402C18.04 85.4606 18.3891 86.0192 18.8662 86.4562C19.2464 86.8251 19.711 87.0956 20.2196 87.244C20.7086 87.3801 21.2254 87.3801 21.7144 87.244L20.8963 88.1227L21.9063 89.0721L27.6027 83.0121L26.6129 82.0526Z" fill="white"/>
<path d="M14.4726 55.3278L8.99844 55.8328C9.46814 55.5011 9.84675 55.0565 10.0993 54.54C10.3664 53.9378 10.4709 53.2761 10.4023 52.621C10.3433 51.9137 10.0918 51.2361 9.67514 50.6616C9.25029 50.0868 8.673 49.6425 8.00864 49.3789C7.28058 49.0921 6.49423 48.9848 5.71594 49.0658C4.93666 49.1241 4.18382 49.3739 3.52424 49.793C2.93162 50.1773 2.45792 50.7193 2.15639 51.358C1.85486 51.9968 1.73745 52.707 1.81734 53.4088C1.86226 54.0719 2.08561 54.7105 2.46374 55.2571C2.79824 55.7306 3.24622 56.1126 3.76664 56.3681L2.22134 56.459L2.34254 57.8326L14.6039 56.7115L14.4726 55.3278ZM7.96824 55.55C7.48508 55.8577 6.93351 56.0415 6.36234 56.0853C5.79518 56.1532 5.22016 56.0695 4.69584 55.8429C4.22553 55.6498 3.81938 55.3277 3.52424 54.9137C3.23623 54.5062 3.06509 54.0277 3.02934 53.53C2.97696 53.0332 3.05711 52.5313 3.26164 52.0756C3.47935 51.6098 3.831 51.2194 4.27164 50.9545C4.75275 50.6424 5.30545 50.4582 5.87754 50.4192C6.45369 50.3516 7.03756 50.4315 7.57434 50.6515C8.04452 50.8399 8.45103 51.1588 8.74594 51.5706C9.03126 51.9795 9.20212 52.4572 9.24084 52.9543C9.29325 53.4488 9.20942 53.9482 8.99844 54.3986C8.77179 54.8727 8.41435 55.2722 7.96824 55.55V55.55Z" fill="white"/>
<path d="M3.7171 44.9152C4.33469 45.3965 5.06458 45.7128 5.8381 45.8343C6.60572 45.9904 7.3999 45.9557 8.151 45.7333C8.83329 45.5374 9.44611 45.1522 9.9185 44.6223C10.3866 44.0903 10.7008 43.4409 10.8275 42.7437C10.9598 42.0939 10.9145 41.4205 10.6962 40.7944C10.5004 40.234 10.1503 39.7404 9.6862 39.3703L11.2113 39.6531L11.4739 38.2694L3.2626 36.7544L3.0303 38.128L4.5453 38.3805C3.99697 38.5832 3.51483 38.9325 3.1515 39.3905C2.72433 39.9017 2.44494 40.5198 2.34349 41.1782C2.20831 41.8736 2.26416 42.5926 2.5051 43.2588C2.74941 43.9117 3.16872 44.4848 3.7171 44.9152V44.9152ZM3.5757 41.1075C3.66659 40.6167 3.88224 40.1576 4.2019 39.7743C4.53241 39.3942 4.96276 39.1143 5.4442 38.9663C5.99033 38.7959 6.57098 38.7681 7.1309 38.8855C7.69968 38.9815 8.23679 39.2136 8.6964 39.5622C9.09696 39.8738 9.39866 40.2947 9.565 40.7742C9.73326 41.2434 9.77164 41.7494 9.6761 42.2387C9.60305 42.7243 9.40072 43.1813 9.0903 43.5618C8.75978 43.9419 8.32943 44.2218 7.848 44.3698C7.26848 44.549 6.65215 44.5734 6.0603 44.4405C5.49715 44.3524 4.96551 44.1231 4.515 43.7739C4.12 43.4612 3.81935 43.0452 3.6464 42.572C3.49589 42.0983 3.47153 41.5935 3.5757 41.1075V41.1075Z" fill="white"/>
<path d="M13.2217 34.037L9.09078 32.2392C7.54548 31.5726 7.07078 30.5323 7.68688 29.0981L7.83838 28.7648L6.51528 28.1992C6.27585 28.7237 6.17834 29.3018 6.23248 29.8758C6.27327 30.3997 6.4703 30.8993 6.79808 31.31L5.55578 30.7343L5.05078 32.0069L12.6763 35.35L13.2217 34.037Z" fill="white"/>
<path d="M8.07913 25.4622L9.08913 26.0783L9.67493 25.1693L13.8159 27.8357C14.0656 28.0322 14.3537 28.1742 14.6616 28.2525C14.9695 28.3308 15.2904 28.3436 15.6036 28.2902C16.1993 28.0892 16.697 27.6708 16.9974 27.1186L17.664 26.1086L16.654 25.4824L16.1591 26.2601C16.0117 26.5474 15.7636 26.7704 15.4622 26.8863C15.1509 26.9185 14.8392 26.8279 14.5936 26.6338L10.4627 23.9674L11.5939 22.2201L10.5839 21.604L9.45273 23.3816L7.68523 22.2201L6.92773 23.3917L8.69523 24.533L8.07913 25.4622Z" fill="white"/>
<path d="M20.0998 23.0281L16.8375 19.7557C16.2866 19.2828 15.9452 18.611 15.8881 17.8872C15.8842 17.5644 15.9488 17.2445 16.0776 16.9485C16.2065 16.6526 16.3966 16.3873 16.6355 16.1702C16.8473 15.9362 17.1062 15.7496 17.3951 15.6226C17.684 15.4955 17.9965 15.4309 18.3121 15.4329C19.003 15.4938 19.6436 15.8195 20.0998 16.3419L23.4429 19.685L24.4529 18.675L20.9684 15.1905C20.6496 14.8252 20.2592 14.5291 19.8215 14.3206C19.3837 14.1122 18.9078 13.9957 18.4232 13.9785C17.9592 13.9985 17.5042 14.1127 17.0857 14.3141C16.6673 14.5155 16.2942 14.8 15.9891 15.1501C15.6123 15.5214 15.3256 15.974 15.1508 16.4732C14.9803 16.9495 14.9488 17.4644 15.0599 17.9579L14.2014 17.1701L13.1914 18.1801L19.0898 24.0886L20.0998 23.0281Z" fill="white"/>
<path d="M24.2408 13.5338C24.6232 14.2267 25.1759 14.8107 25.8467 15.2306C26.4509 15.6122 27.1521 15.8121 27.8667 15.8063C28.6075 15.7891 29.3313 15.5803 29.9675 15.2003C30.7535 14.7733 31.3805 14.1037 31.7552 13.2914C32.0786 12.5459 32.1392 11.7125 31.9269 10.928L30.6341 11.6754C30.7298 12.1464 30.6695 12.6356 30.4624 13.0692C30.2336 13.5243 29.8704 13.898 29.4221 14.1398C28.8377 14.5028 28.1357 14.6258 27.4627 14.4832C27.1099 14.4 26.7772 14.2473 26.4841 14.034C26.1911 13.8207 25.9435 13.5511 25.7558 13.2409L31.533 9.88774C31.4017 9.61504 31.2805 9.37264 31.1492 9.14034C30.7972 8.51677 30.2935 7.99219 29.6847 7.61524C29.1027 7.26484 28.4349 7.08301 27.7556 7.09004C27.02 7.10922 26.3024 7.3217 25.675 7.70614C25.0188 8.07064 24.4688 8.59973 24.0792 9.24134C23.717 9.85082 23.5414 10.5531 23.5742 11.2613C23.6017 12.0629 23.831 12.8445 24.2408 13.5338V13.5338ZM24.9781 10.2715C25.194 9.62733 25.6548 9.09399 26.2608 8.78684C26.6579 8.55135 27.1035 8.40971 27.5637 8.37274C28.002 8.34077 28.4402 8.43543 28.8262 8.64544C29.2513 8.88015 29.6015 9.23028 29.8362 9.65544L25.2508 12.3016C24.9084 11.6827 24.818 10.9555 24.9983 10.2715H24.9781Z" fill="white"/>
<path d="M35.7742 3.7472C35.4246 4.12901 35.1992 4.60802 35.1278 5.1208L34.7036 3.8381L33.3906 4.2623L35.9661 12.2009L37.2791 11.7767L35.8752 7.4539C35.35 5.848 35.8348 4.8077 37.37 4.333L37.7134 4.2219L37.2791 2.8584C36.7039 3.00736 36.1824 3.3154 35.7742 3.7472V3.7472Z" fill="white"/>
</svg>
