<svg width="57" height="57" viewBox="0 0 57 57" fill="none" xmlns="http://www.w3.org/2000/svg">
<path d="M21.5016 6.1001C21.8729 6.1001 22.229 6.2476 22.4915 6.51015C22.7541 6.7727 22.9016 7.12879 22.9016 7.5001V13.1001C22.9016 13.4714 22.7541 13.8275 22.4915 14.09C22.229 14.3526 21.8729 14.5001 21.5016 14.5001C21.1303 14.5001 20.7742 14.3526 20.5116 14.09C20.2491 13.8275 20.1016 13.4714 20.1016 13.1001V7.5001C20.1016 7.12879 20.2491 6.7727 20.5116 6.51015C20.7742 6.2476 21.1303 6.1001 21.5016 6.1001ZM10.6096 10.6081C10.7396 10.4777 10.8941 10.3743 11.0642 10.3037C11.2343 10.2331 11.4166 10.1968 11.6008 10.1968C11.7849 10.1968 11.9672 10.2331 12.1373 10.3037C12.3074 10.3743 12.4619 10.4777 12.592 10.6081L16.5512 14.5701C16.6849 14.6992 16.7915 14.8537 16.8649 15.0245C16.9383 15.1953 16.9769 15.379 16.9785 15.5649C16.9801 15.7508 16.9447 15.9352 16.8743 16.1072C16.8039 16.2793 16.7 16.4356 16.5685 16.5671C16.4371 16.6985 16.2808 16.8025 16.1087 16.8728C15.9366 16.9432 15.7523 16.9787 15.5664 16.977C15.3805 16.9754 15.1968 16.9368 15.026 16.8634C14.8552 16.7901 14.7007 16.6834 14.5716 16.5497L10.6124 12.5905C10.3499 12.328 10.2025 11.9719 10.2025 11.6007C10.2025 11.2295 10.3499 10.8734 10.6124 10.6109L10.6096 10.6081ZM32.3936 10.6081C32.5239 10.7381 32.6274 10.8926 32.698 11.0627C32.7685 11.2328 32.8049 11.4151 32.8049 11.5993C32.8049 11.7834 32.7685 11.9658 32.698 12.1359C32.6274 12.306 32.5239 12.4604 32.3936 12.5905L28.4288 16.5497C28.2996 16.6834 28.1451 16.7901 27.9743 16.8634C27.8035 16.9368 27.6198 16.9754 27.4339 16.977C27.248 16.9787 27.0637 16.9432 26.8916 16.8728C26.7196 16.8025 26.5633 16.6985 26.4318 16.5671C26.3004 16.4356 26.1964 16.2793 26.126 16.1072C26.0556 15.9352 26.0202 15.7508 26.0218 15.5649C26.0234 15.379 26.062 15.1953 26.1354 15.0245C26.2088 14.8537 26.3154 14.6992 26.4492 14.5701L30.4084 10.6109C30.6709 10.3484 31.0269 10.201 31.3982 10.201C31.7694 10.201 32.1254 10.3484 32.388 10.6109L32.3936 10.6081ZM6.10156 21.5001C6.10156 21.1288 6.24906 20.7727 6.51161 20.5101C6.77416 20.2476 7.13026 20.1001 7.50156 20.1001H13.1016C13.4729 20.1001 13.829 20.2476 14.0915 20.5101C14.3541 20.7727 14.5016 21.1288 14.5016 21.5001C14.5016 21.8714 14.3541 22.2275 14.0915 22.49C13.829 22.7526 13.4729 22.9001 13.1016 22.9001H7.50156C7.13026 22.9001 6.77416 22.7526 6.51161 22.49C6.24906 22.2275 6.10156 21.8714 6.10156 21.5001ZM24.6936 20.9401C24.2849 20.5997 23.7878 20.3828 23.2604 20.3146C22.733 20.2465 22.1971 20.3299 21.7154 20.5552C21.2336 20.7805 20.826 21.1383 20.5402 21.5868C20.2545 22.0353 20.1023 22.5559 20.1016 23.0877V48.5705C20.1016 51.1577 23.3076 52.3617 25.01 50.4157L30.6828 43.9309C31.0773 43.481 31.5635 43.1205 32.1087 42.8738C32.6539 42.627 33.2455 42.4996 33.844 42.5001H42.8348C45.4528 42.5001 46.64 39.2241 44.6268 37.5497L24.6936 20.9373V20.9401ZM22.9016 48.5761V23.0877L42.8348 39.7001H33.844C32.8459 39.7 31.8594 39.9133 30.9505 40.3257C30.0416 40.7381 29.2315 41.3401 28.5744 42.0913L22.9016 48.5761Z" fill="#71B51F"/>
</svg>
