<svg width="57" height="57" viewBox="0 0 57 57" fill="none" xmlns="http://www.w3.org/2000/svg">
<path d="M39 4H18C16.6076 4 15.2723 4.55312 14.2877 5.53769C13.3031 6.52226 12.75 7.85761 12.75 9.25V47.75C12.75 49.1424 13.3031 50.4777 14.2877 51.4623C15.2723 52.4469 16.6076 53 18 53H39C40.3924 53 41.7277 52.4469 42.7123 51.4623C43.6969 50.4777 44.25 49.1424 44.25 47.75V9.25C44.25 7.85761 43.6969 6.52226 42.7123 5.53769C41.7277 4.55312 40.3924 4 39 4ZM40.75 47.75C40.75 48.2141 40.5656 48.6592 40.2374 48.9874C39.9093 49.3156 39.4641 49.5 39 49.5H18C17.5359 49.5 17.0908 49.3156 16.7626 48.9874C16.4344 48.6592 16.25 48.2141 16.25 47.75V9.25C16.25 8.78587 16.4344 8.34075 16.7626 8.01256C17.0908 7.68437 17.5359 7.5 18 7.5H39C39.4641 7.5 39.9093 7.68437 40.2374 8.01256C40.5656 8.34075 40.75 8.78587 40.75 9.25V47.75ZM31.125 13.625C31.125 14.1442 30.971 14.6517 30.6826 15.0834C30.3942 15.515 29.9842 15.8515 29.5045 16.0502C29.0249 16.2489 28.4971 16.3008 27.9879 16.1996C27.4787 16.0983 27.011 15.8483 26.6438 15.4812C26.2767 15.114 26.0267 14.6463 25.9254 14.1371C25.8242 13.6279 25.8761 13.1001 26.0748 12.6205C26.2735 12.1408 26.61 11.7308 27.0416 11.4424C27.4733 11.154 27.9808 11 28.5 11C29.1962 11 29.8639 11.2766 30.3562 11.7688C30.8484 12.2611 31.125 12.9288 31.125 13.625Z" fill="#71B51F"/>
</svg>
