<svg width="57" height="57" viewBox="0 0 57 57" fill="none" xmlns="http://www.w3.org/2000/svg">
<path d="M22.0504 51.5739C22.5745 51.5739 22.9909 51.168 22.9909 50.6327C22.9909 50.4495 22.9263 50.2807 22.8652 50.1765L21.3253 48.0319L22.6032 46.4764C22.7324 46.3327 22.7971 46.1495 22.7971 45.9412C22.7971 45.4454 22.4058 45.0538 21.8961 45.0538C21.6089 45.0538 21.3469 45.2083 21.1638 45.4454L19.4265 47.705V43.5882C19.4265 43.078 19.0101 42.647 18.4861 42.647C17.962 42.647 17.5312 43.078 17.5312 43.5882V50.6291C17.5312 51.1392 17.962 51.5703 18.4861 51.5703C19.0101 51.5703 19.4265 51.1392 19.4265 50.6291V49.925L20.0008 49.1671L21.2536 51.0889C21.4223 51.3907 21.7094 51.5739 22.0504 51.5739Z" fill="#71B51F"/>
<path d="M23.8631 43.5882V50.6327C23.8631 51.1428 24.2939 51.5739 24.818 51.5739C25.342 51.5739 25.7584 51.1428 25.7584 50.6327V43.5882C25.7584 43.078 25.342 42.647 24.818 42.647C24.2939 42.647 23.8631 43.078 23.8631 43.5882Z" fill="#71B51F"/>
<path d="M32.4959 45.9915V50.6292C32.4959 51.1536 32.0903 51.5955 31.5555 51.5955C31.0601 51.5955 30.6401 51.2039 30.5899 50.719C30.2776 51.1752 29.5848 51.6206 28.7484 51.6206C27.5352 51.6206 27.0111 50.9273 27.0111 49.9071V45.9915C27.0111 45.4813 27.4419 45.0503 27.9624 45.0503C28.4828 45.0503 28.9028 45.4813 28.9028 45.9915V49.1563C28.9028 49.7311 29.1648 49.9538 29.6351 49.9538C30.1053 49.9538 30.4319 49.6269 30.615 49.3V45.995C30.615 45.4849 31.0314 45.0539 31.5555 45.0539C32.0795 45.0503 32.4959 45.4849 32.4959 45.9915Z" fill="#71B51F"/>
<path fill-rule="evenodd" clip-rule="evenodd" d="M37.2125 51.6242C38.6232 51.6242 39.5887 50.4208 39.5887 48.3049C39.5887 46.268 38.6339 45 37.2125 45C36.6382 45 36.0387 45.2765 35.6582 45.916V43.5882C35.6582 43.078 35.2418 42.647 34.7178 42.647C34.1937 42.647 33.763 43.078 33.763 43.5882V50.6291C33.763 51.1392 34.1973 51.5703 34.7178 51.5703C35.188 51.5703 35.6475 51.2183 35.6726 50.7333C36.0639 51.3512 36.6525 51.6242 37.2125 51.6242ZM36.5843 46.6704C37.2627 46.6704 37.654 47.3386 37.654 48.3049C37.654 49.2856 37.2627 49.9538 36.5843 49.9538C36.2326 49.9538 35.8413 49.7167 35.6582 49.3646V47.2595C35.8413 46.9183 36.2326 46.6704 36.5843 46.6704Z" fill="#71B51F"/>
<path fill-rule="evenodd" clip-rule="evenodd" d="M29.6346 12.7296C29.4906 13.994 28.1686 15.865 27.7108 16.4869C27.6953 17.2425 27.4999 17.957 27.217 18.6252C27.7468 20.1415 28.0451 21.9251 28.0451 23.9862C28.0451 29.9897 24.9999 35.6078 18.39 35.6078C15.5145 35.6078 13.3695 34.4513 12.2121 32.4364H12.1247V40.7992C12.1247 42.8552 10.8799 43.9294 8.99201 43.9294C7.10423 43.9294 5.85938 42.8552 5.85938 40.7992V15.0323C5.85938 13.0997 6.75956 12.0717 8.69368 12.0717C9.8819 12.0717 10.7101 12.5086 11.1525 13.331C12.5619 12.7245 14.1771 12.3801 15.9827 12.3338C16.5639 12.1899 17.1812 12.1179 17.819 12.0923C18.2871 11.6554 18.8118 11.2699 19.4136 11.0026C19.8663 10.1904 20.9002 8.48395 21.8879 7.87741C22.7726 7.33774 23.2664 9.34236 23.4979 10.7301C24.5781 11.0488 25.5401 11.6707 26.2756 12.5188C27.6285 12.1282 29.7529 11.681 29.6346 12.7296ZM22.608 16.8622C22.608 17.7925 23.359 18.5429 24.29 18.5429C25.2211 18.5429 25.9773 17.7925 25.9773 16.8622C25.9773 15.9318 25.216 15.1763 24.29 15.1763C23.3642 15.1763 22.608 15.9318 22.608 16.8622ZM18.7243 14.1071C18.7243 15.0375 19.4753 15.7879 20.4064 15.7879C21.3323 15.7879 22.0885 15.0375 22.0885 14.1071C22.0885 13.1768 21.3374 12.4212 20.4064 12.4212C19.4753 12.4212 18.7243 13.1768 18.7243 14.1071ZM11.7852 23.7755C11.7852 26.988 12.9889 30.7659 16.8057 30.7196C20.7922 30.7196 21.7798 26.6899 21.785 23.7806C21.785 20.0901 20.1544 17.0472 16.8057 16.9598C16.6204 16.9598 16.4473 16.9767 16.2798 17.0004C16.1405 17.02 16.005 17.0444 15.8694 17.0677C15.6791 17.1038 15.4836 17.1603 15.2882 17.2065C12.7831 17.9981 11.7852 20.7686 11.7852 23.7755Z" fill="#71B51F"/>
<path fill-rule="evenodd" clip-rule="evenodd" d="M46.6662 28.458C47.0109 28.201 47.6487 27.8618 48.4151 27.8618C49.948 27.8618 51.1414 29.0954 51.1414 30.6272C51.1414 31.4803 50.7557 32.164 50.2052 32.6729C48.2865 34.4205 45.8535 35.6078 42.1035 35.6078C35.2416 35.6078 30.2108 30.329 30.2108 23.8115V23.7292C30.2108 17.2117 35.1952 11.8455 42.1859 11.8455C45.6374 11.8455 48.0705 12.7861 49.984 14.4001C50.411 14.7445 51.0077 15.5104 51.0077 16.6155C51.0077 18.2346 49.6857 19.5093 48.0705 19.5093C47.2166 19.5093 46.5787 19.1701 46.1929 18.872C45.0407 17.9776 43.8473 17.4224 42.1447 17.4224C38.904 17.4224 36.6047 20.2752 36.6047 23.6418V23.7292C36.6047 27.2245 38.868 30.036 42.4019 30.036C44.1148 30.036 45.4316 29.4398 46.6662 28.458ZM49.4233 16.194C49.4233 15.2637 48.6672 14.5081 47.7361 14.5081C46.8051 14.5081 46.0541 15.2688 46.0541 16.194C46.0541 17.1192 46.8051 17.8748 47.7361 17.8748C48.6672 17.8748 49.4233 17.1243 49.4233 16.194Z" fill="#71B51F"/>
</svg>
