<svg width="17" height="16" viewBox="0 0 17 16" fill="none" xmlns="http://www.w3.org/2000/svg">
<path d="M8.33301 1.33337C7.67374 1.33337 7.02927 1.52887 6.48111 1.89514C5.93294 2.26141 5.5057 2.78201 5.25341 3.3911C5.00112 4.00018 4.93511 4.67041 5.06372 5.31701C5.19234 5.96361 5.50981 6.55756 5.97599 7.02373C6.44216 7.48991 7.0361 7.80737 7.68271 7.93599C8.32931 8.06461 8.99953 7.9986 9.60862 7.74631C10.2177 7.49401 10.7383 7.06677 11.1046 6.51861C11.4708 5.97044 11.6663 5.32598 11.6663 4.66671C11.6663 3.78265 11.3152 2.93481 10.69 2.30968C10.0649 1.68456 9.21706 1.33337 8.33301 1.33337V1.33337ZM8.33301 6.66671C7.93745 6.66671 7.55077 6.54941 7.22187 6.32965C6.89297 6.10988 6.63662 5.79753 6.48525 5.43207C6.33387 5.06662 6.29427 4.66449 6.37144 4.27653C6.44861 3.88856 6.63909 3.5322 6.91879 3.25249C7.1985 2.97279 7.55487 2.78231 7.94283 2.70514C8.33079 2.62797 8.73292 2.66757 9.09837 2.81895C9.46383 2.97032 9.77618 3.22667 9.99595 3.55557C10.2157 3.88447 10.333 4.27114 10.333 4.66671C10.333 5.19714 10.1223 5.70585 9.74722 6.08092C9.37215 6.45599 8.86344 6.66671 8.33301 6.66671V6.66671ZM14.333 14V13.3334C14.333 12.0957 13.8413 10.9087 12.9662 10.0335C12.091 9.15837 10.904 8.66671 9.66634 8.66671H6.99967C5.762 8.66671 4.57501 9.15837 3.69984 10.0335C2.82467 10.9087 2.33301 12.0957 2.33301 13.3334V14H3.66634V13.3334C3.66634 12.4493 4.01753 11.6015 4.64265 10.9764C5.26777 10.3512 6.11562 10 6.99967 10H9.66634C10.5504 10 11.3982 10.3512 12.0234 10.9764C12.6485 11.6015 12.9997 12.4493 12.9997 13.3334V14H14.333Z" fill="black"/>
</svg>