<svg width="60" height="44" viewBox="0 0 60 44" fill="none" xmlns="http://www.w3.org/2000/svg">
<path d="M42.7537 14.3791C42.7331 13.467 42.6326 12.5585 42.4532 11.6641H30.1194V16.7932H37.0376C36.9168 17.5963 36.6336 18.3662 36.2054 19.0559C35.7773 19.7456 35.2132 20.3406 34.5476 20.8044V24.1399H38.8407C41.3247 21.8302 42.7537 18.4149 42.7537 14.3791Z" fill="#4284F4"/>
<path d="M30.0764 27.3405C33.2948 27.4325 36.4263 26.2874 38.8284 24.1401L34.5352 20.8046C33.5132 21.4597 32.3553 21.8724 31.1499 22.0114C29.9445 22.1504 28.7233 22.0121 27.5794 21.6069C26.4354 21.2017 25.3989 20.5403 24.5488 19.6731C23.6987 18.806 23.0574 17.756 22.6738 16.603H18.2763V20.0368C19.3737 22.2302 21.0585 24.0749 23.1422 25.3646C25.226 26.6544 27.6268 27.3385 30.0764 27.3405Z" fill="#59DC8E"/>
<path d="M22.6861 16.6027C22.1382 14.9643 22.1382 13.1918 22.6861 11.5534V8.11963H18.2764C17.3528 9.96966 16.872 12.0097 16.872 14.0781C16.872 16.1465 17.3528 18.1864 18.2764 20.0365L22.6861 16.6027Z" fill="#FBBC04"/>
<path d="M30.0764 6.08653C31.9557 6.05831 33.7707 6.77089 35.1301 8.07063L38.9143 4.26829C36.5274 2.01149 33.3586 0.771514 30.0764 0.80995C27.6264 0.813211 25.2254 1.49851 23.1417 2.78931C21.0579 4.08012 19.3734 5.92563 18.2763 8.11977L22.686 11.5535C23.1892 9.98668 24.1695 8.61691 25.4894 7.63643C26.8094 6.65595 28.4027 6.11397 30.0458 6.08653H30.0764Z" fill="#EA4335"/>
<path d="M1.58812 40.8483C1.10735 40.5603 0.709921 40.1517 0.435092 39.6628C0.149819 39.1534 0 38.5791 0 37.995C0 37.411 0.149819 36.8367 0.435092 36.3273C0.720691 35.8331 1.13127 35.423 1.62548 35.1383C2.11969 34.8536 2.68007 34.7043 3.2502 34.7056C3.69786 34.7036 4.14161 34.7892 4.55655 34.9575C4.94005 35.1032 5.28292 35.3391 5.55625 35.6454L5.02267 36.186C4.81939 35.9364 4.55833 35.7403 4.26216 35.6147C3.90246 35.4666 3.51428 35.4007 3.12593 35.422C2.73759 35.4432 2.35888 35.5511 2.01744 35.7376C1.61713 35.9456 1.28184 36.2602 1.0484 36.6467C0.814771 37.0558 0.696088 37.5207 0.70495 37.9919C0.696801 38.4651 0.815399 38.9317 1.0484 39.3433C1.27097 39.7218 1.59077 40.0336 1.97451 40.2463C2.34924 40.4565 2.77166 40.5665 3.20113 40.5657C3.5627 40.5759 3.92228 40.5088 4.25603 40.3692C4.53077 40.2441 4.77864 40.0668 4.98587 39.847C5.14647 39.6665 5.27321 39.4584 5.35999 39.2328C5.45501 38.9868 5.51289 38.728 5.53172 38.4649H3.23793V37.7892H6.25543C6.28379 37.9412 6.29816 38.0954 6.29836 38.2499C6.29915 38.6322 6.23698 39.012 6.11436 39.3741C5.98849 39.7394 5.77837 40.0698 5.50105 40.3385C5.20703 40.6523 4.84873 40.8988 4.45069 41.0611C4.05265 41.2233 3.6243 41.2974 3.195 41.2783C2.63087 41.2795 2.07646 41.1312 1.58812 40.8483Z" fill="white"/>
<path d="M8.14435 40.965C7.79683 40.7566 7.51268 40.4571 7.32251 40.0989C7.13299 39.7271 7.03418 39.3155 7.03418 38.898C7.03418 38.4805 7.13299 38.069 7.32251 37.6971C7.51836 37.3354 7.80808 37.0334 8.16107 36.823C8.51407 36.6126 8.91725 36.5015 9.32804 36.5015C9.73884 36.5015 10.142 36.6126 10.495 36.823C10.848 37.0334 11.1377 37.3354 11.3336 37.6971C11.527 38.0678 11.6281 38.4798 11.6281 38.898C11.6281 39.3162 11.527 39.7283 11.3336 40.0989C11.1434 40.4571 10.8593 40.7566 10.5117 40.965C10.1509 41.1702 9.743 41.278 9.32804 41.278C8.91309 41.278 8.50523 41.1702 8.14435 40.965ZM10.0947 40.3938C10.3404 40.2489 10.5386 40.0354 10.6651 39.7795C10.8114 39.4945 10.8877 39.1786 10.8877 38.8581C10.8877 38.5376 10.8114 38.2217 10.6651 37.9367C10.5342 37.6957 10.341 37.4945 10.1058 37.354C9.87054 37.2135 9.60192 37.1389 9.32804 37.1381C9.05626 37.1359 8.78903 37.2081 8.55527 37.347C8.30954 37.4918 8.11132 37.7053 7.98489 37.9612C7.83855 38.2463 7.7622 38.5622 7.7622 38.8827C7.7622 39.2032 7.83855 39.519 7.98489 39.8041C8.11132 40.06 8.30954 40.2735 8.55527 40.4183C8.78903 40.5572 9.05626 40.6294 9.32804 40.6272C9.60098 40.621 9.86667 40.538 10.0947 40.3876V40.3938Z" fill="white"/>
<path d="M13.3636 40.965C13.0161 40.7566 12.7319 40.4571 12.5417 40.0989C12.3483 39.7283 12.2473 39.3162 12.2473 38.898C12.2473 38.4798 12.3483 38.0678 12.5417 37.6971C12.7376 37.3354 13.0273 37.0334 13.3803 36.823C13.7333 36.6126 14.1365 36.5015 14.5473 36.5015C14.9581 36.5015 15.3612 36.6126 15.7142 36.823C16.0672 37.0334 16.357 37.3354 16.5528 37.6971C16.7463 38.0678 16.8473 38.4798 16.8473 38.898C16.8473 39.3162 16.7463 39.7283 16.5528 40.0989C16.3626 40.4571 16.0785 40.7566 15.731 40.965C15.3701 41.1702 14.9622 41.278 14.5473 41.278C14.1323 41.278 13.7245 41.1702 13.3636 40.965ZM15.3139 40.3938C15.5596 40.2489 15.7579 40.0354 15.8843 39.7795C16.0306 39.4945 16.107 39.1786 16.107 38.8581C16.107 38.5376 16.0306 38.2217 15.8843 37.9367C15.7458 37.7051 15.5486 37.5143 15.3127 37.3838C15.0768 37.2533 14.8106 37.1876 14.5411 37.1934C14.2694 37.1911 14.0021 37.2634 13.7684 37.4023C13.5226 37.5471 13.3244 37.7606 13.198 38.0165C13.0516 38.3016 12.9753 38.6174 12.9753 38.9379C12.9753 39.2584 13.0516 39.5743 13.198 39.8593C13.3244 40.1153 13.5226 40.3288 13.7684 40.4736C14.0021 40.6125 14.2694 40.6847 14.5411 40.6825C14.8218 40.6612 15.0903 40.5588 15.3139 40.3876V40.3938Z" fill="white"/>
<path d="M18.3683 42.8077C18.049 42.5933 17.8079 42.2807 17.6814 41.917L18.3561 41.6283C18.4542 41.8778 18.6252 42.0919 18.8467 42.2426C19.0879 42.4094 19.3756 42.4955 19.6686 42.4883C19.8644 42.5007 20.0607 42.4727 20.2453 42.4062C20.4299 42.3396 20.5989 42.2358 20.7419 42.1013C20.8763 41.9521 20.9793 41.7773 21.0446 41.5873C21.1099 41.3973 21.1363 41.196 21.1221 40.9956V40.4919C20.9681 40.7271 20.7571 40.9194 20.5088 41.0509C20.2016 41.2058 19.8599 41.2792 19.5163 41.2641C19.1727 41.2491 18.8387 41.1461 18.5462 40.9649C18.2204 40.7569 17.9574 40.4638 17.7857 40.1172C17.5914 39.7374 17.4945 39.3153 17.5036 38.8886C17.4967 38.4623 17.5936 38.0406 17.7857 37.6601C17.9574 37.3135 18.2204 37.0204 18.5462 36.8124C18.8387 36.6312 19.1727 36.5282 19.5163 36.5132C19.8599 36.4981 20.2016 36.5715 20.5088 36.7264C20.7588 36.8582 20.9702 37.053 21.1221 37.2915V36.6773H21.8336V40.9772C21.8521 41.2793 21.807 41.5819 21.7014 41.8655C21.5957 42.1491 21.4318 42.4073 21.2202 42.6234C20.7912 43.0108 20.2273 43.2137 19.6502 43.1885C19.1935 43.1998 18.745 43.0665 18.3683 42.8077ZM20.4045 40.3875C20.63 40.2331 20.8101 40.021 20.9259 39.7732C21.057 39.4838 21.1248 39.1696 21.1248 38.8518C21.1248 38.534 21.057 38.2198 20.9259 37.9304C20.8147 37.6796 20.6337 37.4663 20.4045 37.3161C20.183 37.1809 19.928 37.1107 19.6686 37.1134C19.4082 37.1097 19.1524 37.1823 18.9326 37.3223C18.7013 37.4735 18.5166 37.6862 18.399 37.9365C18.2671 38.2257 18.1988 38.54 18.1988 38.8579C18.1988 39.1759 18.2671 39.4901 18.399 39.7793C18.5137 40.0315 18.6991 40.2449 18.9326 40.3936C19.1553 40.5261 19.4095 40.596 19.6686 40.596C19.9276 40.596 20.1818 40.5261 20.4045 40.3936V40.3875Z" fill="white"/>
<path d="M22.9313 34.8594H23.6796V41.1495H22.9313V34.8594Z" fill="white"/>
<path d="M25.624 41.002C25.2864 40.799 25.0124 40.5053 24.8328 40.1544C24.6364 39.7751 24.5373 39.3529 24.5445 38.9258C24.5365 38.5007 24.629 38.0798 24.8144 37.6973C24.9882 37.3485 25.2531 37.0534 25.581 36.8434C25.9211 36.625 26.3179 36.5117 26.7218 36.5179C27.1221 36.507 27.5175 36.6092 27.8626 36.8127C28.183 37.0054 28.4408 37.2871 28.6047 37.6236C28.7817 37.9932 28.8699 38.3992 28.8623 38.8091C28.873 38.8845 28.873 38.961 28.8623 39.0364H25.2928C25.2997 39.3413 25.3841 39.6394 25.5381 39.9025C25.6729 40.1244 25.866 40.305 26.0962 40.4246C26.3132 40.541 26.5554 40.6021 26.8015 40.6028C27.0781 40.6044 27.3495 40.5274 27.584 40.3806C27.8185 40.2338 28.0066 40.0232 28.1263 39.7735L28.7396 40.0806C28.5556 40.4314 28.2854 40.7295 27.9546 40.9468C27.5965 41.1503 27.1918 41.2573 26.7801 41.2573C26.3683 41.2573 25.9637 41.1503 25.6056 40.9468L25.624 41.002ZM28.0772 38.4528C28.0615 38.2578 28.0073 38.0678 27.9178 37.8938C27.8183 37.6974 27.6652 37.5334 27.4762 37.4209C27.2466 37.2839 26.9827 37.2157 26.7157 37.2243C26.3868 37.2179 26.0682 37.3389 25.8264 37.5621C25.5751 37.7996 25.4073 38.112 25.348 38.4528H28.0772Z" fill="white"/>
<path d="M31.5546 34.8594H33.6644C34.0043 34.857 34.3394 34.9393 34.6396 35.099C34.9303 35.2544 35.1755 35.4831 35.351 35.7624C35.5277 36.0518 35.6212 36.3845 35.6212 36.7237C35.6212 37.063 35.5277 37.3956 35.351 37.6851C35.1755 37.9644 34.9303 38.1931 34.6396 38.3485C34.3394 38.5081 34.0043 38.5905 33.6644 38.588H32.2906V41.1496H31.5546V34.8594ZM33.6828 37.8755C33.8987 37.8788 34.1112 37.8214 34.2961 37.7096C34.4685 37.603 34.6118 37.4553 34.7132 37.2797C34.8094 37.1102 34.86 36.9187 34.86 36.7237C34.86 36.5288 34.8094 36.3372 34.7132 36.1678C34.6118 35.9922 34.4685 35.8445 34.2961 35.7378C34.1112 35.6261 33.8987 35.5687 33.6828 35.572H32.2906V37.8755H33.6828Z" fill="white"/>
<path d="M37.1233 41.0878C36.8745 40.9723 36.6652 40.7861 36.5212 40.5524C36.3773 40.3187 36.3051 40.0477 36.3137 39.7733C36.3045 39.5583 36.3484 39.3444 36.4415 39.1504C36.5345 38.9565 36.6739 38.7885 36.8473 38.6614C37.2436 38.3841 37.7195 38.2439 38.2027 38.2622C38.4546 38.2617 38.7057 38.2906 38.9509 38.3482C39.1349 38.3923 39.3122 38.4605 39.4784 38.5509V38.2806C39.4845 38.1287 39.4562 37.9775 39.3957 37.8381C39.3351 37.6988 39.2439 37.5749 39.1288 37.4759C38.882 37.2691 38.5671 37.1618 38.2456 37.1749C38.0053 37.173 37.7679 37.2277 37.5526 37.3346C37.3457 37.4358 37.1714 37.5934 37.0497 37.7892L36.4916 37.3653C36.6726 37.0985 36.9228 36.8862 37.2153 36.7511C37.532 36.5961 37.8809 36.5182 38.2334 36.5238C38.7553 36.4942 39.2687 36.6656 39.6685 37.0029C39.8442 37.1694 39.9817 37.372 40.0717 37.5968C40.1617 37.8216 40.202 38.0633 40.1898 38.3052V41.1431H39.4784V40.5288C39.3244 40.7625 39.1133 40.9528 38.8651 41.0817C38.6031 41.2354 38.3039 41.314 38.0003 41.3089C37.6945 41.3062 37.3939 41.2304 37.1233 41.0878ZM38.7669 40.4244C38.982 40.3 39.1616 40.1224 39.2883 39.9084C39.4158 39.6929 39.4816 39.4464 39.4784 39.1959C39.3182 39.0962 39.1448 39.0197 38.9632 38.9686C38.7519 38.9083 38.5328 38.8793 38.3131 38.8826C37.9846 38.8571 37.6575 38.9461 37.387 39.1344C37.2884 39.2126 37.2094 39.3127 37.1562 39.4268C37.103 39.5409 37.077 39.6658 37.0803 39.7917C37.0753 39.9086 37.0976 40.025 37.1455 40.1316C37.1935 40.2383 37.2657 40.3323 37.3563 40.406C37.5606 40.5608 37.8117 40.641 38.0678 40.6332C38.3157 40.6299 38.5577 40.5576 38.7669 40.4244Z" fill="white"/>
<path d="M41.1038 36.7019H41.8152V37.4391C41.9197 37.1786 42.1102 36.9618 42.3549 36.8248C42.7021 36.6256 43.1091 36.5581 43.5018 36.6344V37.3961C43.3688 37.3681 43.2329 37.3557 43.097 37.3592C42.9246 37.3539 42.753 37.3851 42.5934 37.4507C42.4338 37.5163 42.2899 37.6149 42.1709 37.7401C41.929 38.0087 41.8014 38.3614 41.8152 38.7229V41.18H41.1038V36.7019ZM45.6423 41.1616C45.4954 41.1116 45.3614 41.0298 45.2498 40.922C45.1353 40.811 45.0454 40.677 44.986 40.5289C44.9254 40.3531 44.8963 40.168 44.9002 39.9822V37.3162H44.1213V36.6405H44.9002V35.3936H45.6423V36.659H46.734V37.3162H45.6423V39.8102C45.6284 40.0068 45.6778 40.2027 45.7833 40.3691C45.8447 40.4356 45.9199 40.4877 46.0036 40.5217C46.0874 40.5557 46.1776 40.5707 46.2679 40.5657C46.4421 40.5644 46.6123 40.5133 46.7585 40.4183V41.1431C46.673 41.1857 46.5823 41.2166 46.4886 41.2353C46.3744 41.2465 46.2594 41.2465 46.1452 41.2353C45.976 41.251 45.8053 41.2344 45.6423 41.1861V41.1616Z" fill="white"/>
<path d="M47.5867 36.6589H48.2736V37.3162H48.3104C48.4573 37.0734 48.6699 36.8774 48.9237 36.751C49.1842 36.5985 49.4805 36.5179 49.7823 36.5176C50.0082 36.5038 50.2343 36.5383 50.4458 36.6188C50.6573 36.6993 50.8493 36.8239 51.009 36.9845C51.3073 37.3432 51.4586 37.8021 51.4321 38.2683V41.1369H50.69V38.3789C50.7061 38.2156 50.6876 38.0509 50.6359 37.8953C50.5841 37.7397 50.5001 37.5968 50.3895 37.4759C50.1657 37.2771 49.8723 37.1755 49.5738 37.1933C49.3431 37.1906 49.1175 37.2616 48.9298 37.396C48.7385 37.5324 48.5863 37.7167 48.4882 37.9304C48.3837 38.1447 48.3292 38.3799 48.3288 38.6184V41.1369H47.5867V36.6589Z" fill="white"/>
<path d="M53.3455 41.002C53.008 40.799 52.7339 40.5053 52.5544 40.1544C52.358 39.7751 52.2589 39.3529 52.2661 38.9258C52.2581 38.5007 52.3506 38.0798 52.536 37.6973C52.7045 37.3455 52.9653 37.0462 53.2903 36.8312C53.6247 36.6216 54.0122 36.5128 54.4066 36.5179C54.8069 36.507 55.2022 36.6092 55.5473 36.8127C55.8678 37.0054 56.1256 37.2871 56.2894 37.6236C56.4664 37.9932 56.5546 38.3992 56.547 38.8091C56.5578 38.8845 56.5578 38.961 56.547 39.0364H53.0143C53.0185 39.3417 53.1031 39.6405 53.2597 39.9025C53.3945 40.1244 53.5875 40.305 53.8178 40.4246C54.0348 40.541 54.277 40.6021 54.5231 40.6028C54.797 40.6064 55.0663 40.5322 55.2997 40.3886C55.5331 40.2451 55.721 40.0382 55.8417 39.7919L56.455 40.0991C56.2706 40.4515 55.998 40.75 55.6639 40.9652C55.2951 41.1893 54.8681 41.2984 54.4372 41.2785C54.0555 41.2829 53.6793 41.1877 53.3455 41.002ZM55.7988 38.4528C55.783 38.2578 55.7288 38.0678 55.6393 37.8938C55.537 37.6995 55.3845 37.5361 55.1977 37.4209C54.9628 37.2673 54.6871 37.1881 54.4066 37.1936C54.0777 37.1872 53.7591 37.3082 53.5173 37.5314C53.266 37.7688 53.0982 38.0813 53.0389 38.4221L55.7988 38.4528Z" fill="white"/>
<path d="M57.4303 36.6592H58.1417V37.3779H58.1785C58.2752 37.1221 58.4544 36.9059 58.6876 36.7636C58.9191 36.6054 59.1924 36.5199 59.4726 36.5179C59.6535 36.5113 59.8337 36.5449 60.0001 36.6162V37.4147C59.8089 37.3218 59.5992 37.2735 59.3868 37.2735C59.1681 37.2694 58.9537 37.3338 58.7735 37.4577C58.5901 37.5857 58.4406 37.7564 58.338 37.9553C58.2328 38.1649 58.1782 38.3964 58.1785 38.631V41.1372H57.4303V36.6592Z" fill="white"/>
</svg>
