<svg width="58" height="58" viewBox="0 0 58 58" fill="none" xmlns="http://www.w3.org/2000/svg">
<path d="M28.594 12.5513C25.4623 12.5513 22.401 13.4799 19.7971 15.2198C17.1932 16.9596 15.1637 19.4326 13.9653 22.3259C12.7669 25.2191 12.4533 28.4028 13.0643 31.4743C13.6752 34.5458 15.1833 37.3672 17.3977 39.5816C19.6121 41.796 22.4335 43.3041 25.505 43.915C28.5765 44.526 31.7601 44.2124 34.6534 43.014C37.5467 41.8155 40.0196 39.7861 41.7595 37.1822C43.4994 34.5783 44.428 31.5169 44.428 28.3853C44.428 24.1858 42.7598 20.1584 39.7903 17.1889C36.8209 14.2195 32.7935 12.5513 28.594 12.5513ZM26.3436 34.9451H21.9704V30.5719H26.3436V34.9451ZM35.09 30.5719H30.74V26.1987H26.3436V21.8255H35.09V26.1987V30.5719Z" fill="white"/>
<path d="M4.00195 36.998C4.55153 38.5638 5.25076 40.073 6.08995 41.5046L6.62355 41.1856C5.82678 39.8074 5.1626 38.3567 4.63995 36.853L4.00195 36.998Z" fill="white"/>
<path d="M28.594 2.95202C29.5766 2.95213 30.5584 3.00829 31.5346 3.12022L31.639 2.54022C30.629 2.40829 29.6124 2.3347 28.594 2.31982C27.6251 2.32206 26.657 2.37627 25.694 2.48222L25.8216 3.06222C26.7431 2.97644 27.6685 2.93965 28.594 2.95202Z" fill="white"/>
<path d="M50.054 42.0268L50.5702 42.3748C51.3971 41.0883 52.1057 39.7294 52.6871 38.3148L52.1071 38.1118C51.5391 39.4746 50.8521 40.7847 50.054 42.0268Z" fill="white"/>
<path d="M37.265 7.08769C37.585 7.0451 37.8876 6.91685 38.1408 6.71649C38.368 6.52772 38.5403 6.28131 38.6396 6.00309C38.7645 5.70116 38.7829 5.36568 38.6918 5.05189C38.6165 4.79342 38.4745 4.55936 38.28 4.37329C38.0279 4.14216 37.7583 3.9308 37.4738 3.74109C37.1896 3.54389 36.975 3.37569 36.8242 3.24809C36.6798 3.12548 36.5665 2.97045 36.4936 2.79569C36.4222 2.60895 36.4222 2.40243 36.4936 2.21569C36.5324 2.08384 36.6014 1.96282 36.695 1.86217C36.7886 1.76152 36.9043 1.68399 37.033 1.63569C37.3082 1.53502 37.6103 1.53502 37.8856 1.63569C38.1812 1.72224 38.4362 1.91146 38.6048 2.16929C38.6736 2.27648 38.7203 2.39633 38.7423 2.52182C38.7642 2.64731 38.7608 2.77592 38.7324 2.90009L39.556 3.19009C39.6148 2.9752 39.6272 2.75022 39.5922 2.53018C39.5572 2.31013 39.4756 2.1001 39.353 1.91409C39.0742 1.50282 38.6658 1.19658 38.193 1.04409C37.85 0.918675 37.4839 0.869202 37.12 0.89909C36.8047 0.921026 36.5025 1.03384 36.25 1.22389C36.0019 1.41618 35.8179 1.67904 35.7222 1.97789C35.5966 2.2687 35.5701 2.59274 35.6468 2.90009C35.7251 3.15658 35.8714 3.38707 36.0702 3.56709C36.3229 3.79397 36.5924 4.00143 36.8764 4.18769C37.1548 4.37909 37.3752 4.54149 37.5318 4.67489C37.6825 4.80353 37.7999 4.9667 37.874 5.15049C37.9448 5.33733 37.9448 5.54365 37.874 5.73049C37.829 5.86558 37.7532 5.98833 37.6525 6.089C37.5518 6.18968 37.4291 6.26551 37.294 6.31049C36.9914 6.42605 36.6569 6.42605 36.3544 6.31049C36.0358 6.22235 35.7636 6.01456 35.5946 5.73049C35.4653 5.48446 35.4323 5.19916 35.5018 4.93009L34.7246 4.64009C34.6294 4.94013 34.6294 5.26225 34.7246 5.56229C34.8089 5.87308 34.9752 6.15552 35.206 6.38009C35.4761 6.63864 35.7985 6.83639 36.1514 6.96009C36.5066 7.093 36.8889 7.13681 37.265 7.08769Z" fill="white"/>
<path d="M44.9152 6.3045C44.7515 6.00463 44.5164 5.74967 44.2308 5.5621C43.9659 5.38425 43.6648 5.26737 43.3492 5.2199C43.0584 5.17621 42.7612 5.21437 42.4908 5.3301L43.8074 3.3697L43.1462 2.8999L39.5328 8.2765L40.194 8.7173L41.673 6.5191C41.8834 6.16618 42.2222 5.90842 42.6184 5.7999C42.8007 5.76054 42.9894 5.76089 43.1715 5.80093C43.3537 5.84096 43.525 5.91973 43.674 6.0319C43.8258 6.12738 43.9558 6.25363 44.0557 6.40248C44.1556 6.55134 44.2232 6.7195 44.254 6.8961C44.2983 7.2921 44.1859 7.68972 43.9408 8.0039L42.427 10.2543L43.0766 10.6951L44.6542 8.3751C44.8844 8.05711 45.03 7.68593 45.0776 7.2963C45.1297 6.95685 45.0729 6.60961 44.9152 6.3045Z" fill="white"/>
<path d="M46.748 14.1984C47.145 14.3437 47.5742 14.3778 47.9892 14.297C48.4376 14.2042 48.8524 13.9918 49.1898 13.6822C49.5392 13.3913 49.8053 13.0131 49.9612 12.586C50.1033 12.1959 50.1315 11.7734 50.0424 11.368C49.9438 10.9497 49.745 10.5617 49.4631 10.2374C49.1812 9.91302 48.8246 9.66208 48.4242 9.50617C48.0307 9.36226 47.6051 9.33014 47.1946 9.41337C46.752 9.51272 46.3425 9.72446 46.0056 10.0282C45.6628 10.3239 45.3996 10.7007 45.24 11.1244C45.094 11.5133 45.0618 11.9358 45.1472 12.3424C45.2402 12.7595 45.4401 13.1452 45.7272 13.4618C46.0006 13.7887 46.3515 14.0419 46.748 14.1984ZM45.936 11.455C46.0624 11.1423 46.2612 10.864 46.516 10.643C46.7668 10.4107 47.0719 10.2452 47.4034 10.1616C47.6786 10.0975 47.9664 10.1136 48.2328 10.208C48.4954 10.3068 48.7289 10.4704 48.9114 10.6836C49.0996 10.8911 49.2331 11.1423 49.3 11.4144C49.3613 11.6945 49.3412 11.9863 49.242 12.2554C49.1207 12.5725 48.9212 12.8539 48.662 13.0732C48.4106 13.3043 48.1024 13.4644 47.7688 13.5372C47.4849 13.6001 47.1889 13.58 46.9162 13.4792C46.6542 13.3791 46.4211 13.2157 46.2376 13.0036C46.0525 12.7986 45.9245 12.5486 45.8664 12.2786C45.8064 12.0033 45.8306 11.7163 45.936 11.455Z" fill="white"/>
<path d="M46.458 18.206L49.3 16.8198C49.1138 17.0995 49.0056 17.4239 48.9868 17.7594C48.9597 18.1355 49.0338 18.512 49.2014 18.8498C49.3742 19.221 49.6474 19.5365 49.9902 19.7604C50.336 19.9857 50.7377 20.1102 51.1502 20.12C51.601 20.1292 52.0471 20.0276 52.4494 19.8242C52.8578 19.6416 53.2131 19.3582 53.4818 19.0006C53.7245 18.6786 53.8713 18.2946 53.9052 17.8928C53.9352 17.4934 53.8592 17.0933 53.6848 16.7328C53.5284 16.3845 53.2797 16.0857 52.9656 15.8686C52.6937 15.6754 52.3756 15.5574 52.0434 15.5264L52.838 15.1494L52.4958 14.4302L46.1158 17.481L46.458 18.206ZM49.619 17.597C49.6475 17.3154 49.7517 17.0468 49.9206 16.8198C50.1178 16.5558 50.3744 16.342 50.6697 16.1959C50.965 16.0498 51.2906 15.9754 51.62 15.9788C51.9124 15.9884 52.1961 16.0809 52.4378 16.2456C52.6725 16.4066 52.8606 16.6267 52.983 16.8836C53.1071 17.1416 53.163 17.4272 53.1454 17.713C53.126 18.0027 53.0233 18.2806 52.8496 18.5134C52.6468 18.7651 52.3861 18.9641 52.0898 19.0934C51.794 19.2444 51.4648 19.3182 51.1328 19.308C50.8408 19.3014 50.5569 19.2108 50.315 19.047C50.0788 18.8828 49.8906 18.6585 49.7698 18.3974C49.6493 18.1487 49.5973 17.8724 49.619 17.597Z" fill="white"/>
<path d="M51.9158 22.278C51.7355 22.3015 51.5621 22.362 51.4064 22.4559C51.2506 22.5497 51.116 22.6748 51.011 22.8232C50.8551 23.1492 50.8282 23.5221 50.9356 23.8672L51.0922 24.5632L51.7476 24.4124L51.62 23.8324C51.5551 23.6584 51.5551 23.4669 51.62 23.293C51.7321 23.1535 51.8947 23.0638 52.0724 23.0436L54.8274 22.4114L55.1058 23.6294L55.7438 23.4844L55.4654 22.2664L56.6254 21.9938L56.4514 21.2224L55.2914 21.4892L55.1522 20.9092L54.52 21.0426L54.6592 21.6226L51.9158 22.278Z" fill="white"/>
<path d="M53.447 26.4943L53.5108 30.3281H53.9922C54.3987 30.3262 54.7981 30.2204 55.1522 30.0207C55.4928 29.8298 55.7724 29.5462 55.9584 29.2029C56.1594 28.8369 56.2632 28.4256 56.26 28.0081C56.2603 27.5751 56.1484 27.1495 55.9352 26.7727C55.7277 26.4203 55.4238 26.1345 55.0594 25.9491C54.6484 25.7609 54.2003 25.6678 53.7484 25.6769C53.2965 25.6859 52.8525 25.7968 52.4494 26.0013C52.0878 26.2004 51.7901 26.498 51.591 26.8597C51.3912 27.2379 51.2932 27.6617 51.3068 28.0893C51.2975 28.6025 51.4586 29.1042 51.765 29.5161C52.054 29.8915 52.4637 30.1558 52.925 30.2643V29.4059C52.6357 29.3392 52.379 29.1729 52.2 28.9361C52.0296 28.6825 51.9406 28.3831 51.9448 28.0777C51.9355 27.876 51.9666 27.6745 52.0363 27.485C52.106 27.2955 52.2129 27.1219 52.3507 26.9744C52.4885 26.8268 52.6544 26.7083 52.8387 26.6259C53.023 26.5434 53.2219 26.4987 53.4238 26.4943H53.447ZM55.187 26.9583C55.4476 27.2361 55.591 27.6039 55.5872 27.9849C55.596 28.2488 55.5424 28.5112 55.4306 28.7505C55.3276 28.9868 55.1584 29.1883 54.9434 29.3305C54.7062 29.4706 54.4359 29.5447 54.1604 29.5451L54.114 26.5175C54.5092 26.5243 54.8869 26.682 55.1696 26.9583H55.187Z" fill="white"/>
<path d="M55.796 32.9962L55.9178 32.4162L55.2682 32.2886L55.1522 32.8976L52.3798 32.3524C52.2039 32.302 52.0197 32.2879 51.8383 32.3108C51.6568 32.3337 51.4819 32.3933 51.3242 32.4858C51.0521 32.7222 50.8767 33.0505 50.8312 33.408L50.6978 34.1098L51.359 34.2432L51.4692 33.6632C51.4851 33.4789 51.5725 33.3082 51.7128 33.1876C51.7897 33.1444 51.8747 33.1174 51.9625 33.1084C52.0503 33.0995 52.139 33.1086 52.2232 33.1354L54.9956 33.6806L54.7578 34.9102L55.4016 35.0378L55.6394 33.8082L56.7994 34.0402L56.9502 33.2572L55.796 32.9962Z" fill="white"/>
<path d="M45.4546 43.7377L47.2584 45.5415L46.429 46.3999C46.2102 46.5838 46.03 46.8092 45.8986 47.063C45.7672 47.3168 45.6873 47.5941 45.6634 47.8789C45.668 48.3563 45.8616 48.8124 46.2019 49.1472C46.5422 49.4821 47.0014 49.6684 47.4788 49.6653C48.0438 49.6079 48.5661 49.3385 48.9404 48.9113L50.3324 47.5135L46.023 43.2041L45.4546 43.7377ZM49.3 47.5889L48.4706 48.4183C47.8906 48.9983 47.3106 49.0679 46.7306 48.5343C46.6216 48.431 46.5357 48.3057 46.4787 48.1667C46.4218 48.0277 46.3949 47.8782 46.4 47.7281C46.445 47.3799 46.6188 47.0612 46.8872 46.8349L47.7166 46.0055L49.3 47.5889Z" fill="white"/>
<path d="M41.238 47.3397L42.6706 49.5147C43.2042 50.3267 43.0979 50.9763 42.3516 51.4635L42.1776 51.5795L42.63 52.2697C42.9112 52.0947 43.1412 51.8486 43.297 51.5563C43.4312 51.2893 43.4836 50.9888 43.4478 50.6921L43.877 51.3417L44.5382 50.9067L41.905 46.8989L41.238 47.3397Z" fill="white"/>
<path d="M39.1094 49.9265C38.7981 49.6549 38.4158 49.4778 38.0074 49.4161C37.5852 49.3599 37.1556 49.4139 36.7604 49.5727C36.2846 49.7473 35.8777 50.0707 35.6004 50.4949C35.3534 50.8913 35.2453 51.3585 35.293 51.8231L36.0934 51.5157C36.0803 51.2396 36.1577 50.9667 36.3138 50.7385C36.49 50.4905 36.7395 50.3038 37.0272 50.2049C37.2109 50.128 37.408 50.0884 37.6072 50.0884C37.8063 50.0884 38.0035 50.128 38.1872 50.2049C38.557 50.366 38.8486 50.6659 38.9992 51.0401L35.4264 52.4263C35.4679 52.5818 35.5183 52.7347 35.5772 52.8845C35.7176 53.2709 35.9553 53.6145 36.2674 53.8821C36.5651 54.1361 36.9295 54.2991 37.3172 54.3519C37.7361 54.4083 38.1625 54.3522 38.5526 54.1895C38.9571 54.0416 39.3167 53.7919 39.5966 53.4645C39.857 53.1484 40.0202 52.7636 40.0664 52.3567C40.1081 51.9083 40.0404 51.4566 39.8692 51.0401C39.7157 50.6099 39.454 50.2264 39.1094 49.9265ZM39.1616 52.8265C38.9909 53.1667 38.696 53.4283 38.338 53.5573C38.0929 53.6538 37.8292 53.6935 37.5666 53.6733C37.3153 53.6542 37.0752 53.5614 36.8764 53.4065C36.6597 53.2367 36.495 53.0097 36.4008 52.7511L39.2254 51.6549C39.354 52.0374 39.3312 52.4546 39.1616 52.8207V52.8265Z" fill="white"/>
<path d="M32.5207 51.0398L32.6193 53.6788C32.6613 54.0926 32.5453 54.507 32.2945 54.8388C32.1728 54.977 32.0228 55.0875 31.8547 55.1625C31.6865 55.2376 31.5042 55.2755 31.3201 55.2738C31.1422 55.2889 30.9632 55.2657 30.7951 55.2056C30.627 55.1456 30.4737 55.0502 30.3457 54.9258C30.0808 54.6301 29.9396 54.2439 29.9513 53.847L29.8469 51.1326L29.0581 51.1674L29.1625 53.8064C29.2045 54.2202 29.0885 54.6346 28.8377 54.9664C28.7171 55.1063 28.5674 55.2182 28.3991 55.2943C28.2308 55.3705 28.048 55.409 27.8633 55.4072C27.6863 55.4222 27.5081 55.3989 27.341 55.3389C27.1738 55.2788 27.0216 55.1834 26.8947 55.0592C26.6268 54.7626 26.4834 54.3741 26.4945 53.9746L26.3901 51.266H25.6071L25.7115 54.0906C25.7133 54.4836 25.8172 54.8693 26.0131 55.21C26.1777 55.4996 26.4265 55.7322 26.7265 55.877C27.0416 56.0244 27.3882 56.0922 27.7357 56.0742C28.0986 56.0624 28.4514 55.9522 28.7565 55.7552C29.0511 55.5618 29.2734 55.2763 29.3887 54.9432C29.5402 55.2689 29.7923 55.5372 30.1079 55.7088C30.44 55.8817 30.8127 55.9619 31.1867 55.9408C31.4916 55.9329 31.7901 55.8513 32.0567 55.703C32.3098 55.5682 32.5222 55.3679 32.6715 55.123V55.8132H33.4719L33.2863 51.0166L32.5207 51.0398Z" fill="white"/>
<path d="M22.2952 56.0337C22.1561 56.0062 22.0118 56.0346 21.8935 56.1128C21.7752 56.1909 21.6924 56.3125 21.663 56.4513C21.6456 56.5197 21.6423 56.591 21.6533 56.6608C21.6643 56.7306 21.6893 56.7974 21.7268 56.8573C21.7636 56.9173 21.8119 56.9695 21.8691 57.0106C21.9262 57.0517 21.9911 57.0809 22.0597 57.0966C22.1283 57.1122 22.1994 57.114 22.2688 57.1018C22.3381 57.0896 22.4043 57.0636 22.4634 57.0255C22.5253 56.9881 22.5788 56.9385 22.6207 56.8796C22.6626 56.8208 22.692 56.7539 22.707 56.6833C22.7337 56.5362 22.7025 56.3845 22.62 56.2599C22.5452 56.1452 22.4287 56.0641 22.2952 56.0337Z" fill="white"/>
<path d="M23.1517 50.5146L22.0907 55.1924L22.8656 55.3682L23.9267 50.6904L23.1517 50.5146Z" fill="white"/>
<path d="M20.4218 49.8802C20.1998 49.609 19.9151 49.396 19.5924 49.2596C19.3113 49.1293 19.0027 49.0695 18.6934 49.0856C18.4031 49.0969 18.1218 49.1893 17.8814 49.3524L18.1656 48.7028L17.4406 48.3838L15.4976 52.7802L16.24 53.0702L17.3072 50.6632C17.4479 50.2714 17.7347 49.9493 18.1076 49.7642C18.2806 49.696 18.466 49.6648 18.6519 49.6728C18.8377 49.6808 19.0198 49.7277 19.1864 49.8106C19.3565 49.8749 19.5108 49.975 19.6388 50.104C19.7669 50.2331 19.8658 50.3882 19.9288 50.5588C19.9879 50.7498 20.0087 50.9507 19.9897 51.1498C19.9708 51.3489 19.9126 51.5423 19.8186 51.7188L18.705 54.1722L19.4242 54.4912L20.5842 51.9218C20.7593 51.5615 20.8354 51.1612 20.8046 50.7618C20.7668 50.4366 20.6336 50.1298 20.4218 49.8802Z" fill="white"/>
<path d="M15.2831 47.119L13.4851 49.0562C13.2183 49.375 12.8416 49.582 12.4295 49.6362C12.2465 49.646 12.0635 49.6169 11.8926 49.5509C11.7217 49.4849 11.5666 49.3836 11.4377 49.2534C11.3074 49.1375 11.203 48.9955 11.1311 48.8366C11.0591 48.6778 11.0213 48.5056 11.0201 48.3312C11.0421 47.9335 11.2166 47.5596 11.5073 47.2872L13.3401 45.3036L12.7601 44.7642L10.9563 46.6956C10.6929 47.0185 10.3144 47.2265 9.90065 47.2756C9.71742 47.288 9.53368 47.2602 9.36235 47.1941C9.19101 47.128 9.03623 47.0251 8.90885 46.8928C8.7731 46.7788 8.66347 46.6369 8.58741 46.4768C8.51135 46.3167 8.47064 46.1421 8.46805 45.9648C8.49102 45.5657 8.66524 45.1903 8.95525 44.915L10.8055 42.9198L10.2255 42.3862L8.29405 44.451C8.01978 44.7294 7.82028 45.0726 7.71405 45.4486C7.61778 45.7683 7.61778 46.1092 7.71405 46.4288C7.8348 46.7562 8.03394 47.0489 8.29405 47.2814C8.55725 47.5316 8.88441 47.7042 9.23945 47.7802C9.58366 47.857 9.94378 47.8141 10.2603 47.6584C10.1404 48.0017 10.1383 48.3752 10.2545 48.7198C10.36 49.0761 10.5605 49.3968 10.8345 49.6478C11.0528 49.8597 11.3196 50.015 11.6117 50.1002C11.8924 50.1784 12.1893 50.1784 12.4701 50.1002L12.0003 50.6048L12.5803 51.15L15.8515 47.67L15.2831 47.119Z" fill="white"/>
<path d="M8.31143 31.7722L5.16783 32.0622C5.43755 31.8717 5.65497 31.6164 5.80003 31.3198C5.95337 30.974 6.01337 30.594 5.97403 30.2178C5.94012 29.8116 5.7957 29.4225 5.55643 29.0926C5.31245 28.7625 4.98094 28.5074 4.59943 28.356C4.18133 28.1913 3.72976 28.1297 3.28283 28.1762C2.83532 28.2097 2.40299 28.3531 2.02423 28.5938C1.68391 28.8145 1.41188 29.1257 1.23873 29.4925C1.06557 29.8593 0.998145 30.2672 1.04403 30.6702C1.06982 31.051 1.19808 31.4177 1.41523 31.7316C1.60731 32.0035 1.86457 32.2229 2.16343 32.3696L1.27603 32.4218L1.34563 33.2106L8.38683 32.5668L8.31143 31.7722ZM4.57623 31.8998C4.29877 32.0765 3.98202 32.1821 3.65403 32.2072C3.32833 32.2462 2.99812 32.1981 2.69703 32.068C2.42694 31.9571 2.19371 31.7721 2.02423 31.5344C1.85883 31.3004 1.76056 31.0256 1.74003 30.7398C1.70995 30.4545 1.75597 30.1663 1.87343 29.9046C1.99845 29.6371 2.20038 29.4129 2.45343 29.2608C2.7297 29.0816 3.0471 28.9758 3.37563 28.9534C3.70648 28.9146 4.04177 28.9605 4.35003 29.0868C4.62003 29.195 4.85347 29.3781 5.02283 29.6146C5.18667 29.8494 5.28479 30.1237 5.30703 30.4092C5.33712 30.6932 5.28898 30.98 5.16783 31.2386C5.03767 31.5109 4.83241 31.7403 4.57623 31.8998Z" fill="white"/>
<path d="M2.13435 25.7928C2.48901 26.0692 2.90816 26.2509 3.35235 26.3206C3.79316 26.4103 4.24923 26.3903 4.68055 26.2626C5.07236 26.1501 5.42428 25.9289 5.69555 25.6246C5.96436 25.3192 6.14482 24.9462 6.21755 24.5458C6.29355 24.1727 6.2675 23.786 6.14215 23.4264C6.0297 23.1047 5.82865 22.8212 5.56215 22.6086L6.43795 22.771L6.58875 21.9764L1.87335 21.1064L1.73995 21.8952L2.60995 22.0402C2.29507 22.1566 2.0182 22.3573 1.80955 22.6202C1.56425 22.9138 1.40381 23.2688 1.34555 23.6468C1.26792 24.0462 1.29999 24.4591 1.43835 24.8416C1.57865 25.2166 1.81944 25.5457 2.13435 25.7928ZM2.05315 23.6062C2.10535 23.3244 2.22919 23.0608 2.41275 22.8406C2.60255 22.6224 2.84969 22.4617 3.12615 22.3766C3.43977 22.2788 3.77321 22.2628 4.09475 22.3302C4.42138 22.3854 4.72982 22.5187 4.99375 22.7188C5.22378 22.8978 5.39703 23.1395 5.49255 23.4148C5.58918 23.6843 5.61122 23.9749 5.55635 24.2558C5.51441 24.5347 5.39821 24.7971 5.21995 25.0156C5.03015 25.2339 4.78302 25.3946 4.50655 25.4796C4.17376 25.5826 3.81983 25.5966 3.47995 25.5202C3.15656 25.4697 2.85126 25.338 2.59255 25.1374C2.36572 24.9579 2.19307 24.719 2.09375 24.4472C2.00733 24.1752 1.99333 23.8853 2.05315 23.6062Z" fill="white"/>
<path d="M7.59223 19.5458L5.22002 18.5134C4.33262 18.1306 4.06002 17.5332 4.41382 16.7096L4.50082 16.5182L3.74102 16.1934C3.60353 16.4945 3.54753 16.8265 3.57862 17.1562C3.60205 17.457 3.71519 17.7439 3.90342 17.9798L3.19002 17.6492L2.90002 18.38L7.27903 20.2998L7.59223 19.5458Z" fill="white"/>
<path d="M4.63996 14.6218L5.21996 14.9756L5.55636 14.4536L7.93436 15.9848C8.07772 16.0977 8.24316 16.1792 8.41999 16.2242C8.59681 16.2691 8.7811 16.2765 8.96096 16.2458C9.303 16.1304 9.58885 15.8901 9.76136 15.573L10.1442 14.993L9.56416 14.6334L9.27996 15.08C9.19532 15.2451 9.05284 15.3731 8.87976 15.4396C8.70096 15.4581 8.522 15.4061 8.38096 15.2946L6.00876 13.7634L6.65836 12.7601L6.07836 12.4062L5.42876 13.427L4.41376 12.7601L3.97876 13.4328L4.99376 14.0882L4.63996 14.6218Z" fill="white"/>
<path d="M11.542 13.2241L9.66863 11.3449C9.35224 11.0734 9.15623 10.6876 9.12343 10.2719C9.12118 10.0866 9.15828 9.90287 9.23226 9.7329C9.30625 9.56294 9.41544 9.4106 9.55263 9.28594C9.67427 9.15158 9.82291 9.04441 9.98883 8.97145C10.1547 8.89849 10.3342 8.86138 10.5154 8.86254C10.9122 8.89751 11.28 9.08455 11.542 9.38454L13.4618 11.3043L14.0418 10.7243L12.0408 8.72334C11.8578 8.51354 11.6336 8.34353 11.3822 8.22382C11.1308 8.1041 10.8575 8.03723 10.5792 8.02734C10.3128 8.03883 10.0515 8.1044 9.81117 8.22006C9.57087 8.33573 9.35661 8.49906 9.18143 8.70014C8.96506 8.91334 8.80039 9.17325 8.70003 9.45994C8.6021 9.73344 8.584 10.0291 8.64783 10.3125L8.15483 9.86014L7.57483 10.4401L10.962 13.8331L11.542 13.2241Z" fill="white"/>
<path d="M13.9199 7.7718C14.1395 8.1697 14.4569 8.50505 14.8421 8.7462C15.1891 8.96534 15.5918 9.08009 16.0021 9.0768C16.4276 9.06688 16.8432 8.94699 17.2085 8.7288C17.6599 8.48356 18.02 8.09907 18.2351 7.6326C18.4209 7.20445 18.4556 6.7259 18.3337 6.2754L17.5913 6.7046C17.6463 6.97503 17.6117 7.256 17.4927 7.505C17.3613 7.76633 17.1528 7.98095 16.8953 8.1198C16.5598 8.32822 16.1566 8.39888 15.7701 8.317C15.5675 8.2692 15.3765 8.1815 15.2082 8.059C15.0399 7.93651 14.8977 7.78169 14.7899 7.6036L18.1075 5.678C18.0321 5.5214 17.9625 5.3822 17.8871 5.2488C17.685 4.89071 17.3957 4.58947 17.0461 4.373C16.7119 4.17178 16.3284 4.06736 15.9383 4.0714C15.5159 4.08241 15.1038 4.20444 14.7435 4.4252C14.3667 4.63452 14.0509 4.93835 13.8271 5.3068C13.6191 5.6568 13.5183 6.0601 13.5371 6.4668C13.5529 6.92708 13.6846 7.37593 13.9199 7.7718ZM14.3433 5.8984C14.4673 5.52846 14.7319 5.22219 15.0799 5.0458C15.308 4.91057 15.5639 4.82923 15.8281 4.808C16.0798 4.78964 16.3315 4.844 16.5531 4.9646C16.7973 5.09939 16.9984 5.30045 17.1331 5.5446L14.4999 7.0642C14.3033 6.70876 14.2514 6.29118 14.3549 5.8984H14.3433Z" fill="white"/>
<path d="M20.5436 2.152C20.3428 2.37126 20.2134 2.64634 20.1724 2.9408L19.9288 2.2042L19.1748 2.4478L20.6538 7.0066L21.4078 6.763L20.6016 4.2806C20.3 3.3584 20.5784 2.761 21.46 2.4884L21.6572 2.4246L21.4078 1.6416C21.0775 1.72714 20.778 1.90404 20.5436 2.152Z" fill="white"/>
</svg>
