<svg id="sk" xmlns="http://www.w3.org/2000/svg" width="24" height="24" viewBox="0 0 24 24">
  <path id="Path_6" data-name="Path 6" d="M7.225,8H29.853A12,12,0,0,0,18.548,0H18.53A12,12,0,0,0,7.225,8Z" transform="translate(-6.539)" fill="#f3f4f5"/>
  <path id="Path_7" data-name="Path 7" d="M29.853,168.6H7.225a12,12,0,0,0,22.628,0Z" transform="translate(-6.539 -152.6)" fill="#ee1c25"/>
  <path id="Path_8" data-name="Path 8" d="M23.314,92.3a12.011,12.011,0,0,0,0-8H.686a12.011,12.011,0,0,0,0,8Z" transform="translate(0 -76.3)" fill="#0b4ea2"/>
  <path id="Path_9" data-name="Path 9" d="M137.493,99.277Z" transform="translate(-124.445 -89.856)" fill="#f3f4f5"/>
  <path id="Path_10" data-name="Path 10" d="M115.379,99.277Z" transform="translate(-104.429 -89.856)" fill="#f3f4f5"/>
  <path id="Path_11" data-name="Path 11" d="M117.374,91.325Z" transform="translate(-106.235 -82.658)" fill="#f3f4f5"/>
  <path id="Path_12" data-name="Path 12" d="M42.435,63.841c-2.412-1.162-5.863-3.468-5.863-8.03s.218-6.637.218-6.637H48.079s.218,2.075.218,6.637-3.45,6.868-5.863,8.03Z" transform="translate(-33.102 -44.508)" fill="#fff"/>
  <path id="Path_13" data-name="Path 13" d="M47.051,69.009c-2.213-1.066-5.379-3.182-5.379-7.367s.2-6.089.2-6.089H52.229s.2,1.9.2,6.089S49.264,67.943,47.051,69.009Z" transform="translate(-37.718 -50.282)" fill="#ee1c25"/>
  <path id="Path_14" data-name="Path 14" d="M67.515,65.187a8.614,8.614,0,0,0,2.809-.315s-.027.373-.027.806.027.807.027.807a9.04,9.04,0,0,0-2.809-.318v2.312h-.947V66.167a9.04,9.04,0,0,0-2.809.318s.027-.373.027-.807-.027-.806-.027-.806a8.614,8.614,0,0,0,2.809.315V63.735a6.642,6.642,0,0,0-2.223.319s.027-.373.027-.807-.027-.806-.027-.806a6.648,6.648,0,0,0,2.221.319,12.9,12.9,0,0,0-.3-2.078s.551.043.771.043.772-.043.772-.043a12.909,12.909,0,0,0-.3,2.078,6.64,6.64,0,0,0,2.22-.319s-.027.373-.027.806.027.806.027.806a6.642,6.642,0,0,0-2.223-.319v1.452Z" transform="translate(-57.708 -54.923)" fill="#fff"/>
  <path id="Path_15" data-name="Path 15" d="M57.252,140.2c-1.114,0-1.711,1.546-1.711,1.546a1.366,1.366,0,0,0-1.241-.733,1.749,1.749,0,0,0-1.357,1.054,10.225,10.225,0,0,0,4.308,3.556,10.227,10.227,0,0,0,4.31-3.556,1.75,1.75,0,0,0-1.357-1.054,1.369,1.369,0,0,0-1.242.733S58.366,140.2,57.252,140.2Z" transform="translate(-47.919 -126.895)" fill="#0b4ea2"/>
</svg>
