<svg width="90" height="90" viewBox="0 0 90 90" fill="none" xmlns="http://www.w3.org/2000/svg">
<g clip-path="url(#clip0_4876_26613)">
<path d="M45 0C20.1825 0 0 20.1825 0 45C0 69.8175 20.1825 90 45 90C69.8063 90 90 69.8175 90 45C90 20.1825 69.8175 0 45 0ZM4.545 45C4.545 39.1387 5.805 33.57 8.04375 28.53L27.3487 81.405C13.8488 74.8575 4.545 61.0087 4.545 45ZM45 85.455C41.0287 85.455 37.1925 84.87 33.57 83.8013L45.7087 48.5325L58.1513 82.6087C58.23 82.8112 58.3312 82.9912 58.4437 83.1712C54.2362 84.645 49.7137 85.455 45 85.455ZM50.58 26.0325C53.01 25.9087 55.215 25.65 55.215 25.65C57.3975 25.3912 57.1387 22.185 54.9562 22.32C54.9562 22.32 48.4087 22.8375 44.1675 22.8375C40.1963 22.8375 33.5137 22.32 33.5137 22.32C31.3312 22.1962 31.0837 25.5262 33.255 25.65C33.255 25.65 35.325 25.9087 37.4962 26.0325L43.7962 43.3012L34.9425 69.8512L20.2162 26.0325C22.6575 25.9087 24.8512 25.65 24.8512 25.65C27.0337 25.3912 26.775 22.185 24.5925 22.32C24.5925 22.32 18.045 22.8375 13.815 22.8375C13.05 22.8375 12.1612 22.815 11.2162 22.7925C18.4275 11.79 30.87 4.545 45 4.545C55.53 4.545 65.1263 8.5725 72.3262 15.165C72.1462 15.1537 71.9775 15.1312 71.7975 15.1312C67.8262 15.1312 65.0025 18.5963 65.0025 22.3088C65.0025 25.6388 66.9262 28.4625 68.9737 31.7925C70.515 34.4925 72.315 37.9462 72.315 42.9525C72.315 46.4175 70.9875 50.4338 69.2325 56.0363L65.1937 69.525L50.58 26.0325ZM65.34 79.9762L77.7038 44.2462C80.01 38.475 80.775 33.8512 80.775 29.745C80.775 28.26 80.6737 26.8762 80.505 25.5825C83.6662 31.3425 85.4662 37.9575 85.4662 45C85.455 59.9287 77.3662 72.9563 65.34 79.9762Z" fill="white"/>
</g>
<defs>
<clipPath id="clip0_4876_26613">
<rect width="90" height="90" fill="white"/>
</clipPath>
</defs>
</svg>
