<svg width="57" height="57" viewBox="0 0 57 57" fill="none" xmlns="http://www.w3.org/2000/svg">
<path d="M35.4308 22.9393C36.1171 22.9394 36.7794 23.1916 37.2919 23.6479C37.8045 24.1042 38.1316 24.7329 38.2112 25.4145L38.2308 25.7393V37.9697C38.2491 40.5229 37.2657 42.9815 35.4916 44.8177C33.7176 46.654 31.2943 47.7215 28.7419 47.7912C26.1896 47.8608 23.7117 46.927 21.8402 45.1902C19.9686 43.4534 18.8526 41.0521 18.7316 38.5017L18.7176 37.9697V25.7393C18.7177 25.0534 18.9695 24.3915 19.4252 23.879C19.881 23.3665 20.5089 23.0391 21.19 22.9589L21.5176 22.9393H35.4308ZM35.4308 25.7393H21.5148V37.9697C21.4972 39.7864 22.191 41.5379 23.4481 42.8497C24.7052 44.1614 26.4256 44.9292 28.2414 44.9888C30.0573 45.0484 31.8244 44.3952 33.1648 43.1687C34.5052 41.9423 35.3125 40.24 35.414 38.4261L35.4308 37.9697V25.7393ZM16.668 22.9393C16.2607 23.6423 16.0122 24.426 15.94 25.2353L15.9176 25.7393H8.94564V36.2113C8.94534 37.0794 9.16252 37.9338 9.57736 38.6963C9.9922 39.4589 10.5915 40.1055 11.3204 40.5769C12.0494 41.0483 12.8849 41.3296 13.7505 41.395C14.6162 41.4605 15.4845 41.3081 16.276 40.9517C16.5 41.8729 16.8248 42.7549 17.2392 43.5837C16.0602 44.0788 14.7796 44.284 13.5049 44.182C12.2302 44.08 10.9985 43.6738 9.91322 42.9975C8.82793 42.3211 7.92067 41.3943 7.26755 40.2949C6.61443 39.1955 6.2345 37.9555 6.15964 36.6789L6.14844 36.2085V25.7393C6.14853 25.0534 6.40031 24.3915 6.85604 23.879C7.31177 23.3665 7.93973 23.0391 8.62084 22.9589L8.94844 22.9393H16.668ZM40.2804 22.9393H48.0756C48.7619 22.9394 49.4242 23.1916 49.9367 23.6479C50.4493 24.1042 50.7764 24.7329 50.856 25.4145L50.8756 25.7393V36.2113C50.8764 37.5357 50.5482 38.8395 49.9203 40.0056C49.2925 41.1718 48.3848 42.1636 47.2787 42.8921C46.1727 43.6206 44.903 44.0629 43.5837 44.1792C42.2644 44.2955 40.9369 44.0822 39.7204 43.5585C40.1348 42.7241 40.4596 41.8421 40.6808 40.9181C41.4414 41.2729 42.2766 41.4383 43.1151 41.4C43.9535 41.3618 44.7702 41.121 45.4953 40.6983C46.2204 40.2757 46.8323 39.6836 47.2787 38.9729C47.7252 38.2622 47.9928 37.454 48.0588 36.6173L48.0756 36.2113V25.7393H41.0308L41.014 25.3221C40.9527 24.4826 40.7019 23.6679 40.2804 22.9393ZM28.4672 8.86926C30.1214 8.86926 31.7078 9.52637 32.8775 10.696C34.0471 11.8657 34.7042 13.4521 34.7042 15.1063C34.7042 16.7604 34.0471 18.3468 32.8775 19.5165C31.7078 20.6862 30.1214 21.3433 28.4672 21.3433C26.8131 21.3433 25.2267 20.6862 24.057 19.5165C22.8873 18.3468 22.2302 16.7604 22.2302 15.1063C22.2302 13.4521 22.8873 11.8657 24.057 10.696C25.2267 9.52637 26.8131 8.86926 28.4672 8.86926ZM42.4336 10.6277C43.8546 10.6277 45.2174 11.1921 46.2222 12.1969C47.227 13.2017 47.7914 14.5645 47.7914 15.9855C47.7914 17.4064 47.227 18.7692 46.2222 19.774C45.2174 20.7788 43.8546 21.3433 42.4336 21.3433C41.0127 21.3433 39.6499 20.7788 38.6451 19.774C37.6403 18.7692 37.0758 17.4064 37.0758 15.9855C37.0758 14.5645 37.6403 13.2017 38.6451 12.1969C39.6499 11.1921 41.0127 10.6277 42.4336 10.6277ZM14.5456 10.6277C15.9666 10.6277 17.3294 11.1921 18.3342 12.1969C19.339 13.2017 19.9034 14.5645 19.9034 15.9855C19.9034 17.4064 19.339 18.7692 18.3342 19.774C17.3294 20.7788 15.9666 21.3433 14.5456 21.3433C13.1247 21.3433 11.7619 20.7788 10.7571 19.774C9.75232 18.7692 9.18784 17.4064 9.18784 15.9855C9.18784 14.5645 9.75232 13.2017 10.7571 12.1969C11.7619 11.1921 13.1247 10.6277 14.5456 10.6277ZM28.4672 11.6693C27.5557 11.6693 26.6815 12.0314 26.0369 12.6759C25.3923 13.3205 25.0302 14.1947 25.0302 15.1063C25.0302 16.0178 25.3923 16.892 26.0369 17.5366C26.6815 18.1812 27.5557 18.5433 28.4672 18.5433C29.3788 18.5433 30.253 18.1812 30.8976 17.5366C31.5421 16.892 31.9042 16.0178 31.9042 15.1063C31.9042 14.1947 31.5421 13.3205 30.8976 12.6759C30.253 12.0314 29.3788 11.6693 28.4672 11.6693ZM42.4336 13.4277C41.7553 13.4277 41.1047 13.6971 40.625 14.1768C40.1453 14.6565 39.8758 15.3071 39.8758 15.9855C39.8758 16.6638 40.1453 17.3144 40.625 17.7941C41.1047 18.2738 41.7553 18.5433 42.4336 18.5433C43.112 18.5433 43.7626 18.2738 44.2423 17.7941C44.722 17.3144 44.9914 16.6638 44.9914 15.9855C44.9914 15.3071 44.722 14.6565 44.2423 14.1768C43.7626 13.6971 43.112 13.4277 42.4336 13.4277ZM14.5456 13.4277C13.8673 13.4277 13.2167 13.6971 12.737 14.1768C12.2573 14.6565 11.9878 15.3071 11.9878 15.9855C11.9878 16.6638 12.2573 17.3144 12.737 17.7941C13.2167 18.2738 13.8673 18.5433 14.5456 18.5433C15.224 18.5433 15.8746 18.2738 16.3543 17.7941C16.834 17.3144 17.1034 16.6638 17.1034 15.9855C17.1034 15.3071 16.834 14.6565 16.3543 14.1768C15.8746 13.6971 15.224 13.4277 14.5456 13.4277Z" fill="white"/>
</svg>
