<svg width="57" height="57" viewBox="0 0 57 57" fill="none" xmlns="http://www.w3.org/2000/svg">
<path d="M47.75 11V19.75H30.25V11H47.75ZM47.75 7.5H30.25C29.3217 7.5 28.4315 7.86875 27.7751 8.52513C27.1187 9.1815 26.75 10.0717 26.75 11V19.75C26.75 20.6783 27.1187 21.5685 27.7751 22.2249C28.4315 22.8813 29.3217 23.25 30.25 23.25H47.75C48.6783 23.25 49.5685 22.8813 50.2249 22.2249C50.8812 21.5685 51.25 20.6783 51.25 19.75V11C51.25 10.0717 50.8812 9.1815 50.2249 8.52513C49.5685 7.86875 48.6783 7.5 47.75 7.5ZM21.5 44.25H11V30.25H21.5V26.75H11C10.0717 26.75 9.1815 27.1187 8.52513 27.7751C7.86875 28.4315 7.5 29.3217 7.5 30.25V44.25C7.5 45.1783 7.86875 46.0685 8.52513 46.7249C9.1815 47.3812 10.0717 47.75 11 47.75H21.5V44.25ZM53 35.5H29.949L34.4745 30.9745L32 28.5L23.25 37.25L32 46L34.4745 43.5255L29.949 39H53V35.5ZM19.75 11V19.75H11V11H19.75ZM19.75 7.5H11C10.0717 7.5 9.1815 7.86875 8.52513 8.52513C7.86875 9.1815 7.5 10.0717 7.5 11V19.75C7.5 20.6783 7.86875 21.5685 8.52513 22.2249C9.1815 22.8813 10.0717 23.25 11 23.25H19.75C20.6783 23.25 21.5685 22.8813 22.2249 22.2249C22.8813 21.5685 23.25 20.6783 23.25 19.75V11C23.25 10.0717 22.8813 9.1815 22.2249 8.52513C21.5685 7.86875 20.6783 7.5 19.75 7.5Z" fill="white"/>
</svg>
