<svg width="49" height="48" viewBox="0 0 49 48" fill="none" xmlns="http://www.w3.org/2000/svg">
<path d="M38.0013 10C36.718 10 35.619 9.54269 34.7043 8.62803C33.7896 7.71336 33.3331 6.61514 33.3346 5.33336C33.3346 4.05002 33.792 2.95102 34.7066 2.03636C35.6213 1.12169 36.7195 0.665135 38.0013 0.666691C39.2846 0.666691 40.3836 1.12402 41.2983 2.03869C42.213 2.95336 42.6695 4.05158 42.668 5.33336C42.668 6.61669 42.2106 7.71569 41.296 8.63036C40.3813 9.54503 39.2831 10.0016 38.0013 10ZM35.668 47.3334V28.6667C35.668 27.1111 35.269 25.7111 34.471 24.4667C33.673 23.2222 32.6525 22.25 31.4096 21.55L33.4513 15.5417C33.7624 14.5695 34.3364 13.7917 35.1733 13.2084C36.0102 12.625 36.9529 12.3334 38.0013 12.3334C39.0513 12.3334 39.9947 12.625 40.8316 13.2084C41.6685 13.7917 42.2417 14.5695 42.5513 15.5417L48.5013 33.3334H42.668V47.3334H35.668ZM25.168 22.8334C24.1957 22.8334 23.369 22.4927 22.6876 21.8114C22.0063 21.13 21.6664 20.304 21.668 19.3334C21.668 18.3611 22.0086 17.5344 22.69 16.853C23.3713 16.1717 24.1973 15.8318 25.168 15.8334C26.1402 15.8334 26.967 16.174 27.6483 16.8554C28.3296 17.5367 28.6695 18.3627 28.668 19.3334C28.668 20.3056 28.3273 21.1324 27.646 21.8137C26.9646 22.495 26.1386 22.8349 25.168 22.8334ZM8.83463 10C7.5513 10 6.4523 9.54269 5.53763 8.62803C4.62297 7.71336 4.16641 6.61514 4.16797 5.33336C4.16797 4.05002 4.6253 2.95102 5.53997 2.03636C6.45463 1.12169 7.55286 0.665135 8.83463 0.666691C10.118 0.666691 11.217 1.12402 12.1316 2.03869C13.0463 2.95336 13.5029 4.05158 13.5013 5.33336C13.5013 6.61669 13.044 7.71569 12.1293 8.63036C11.2146 9.54503 10.1164 10.0016 8.83463 10ZM4.16797 47.3334V31H0.667969V17C0.667969 15.7167 1.1253 14.6177 2.03997 13.703C2.95464 12.7884 4.05286 12.3318 5.33464 12.3334H12.3346C13.618 12.3334 14.717 12.7907 15.6316 13.7054C16.5463 14.62 17.0029 15.7182 17.0013 17V31H13.5013V47.3334H4.16797ZM21.668 47.3334V38H19.3346V28.6667C19.3346 27.6945 19.6753 26.8677 20.3566 26.1864C21.038 25.505 21.864 25.1651 22.8346 25.1667H27.5013C28.4735 25.1667 29.3003 25.5074 29.9816 26.1887C30.663 26.87 31.0029 27.696 31.0013 28.6667V38H28.668V47.3334H21.668Z" fill="white"/>
</svg>
