<svg width="57" height="57" viewBox="0 0 57 57" fill="none" xmlns="http://www.w3.org/2000/svg">
<path d="M48.7209 42.5001H45.6098V39.389H47.1654V33.1668H40.9431V34.7223H37.832V31.6112C37.832 31.1987 37.9959 30.803 38.2877 30.5113C38.5794 30.2195 38.9751 30.0557 39.3876 30.0557H48.7209C49.1335 30.0557 49.5291 30.2195 49.8209 30.5113C50.1126 30.803 50.2765 31.1987 50.2765 31.6112V40.9446C50.2765 41.3571 50.1126 41.7527 49.8209 42.0445C49.5291 42.3362 49.1335 42.5001 48.7209 42.5001Z" fill="#C53D0D"/>
<path d="M40.9457 50.2778H31.6124C31.1999 50.2778 30.8042 50.1138 30.5125 49.8222C30.2207 49.5304 30.0568 49.1348 30.0568 48.7222V39.3889C30.0568 38.9763 30.2207 38.5806 30.5125 38.2889C30.8042 37.9972 31.1999 37.8334 31.6124 37.8334H40.9457C41.3583 37.8334 41.7539 37.9972 42.0457 38.2889C42.3374 38.5806 42.5013 38.9763 42.5013 39.3889V48.7222C42.5013 49.1348 42.3374 49.5304 42.0457 49.8222C41.7539 50.1138 41.3583 50.2778 40.9457 50.2778ZM33.168 47.1667H39.3902V40.9445H33.168V47.1667ZM26.9457 34.5014C25.8218 34.2084 24.8024 33.6062 24.0035 32.763C23.2045 31.9199 22.6581 30.8697 22.4261 29.7316C22.194 28.5934 22.2858 27.4131 22.6908 26.3245C23.096 25.2359 23.7981 24.2827 24.7177 23.5731C25.6374 22.8635 26.7374 22.4261 27.8932 22.3103C29.0489 22.1946 30.214 22.4052 31.256 22.9184C32.2981 23.4315 33.1754 24.2264 33.7883 25.2131C34.4012 26.1997 34.7252 27.3385 34.7235 28.5H37.8346C37.8364 26.7202 37.3293 24.9768 36.3729 23.4757C35.4167 21.9746 34.051 20.7782 32.4372 20.0277C30.8233 19.2771 29.0285 19.0037 27.2643 19.2396C25.5002 19.4754 23.8402 20.2109 22.4803 21.359C21.1203 22.5072 20.117 24.0203 19.5887 25.72C19.0603 27.4196 19.029 29.2349 19.4984 30.9517C19.9677 32.6686 20.9182 34.2154 22.2377 35.41C23.5572 36.6044 25.1908 37.3967 26.9457 37.6934V34.5014Z" fill="#C53D0D"/>
<path d="M48.5491 24.6888L44.9557 27.8466L42.7469 25.6377L46.4957 22.3399L42.8246 15.9933L37.4735 17.7977C36.2201 16.7543 34.8003 15.9288 33.2735 15.3555L32.1691 9.83328H24.8269L23.7224 15.3555C22.1833 15.9128 20.7559 16.7398 19.5069 17.7977L14.1713 15.9933L10.5002 22.3399L14.7313 26.0577C14.4435 27.668 14.4435 29.3164 14.7313 30.9266L10.5002 34.6599L14.1713 41.0066L19.5224 39.2022C20.7759 40.2456 22.1956 41.0711 23.7224 41.6444L24.8269 47.1666H26.9424V50.2777H24.8269C24.1075 50.2772 23.4105 50.0273 22.8546 49.5706C22.2987 49.114 21.9183 48.4789 21.778 47.7733L20.9846 43.8533C20.2804 43.5098 19.5996 43.1201 18.9469 42.6866L15.1669 43.9622C14.8454 44.0668 14.5093 44.1193 14.1713 44.1177C13.6248 44.1215 13.0873 43.9793 12.6143 43.7058C12.1411 43.4323 11.7497 43.0375 11.4802 42.5622L7.80908 36.2155C7.44599 35.5917 7.31106 34.8612 7.42742 34.1489C7.54377 33.4366 7.90415 32.7868 8.44685 32.3111L11.4335 29.6977C11.4024 29.2933 11.3869 28.9044 11.3869 28.4999C11.3869 28.0955 11.418 27.7066 11.4491 27.3177L8.44685 24.6888C7.90415 24.2131 7.54377 23.5633 7.42742 22.851C7.31106 22.1387 7.44599 21.4082 7.80908 20.7844L11.4802 14.4377C11.7497 13.9623 12.1411 13.5675 12.6143 13.2941C13.0873 13.0206 13.6248 12.8784 14.1713 12.8822C14.5093 12.8806 14.8454 12.9331 15.1669 13.0377L18.9313 14.3133C19.5894 13.8797 20.2753 13.49 20.9846 13.1466L21.778 9.22661C21.9183 8.52101 22.2987 7.88587 22.8546 7.42924C23.4105 6.97261 24.1075 6.72274 24.8269 6.72217H32.1691C32.8884 6.72274 33.5854 6.97261 34.1413 7.42924C34.6972 7.88587 35.0777 8.52101 35.218 9.22661L36.0113 13.1466C36.7156 13.4901 37.3963 13.8798 38.0491 14.3133L41.8291 13.0377C42.1505 12.9331 42.4866 12.8806 42.8246 12.8822C43.371 12.8784 43.9086 13.0206 44.3817 13.2941C44.8548 13.5675 45.2462 13.9623 45.5157 14.4377L49.1869 20.7844C49.5499 21.4082 49.6849 22.1387 49.5685 22.851C49.4522 23.5633 49.0917 24.2131 48.5491 24.6888Z" fill="#C53D0D"/>
</svg>
