<svg width="63" height="57" viewBox="0 0 63 57" fill="none" xmlns="http://www.w3.org/2000/svg">
<path d="M45.9399 51.8105C46.4044 52.0704 46.9719 52.0646 47.431 51.7954C47.8902 51.5261 48.1723 51.0337 48.1723 50.5015V36.3199C48.1723 35.7877 47.8903 35.2954 47.4312 35.0261C47.4271 35.0237 47.4229 35.0213 47.4187 35.0189L57.4084 29.424C57.8821 29.1587 58.1755 28.6581 58.1755 28.1152C58.1755 27.5723 57.8821 27.0718 57.4084 26.8065L47.1963 21.087C47.2768 21.057 47.3554 21.0198 47.4309 20.9755C47.8901 20.7063 48.1723 20.2139 48.1723 19.6815V5.5C48.1723 4.96776 47.8902 4.47538 47.4311 4.20612C46.972 3.93686 46.4046 3.93104 45.9401 4.19083L33.2657 11.2792C32.7916 11.5443 32.4979 12.045 32.4978 12.5881C32.4978 12.6837 32.5069 12.7779 32.5244 12.8698L22.6863 7.35976C22.2218 7.09961 21.6542 7.10517 21.1948 7.37437C20.7355 7.64358 20.4533 8.13608 20.4533 8.66848V18.3919C20.4533 18.6618 20.5258 18.9213 20.657 19.1466C20.2873 19.0463 19.8831 19.0885 19.5316 19.2851L6.1231 26.7867C5.64909 27.0519 5.35547 27.5526 5.35547 28.0958C5.35547 28.6389 5.64909 29.1397 6.1231 29.4048L19.5316 36.9064C19.8871 37.1053 20.3034 37.1488 20.6855 37.037C20.5364 37.2728 20.4533 37.5497 20.4533 37.8386V47.562C20.4533 48.0944 20.7355 48.5869 21.1948 48.8561C21.6542 49.1253 22.2218 49.1309 22.6863 48.8707L32.4933 43.3781C32.4931 43.3881 32.493 43.3981 32.493 43.408C32.4929 43.9513 32.7865 44.4521 33.2606 44.7173L45.9399 51.8105ZM35.1677 28.0957C35.1677 27.8613 35.113 27.6348 35.0127 27.4317L36.2321 28.1152L34.9842 28.8147C35.1026 28.5979 35.1677 28.3515 35.1677 28.0957Z" stroke="#CD1719" stroke-width="3" stroke-linejoin="round"/>
</svg>
