<svg width="57" height="57" viewBox="0 0 57 57" fill="none" xmlns="http://www.w3.org/2000/svg">
<path d="M49.4996 32H38.9996C38.0717 32.0009 37.182 32.37 36.5258 33.0261C35.8696 33.6823 35.5006 34.572 35.4996 35.5V39H25.7241L17.9996 31.2755V21.5H21.4996C22.4276 21.4991 23.3173 21.13 23.9735 20.4739C24.6297 19.8177 24.9987 18.928 24.9996 18V7.5C24.9987 6.57203 24.6297 5.68233 23.9735 5.02615C23.3173 4.36997 22.4276 4.00093 21.4996 4H10.9996C10.0717 4.00093 9.18195 4.36997 8.52578 5.02615C7.8696 5.68233 7.50055 6.57203 7.49963 7.5V18C7.50055 18.928 7.8696 19.8177 8.52578 20.4739C9.18195 21.13 10.0717 21.4991 10.9996 21.5H14.4996V31.2755L6.26238 39.5127C5.9343 39.8409 5.75 40.286 5.75 40.75C5.75 41.214 5.9343 41.6591 6.26238 41.9873L15.0124 50.7373C15.3406 51.0653 15.7856 51.2496 16.2496 51.2496C16.7137 51.2496 17.1587 51.0653 17.4869 50.7373L25.7241 42.5H35.4996V46C35.5006 46.928 35.8696 47.8177 36.5258 48.4739C37.182 49.13 38.0717 49.4991 38.9996 49.5H49.4996C50.4276 49.4991 51.3173 49.13 51.9735 48.4739C52.6297 47.8177 52.9987 46.928 52.9996 46V35.5C52.9987 34.572 52.6297 33.6823 51.9735 33.0261C51.3173 32.37 50.4276 32.0009 49.4996 32ZM10.9996 7.5H21.4996V18H10.9996V7.5ZM16.2496 47.0255L9.97413 40.75L16.2496 34.4745L22.5251 40.75L16.2496 47.0255ZM38.9996 46V35.5H49.4996V46H38.9996Z" fill="#CD1719"/>
</svg>
